<?xml version="1.0" encoding="utf-8" standalone="no"?>
<!DOCTYPE svg PUBLIC "-//W3C//DTD SVG 1.1//EN"
  "http://www.w3.org/Graphics/SVG/1.1/DTD/svg11.dtd">
<svg xmlns:xlink="http://www.w3.org/1999/xlink" width="464.76pt" height="151.630313pt" viewBox="0 0 464.76 151.630313" xmlns="http://www.w3.org/2000/svg" version="1.1">
 <metadata>
  <rdf:RDF xmlns:dc="http://purl.org/dc/elements/1.1/" xmlns:cc="http://creativecommons.org/ns#" xmlns:rdf="http://www.w3.org/1999/02/22-rdf-syntax-ns#">
   <cc:Work>
    <dc:type rdf:resource="http://purl.org/dc/dcmitype/StillImage"/>
    <dc:date>2026-06-21T01:54:35.572229</dc:date>
    <dc:format>image/svg+xml</dc:format>
    <dc:creator>
     <cc:Agent>
      <dc:title>Matplotlib v3.10.8, https://matplotlib.org/</dc:title>
     </cc:Agent>
    </dc:creator>
   </cc:Work>
  </rdf:RDF>
 </metadata>
 <defs>
  <style type="text/css">*{stroke-linejoin: round; stroke-linecap: butt}</style>
 </defs>
 <g id="figure_1">
  <g id="patch_1">
   <path d="M 0 151.630313 
L 464.76 151.630313 
L 464.76 0 
L 0 0 
z
" style="fill: #ffffff"/>
  </g>
  <g id="text_1">
   <!-- $A_i=\dfrac{r_i-\mathrm{mean}(r_1,\dots,r_G)}{\mathrm{std}(r_1,\dots,r_G)+\epsilon}$ -->
   <g transform="translate(140.67 29.52) scale(0.18 -0.18)">
    <defs>
     <path id="STIXGeneral-Italic-41" d="M 3610 0 
L 2042 0 
L 2042 102 
Q 2330 115 2432 192 
Q 2534 269 2534 442 
Q 2534 493 2522 608 
L 2394 1446 
L 986 1446 
L 608 736 
Q 467 474 467 314 
Q 467 122 864 102 
L 864 0 
L -326 0 
L -326 102 
Q -109 147 28 307 
Q 166 467 531 1101 
L 2355 4275 
L 2522 4275 
L 3110 736 
Q 3174 339 3264 230 
Q 3354 122 3610 102 
L 3610 0 
z
M 2362 1677 
L 2074 3360 
L 1120 1677 
L 2362 1677 
z
" transform="scale(0.015625)"/>
     <path id="STIXGeneral-Italic-69" d="M 1690 3834 
Q 1690 3699 1597 3603 
Q 1504 3507 1376 3507 
Q 1235 3507 1152 3600 
Q 1069 3693 1069 3846 
Q 1069 3994 1155 4090 
Q 1242 4186 1370 4186 
Q 1498 4186 1594 4080 
Q 1690 3974 1690 3834 
z
M 1421 730 
L 1504 659 
Q 1235 243 1049 86 
Q 864 -70 627 -70 
Q 314 -70 314 282 
Q 314 467 454 992 
L 762 2125 
Q 819 2330 819 2406 
Q 819 2502 745 2528 
Q 672 2554 410 2560 
L 410 2662 
Q 704 2688 1434 2822 
L 1459 2803 
L 858 608 
Q 794 390 794 326 
Q 794 230 883 230 
Q 1043 230 1421 730 
z
" transform="scale(0.015625)"/>
     <path id="STIXGeneral-Regular-3d" d="M 4077 2048 
L 307 2048 
L 307 2470 
L 4077 2470 
L 4077 2048 
z
M 4077 768 
L 307 768 
L 307 1190 
L 4077 1190 
L 4077 768 
z
" transform="scale(0.015625)"/>
     <path id="STIXGeneral-Italic-72" d="M 1126 1427 
L 1229 1651 
Q 1446 2131 1830 2534 
Q 2106 2822 2336 2822 
Q 2470 2822 2553 2732 
Q 2637 2643 2637 2496 
Q 2637 2349 2557 2249 
Q 2477 2150 2336 2150 
Q 2214 2150 2112 2317 
Q 2061 2406 2010 2406 
Q 1837 2406 1485 1805 
Q 1267 1434 1136 1104 
Q 1005 774 774 0 
L 288 0 
L 806 1869 
Q 909 2246 909 2394 
Q 909 2560 666 2560 
Q 614 2560 467 2541 
L 467 2650 
L 1459 2822 
L 1478 2810 
L 1126 1427 
z
" transform="scale(0.015625)"/>
     <path id="STIXGeneral-Regular-2212" d="M 3974 1408 
L 410 1408 
L 410 1830 
L 3974 1830 
L 3974 1408 
z
" transform="scale(0.015625)"/>
     <path id="STIXGeneral-Regular-6d" d="M 4960 0 
L 3565 0 
L 3565 96 
Q 3834 122 3907 208 
Q 3981 294 3981 576 
L 3981 1894 
Q 3981 2278 3869 2444 
Q 3757 2611 3488 2611 
Q 3264 2611 3107 2521 
Q 2950 2432 2803 2221 
L 2803 608 
Q 2803 301 2896 201 
Q 2989 102 3264 96 
L 3264 0 
L 1830 0 
L 1830 96 
Q 2112 115 2189 188 
Q 2266 262 2266 550 
L 2266 1901 
Q 2266 2611 1850 2611 
Q 1670 2611 1468 2531 
Q 1267 2451 1171 2336 
Q 1088 2240 1088 2227 
L 1088 448 
Q 1088 243 1177 176 
Q 1267 109 1523 96 
L 1523 0 
L 102 0 
L 102 96 
Q 371 102 460 195 
Q 550 288 550 563 
L 550 2150 
Q 550 2387 499 2480 
Q 448 2573 326 2573 
Q 230 2573 122 2547 
L 122 2656 
Q 557 2778 1011 2944 
L 1062 2925 
L 1062 2451 
L 1075 2451 
Q 1363 2752 1584 2848 
Q 1805 2944 2054 2944 
Q 2560 2944 2733 2406 
Q 3232 2944 3776 2944 
Q 4518 2944 4518 1792 
L 4518 493 
Q 4518 282 4582 202 
Q 4646 122 4794 109 
L 4960 96 
L 4960 0 
z
" transform="scale(0.015625)"/>
     <path id="STIXGeneral-Regular-65" d="M 2611 1050 
L 2714 1005 
Q 2330 -64 1376 -64 
Q 813 -64 486 329 
Q 160 723 160 1389 
Q 160 2074 525 2509 
Q 890 2944 1485 2944 
Q 2061 2944 2374 2502 
Q 2560 2246 2592 1773 
L 621 1773 
Q 646 1370 700 1158 
Q 755 947 915 730 
Q 1184 378 1626 378 
Q 1939 378 2153 531 
Q 2368 685 2611 1050 
z
M 634 1978 
L 1939 1978 
Q 1882 2381 1750 2547 
Q 1619 2714 1312 2714 
Q 1043 2714 864 2525 
Q 685 2336 634 1978 
z
" transform="scale(0.015625)"/>
     <path id="STIXGeneral-Regular-61" d="M 2829 422 
L 2829 243 
Q 2586 -64 2253 -64 
Q 1888 -64 1843 403 
L 1837 403 
Q 1427 -64 909 -64 
Q 608 -64 422 112 
Q 237 288 237 602 
Q 237 1050 685 1350 
Q 992 1555 1837 1869 
L 1837 2214 
Q 1837 2502 1699 2646 
Q 1562 2790 1338 2790 
Q 1146 2790 1018 2697 
Q 890 2605 890 2477 
Q 890 2419 909 2348 
Q 928 2278 928 2208 
Q 928 2112 841 2029 
Q 755 1946 634 1946 
Q 525 1946 441 2029 
Q 358 2112 358 2240 
Q 358 2547 685 2752 
Q 986 2944 1421 2944 
Q 1939 2944 2176 2656 
Q 2291 2522 2323 2384 
Q 2355 2246 2355 1946 
L 2355 723 
Q 2355 301 2554 301 
Q 2682 301 2829 422 
z
M 1837 813 
L 1837 1715 
Q 1248 1510 1018 1293 
Q 800 1094 800 800 
Q 800 557 921 432 
Q 1043 307 1242 307 
Q 1453 307 1613 410 
Q 1747 506 1792 589 
Q 1837 672 1837 813 
z
" transform="scale(0.015625)"/>
     <path id="STIXGeneral-Regular-6e" d="M 3104 0 
L 1773 0 
L 1779 96 
Q 2016 115 2096 233 
Q 2176 352 2176 672 
L 2176 1946 
Q 2176 2592 1709 2592 
Q 1549 2592 1408 2515 
Q 1267 2438 1050 2227 
L 1050 461 
Q 1050 269 1136 192 
Q 1222 115 1466 96 
L 1466 0 
L 115 0 
L 115 96 
Q 358 115 435 214 
Q 512 314 512 602 
L 512 2157 
Q 512 2394 467 2483 
Q 422 2573 288 2573 
Q 160 2573 102 2547 
L 102 2656 
Q 550 2784 979 2944 
L 1030 2925 
L 1030 2426 
L 1037 2426 
Q 1491 2944 1958 2944 
Q 2323 2944 2518 2688 
Q 2714 2432 2714 1958 
L 2714 544 
Q 2714 288 2790 205 
Q 2867 122 3104 96 
L 3104 0 
z
" transform="scale(0.015625)"/>
     <path id="STIXGeneral-Regular-28" d="M 1946 -1030 
L 1869 -1133 
Q 1126 -710 716 32 
Q 307 774 307 1613 
Q 307 3386 1888 4326 
L 1946 4224 
Q 1293 3667 1075 3126 
Q 858 2586 858 1632 
Q 858 685 1082 96 
Q 1306 -493 1946 -1030 
z
" transform="scale(0.015625)"/>
     <path id="STIXGeneral-Regular-31" d="M 2522 0 
L 755 0 
L 755 96 
Q 1107 115 1235 227 
Q 1363 339 1363 608 
L 1363 3482 
Q 1363 3795 1171 3795 
Q 1082 3795 883 3718 
L 710 3654 
L 710 3744 
L 1856 4326 
L 1914 4307 
L 1914 486 
Q 1914 275 2042 185 
Q 2170 96 2522 96 
L 2522 0 
z
" transform="scale(0.015625)"/>
     <path id="STIXGeneral-Regular-2c" d="M 531 -902 
L 467 -781 
Q 998 -422 998 -96 
Q 998 -13 909 -13 
Q 883 -13 822 -25 
Q 762 -38 723 -38 
Q 352 -38 352 288 
Q 352 454 457 553 
Q 563 653 736 653 
Q 954 653 1101 496 
Q 1248 339 1248 96 
Q 1248 -198 1053 -473 
Q 858 -749 531 -902 
z
" transform="scale(0.015625)"/>
     <path id="STIXGeneral-Regular-2026" d="M 5683 275 
Q 5683 134 5577 32 
Q 5472 -70 5325 -70 
Q 5178 -70 5075 32 
Q 4973 134 4973 281 
Q 4973 429 5078 534 
Q 5184 640 5331 640 
Q 5472 640 5577 531 
Q 5683 422 5683 275 
z
M 3552 275 
Q 3552 134 3446 32 
Q 3341 -70 3193 -70 
Q 3046 -70 2944 32 
Q 2842 134 2842 281 
Q 2842 429 2947 534 
Q 3053 640 3200 640 
Q 3341 640 3446 531 
Q 3552 422 3552 275 
z
M 1421 275 
Q 1421 134 1315 32 
Q 1210 -70 1062 -70 
Q 915 -70 812 32 
Q 710 134 710 281 
Q 710 429 816 534 
Q 922 640 1069 640 
Q 1210 640 1315 531 
Q 1421 422 1421 275 
z
" transform="scale(0.015625)"/>
     <path id="STIXGeneral-Italic-47" d="M 4621 2042 
L 4621 1939 
Q 4307 1920 4188 1833 
Q 4070 1747 4000 1478 
L 3686 282 
Q 2976 -115 2170 -115 
Q 1293 -115 806 371 
Q 582 595 457 934 
Q 333 1274 333 1606 
Q 333 2266 653 2848 
Q 973 3430 1504 3802 
Q 2170 4262 2912 4262 
Q 3373 4262 3770 4109 
Q 3936 4045 4051 4045 
Q 4282 4045 4435 4262 
L 4531 4230 
L 4218 2970 
L 4102 2989 
Q 4083 3398 3866 3667 
Q 3558 4045 2963 4045 
Q 2214 4045 1715 3411 
Q 1395 3008 1216 2496 
Q 1037 1984 1037 1459 
Q 1037 826 1376 474 
Q 1715 122 2330 122 
Q 2784 122 3002 339 
Q 3059 397 3104 509 
Q 3149 621 3251 986 
Q 3418 1542 3418 1709 
Q 3418 1894 3117 1920 
L 2912 1939 
L 2912 2042 
L 4621 2042 
z
" transform="scale(0.015625)"/>
     <path id="STIXGeneral-Regular-29" d="M 186 4224 
L 262 4326 
Q 992 3891 1408 3148 
Q 1824 2406 1824 1581 
Q 1824 -166 243 -1133 
L 186 -1030 
Q 845 -486 1059 54 
Q 1274 595 1274 1562 
Q 1274 2534 1059 3120 
Q 845 3706 186 4224 
z
" transform="scale(0.015625)"/>
     <path id="STIXGeneral-Regular-73" d="M 998 1926 
L 1664 1523 
Q 1984 1331 2105 1164 
Q 2227 998 2227 736 
Q 2227 416 1961 176 
Q 1696 -64 1331 -64 
Q 1030 -64 864 -6 
Q 691 51 570 51 
Q 461 51 416 -26 
L 333 -26 
L 333 979 
L 435 979 
Q 538 512 730 294 
Q 922 77 1248 77 
Q 1485 77 1632 211 
Q 1779 346 1779 550 
Q 1779 845 1440 1030 
L 1094 1222 
Q 326 1651 326 2150 
Q 326 2522 566 2730 
Q 806 2938 1210 2938 
Q 1491 2938 1638 2867 
Q 1754 2816 1818 2816 
Q 1862 2816 1920 2880 
L 1990 2880 
L 2022 2010 
L 1926 2010 
Q 1818 2445 1654 2621 
Q 1491 2797 1203 2797 
Q 986 2797 854 2688 
Q 723 2579 723 2362 
Q 723 2253 796 2128 
Q 870 2003 998 1926 
z
" transform="scale(0.015625)"/>
     <path id="STIXGeneral-Regular-74" d="M 1702 493 
L 1786 422 
Q 1478 -64 1011 -64 
Q 448 -64 448 749 
L 448 2675 
L 109 2675 
Q 83 2694 83 2720 
Q 83 2771 192 2842 
Q 435 2982 813 3526 
Q 826 3546 874 3606 
Q 922 3667 941 3706 
Q 986 3706 986 3622 
L 986 2880 
L 1632 2880 
L 1632 2675 
L 986 2675 
L 986 845 
Q 986 538 1062 403 
Q 1139 269 1318 269 
Q 1510 269 1702 493 
z
" transform="scale(0.015625)"/>
     <path id="STIXGeneral-Regular-64" d="M 3142 269 
L 2202 -64 
L 2176 -45 
L 2176 365 
Q 1869 -64 1357 -64 
Q 826 -64 499 317 
Q 173 698 173 1312 
Q 173 1990 563 2467 
Q 954 2944 1504 2944 
Q 1850 2944 2176 2669 
L 2176 3667 
Q 2176 3866 2118 3930 
Q 2061 3994 1882 3994 
Q 1792 3994 1741 3987 
L 1741 4090 
Q 2323 4243 2682 4371 
L 2714 4358 
L 2714 730 
Q 2714 506 2768 435 
Q 2822 365 2995 365 
Q 3034 365 3142 371 
L 3142 269 
z
M 2176 653 
L 2176 2125 
Q 2176 2381 1981 2573 
Q 1786 2765 1523 2765 
Q 1158 2765 940 2438 
Q 723 2112 723 1568 
Q 723 979 963 624 
Q 1203 269 1606 269 
Q 1907 269 2080 474 
Q 2176 582 2176 653 
z
" transform="scale(0.015625)"/>
     <path id="STIXGeneral-Regular-2b" d="M 4070 1408 
L 2400 1408 
L 2400 -262 
L 1978 -262 
L 1978 1408 
L 307 1408 
L 307 1830 
L 1978 1830 
L 1978 3501 
L 2400 3501 
L 2400 1830 
L 4070 1830 
L 4070 1408 
z
" transform="scale(0.015625)"/>
     <path id="STIXGeneral-Italic-3b5" d="M 2304 627 
L 2406 563 
Q 1907 -70 1133 -70 
Q 192 -70 192 640 
Q 192 928 403 1158 
Q 614 1389 934 1472 
Q 774 1498 684 1616 
Q 595 1734 595 1882 
Q 602 2266 995 2544 
Q 1389 2822 2029 2822 
Q 2336 2822 2528 2672 
Q 2720 2522 2720 2291 
Q 2720 2163 2617 2080 
Q 2515 1997 2413 1997 
Q 2298 1997 2230 2067 
Q 2163 2138 2163 2253 
Q 2163 2317 2211 2409 
Q 2259 2502 2259 2560 
Q 2259 2688 2022 2688 
Q 1683 2688 1401 2496 
Q 1120 2304 1120 1907 
Q 1120 1741 1251 1654 
Q 1382 1568 1594 1568 
Q 1613 1568 1728 1590 
Q 1843 1613 1932 1613 
Q 2022 1613 2086 1574 
Q 2150 1536 2150 1478 
Q 2150 1306 1862 1306 
Q 1805 1306 1721 1334 
Q 1638 1363 1568 1363 
Q 1286 1363 1014 1184 
Q 742 1005 742 678 
Q 742 410 908 285 
Q 1075 160 1312 160 
Q 1869 160 2304 627 
z
" transform="scale(0.015625)"/>
    </defs>
    <use xlink:href="#STIXGeneral-Italic-41" transform="translate(0 0.90625)"/>
    <use xlink:href="#STIXGeneral-Italic-69" transform="translate(61.099991 -12.321875) scale(0.7)"/>
    <use xlink:href="#STIXGeneral-Regular-3d" transform="translate(99.409354 0.90625)"/>
    <use xlink:href="#STIXGeneral-Italic-72" transform="translate(182.349335 56.40625)"/>
    <use xlink:href="#STIXGeneral-Italic-69" transform="translate(221.249329 43.178125) scale(0.7)"/>
    <use xlink:href="#STIXGeneral-Regular-2212" transform="translate(259.558691 56.40625)"/>
    <use xlink:href="#STIXGeneral-Regular-6d" transform="translate(342.498672 56.40625)"/>
    <use xlink:href="#STIXGeneral-Regular-65" transform="translate(420.29866 56.40625)"/>
    <use xlink:href="#STIXGeneral-Regular-61" transform="translate(464.698654 56.40625)"/>
    <use xlink:href="#STIXGeneral-Regular-6e" transform="translate(509.098648 56.40625)"/>
    <use xlink:href="#STIXGeneral-Regular-28" transform="translate(559.098633 56.40625)"/>
    <use xlink:href="#STIXGeneral-Italic-72" transform="translate(592.398621 56.40625)"/>
    <use xlink:href="#STIXGeneral-Regular-31" transform="translate(631.298615 43.178125) scale(0.7)"/>
    <use xlink:href="#STIXGeneral-Regular-2c" transform="translate(670.707979 56.40625)"/>
    <use xlink:href="#STIXGeneral-Regular-2026" transform="translate(724.587956 56.40625)"/>
    <use xlink:href="#STIXGeneral-Regular-2c" transform="translate(839.027937 56.40625)"/>
    <use xlink:href="#STIXGeneral-Italic-72" transform="translate(878.467918 56.40625)"/>
    <use xlink:href="#STIXGeneral-Italic-47" transform="translate(917.367912 43.178125) scale(0.7)"/>
    <use xlink:href="#STIXGeneral-Regular-29" transform="translate(972.317274 56.40625)"/>
    <use xlink:href="#STIXGeneral-Regular-73" transform="translate(241.349335 -60.84375)"/>
    <use xlink:href="#STIXGeneral-Regular-74" transform="translate(280.249329 -60.84375)"/>
    <use xlink:href="#STIXGeneral-Regular-64" transform="translate(308.049316 -60.84375)"/>
    <use xlink:href="#STIXGeneral-Regular-28" transform="translate(358.049301 -60.84375)"/>
    <use xlink:href="#STIXGeneral-Italic-72" transform="translate(391.349289 -60.84375)"/>
    <use xlink:href="#STIXGeneral-Regular-31" transform="translate(430.249283 -74.071875) scale(0.7)"/>
    <use xlink:href="#STIXGeneral-Regular-2c" transform="translate(469.658647 -60.84375)"/>
    <use xlink:href="#STIXGeneral-Regular-2026" transform="translate(523.538625 -60.84375)"/>
    <use xlink:href="#STIXGeneral-Regular-2c" transform="translate(637.978606 -60.84375)"/>
    <use xlink:href="#STIXGeneral-Italic-72" transform="translate(677.418587 -60.84375)"/>
    <use xlink:href="#STIXGeneral-Italic-47" transform="translate(716.318581 -74.071875) scale(0.7)"/>
    <use xlink:href="#STIXGeneral-Regular-29" transform="translate(771.267943 -60.84375)"/>
    <use xlink:href="#STIXGeneral-Regular-2b" transform="translate(819.007927 -60.84375)"/>
    <use xlink:href="#STIXGeneral-Italic-3b5" transform="translate(901.947908 -60.84375)"/>
    <path d="M 182.349335 13.703125 
L 182.349335 19.953125 
L 1005.617262 19.953125 
L 1005.617262 13.703125 
L 182.349335 13.703125 
z
"/>
   </g>
  </g>
  <g id="text_2">
   <!-- $\mathcal{J}(\theta)=\mathbb{E}\!\left[\dfrac{1}{G}\sum_{i}\min\!\left(\rho_i A_i,\ \mathrm{clip}(\rho_i,1-\varepsilon,1+\varepsilon)\,A_i\right)\right]-\beta\,\mathrm{KL}\!\left(\pi_\theta\,\Vert\,\pi_{\mathrm{ref}}\right)$ -->
   <g transform="translate(7.2 81.9) scale(0.18 -0.18)">
    <defs>
     <path id="STIXNonUnicode-Italic-e236" d="M 5024 4237 
L 4966 4083 
Q 4570 4083 4387 3929 
Q 4205 3776 4096 3411 
L 3290 595 
Q 3091 -83 2614 -425 
Q 2138 -768 1472 -768 
Q 922 -768 560 -537 
Q 198 -307 198 96 
Q 198 339 342 508 
Q 486 678 698 678 
Q 858 678 947 582 
Q 1037 486 1037 326 
Q 1037 179 921 60 
Q 806 -58 806 -96 
Q 806 -512 1510 -512 
Q 1702 -512 1859 -454 
Q 2016 -397 2141 -259 
Q 2266 -122 2349 -6 
Q 2432 109 2515 342 
Q 2598 576 2640 697 
Q 2682 819 2755 1100 
Q 2829 1382 2854 1472 
L 3450 3533 
Q 3475 3610 3475 3686 
Q 3475 3968 3059 3968 
Q 2099 3968 1491 2733 
L 1312 2733 
Q 1901 4237 3200 4237 
L 5024 4237 
z
" transform="scale(0.015625)"/>
     <path id="STIXGeneral-Italic-3b8" d="M 3162 3270 
Q 3162 2534 2925 1862 
Q 2688 1190 2304 678 
Q 1741 -70 992 -70 
Q 608 -70 390 224 
Q 173 518 173 1030 
Q 173 1997 592 2813 
Q 1011 3629 1594 4070 
Q 1952 4339 2374 4339 
Q 2733 4339 2947 4076 
Q 3162 3814 3162 3270 
z
M 941 2221 
L 2432 2221 
Q 2624 2874 2624 3533 
Q 2624 4205 2285 4205 
Q 2029 4205 1728 3814 
Q 1427 3424 1232 2992 
Q 1037 2560 941 2221 
z
M 2387 2016 
L 896 2016 
Q 710 1530 710 960 
Q 710 64 1069 64 
Q 1286 64 1510 275 
Q 1734 486 1904 806 
Q 2074 1126 2198 1440 
Q 2323 1754 2387 2016 
z
" transform="scale(0.015625)"/>
     <path id="STIXNonUnicode-Italic-e156" d="M 4250 4179 
L 4192 3942 
L 2150 3942 
L 1709 2266 
L 3514 2266 
L 3443 2029 
L 1645 2029 
L 1165 237 
L 3443 237 
L 3392 0 
L 109 0 
L 1229 4179 
L 4250 4179 
z
M 1914 3942 
L 1414 3942 
L 416 237 
L 928 237 
L 1914 3942 
z
" transform="scale(0.015625)"/>
     <path id="STIXSizeThreeSym-Regular-5b" d="M 3142 12941 
L 2048 12941 
L 2048 -2240 
L 3136 -2240 
L 3136 -2522 
L 1440 -2522 
L 1440 13222 
L 3142 13222 
L 3142 12941 
z
" transform="scale(0.015625)"/>
     <path id="STIXGeneral-Regular-2211" d="M 5478 256 
L 5139 -1658 
L 371 -1658 
L 2880 1606 
L 531 4883 
L 5312 4883 
L 5312 3277 
L 5120 3277 
Q 5018 3949 4765 4205 
Q 4512 4461 3891 4461 
L 1843 4461 
L 3699 1958 
L 1549 -819 
L 4198 -819 
Q 4698 -819 4934 -550 
Q 5171 -282 5286 256 
L 5478 256 
z
" transform="scale(0.015625)"/>
     <path id="STIXGeneral-Regular-69" d="M 1152 4045 
Q 1152 3904 1056 3811 
Q 960 3718 819 3718 
Q 685 3718 592 3811 
Q 499 3904 499 4045 
Q 499 4179 595 4275 
Q 691 4371 826 4371 
Q 966 4371 1059 4275 
Q 1152 4179 1152 4045 
z
M 1619 0 
L 102 0 
L 102 96 
Q 435 115 521 211 
Q 608 307 608 666 
L 608 2118 
Q 608 2342 563 2432 
Q 518 2522 397 2522 
Q 243 2522 128 2490 
L 128 2592 
L 1120 2944 
L 1146 2918 
L 1146 672 
Q 1146 314 1226 218 
Q 1306 122 1619 96 
L 1619 0 
z
" transform="scale(0.015625)"/>
     <path id="STIXGeneral-Italic-3c1" d="M -58 -864 
L 422 966 
Q 640 1811 1081 2316 
Q 1523 2822 2042 2822 
Q 2189 2822 2278 2816 
Q 2368 2810 2525 2765 
Q 2682 2720 2774 2633 
Q 2867 2547 2940 2371 
Q 3014 2195 3014 1946 
Q 3014 1210 2403 570 
Q 1792 -70 1107 -70 
Q 864 -70 672 38 
L 442 -864 
Q 378 -1126 243 -1312 
L -256 -1312 
Q -128 -1114 -58 -864 
z
M 2445 1997 
Q 2445 2291 2333 2489 
Q 2221 2688 2022 2688 
Q 1747 2688 1472 2361 
Q 1197 2035 1056 1530 
Q 762 467 762 288 
Q 762 186 851 118 
Q 941 51 1075 51 
Q 1472 58 1798 390 
Q 2125 723 2285 1161 
Q 2445 1600 2445 1997 
z
" transform="scale(0.015625)"/>
     <path id="STIXGeneral-Regular-63" d="M 2547 998 
L 2637 941 
Q 2362 403 2112 205 
Q 1786 -64 1376 -64 
Q 845 -64 502 336 
Q 160 736 160 1357 
Q 160 2170 698 2618 
Q 1094 2944 1562 2944 
Q 1965 2944 2256 2749 
Q 2547 2554 2547 2285 
Q 2547 2176 2457 2096 
Q 2368 2016 2246 2016 
Q 2022 2016 1939 2310 
L 1901 2451 
Q 1850 2630 1773 2694 
Q 1696 2758 1523 2758 
Q 1133 2758 893 2451 
Q 653 2144 653 1645 
Q 653 1094 928 745 
Q 1203 397 1645 397 
Q 1920 397 2118 528 
Q 2317 659 2547 998 
z
" transform="scale(0.015625)"/>
     <path id="STIXGeneral-Regular-6c" d="M 1645 0 
L 134 0 
L 134 96 
Q 435 122 531 221 
Q 627 320 627 589 
L 627 3590 
Q 627 3821 569 3910 
Q 512 4000 358 4000 
Q 224 4000 122 3987 
L 122 4090 
Q 730 4237 1133 4371 
L 1165 4346 
L 1165 557 
Q 1165 288 1254 201 
Q 1344 115 1645 96 
L 1645 0 
z
" transform="scale(0.015625)"/>
     <path id="STIXGeneral-Regular-70" d="M 1018 2931 
L 1018 2438 
Q 1421 2944 1939 2944 
Q 2406 2944 2707 2560 
Q 3008 2176 3008 1581 
Q 3008 883 2621 409 
Q 2234 -64 1664 -64 
Q 1466 -64 1328 -6 
Q 1190 51 1018 211 
L 1018 -794 
Q 1018 -1094 1120 -1180 
Q 1222 -1267 1581 -1274 
L 1581 -1389 
L 32 -1389 
L 32 -1280 
Q 314 -1254 397 -1171 
Q 480 -1088 480 -838 
L 480 2157 
Q 480 2381 429 2451 
Q 378 2522 218 2522 
Q 115 2522 58 2515 
L 58 2618 
Q 506 2752 979 2944 
L 1018 2931 
z
M 1018 2138 
L 1018 563 
Q 1018 422 1238 281 
Q 1459 141 1683 141 
Q 2029 141 2243 467 
Q 2458 794 2458 1325 
Q 2458 1888 2243 2224 
Q 2029 2560 1670 2560 
Q 1446 2560 1232 2419 
Q 1018 2278 1018 2138 
z
" transform="scale(0.015625)"/>
     <path id="STIXSizeThreeSym-Regular-5d" d="M 1811 -2522 
L 109 -2522 
L 109 -2240 
L 1203 -2240 
L 1203 12941 
L 109 12941 
L 109 13222 
L 1811 13222 
L 1811 -2522 
z
" transform="scale(0.015625)"/>
     <path id="STIXGeneral-Italic-3b2" d="M -58 -813 
L 819 2355 
Q 902 2662 995 2908 
Q 1088 3155 1235 3433 
Q 1382 3712 1555 3901 
Q 1728 4090 1977 4214 
Q 2227 4339 2515 4339 
Q 2816 4339 3053 4182 
Q 3290 4026 3290 3693 
Q 3290 3328 3037 3001 
Q 2784 2675 2470 2534 
L 2470 2528 
Q 2682 2509 2858 2320 
Q 3034 2131 3034 1818 
Q 3034 1376 2694 873 
Q 2355 371 1901 122 
Q 1562 -70 1107 -70 
Q 922 -70 685 38 
L 442 -813 
Q 352 -1126 243 -1312 
L -256 -1312 
Q -154 -1158 -58 -813 
z
M 1491 3053 
L 762 288 
Q 762 186 848 118 
Q 934 51 1069 51 
Q 1594 51 2029 704 
Q 2464 1357 2464 2029 
Q 2464 2406 2208 2406 
Q 2150 2406 2044 2380 
Q 1939 2355 1888 2355 
Q 1805 2355 1750 2396 
Q 1696 2438 1696 2496 
Q 1696 2650 1978 2650 
Q 1997 2650 2099 2630 
Q 2202 2611 2253 2611 
Q 2451 2611 2640 2969 
Q 2829 3328 2829 3622 
Q 2829 3962 2713 4083 
Q 2598 4205 2400 4205 
Q 2080 4205 1846 3865 
Q 1613 3526 1491 3053 
z
" transform="scale(0.015625)"/>
     <path id="STIXGeneral-Regular-4b" d="M 4627 0 
L 2688 0 
L 2688 122 
L 2861 128 
Q 3130 134 3130 282 
Q 3130 397 2922 643 
Q 2714 890 2253 1370 
L 1613 2029 
L 1446 1894 
L 1446 710 
Q 1446 352 1548 253 
Q 1651 154 2016 122 
L 2016 0 
L 211 0 
L 211 122 
Q 589 141 691 262 
Q 794 384 794 800 
L 794 3514 
Q 794 3872 691 3981 
Q 589 4090 218 4115 
L 218 4237 
L 2022 4237 
L 2022 4115 
Q 1632 4090 1539 3987 
Q 1446 3885 1446 3507 
L 1446 2227 
L 2586 3277 
Q 2861 3533 2973 3667 
Q 3085 3802 3085 3910 
Q 3085 4013 3030 4057 
Q 2976 4102 2822 4109 
L 2662 4115 
L 2662 4237 
L 4320 4237 
L 4320 4115 
Q 3994 4090 3824 4003 
Q 3654 3917 3322 3597 
L 2131 2458 
L 3629 819 
Q 4026 384 4214 253 
Q 4403 122 4627 122 
L 4627 0 
z
" transform="scale(0.015625)"/>
     <path id="STIXGeneral-Regular-4c" d="M 3827 1114 
L 3520 0 
L 77 0 
L 77 122 
Q 429 141 531 256 
Q 634 371 634 736 
L 634 3494 
Q 634 3872 541 3981 
Q 448 4090 77 4115 
L 77 4237 
L 1888 4237 
L 1888 4115 
Q 1498 4090 1392 3984 
Q 1286 3878 1286 3507 
L 1286 538 
Q 1286 358 1398 304 
Q 1510 250 1862 250 
L 2310 250 
Q 3085 250 3392 640 
Q 3520 813 3661 1114 
L 3827 1114 
z
" transform="scale(0.015625)"/>
     <path id="STIXGeneral-Italic-3c0" d="M 3430 2739 
L 3296 2266 
L 2643 2266 
Q 2624 2195 2502 1782 
Q 2381 1370 2297 1072 
Q 2214 774 2214 717 
Q 2214 448 2413 448 
Q 2694 448 2867 838 
L 2970 838 
Q 2886 486 2652 208 
Q 2419 -70 2093 -70 
Q 1901 -70 1808 67 
Q 1715 205 1715 410 
Q 1715 627 1824 922 
L 2310 2266 
L 1645 2266 
Q 1568 2061 1401 1469 
Q 1235 877 1068 512 
Q 902 147 672 -38 
Q 563 -115 442 -115 
Q 314 -115 218 -32 
Q 122 51 122 166 
Q 122 429 314 480 
Q 634 563 774 928 
L 1299 2266 
L 1261 2266 
Q 973 2266 819 2208 
Q 666 2150 474 1914 
L 371 1914 
Q 640 2362 931 2550 
Q 1222 2739 1696 2739 
L 3430 2739 
z
" transform="scale(0.015625)"/>
     <path id="STIXGeneral-Regular-2016" d="M 2522 -1210 
L 2099 -1210 
L 2099 4416 
L 2522 4416 
L 2522 -1210 
z
M 1248 -1210 
L 826 -1210 
L 826 4416 
L 1248 4416 
L 1248 -1210 
z
" transform="scale(0.015625)"/>
     <path id="STIXGeneral-Regular-72" d="M 1024 2931 
L 1024 2342 
Q 1267 2688 1430 2816 
Q 1594 2944 1792 2944 
Q 1958 2944 2051 2854 
Q 2144 2765 2144 2605 
Q 2144 2470 2077 2393 
Q 2010 2317 1894 2317 
Q 1773 2317 1638 2445 
Q 1536 2541 1472 2541 
Q 1338 2541 1181 2355 
Q 1024 2170 1024 2016 
L 1024 576 
Q 1024 301 1133 205 
Q 1242 109 1568 96 
L 1568 0 
L 32 0 
L 32 96 
Q 339 154 412 224 
Q 486 294 486 538 
L 486 2138 
Q 486 2349 438 2435 
Q 390 2522 269 2522 
Q 166 2522 45 2496 
L 45 2598 
Q 448 2726 992 2944 
L 1024 2931 
z
" transform="scale(0.015625)"/>
     <path id="STIXGeneral-Regular-66" d="M 134 2880 
L 659 2880 
Q 666 3264 710 3478 
Q 755 3693 883 3910 
Q 1152 4371 1786 4371 
Q 2074 4371 2262 4259 
Q 2451 4147 2451 3974 
Q 2451 3866 2374 3789 
Q 2298 3712 2182 3712 
Q 2029 3712 1894 3942 
Q 1741 4192 1555 4192 
Q 1197 4192 1197 3622 
L 1197 2880 
L 1978 2880 
L 1978 2675 
L 1197 2675 
L 1197 666 
Q 1197 307 1299 208 
Q 1402 109 1792 96 
L 1792 0 
L 128 0 
L 128 96 
Q 474 115 566 214 
Q 659 314 659 666 
L 659 2675 
L 134 2675 
L 134 2880 
z
" transform="scale(0.015625)"/>
    </defs>
    <use xlink:href="#STIXNonUnicode-Italic-e236" transform="translate(0 0.409375)"/>
    <use xlink:href="#STIXGeneral-Regular-28" transform="translate(63.199997 0.409375)"/>
    <use xlink:href="#STIXGeneral-Italic-3b8" transform="translate(96.499985 0.409375)"/>
    <use xlink:href="#STIXGeneral-Regular-29" transform="translate(144.499969 0.409375)"/>
    <use xlink:href="#STIXGeneral-Regular-3d" transform="translate(192.239954 0.409375)"/>
    <use xlink:href="#STIXNonUnicode-Italic-e156" transform="translate(275.179935 0.409375)"/>
    <use xlink:href="#STIXSizeThreeSym-Regular-5b" transform="translate(327.046358 -59.28125) scale(0.799174)"/>
    <use xlink:href="#STIXGeneral-Regular-31" transform="translate(378.62285 38.20625)"/>
    <use xlink:href="#STIXGeneral-Italic-47" transform="translate(367.62285 -59.6375)"/>
    <use xlink:href="#STIXGeneral-Regular-2211" transform="translate(452.322832 0.409375)"/>
    <use xlink:href="#STIXGeneral-Italic-69" transform="translate(482.322832 -90.03125) scale(0.7)"/>
    <use xlink:href="#STIXGeneral-Regular-6d" transform="translate(532.119707 0.409375)"/>
    <use xlink:href="#STIXGeneral-Regular-69" transform="translate(609.919694 0.409375)"/>
    <use xlink:href="#STIXGeneral-Regular-6e" transform="translate(637.719682 0.409375)"/>
    <use xlink:href="#STIXGeneral-Regular-28" transform="translate(675.686096 0.409375)"/>
    <use xlink:href="#STIXGeneral-Italic-3c1" transform="translate(708.986084 0.409375)"/>
    <use xlink:href="#STIXGeneral-Italic-69" transform="translate(759.386078 -12.81875) scale(0.7)"/>
    <use xlink:href="#STIXGeneral-Italic-41" transform="translate(783.255444 0.409375)"/>
    <use xlink:href="#STIXGeneral-Italic-69" transform="translate(844.355435 -12.81875) scale(0.7)"/>
    <use xlink:href="#STIXGeneral-Regular-2c" transform="translate(868.224801 0.409375)"/>
    <use xlink:href="#STIXGeneral-Regular-63" transform="translate(931.731202 0.409375)"/>
    <use xlink:href="#STIXGeneral-Regular-6c" transform="translate(976.131196 0.409375)"/>
    <use xlink:href="#STIXGeneral-Regular-69" transform="translate(1003.931184 0.409375)"/>
    <use xlink:href="#STIXGeneral-Regular-70" transform="translate(1031.731172 0.409375)"/>
    <use xlink:href="#STIXGeneral-Regular-28" transform="translate(1081.731157 0.409375)"/>
    <use xlink:href="#STIXGeneral-Italic-3c1" transform="translate(1115.031144 0.409375)"/>
    <use xlink:href="#STIXGeneral-Italic-69" transform="translate(1165.431138 -12.81875) scale(0.7)"/>
    <use xlink:href="#STIXGeneral-Regular-2c" transform="translate(1189.300505 0.409375)"/>
    <use xlink:href="#STIXGeneral-Regular-31" transform="translate(1228.740486 0.409375)"/>
    <use xlink:href="#STIXGeneral-Regular-2212" transform="translate(1293.180467 0.409375)"/>
    <use xlink:href="#STIXGeneral-Italic-3b5" transform="translate(1376.120448 0.409375)"/>
    <use xlink:href="#STIXGeneral-Regular-2c" transform="translate(1420.520442 0.409375)"/>
    <use xlink:href="#STIXGeneral-Regular-31" transform="translate(1459.960423 0.409375)"/>
    <use xlink:href="#STIXGeneral-Regular-2b" transform="translate(1524.400404 0.409375)"/>
    <use xlink:href="#STIXGeneral-Italic-3b5" transform="translate(1607.340385 0.409375)"/>
    <use xlink:href="#STIXGeneral-Regular-29" transform="translate(1651.740379 0.409375)"/>
    <use xlink:href="#STIXGeneral-Italic-41" transform="translate(1697.073938 0.409375)"/>
    <use xlink:href="#STIXGeneral-Italic-69" transform="translate(1758.173929 -12.81875) scale(0.7)"/>
    <use xlink:href="#STIXGeneral-Regular-29" transform="translate(1782.043295 0.409375)"/>
    <use xlink:href="#STIXSizeThreeSym-Regular-5d" transform="translate(1815.343283 -59.28125) scale(0.799174)"/>
    <use xlink:href="#STIXGeneral-Regular-2212" transform="translate(1870.359772 0.409375)"/>
    <use xlink:href="#STIXGeneral-Italic-3b2" transform="translate(1953.299753 0.409375)"/>
    <use xlink:href="#STIXGeneral-Regular-4b" transform="translate(2015.933314 0.409375)"/>
    <use xlink:href="#STIXGeneral-Regular-4c" transform="translate(2088.133296 0.409375)"/>
    <use xlink:href="#STIXGeneral-Regular-28" transform="translate(2137.199716 0.409375)"/>
    <use xlink:href="#STIXGeneral-Italic-3c0" transform="translate(2170.499704 0.409375)"/>
    <use xlink:href="#STIXGeneral-Italic-3b8" transform="translate(2220.899698 -12.81875) scale(0.7)"/>
    <use xlink:href="#STIXGeneral-Regular-2016" transform="translate(2270.942633 0.409375)"/>
    <use xlink:href="#STIXGeneral-Italic-3c0" transform="translate(2335.276192 0.409375)"/>
    <use xlink:href="#STIXGeneral-Regular-72" transform="translate(2385.676186 -12.81875) scale(0.7)"/>
    <use xlink:href="#STIXGeneral-Regular-65" transform="translate(2408.986177 -12.81875) scale(0.7)"/>
    <use xlink:href="#STIXGeneral-Regular-66" transform="translate(2440.066173 -12.81875) scale(0.7)"/>
    <use xlink:href="#STIXGeneral-Regular-29" transform="translate(2467.785539 0.409375)"/>
    <path d="M 367.62285 13.20625 
L 367.62285 19.45625 
L 439.822832 19.45625 
L 439.822832 13.20625 
L 367.62285 13.20625 
z
"/>
   </g>
  </g>
  <g id="text_3">
   <!-- $\rho_i=\pi_\theta(y_i\mid x)\,/\,\pi_{\theta_{\mathrm{old}}}(y_i\mid x)$ -->
   <g transform="translate(148.14 140.290312) scale(0.18 -0.18)">
    <defs>
     <path id="STIXGeneral-Italic-79" d="M 1555 1190 
L 1690 486 
Q 2118 1190 2294 1558 
Q 2470 1926 2470 2131 
Q 2470 2234 2304 2336 
Q 2138 2445 2138 2586 
Q 2138 2688 2211 2755 
Q 2285 2822 2394 2822 
Q 2534 2822 2630 2720 
Q 2726 2618 2726 2470 
Q 2726 1914 1888 518 
Q 1389 -307 918 -812 
Q 448 -1318 173 -1318 
Q 26 -1318 -64 -1241 
Q -154 -1165 -154 -1043 
Q -154 -934 -80 -860 
Q -6 -787 96 -787 
Q 218 -787 314 -876 
Q 410 -966 486 -966 
Q 602 -966 794 -755 
Q 877 -672 1040 -457 
Q 1203 -243 1248 -173 
Q 1312 -45 1312 51 
Q 1312 243 1113 1046 
Q 915 1850 787 2176 
Q 698 2413 592 2499 
Q 486 2586 294 2586 
Q 192 2586 96 2560 
L 96 2669 
Q 237 2694 301 2707 
Q 563 2758 986 2822 
L 1011 2822 
Q 1082 2822 1277 2227 
Q 1472 1632 1555 1190 
z
" transform="scale(0.015625)"/>
     <path id="STIXGeneral-Regular-2223" d="M 1062 -1210 
L 640 -1210 
L 640 4416 
L 1062 4416 
L 1062 -1210 
z
" transform="scale(0.015625)"/>
     <path id="STIXGeneral-Italic-78" d="M 1555 2272 
L 1632 1907 
Q 1971 2426 2179 2624 
Q 2387 2822 2598 2822 
Q 2714 2822 2787 2755 
Q 2861 2688 2861 2585 
Q 2861 2483 2800 2419 
Q 2739 2355 2643 2355 
Q 2586 2355 2490 2409 
Q 2394 2464 2310 2464 
Q 2125 2464 1683 1690 
Q 1683 1606 1734 1402 
L 1939 544 
Q 2003 282 2131 282 
Q 2234 282 2432 538 
Q 2451 563 2476 598 
Q 2502 634 2521 662 
Q 2541 691 2566 717 
L 2662 659 
Q 2387 230 2227 80 
Q 2067 -70 1882 -70 
Q 1728 -70 1645 26 
Q 1562 122 1504 365 
L 1318 1126 
L 755 365 
Q 557 96 432 13 
Q 307 -70 147 -70 
Q 0 -70 -86 0 
Q -173 70 -173 198 
Q -173 294 -112 361 
Q -51 429 45 429 
Q 122 429 250 358 
Q 346 301 416 301 
Q 525 301 742 614 
L 1267 1357 
L 1088 2150 
Q 1024 2432 969 2509 
Q 915 2586 794 2586 
Q 717 2586 544 2541 
L 429 2509 
L 410 2611 
L 480 2637 
Q 992 2822 1229 2822 
Q 1350 2822 1420 2707 
Q 1491 2592 1555 2272 
z
" transform="scale(0.015625)"/>
     <path id="STIXGeneral-Regular-2f" d="M 1837 4326 
L 378 -90 
L -58 -90 
L 1408 4326 
L 1837 4326 
z
" transform="scale(0.015625)"/>
     <path id="STIXGeneral-Regular-6f" d="M 3008 1478 
Q 3008 806 2608 371 
Q 2208 -64 1568 -64 
Q 979 -64 582 368 
Q 186 800 186 1459 
Q 186 2125 582 2534 
Q 979 2944 1626 2944 
Q 2221 2944 2614 2537 
Q 3008 2131 3008 1478 
z
M 2432 1306 
Q 2432 2035 2112 2445 
Q 1856 2765 1504 2765 
Q 1171 2765 966 2493 
Q 762 2221 762 1747 
Q 762 928 1101 435 
Q 1318 115 1677 115 
Q 2029 115 2230 432 
Q 2432 749 2432 1306 
z
" transform="scale(0.015625)"/>
    </defs>
    <use xlink:href="#STIXGeneral-Italic-3c1"/>
    <use xlink:href="#STIXGeneral-Italic-69" transform="translate(50.399994 -13.228125) scale(0.7)"/>
    <use xlink:href="#STIXGeneral-Regular-3d" transform="translate(88.709357 0)"/>
    <use xlink:href="#STIXGeneral-Italic-3c0" transform="translate(171.649338 0)"/>
    <use xlink:href="#STIXGeneral-Italic-3b8" transform="translate(222.049332 -13.228125) scale(0.7)"/>
    <use xlink:href="#STIXGeneral-Regular-28" transform="translate(260.058696 0)"/>
    <use xlink:href="#STIXGeneral-Italic-79" transform="translate(293.358684 0)"/>
    <use xlink:href="#STIXGeneral-Italic-69" transform="translate(337.758678 -13.228125) scale(0.7)"/>
    <use xlink:href="#STIXGeneral-Regular-2223" transform="translate(376.06804 0)"/>
    <use xlink:href="#STIXGeneral-Italic-78" transform="translate(417.108028 0)"/>
    <use xlink:href="#STIXGeneral-Regular-29" transform="translate(461.508022 0)"/>
    <use xlink:href="#STIXGeneral-Regular-2f" transform="translate(506.84158 0)"/>
    <use xlink:href="#STIXGeneral-Italic-3c0" transform="translate(546.675139 0)"/>
    <use xlink:href="#STIXGeneral-Italic-3b8" transform="translate(597.075133 -13.228125) scale(0.7)"/>
    <use xlink:href="#STIXGeneral-Regular-6f" transform="translate(630.675122 -22.487813) scale(0.49)"/>
    <use xlink:href="#STIXGeneral-Regular-6c" transform="translate(655.175115 -22.487813) scale(0.49)"/>
    <use xlink:href="#STIXGeneral-Regular-64" transform="translate(668.797109 -22.487813) scale(0.49)"/>
    <use xlink:href="#STIXGeneral-Regular-28" transform="translate(700.793039 0)"/>
    <use xlink:href="#STIXGeneral-Italic-79" transform="translate(734.093027 0)"/>
    <use xlink:href="#STIXGeneral-Italic-69" transform="translate(778.49302 -13.228125) scale(0.7)"/>
    <use xlink:href="#STIXGeneral-Regular-2223" transform="translate(816.802383 0)"/>
    <use xlink:href="#STIXGeneral-Italic-78" transform="translate(857.84237 0)"/>
    <use xlink:href="#STIXGeneral-Regular-29" transform="translate(902.242364 0)"/>
   </g>
  </g>
 </g>
</svg>
