<?xml version="1.0" encoding="utf-8" standalone="no"?>
<!DOCTYPE svg PUBLIC "-//W3C//DTD SVG 1.1//EN"
  "http://www.w3.org/Graphics/SVG/1.1/DTD/svg11.dtd">
<svg xmlns:xlink="http://www.w3.org/1999/xlink" width="1108.621384pt" height="337.350451pt" viewBox="0 0 1108.621384 337.350451" xmlns="http://www.w3.org/2000/svg" version="1.1">
 <metadata>
  <rdf:RDF xmlns:dc="http://purl.org/dc/elements/1.1/" xmlns:cc="http://creativecommons.org/ns#" xmlns:rdf="http://www.w3.org/1999/02/22-rdf-syntax-ns#">
   <cc:Work>
    <dc:type rdf:resource="http://purl.org/dc/dcmitype/StillImage"/>
    <dc:date>2026-06-20T02:34:26.776410</dc:date>
    <dc:format>image/svg+xml</dc:format>
    <dc:creator>
     <cc:Agent>
      <dc:title>Matplotlib v3.10.8, https://matplotlib.org/</dc:title>
     </cc:Agent>
    </dc:creator>
   </cc:Work>
  </rdf:RDF>
 </metadata>
 <defs>
  <style type="text/css">*{stroke-linejoin: round; stroke-linecap: butt}</style>
 </defs>
 <g id="figure_1">
  <g id="patch_1">
   <path d="M 0 337.350451 
L 1108.621384 337.350451 
L 1108.621384 0 
L 0 0 
z
" style="fill: #ffffff"/>
  </g>
  <g id="axes_1">
   <g id="patch_2">
    <path d="M 48.544563 251.725084 
L 363.277384 251.725084 
L 363.277384 22.783594 
L 48.544563 22.783594 
z
" style="fill: #ffffff"/>
   </g>
   <g id="matplotlib.axis_1">
    <g id="xtick_1">
     <g id="line2d_1">
      <defs>
       <path id="maa6b0a5a60" d="M 0 0 
L 0 3.2 
" style="stroke: #222222; stroke-width: 0.8"/>
      </defs>
      <g>
       <use xlink:href="#maa6b0a5a60" x="62.8506" y="251.725084" style="fill: #222222; stroke: #222222; stroke-width: 0.8"/>
      </g>
     </g>
     <g id="text_1">
      <!-- 0-50 -->
      <g style="fill: #222222" transform="translate(43.20341 271.41677) rotate(-18) scale(0.1 -0.1)">
       <defs>
        <path id="ArialMT-30" d="M 266 2259 
Q 266 3072 433 3567 
Q 600 4063 929 4331 
Q 1259 4600 1759 4600 
Q 2128 4600 2406 4451 
Q 2684 4303 2865 4023 
Q 3047 3744 3150 3342 
Q 3253 2941 3253 2259 
Q 3253 1453 3087 958 
Q 2922 463 2592 192 
Q 2263 -78 1759 -78 
Q 1097 -78 719 397 
Q 266 969 266 2259 
z
M 844 2259 
Q 844 1131 1108 757 
Q 1372 384 1759 384 
Q 2147 384 2411 759 
Q 2675 1134 2675 2259 
Q 2675 3391 2411 3762 
Q 2147 4134 1753 4134 
Q 1366 4134 1134 3806 
Q 844 3388 844 2259 
z
" transform="scale(0.015625)"/>
        <path id="ArialMT-2d" d="M 203 1375 
L 203 1941 
L 1931 1941 
L 1931 1375 
L 203 1375 
z
" transform="scale(0.015625)"/>
        <path id="ArialMT-35" d="M 266 1200 
L 856 1250 
Q 922 819 1161 601 
Q 1400 384 1738 384 
Q 2144 384 2425 690 
Q 2706 997 2706 1503 
Q 2706 1984 2436 2262 
Q 2166 2541 1728 2541 
Q 1456 2541 1237 2417 
Q 1019 2294 894 2097 
L 366 2166 
L 809 4519 
L 3088 4519 
L 3088 3981 
L 1259 3981 
L 1013 2750 
Q 1425 3038 1878 3038 
Q 2478 3038 2890 2622 
Q 3303 2206 3303 1553 
Q 3303 931 2941 478 
Q 2500 -78 1738 -78 
Q 1113 -78 717 272 
Q 322 622 266 1200 
z
" transform="scale(0.015625)"/>
       </defs>
       <use xlink:href="#ArialMT-30"/>
       <use xlink:href="#ArialMT-2d" transform="translate(55.615234 0)"/>
       <use xlink:href="#ArialMT-35" transform="translate(88.916016 0)"/>
       <use xlink:href="#ArialMT-30" transform="translate(144.53125 0)"/>
      </g>
     </g>
    </g>
    <g id="xtick_2">
     <g id="line2d_2">
      <g>
       <use xlink:href="#maa6b0a5a60" x="120.074749" y="251.725084" style="fill: #222222; stroke: #222222; stroke-width: 0.8"/>
      </g>
     </g>
     <g id="text_2">
      <!-- 50-100 -->
      <g style="fill: #222222" transform="translate(89.850028 274.853619) rotate(-18) scale(0.1 -0.1)">
       <defs>
        <path id="ArialMT-31" d="M 2384 0 
L 1822 0 
L 1822 3584 
Q 1619 3391 1289 3197 
Q 959 3003 697 2906 
L 697 3450 
Q 1169 3672 1522 3987 
Q 1875 4303 2022 4600 
L 2384 4600 
L 2384 0 
z
" transform="scale(0.015625)"/>
       </defs>
       <use xlink:href="#ArialMT-35"/>
       <use xlink:href="#ArialMT-30" transform="translate(55.615234 0)"/>
       <use xlink:href="#ArialMT-2d" transform="translate(111.230469 0)"/>
       <use xlink:href="#ArialMT-31" transform="translate(144.53125 0)"/>
       <use xlink:href="#ArialMT-30" transform="translate(200.146484 0)"/>
       <use xlink:href="#ArialMT-30" transform="translate(255.761719 0)"/>
      </g>
     </g>
    </g>
    <g id="xtick_3">
     <g id="line2d_3">
      <g>
       <use xlink:href="#maa6b0a5a60" x="177.298899" y="251.725084" style="fill: #222222; stroke: #222222; stroke-width: 0.8"/>
      </g>
     </g>
     <g id="text_3">
      <!-- 100-150 -->
      <g style="fill: #222222" transform="translate(141.785411 276.572043) rotate(-18) scale(0.1 -0.1)">
       <use xlink:href="#ArialMT-31"/>
       <use xlink:href="#ArialMT-30" transform="translate(55.615234 0)"/>
       <use xlink:href="#ArialMT-30" transform="translate(111.230469 0)"/>
       <use xlink:href="#ArialMT-2d" transform="translate(166.845703 0)"/>
       <use xlink:href="#ArialMT-31" transform="translate(200.146484 0)"/>
       <use xlink:href="#ArialMT-35" transform="translate(255.761719 0)"/>
       <use xlink:href="#ArialMT-30" transform="translate(311.376953 0)"/>
      </g>
     </g>
    </g>
    <g id="xtick_4">
     <g id="line2d_4">
      <g>
       <use xlink:href="#maa6b0a5a60" x="234.523048" y="251.725084" style="fill: #222222; stroke: #222222; stroke-width: 0.8"/>
      </g>
     </g>
     <g id="text_4">
      <!-- 150-200 -->
      <g style="fill: #222222" transform="translate(199.009561 276.572043) rotate(-18) scale(0.1 -0.1)">
       <defs>
        <path id="ArialMT-32" d="M 3222 541 
L 3222 0 
L 194 0 
Q 188 203 259 391 
Q 375 700 629 1000 
Q 884 1300 1366 1694 
Q 2113 2306 2375 2664 
Q 2638 3022 2638 3341 
Q 2638 3675 2398 3904 
Q 2159 4134 1775 4134 
Q 1369 4134 1125 3890 
Q 881 3647 878 3216 
L 300 3275 
Q 359 3922 746 4261 
Q 1134 4600 1788 4600 
Q 2447 4600 2831 4234 
Q 3216 3869 3216 3328 
Q 3216 3053 3103 2787 
Q 2991 2522 2730 2228 
Q 2469 1934 1863 1422 
Q 1356 997 1212 845 
Q 1069 694 975 541 
L 3222 541 
z
" transform="scale(0.015625)"/>
       </defs>
       <use xlink:href="#ArialMT-31"/>
       <use xlink:href="#ArialMT-35" transform="translate(55.615234 0)"/>
       <use xlink:href="#ArialMT-30" transform="translate(111.230469 0)"/>
       <use xlink:href="#ArialMT-2d" transform="translate(166.845703 0)"/>
       <use xlink:href="#ArialMT-32" transform="translate(200.146484 0)"/>
       <use xlink:href="#ArialMT-30" transform="translate(255.761719 0)"/>
       <use xlink:href="#ArialMT-30" transform="translate(311.376953 0)"/>
      </g>
     </g>
    </g>
    <g id="xtick_5">
     <g id="line2d_5">
      <g>
       <use xlink:href="#maa6b0a5a60" x="291.747197" y="251.725084" style="fill: #222222; stroke: #222222; stroke-width: 0.8"/>
      </g>
     </g>
     <g id="text_5">
      <!-- 200-250 -->
      <g style="fill: #222222" transform="translate(256.23371 276.572043) rotate(-18) scale(0.1 -0.1)">
       <use xlink:href="#ArialMT-32"/>
       <use xlink:href="#ArialMT-30" transform="translate(55.615234 0)"/>
       <use xlink:href="#ArialMT-30" transform="translate(111.230469 0)"/>
       <use xlink:href="#ArialMT-2d" transform="translate(166.845703 0)"/>
       <use xlink:href="#ArialMT-32" transform="translate(200.146484 0)"/>
       <use xlink:href="#ArialMT-35" transform="translate(255.761719 0)"/>
       <use xlink:href="#ArialMT-30" transform="translate(311.376953 0)"/>
      </g>
     </g>
    </g>
    <g id="xtick_6">
     <g id="line2d_6">
      <g>
       <use xlink:href="#maa6b0a5a60" x="348.971347" y="251.725084" style="fill: #222222; stroke: #222222; stroke-width: 0.8"/>
      </g>
     </g>
     <g id="text_6">
      <!-- 250+ -->
      <g style="fill: #222222" transform="translate(326.936113 272.192693) rotate(-18) scale(0.1 -0.1)">
       <defs>
        <path id="ArialMT-2b" d="M 1603 741 
L 1603 1997 
L 356 1997 
L 356 2522 
L 1603 2522 
L 1603 3769 
L 2134 3769 
L 2134 2522 
L 3381 2522 
L 3381 1997 
L 2134 1997 
L 2134 741 
L 1603 741 
z
" transform="scale(0.015625)"/>
       </defs>
       <use xlink:href="#ArialMT-32"/>
       <use xlink:href="#ArialMT-35" transform="translate(55.615234 0)"/>
       <use xlink:href="#ArialMT-30" transform="translate(111.230469 0)"/>
       <use xlink:href="#ArialMT-2b" transform="translate(166.845703 0)"/>
      </g>
     </g>
    </g>
    <g id="text_7">
     <!-- Output-length bucket (words) -->
     <g transform="translate(127.525848 293.615518) scale(0.112 -0.112)">
      <defs>
       <path id="Arial-BoldMT-4f" d="M 278 2263 
Q 278 2963 488 3438 
Q 644 3788 914 4066 
Q 1184 4344 1506 4478 
Q 1934 4659 2494 4659 
Q 3506 4659 4114 4031 
Q 4722 3403 4722 2284 
Q 4722 1175 4119 548 
Q 3516 -78 2506 -78 
Q 1484 -78 881 545 
Q 278 1169 278 2263 
z
M 1231 2294 
Q 1231 1516 1590 1114 
Q 1950 713 2503 713 
Q 3056 713 3411 1111 
Q 3766 1509 3766 2306 
Q 3766 3094 3420 3481 
Q 3075 3869 2503 3869 
Q 1931 3869 1581 3476 
Q 1231 3084 1231 2294 
z
" transform="scale(0.015625)"/>
       <path id="Arial-BoldMT-75" d="M 2644 0 
L 2644 497 
Q 2463 231 2167 78 
Q 1872 -75 1544 -75 
Q 1209 -75 943 72 
Q 678 219 559 484 
Q 441 750 441 1219 
L 441 3319 
L 1319 3319 
L 1319 1794 
Q 1319 1094 1367 936 
Q 1416 778 1544 686 
Q 1672 594 1869 594 
Q 2094 594 2272 717 
Q 2450 841 2515 1023 
Q 2581 1206 2581 1919 
L 2581 3319 
L 3459 3319 
L 3459 0 
L 2644 0 
z
" transform="scale(0.015625)"/>
       <path id="Arial-BoldMT-74" d="M 1981 3319 
L 1981 2619 
L 1381 2619 
L 1381 1281 
Q 1381 875 1398 808 
Q 1416 741 1477 697 
Q 1538 653 1625 653 
Q 1747 653 1978 738 
L 2053 56 
Q 1747 -75 1359 -75 
Q 1122 -75 931 4 
Q 741 84 652 211 
Q 563 338 528 553 
Q 500 706 500 1172 
L 500 2619 
L 97 2619 
L 97 3319 
L 500 3319 
L 500 3978 
L 1381 4491 
L 1381 3319 
L 1981 3319 
z
" transform="scale(0.015625)"/>
       <path id="Arial-BoldMT-70" d="M 434 3319 
L 1253 3319 
L 1253 2831 
Q 1413 3081 1684 3237 
Q 1956 3394 2288 3394 
Q 2866 3394 3269 2941 
Q 3672 2488 3672 1678 
Q 3672 847 3265 386 
Q 2859 -75 2281 -75 
Q 2006 -75 1782 34 
Q 1559 144 1313 409 
L 1313 -1263 
L 434 -1263 
L 434 3319 
z
M 1303 1716 
Q 1303 1156 1525 889 
Q 1747 622 2066 622 
Q 2372 622 2575 867 
Q 2778 1113 2778 1672 
Q 2778 2194 2568 2447 
Q 2359 2700 2050 2700 
Q 1728 2700 1515 2451 
Q 1303 2203 1303 1716 
z
" transform="scale(0.015625)"/>
       <path id="Arial-BoldMT-2d" d="M 359 1222 
L 359 2100 
L 2084 2100 
L 2084 1222 
L 359 1222 
z
" transform="scale(0.015625)"/>
       <path id="Arial-BoldMT-6c" d="M 459 0 
L 459 4581 
L 1338 4581 
L 1338 0 
L 459 0 
z
" transform="scale(0.015625)"/>
       <path id="Arial-BoldMT-65" d="M 2381 1056 
L 3256 909 
Q 3088 428 2723 176 
Q 2359 -75 1813 -75 
Q 947 -75 531 491 
Q 203 944 203 1634 
Q 203 2459 634 2926 
Q 1066 3394 1725 3394 
Q 2466 3394 2894 2905 
Q 3322 2416 3303 1406 
L 1103 1406 
Q 1113 1016 1316 798 
Q 1519 581 1822 581 
Q 2028 581 2168 693 
Q 2309 806 2381 1056 
z
M 2431 1944 
Q 2422 2325 2234 2523 
Q 2047 2722 1778 2722 
Q 1491 2722 1303 2513 
Q 1116 2303 1119 1944 
L 2431 1944 
z
" transform="scale(0.015625)"/>
       <path id="Arial-BoldMT-6e" d="M 3478 0 
L 2600 0 
L 2600 1694 
Q 2600 2231 2544 2389 
Q 2488 2547 2361 2634 
Q 2234 2722 2056 2722 
Q 1828 2722 1647 2597 
Q 1466 2472 1398 2265 
Q 1331 2059 1331 1503 
L 1331 0 
L 453 0 
L 453 3319 
L 1269 3319 
L 1269 2831 
Q 1703 3394 2363 3394 
Q 2653 3394 2893 3289 
Q 3134 3184 3257 3021 
Q 3381 2859 3429 2653 
Q 3478 2447 3478 2063 
L 3478 0 
z
" transform="scale(0.015625)"/>
       <path id="Arial-BoldMT-67" d="M 378 -219 
L 1381 -341 
Q 1406 -516 1497 -581 
Q 1622 -675 1891 -675 
Q 2234 -675 2406 -572 
Q 2522 -503 2581 -350 
Q 2622 -241 2622 53 
L 2622 538 
Q 2228 0 1628 0 
Q 959 0 569 566 
Q 263 1013 263 1678 
Q 263 2513 664 2953 
Q 1066 3394 1663 3394 
Q 2278 3394 2678 2853 
L 2678 3319 
L 3500 3319 
L 3500 341 
Q 3500 -247 3403 -537 
Q 3306 -828 3131 -993 
Q 2956 -1159 2664 -1253 
Q 2372 -1347 1925 -1347 
Q 1081 -1347 728 -1058 
Q 375 -769 375 -325 
Q 375 -281 378 -219 
z
M 1163 1728 
Q 1163 1200 1367 954 
Q 1572 709 1872 709 
Q 2194 709 2416 961 
Q 2638 1213 2638 1706 
Q 2638 2222 2425 2472 
Q 2213 2722 1888 2722 
Q 1572 2722 1367 2476 
Q 1163 2231 1163 1728 
z
" transform="scale(0.015625)"/>
       <path id="Arial-BoldMT-68" d="M 1334 4581 
L 1334 2897 
Q 1759 3394 2350 3394 
Q 2653 3394 2897 3281 
Q 3141 3169 3264 2994 
Q 3388 2819 3433 2606 
Q 3478 2394 3478 1947 
L 3478 0 
L 2600 0 
L 2600 1753 
Q 2600 2275 2550 2415 
Q 2500 2556 2373 2639 
Q 2247 2722 2056 2722 
Q 1838 2722 1666 2615 
Q 1494 2509 1414 2295 
Q 1334 2081 1334 1663 
L 1334 0 
L 456 0 
L 456 4581 
L 1334 4581 
z
" transform="scale(0.015625)"/>
       <path id="Arial-BoldMT-20" transform="scale(0.015625)"/>
       <path id="Arial-BoldMT-62" d="M 422 0 
L 422 4581 
L 1300 4581 
L 1300 2931 
Q 1706 3394 2263 3394 
Q 2869 3394 3266 2955 
Q 3663 2516 3663 1694 
Q 3663 844 3258 384 
Q 2853 -75 2275 -75 
Q 1991 -75 1714 67 
Q 1438 209 1238 488 
L 1238 0 
L 422 0 
z
M 1294 1731 
Q 1294 1216 1456 969 
Q 1684 619 2063 619 
Q 2353 619 2558 867 
Q 2763 1116 2763 1650 
Q 2763 2219 2556 2470 
Q 2350 2722 2028 2722 
Q 1713 2722 1503 2476 
Q 1294 2231 1294 1731 
z
" transform="scale(0.015625)"/>
       <path id="Arial-BoldMT-63" d="M 3353 2338 
L 2488 2181 
Q 2444 2441 2289 2572 
Q 2134 2703 1888 2703 
Q 1559 2703 1364 2476 
Q 1169 2250 1169 1719 
Q 1169 1128 1367 884 
Q 1566 641 1900 641 
Q 2150 641 2309 783 
Q 2469 925 2534 1272 
L 3397 1125 
Q 3263 531 2881 228 
Q 2500 -75 1859 -75 
Q 1131 -75 698 384 
Q 266 844 266 1656 
Q 266 2478 700 2936 
Q 1134 3394 1875 3394 
Q 2481 3394 2839 3133 
Q 3197 2872 3353 2338 
z
" transform="scale(0.015625)"/>
       <path id="Arial-BoldMT-6b" d="M 428 0 
L 428 4581 
L 1306 4581 
L 1306 2150 
L 2334 3319 
L 3416 3319 
L 2281 2106 
L 3497 0 
L 2550 0 
L 1716 1491 
L 1306 1063 
L 1306 0 
L 428 0 
z
" transform="scale(0.015625)"/>
       <path id="Arial-BoldMT-28" d="M 1916 -1347 
L 1313 -1347 
Q 834 -625 584 153 
Q 334 931 334 1659 
Q 334 2563 644 3369 
Q 913 4069 1325 4659 
L 1925 4659 
Q 1497 3713 1336 3048 
Q 1175 2384 1175 1641 
Q 1175 1128 1270 590 
Q 1366 53 1531 -431 
Q 1641 -750 1916 -1347 
z
" transform="scale(0.015625)"/>
       <path id="Arial-BoldMT-77" d="M 1078 0 
L 28 3319 
L 881 3319 
L 1503 1144 
L 2075 3319 
L 2922 3319 
L 3475 1144 
L 4109 3319 
L 4975 3319 
L 3909 0 
L 3066 0 
L 2494 2134 
L 1931 0 
L 1078 0 
z
" transform="scale(0.015625)"/>
       <path id="Arial-BoldMT-6f" d="M 256 1706 
Q 256 2144 472 2553 
Q 688 2963 1083 3178 
Q 1478 3394 1966 3394 
Q 2719 3394 3200 2905 
Q 3681 2416 3681 1669 
Q 3681 916 3195 420 
Q 2709 -75 1972 -75 
Q 1516 -75 1102 131 
Q 688 338 472 736 
Q 256 1134 256 1706 
z
M 1156 1659 
Q 1156 1166 1390 903 
Q 1625 641 1969 641 
Q 2313 641 2545 903 
Q 2778 1166 2778 1666 
Q 2778 2153 2545 2415 
Q 2313 2678 1969 2678 
Q 1625 2678 1390 2415 
Q 1156 2153 1156 1659 
z
" transform="scale(0.015625)"/>
       <path id="Arial-BoldMT-72" d="M 1300 0 
L 422 0 
L 422 3319 
L 1238 3319 
L 1238 2847 
Q 1447 3181 1614 3287 
Q 1781 3394 1994 3394 
Q 2294 3394 2572 3228 
L 2300 2463 
Q 2078 2606 1888 2606 
Q 1703 2606 1575 2504 
Q 1447 2403 1373 2137 
Q 1300 1872 1300 1025 
L 1300 0 
z
" transform="scale(0.015625)"/>
       <path id="Arial-BoldMT-64" d="M 3503 0 
L 2688 0 
L 2688 488 
Q 2484 203 2207 64 
Q 1931 -75 1650 -75 
Q 1078 -75 670 386 
Q 263 847 263 1672 
Q 263 2516 659 2955 
Q 1056 3394 1663 3394 
Q 2219 3394 2625 2931 
L 2625 4581 
L 3503 4581 
L 3503 0 
z
M 1159 1731 
Q 1159 1200 1306 963 
Q 1519 619 1900 619 
Q 2203 619 2415 876 
Q 2628 1134 2628 1647 
Q 2628 2219 2422 2470 
Q 2216 2722 1894 2722 
Q 1581 2722 1370 2473 
Q 1159 2225 1159 1731 
z
" transform="scale(0.015625)"/>
       <path id="Arial-BoldMT-73" d="M 150 947 
L 1031 1081 
Q 1088 825 1259 692 
Q 1431 559 1741 559 
Q 2081 559 2253 684 
Q 2369 772 2369 919 
Q 2369 1019 2306 1084 
Q 2241 1147 2013 1200 
Q 950 1434 666 1628 
Q 272 1897 272 2375 
Q 272 2806 612 3100 
Q 953 3394 1669 3394 
Q 2350 3394 2681 3172 
Q 3013 2950 3138 2516 
L 2309 2363 
Q 2256 2556 2107 2659 
Q 1959 2763 1684 2763 
Q 1338 2763 1188 2666 
Q 1088 2597 1088 2488 
Q 1088 2394 1175 2328 
Q 1294 2241 1995 2081 
Q 2697 1922 2975 1691 
Q 3250 1456 3250 1038 
Q 3250 581 2869 253 
Q 2488 -75 1741 -75 
Q 1063 -75 667 200 
Q 272 475 150 947 
z
" transform="scale(0.015625)"/>
       <path id="Arial-BoldMT-29" d="M 216 -1347 
Q 475 -791 581 -494 
Q 688 -197 778 190 
Q 869 578 912 926 
Q 956 1275 956 1641 
Q 956 2384 797 3048 
Q 638 3713 209 4659 
L 806 4659 
Q 1278 3988 1539 3234 
Q 1800 2481 1800 1706 
Q 1800 1053 1594 306 
Q 1359 -531 822 -1347 
L 216 -1347 
z
" transform="scale(0.015625)"/>
      </defs>
      <use xlink:href="#Arial-BoldMT-4f"/>
      <use xlink:href="#Arial-BoldMT-75" transform="translate(77.783203 0)"/>
      <use xlink:href="#Arial-BoldMT-74" transform="translate(138.867188 0)"/>
      <use xlink:href="#Arial-BoldMT-70" transform="translate(172.167969 0)"/>
      <use xlink:href="#Arial-BoldMT-75" transform="translate(233.251953 0)"/>
      <use xlink:href="#Arial-BoldMT-74" transform="translate(294.335938 0)"/>
      <use xlink:href="#Arial-BoldMT-2d" transform="translate(327.636719 0)"/>
      <use xlink:href="#Arial-BoldMT-6c" transform="translate(360.9375 0)"/>
      <use xlink:href="#Arial-BoldMT-65" transform="translate(388.720703 0)"/>
      <use xlink:href="#Arial-BoldMT-6e" transform="translate(444.335938 0)"/>
      <use xlink:href="#Arial-BoldMT-67" transform="translate(505.419922 0)"/>
      <use xlink:href="#Arial-BoldMT-74" transform="translate(566.503906 0)"/>
      <use xlink:href="#Arial-BoldMT-68" transform="translate(599.804688 0)"/>
      <use xlink:href="#Arial-BoldMT-20" transform="translate(660.888672 0)"/>
      <use xlink:href="#Arial-BoldMT-62" transform="translate(688.671875 0)"/>
      <use xlink:href="#Arial-BoldMT-75" transform="translate(749.755859 0)"/>
      <use xlink:href="#Arial-BoldMT-63" transform="translate(810.839844 0)"/>
      <use xlink:href="#Arial-BoldMT-6b" transform="translate(866.455078 0)"/>
      <use xlink:href="#Arial-BoldMT-65" transform="translate(922.070312 0)"/>
      <use xlink:href="#Arial-BoldMT-74" transform="translate(977.685547 0)"/>
      <use xlink:href="#Arial-BoldMT-20" transform="translate(1010.986328 0)"/>
      <use xlink:href="#Arial-BoldMT-28" transform="translate(1038.769531 0)"/>
      <use xlink:href="#Arial-BoldMT-77" transform="translate(1072.070312 0)"/>
      <use xlink:href="#Arial-BoldMT-6f" transform="translate(1149.853516 0)"/>
      <use xlink:href="#Arial-BoldMT-72" transform="translate(1210.9375 0)"/>
      <use xlink:href="#Arial-BoldMT-64" transform="translate(1249.853516 0)"/>
      <use xlink:href="#Arial-BoldMT-73" transform="translate(1310.9375 0)"/>
      <use xlink:href="#Arial-BoldMT-29" transform="translate(1366.552734 0)"/>
     </g>
    </g>
   </g>
   <g id="matplotlib.axis_2">
    <g id="ytick_1">
     <g id="line2d_7">
      <path d="M 48.544563 241.318652 
L 363.277384 241.318652 
" clip-path="url(#p990e5701d6)" style="fill: none; stroke: #dddddd; stroke-opacity: 0.9; stroke-width: 0.8; stroke-linecap: square"/>
     </g>
     <g id="line2d_8">
      <defs>
       <path id="m43c3c8eb8d" d="M 0 0 
L -3.2 0 
" style="stroke: #222222; stroke-width: 0.8"/>
      </defs>
      <g>
       <use xlink:href="#m43c3c8eb8d" x="48.544563" y="241.318652" style="fill: #222222; stroke: #222222; stroke-width: 0.8"/>
      </g>
     </g>
     <g id="text_8">
      <!-- 0% -->
      <g style="fill: #222222" transform="translate(27.391438 244.897558) scale(0.1 -0.1)">
       <defs>
        <path id="ArialMT-25" d="M 372 3481 
Q 372 3972 619 4315 
Q 866 4659 1334 4659 
Q 1766 4659 2048 4351 
Q 2331 4044 2331 3447 
Q 2331 2866 2045 2552 
Q 1759 2238 1341 2238 
Q 925 2238 648 2547 
Q 372 2856 372 3481 
z
M 1350 4272 
Q 1141 4272 1002 4090 
Q 863 3909 863 3425 
Q 863 2984 1003 2804 
Q 1144 2625 1350 2625 
Q 1563 2625 1702 2806 
Q 1841 2988 1841 3469 
Q 1841 3913 1700 4092 
Q 1559 4272 1350 4272 
z
M 1353 -169 
L 3859 4659 
L 4316 4659 
L 1819 -169 
L 1353 -169 
z
M 3334 1075 
Q 3334 1569 3581 1911 
Q 3828 2253 4300 2253 
Q 4731 2253 5014 1945 
Q 5297 1638 5297 1041 
Q 5297 459 5011 145 
Q 4725 -169 4303 -169 
Q 3888 -169 3611 142 
Q 3334 453 3334 1075 
z
M 4316 1866 
Q 4103 1866 3964 1684 
Q 3825 1503 3825 1019 
Q 3825 581 3965 400 
Q 4106 219 4313 219 
Q 4528 219 4667 400 
Q 4806 581 4806 1063 
Q 4806 1506 4665 1686 
Q 4525 1866 4316 1866 
z
" transform="scale(0.015625)"/>
       </defs>
       <use xlink:href="#ArialMT-30"/>
       <use xlink:href="#ArialMT-25" transform="translate(55.615234 0)"/>
      </g>
     </g>
    </g>
    <g id="ytick_2">
     <g id="line2d_9">
      <path d="M 48.544563 195.728572 
L 363.277384 195.728572 
" clip-path="url(#p990e5701d6)" style="fill: none; stroke: #dddddd; stroke-opacity: 0.9; stroke-width: 0.8; stroke-linecap: square"/>
     </g>
     <g id="line2d_10">
      <g>
       <use xlink:href="#m43c3c8eb8d" x="48.544563" y="195.728572" style="fill: #222222; stroke: #222222; stroke-width: 0.8"/>
      </g>
     </g>
     <g id="text_9">
      <!-- 20% -->
      <g style="fill: #222222" transform="translate(21.8305 199.307478) scale(0.1 -0.1)">
       <use xlink:href="#ArialMT-32"/>
       <use xlink:href="#ArialMT-30" transform="translate(55.615234 0)"/>
       <use xlink:href="#ArialMT-25" transform="translate(111.230469 0)"/>
      </g>
     </g>
    </g>
    <g id="ytick_3">
     <g id="line2d_11">
      <path d="M 48.544563 150.138492 
L 363.277384 150.138492 
" clip-path="url(#p990e5701d6)" style="fill: none; stroke: #dddddd; stroke-opacity: 0.9; stroke-width: 0.8; stroke-linecap: square"/>
     </g>
     <g id="line2d_12">
      <g>
       <use xlink:href="#m43c3c8eb8d" x="48.544563" y="150.138492" style="fill: #222222; stroke: #222222; stroke-width: 0.8"/>
      </g>
     </g>
     <g id="text_10">
      <!-- 40% -->
      <g style="fill: #222222" transform="translate(21.8305 153.717398) scale(0.1 -0.1)">
       <defs>
        <path id="ArialMT-34" d="M 2069 0 
L 2069 1097 
L 81 1097 
L 81 1613 
L 2172 4581 
L 2631 4581 
L 2631 1613 
L 3250 1613 
L 3250 1097 
L 2631 1097 
L 2631 0 
L 2069 0 
z
M 2069 1613 
L 2069 3678 
L 634 1613 
L 2069 1613 
z
" transform="scale(0.015625)"/>
       </defs>
       <use xlink:href="#ArialMT-34"/>
       <use xlink:href="#ArialMT-30" transform="translate(55.615234 0)"/>
       <use xlink:href="#ArialMT-25" transform="translate(111.230469 0)"/>
      </g>
     </g>
    </g>
    <g id="ytick_4">
     <g id="line2d_13">
      <path d="M 48.544563 104.548412 
L 363.277384 104.548412 
" clip-path="url(#p990e5701d6)" style="fill: none; stroke: #dddddd; stroke-opacity: 0.9; stroke-width: 0.8; stroke-linecap: square"/>
     </g>
     <g id="line2d_14">
      <g>
       <use xlink:href="#m43c3c8eb8d" x="48.544563" y="104.548412" style="fill: #222222; stroke: #222222; stroke-width: 0.8"/>
      </g>
     </g>
     <g id="text_11">
      <!-- 60% -->
      <g style="fill: #222222" transform="translate(21.8305 108.127318) scale(0.1 -0.1)">
       <defs>
        <path id="ArialMT-36" d="M 3184 3459 
L 2625 3416 
Q 2550 3747 2413 3897 
Q 2184 4138 1850 4138 
Q 1581 4138 1378 3988 
Q 1113 3794 959 3422 
Q 806 3050 800 2363 
Q 1003 2672 1297 2822 
Q 1591 2972 1913 2972 
Q 2475 2972 2870 2558 
Q 3266 2144 3266 1488 
Q 3266 1056 3080 686 
Q 2894 316 2569 119 
Q 2244 -78 1831 -78 
Q 1128 -78 684 439 
Q 241 956 241 2144 
Q 241 3472 731 4075 
Q 1159 4600 1884 4600 
Q 2425 4600 2770 4297 
Q 3116 3994 3184 3459 
z
M 888 1484 
Q 888 1194 1011 928 
Q 1134 663 1356 523 
Q 1578 384 1822 384 
Q 2178 384 2434 671 
Q 2691 959 2691 1453 
Q 2691 1928 2437 2201 
Q 2184 2475 1800 2475 
Q 1419 2475 1153 2201 
Q 888 1928 888 1484 
z
" transform="scale(0.015625)"/>
       </defs>
       <use xlink:href="#ArialMT-36"/>
       <use xlink:href="#ArialMT-30" transform="translate(55.615234 0)"/>
       <use xlink:href="#ArialMT-25" transform="translate(111.230469 0)"/>
      </g>
     </g>
    </g>
    <g id="ytick_5">
     <g id="line2d_15">
      <path d="M 48.544563 58.958331 
L 363.277384 58.958331 
" clip-path="url(#p990e5701d6)" style="fill: none; stroke: #dddddd; stroke-opacity: 0.9; stroke-width: 0.8; stroke-linecap: square"/>
     </g>
     <g id="line2d_16">
      <g>
       <use xlink:href="#m43c3c8eb8d" x="48.544563" y="58.958331" style="fill: #222222; stroke: #222222; stroke-width: 0.8"/>
      </g>
     </g>
     <g id="text_12">
      <!-- 80% -->
      <g style="fill: #222222" transform="translate(21.8305 62.537238) scale(0.1 -0.1)">
       <defs>
        <path id="ArialMT-38" d="M 1131 2484 
Q 781 2613 612 2850 
Q 444 3088 444 3419 
Q 444 3919 803 4259 
Q 1163 4600 1759 4600 
Q 2359 4600 2725 4251 
Q 3091 3903 3091 3403 
Q 3091 3084 2923 2848 
Q 2756 2613 2416 2484 
Q 2838 2347 3058 2040 
Q 3278 1734 3278 1309 
Q 3278 722 2862 322 
Q 2447 -78 1769 -78 
Q 1091 -78 675 323 
Q 259 725 259 1325 
Q 259 1772 486 2073 
Q 713 2375 1131 2484 
z
M 1019 3438 
Q 1019 3113 1228 2906 
Q 1438 2700 1772 2700 
Q 2097 2700 2305 2904 
Q 2513 3109 2513 3406 
Q 2513 3716 2298 3927 
Q 2084 4138 1766 4138 
Q 1444 4138 1231 3931 
Q 1019 3725 1019 3438 
z
M 838 1322 
Q 838 1081 952 856 
Q 1066 631 1291 507 
Q 1516 384 1775 384 
Q 2178 384 2440 643 
Q 2703 903 2703 1303 
Q 2703 1709 2433 1975 
Q 2163 2241 1756 2241 
Q 1359 2241 1098 1978 
Q 838 1716 838 1322 
z
" transform="scale(0.015625)"/>
       </defs>
       <use xlink:href="#ArialMT-38"/>
       <use xlink:href="#ArialMT-30" transform="translate(55.615234 0)"/>
       <use xlink:href="#ArialMT-25" transform="translate(111.230469 0)"/>
      </g>
     </g>
    </g>
    <g id="text_13">
     <!-- Strict accuracy -->
     <g transform="translate(12.47325 177.408964) rotate(-90) scale(0.112 -0.112)">
      <defs>
       <path id="Arial-BoldMT-53" d="M 231 1491 
L 1131 1578 
Q 1213 1125 1461 912 
Q 1709 700 2131 700 
Q 2578 700 2804 889 
Q 3031 1078 3031 1331 
Q 3031 1494 2936 1608 
Q 2841 1722 2603 1806 
Q 2441 1863 1863 2006 
Q 1119 2191 819 2459 
Q 397 2838 397 3381 
Q 397 3731 595 4036 
Q 794 4341 1167 4500 
Q 1541 4659 2069 4659 
Q 2931 4659 3367 4281 
Q 3803 3903 3825 3272 
L 2900 3231 
Q 2841 3584 2645 3739 
Q 2450 3894 2059 3894 
Q 1656 3894 1428 3728 
Q 1281 3622 1281 3444 
Q 1281 3281 1419 3166 
Q 1594 3019 2269 2859 
Q 2944 2700 3267 2529 
Q 3591 2359 3773 2064 
Q 3956 1769 3956 1334 
Q 3956 941 3737 597 
Q 3519 253 3119 86 
Q 2719 -81 2122 -81 
Q 1253 -81 787 320 
Q 322 722 231 1491 
z
" transform="scale(0.015625)"/>
       <path id="Arial-BoldMT-69" d="M 459 3769 
L 459 4581 
L 1338 4581 
L 1338 3769 
L 459 3769 
z
M 459 0 
L 459 3319 
L 1338 3319 
L 1338 0 
L 459 0 
z
" transform="scale(0.015625)"/>
       <path id="Arial-BoldMT-61" d="M 1116 2306 
L 319 2450 
Q 453 2931 781 3162 
Q 1109 3394 1756 3394 
Q 2344 3394 2631 3255 
Q 2919 3116 3036 2902 
Q 3153 2688 3153 2116 
L 3144 1091 
Q 3144 653 3186 445 
Q 3228 238 3344 0 
L 2475 0 
Q 2441 88 2391 259 
Q 2369 338 2359 363 
Q 2134 144 1878 34 
Q 1622 -75 1331 -75 
Q 819 -75 523 203 
Q 228 481 228 906 
Q 228 1188 362 1408 
Q 497 1628 739 1745 
Q 981 1863 1438 1950 
Q 2053 2066 2291 2166 
L 2291 2253 
Q 2291 2506 2166 2614 
Q 2041 2722 1694 2722 
Q 1459 2722 1328 2630 
Q 1197 2538 1116 2306 
z
M 2291 1594 
Q 2122 1538 1756 1459 
Q 1391 1381 1278 1306 
Q 1106 1184 1106 997 
Q 1106 813 1243 678 
Q 1381 544 1594 544 
Q 1831 544 2047 700 
Q 2206 819 2256 991 
Q 2291 1103 2291 1419 
L 2291 1594 
z
" transform="scale(0.015625)"/>
       <path id="Arial-BoldMT-79" d="M 44 3319 
L 978 3319 
L 1772 963 
L 2547 3319 
L 3456 3319 
L 2284 125 
L 2075 -453 
Q 1959 -744 1854 -897 
Q 1750 -1050 1614 -1145 
Q 1478 -1241 1279 -1294 
Q 1081 -1347 831 -1347 
Q 578 -1347 334 -1294 
L 256 -606 
Q 463 -647 628 -647 
Q 934 -647 1081 -467 
Q 1228 -288 1306 -9 
L 44 3319 
z
" transform="scale(0.015625)"/>
      </defs>
      <use xlink:href="#Arial-BoldMT-53"/>
      <use xlink:href="#Arial-BoldMT-74" transform="translate(66.699219 0)"/>
      <use xlink:href="#Arial-BoldMT-72" transform="translate(100 0)"/>
      <use xlink:href="#Arial-BoldMT-69" transform="translate(138.916016 0)"/>
      <use xlink:href="#Arial-BoldMT-63" transform="translate(166.699219 0)"/>
      <use xlink:href="#Arial-BoldMT-74" transform="translate(222.314453 0)"/>
      <use xlink:href="#Arial-BoldMT-20" transform="translate(255.615234 0)"/>
      <use xlink:href="#Arial-BoldMT-61" transform="translate(283.398438 0)"/>
      <use xlink:href="#Arial-BoldMT-63" transform="translate(339.013672 0)"/>
      <use xlink:href="#Arial-BoldMT-63" transform="translate(394.628906 0)"/>
      <use xlink:href="#Arial-BoldMT-75" transform="translate(450.244141 0)"/>
      <use xlink:href="#Arial-BoldMT-72" transform="translate(511.328125 0)"/>
      <use xlink:href="#Arial-BoldMT-61" transform="translate(550.244141 0)"/>
      <use xlink:href="#Arial-BoldMT-63" transform="translate(605.859375 0)"/>
      <use xlink:href="#Arial-BoldMT-79" transform="translate(661.474609 0)"/>
     </g>
    </g>
   </g>
   <g id="line2d_17">
    <path d="M 120.074749 59.921502 
L 177.298899 123.148045 
L 234.523048 193.046803 
L 291.747197 241.318652 
" clip-path="url(#p990e5701d6)" style="fill: none; stroke: #3f6fa8; stroke-width: 2; stroke-linecap: square"/>
    <defs>
     <path id="m4aa94aff25" d="M 0 2.8 
C 0.742569 2.8 1.454824 2.504974 1.979899 1.979899 
C 2.504974 1.454824 2.8 0.742569 2.8 0 
C 2.8 -0.742569 2.504974 -1.454824 1.979899 -1.979899 
C 1.454824 -2.504974 0.742569 -2.8 0 -2.8 
C -0.742569 -2.8 -1.454824 -2.504974 -1.979899 -1.979899 
C -2.504974 -1.454824 -2.8 -0.742569 -2.8 0 
C -2.8 0.742569 -2.504974 1.454824 -1.979899 1.979899 
C -1.454824 2.504974 -0.742569 2.8 0 2.8 
z
" style="stroke: #3f6fa8"/>
    </defs>
    <g clip-path="url(#p990e5701d6)">
     <use xlink:href="#m4aa94aff25" x="120.074749" y="59.921502" style="fill: #3f6fa8; stroke: #3f6fa8"/>
     <use xlink:href="#m4aa94aff25" x="177.298899" y="123.148045" style="fill: #3f6fa8; stroke: #3f6fa8"/>
     <use xlink:href="#m4aa94aff25" x="234.523048" y="193.046803" style="fill: #3f6fa8; stroke: #3f6fa8"/>
     <use xlink:href="#m4aa94aff25" x="291.747197" y="241.318652" style="fill: #3f6fa8; stroke: #3f6fa8"/>
    </g>
   </g>
   <g id="line2d_18">
    <path d="M 62.8506 45.932594 
L 120.074749 79.571668 
L 177.298899 108.154929 
L 234.523048 124.883555 
L 291.747197 172.242773 
L 348.971347 188.714713 
" clip-path="url(#p990e5701d6)" style="fill: none; stroke: #5e9544; stroke-width: 2; stroke-linecap: square"/>
    <defs>
     <path id="m6fc65f689b" d="M -2.8 2.8 
L 2.8 2.8 
L 2.8 -2.8 
L -2.8 -2.8 
z
" style="stroke: #5e9544; stroke-linejoin: miter"/>
    </defs>
    <g clip-path="url(#p990e5701d6)">
     <use xlink:href="#m6fc65f689b" x="62.8506" y="45.932594" style="fill: #5e9544; stroke: #5e9544; stroke-linejoin: miter"/>
     <use xlink:href="#m6fc65f689b" x="120.074749" y="79.571668" style="fill: #5e9544; stroke: #5e9544; stroke-linejoin: miter"/>
     <use xlink:href="#m6fc65f689b" x="177.298899" y="108.154929" style="fill: #5e9544; stroke: #5e9544; stroke-linejoin: miter"/>
     <use xlink:href="#m6fc65f689b" x="234.523048" y="124.883555" style="fill: #5e9544; stroke: #5e9544; stroke-linejoin: miter"/>
     <use xlink:href="#m6fc65f689b" x="291.747197" y="172.242773" style="fill: #5e9544; stroke: #5e9544; stroke-linejoin: miter"/>
     <use xlink:href="#m6fc65f689b" x="348.971347" y="188.714713" style="fill: #5e9544; stroke: #5e9544; stroke-linejoin: miter"/>
    </g>
   </g>
   <g id="line2d_19">
    <path d="M 120.074749 33.190025 
L 177.298899 64.810474 
L 234.523048 86.484417 
L 291.747197 118.795312 
L 348.971347 172.16516 
" clip-path="url(#p990e5701d6)" style="fill: none; stroke: #b23b7e; stroke-width: 2; stroke-linecap: square"/>
    <defs>
     <path id="m53e0021caf" d="M 0 -2.8 
L -2.8 2.8 
L 2.8 2.8 
z
" style="stroke: #b23b7e; stroke-linejoin: miter"/>
    </defs>
    <g clip-path="url(#p990e5701d6)">
     <use xlink:href="#m53e0021caf" x="120.074749" y="33.190025" style="fill: #b23b7e; stroke: #b23b7e; stroke-linejoin: miter"/>
     <use xlink:href="#m53e0021caf" x="177.298899" y="64.810474" style="fill: #b23b7e; stroke: #b23b7e; stroke-linejoin: miter"/>
     <use xlink:href="#m53e0021caf" x="234.523048" y="86.484417" style="fill: #b23b7e; stroke: #b23b7e; stroke-linejoin: miter"/>
     <use xlink:href="#m53e0021caf" x="291.747197" y="118.795312" style="fill: #b23b7e; stroke: #b23b7e; stroke-linejoin: miter"/>
     <use xlink:href="#m53e0021caf" x="348.971347" y="172.16516" style="fill: #b23b7e; stroke: #b23b7e; stroke-linejoin: miter"/>
    </g>
   </g>
   <g id="line2d_20">
    <path d="M 62.8506 53.259571 
L 120.074749 78.158313 
L 177.298899 104.810926 
L 234.523048 123.358305 
L 291.747197 153.645421 
L 348.971347 184.331052 
" clip-path="url(#p990e5701d6)" style="fill: none; stroke: #7b5ea8; stroke-width: 2; stroke-linecap: square"/>
    <defs>
     <path id="me582c37084" d="M 0 3.959798 
L 3.959798 0 
L 0 -3.959798 
L -3.959798 0 
z
" style="stroke: #7b5ea8; stroke-linejoin: miter"/>
    </defs>
    <g clip-path="url(#p990e5701d6)">
     <use xlink:href="#me582c37084" x="62.8506" y="53.259571" style="fill: #7b5ea8; stroke: #7b5ea8; stroke-linejoin: miter"/>
     <use xlink:href="#me582c37084" x="120.074749" y="78.158313" style="fill: #7b5ea8; stroke: #7b5ea8; stroke-linejoin: miter"/>
     <use xlink:href="#me582c37084" x="177.298899" y="104.810926" style="fill: #7b5ea8; stroke: #7b5ea8; stroke-linejoin: miter"/>
     <use xlink:href="#me582c37084" x="234.523048" y="123.358305" style="fill: #7b5ea8; stroke: #7b5ea8; stroke-linejoin: miter"/>
     <use xlink:href="#me582c37084" x="291.747197" y="153.645421" style="fill: #7b5ea8; stroke: #7b5ea8; stroke-linejoin: miter"/>
     <use xlink:href="#me582c37084" x="348.971347" y="184.331052" style="fill: #7b5ea8; stroke: #7b5ea8; stroke-linejoin: miter"/>
    </g>
   </g>
   <g id="line2d_21">
    <path d="M 62.8506 41.16708 
L 120.074749 79.74316 
L 177.298899 100.580044 
L 234.523048 127.343452 
L 291.747197 190.663008 
L 348.971347 208.754309 
" clip-path="url(#p990e5701d6)" style="fill: none; stroke: #be7c1e; stroke-width: 2; stroke-linecap: square"/>
    <defs>
     <path id="ma871c68793" d="M -0 2.8 
L 2.8 -2.8 
L -2.8 -2.8 
z
" style="stroke: #be7c1e; stroke-linejoin: miter"/>
    </defs>
    <g clip-path="url(#p990e5701d6)">
     <use xlink:href="#ma871c68793" x="62.8506" y="41.16708" style="fill: #be7c1e; stroke: #be7c1e; stroke-linejoin: miter"/>
     <use xlink:href="#ma871c68793" x="120.074749" y="79.74316" style="fill: #be7c1e; stroke: #be7c1e; stroke-linejoin: miter"/>
     <use xlink:href="#ma871c68793" x="177.298899" y="100.580044" style="fill: #be7c1e; stroke: #be7c1e; stroke-linejoin: miter"/>
     <use xlink:href="#ma871c68793" x="234.523048" y="127.343452" style="fill: #be7c1e; stroke: #be7c1e; stroke-linejoin: miter"/>
     <use xlink:href="#ma871c68793" x="291.747197" y="190.663008" style="fill: #be7c1e; stroke: #be7c1e; stroke-linejoin: miter"/>
     <use xlink:href="#ma871c68793" x="348.971347" y="208.754309" style="fill: #be7c1e; stroke: #be7c1e; stroke-linejoin: miter"/>
    </g>
   </g>
   <g id="line2d_22">
    <path d="M 62.8506 43.361725 
L 120.074749 81.181453 
L 177.298899 95.683674 
L 234.523048 114.292856 
L 291.747197 192.032079 
L 348.971347 195.728572 
" clip-path="url(#p990e5701d6)" style="fill: none; stroke: #3e8c82; stroke-width: 2; stroke-linecap: square"/>
    <defs>
     <path id="mfd837cbd92" d="M -0.933333 2.8 
L 0.933333 2.8 
L 0.933333 0.933333 
L 2.8 0.933333 
L 2.8 -0.933333 
L 0.933333 -0.933333 
L 0.933333 -2.8 
L -0.933333 -2.8 
L -0.933333 -0.933333 
L -2.8 -0.933333 
L -2.8 0.933333 
L -0.933333 0.933333 
z
" style="stroke: #3e8c82; stroke-linejoin: miter"/>
    </defs>
    <g clip-path="url(#p990e5701d6)">
     <use xlink:href="#mfd837cbd92" x="62.8506" y="43.361725" style="fill: #3e8c82; stroke: #3e8c82; stroke-linejoin: miter"/>
     <use xlink:href="#mfd837cbd92" x="120.074749" y="81.181453" style="fill: #3e8c82; stroke: #3e8c82; stroke-linejoin: miter"/>
     <use xlink:href="#mfd837cbd92" x="177.298899" y="95.683674" style="fill: #3e8c82; stroke: #3e8c82; stroke-linejoin: miter"/>
     <use xlink:href="#mfd837cbd92" x="234.523048" y="114.292856" style="fill: #3e8c82; stroke: #3e8c82; stroke-linejoin: miter"/>
     <use xlink:href="#mfd837cbd92" x="291.747197" y="192.032079" style="fill: #3e8c82; stroke: #3e8c82; stroke-linejoin: miter"/>
     <use xlink:href="#mfd837cbd92" x="348.971347" y="195.728572" style="fill: #3e8c82; stroke: #3e8c82; stroke-linejoin: miter"/>
    </g>
   </g>
   <g id="patch_3">
    <path d="M 48.544563 251.725084 
L 48.544563 22.783594 
" style="fill: none; stroke: #444444; stroke-linejoin: miter; stroke-linecap: square"/>
   </g>
   <g id="patch_4">
    <path d="M 48.544563 251.725084 
L 363.277384 251.725084 
" style="fill: none; stroke: #444444; stroke-linejoin: miter; stroke-linecap: square"/>
   </g>
   <g id="text_14">
    <!-- (a)  Accuracy by output length -->
    <g transform="translate(112.626833 13.783594) scale(0.13 -0.13)">
     <defs>
      <path id="Arial-BoldMT-41" d="M 4597 0 
L 3591 0 
L 3191 1041 
L 1359 1041 
L 981 0 
L 0 0 
L 1784 4581 
L 2763 4581 
L 4597 0 
z
M 2894 1813 
L 2263 3513 
L 1644 1813 
L 2894 1813 
z
" transform="scale(0.015625)"/>
     </defs>
     <use xlink:href="#Arial-BoldMT-28"/>
     <use xlink:href="#Arial-BoldMT-61" transform="translate(33.300781 0)"/>
     <use xlink:href="#Arial-BoldMT-29" transform="translate(88.916016 0)"/>
     <use xlink:href="#Arial-BoldMT-20" transform="translate(122.216797 0)"/>
     <use xlink:href="#Arial-BoldMT-20" transform="translate(150 0)"/>
     <use xlink:href="#Arial-BoldMT-41" transform="translate(174.033203 0)"/>
     <use xlink:href="#Arial-BoldMT-63" transform="translate(246.25 0)"/>
     <use xlink:href="#Arial-BoldMT-63" transform="translate(301.865234 0)"/>
     <use xlink:href="#Arial-BoldMT-75" transform="translate(357.480469 0)"/>
     <use xlink:href="#Arial-BoldMT-72" transform="translate(418.564453 0)"/>
     <use xlink:href="#Arial-BoldMT-61" transform="translate(457.480469 0)"/>
     <use xlink:href="#Arial-BoldMT-63" transform="translate(513.095703 0)"/>
     <use xlink:href="#Arial-BoldMT-79" transform="translate(568.710938 0)"/>
     <use xlink:href="#Arial-BoldMT-20" transform="translate(624.326172 0)"/>
     <use xlink:href="#Arial-BoldMT-62" transform="translate(652.109375 0)"/>
     <use xlink:href="#Arial-BoldMT-79" transform="translate(713.193359 0)"/>
     <use xlink:href="#Arial-BoldMT-20" transform="translate(768.808594 0)"/>
     <use xlink:href="#Arial-BoldMT-6f" transform="translate(796.591797 0)"/>
     <use xlink:href="#Arial-BoldMT-75" transform="translate(857.675781 0)"/>
     <use xlink:href="#Arial-BoldMT-74" transform="translate(918.759766 0)"/>
     <use xlink:href="#Arial-BoldMT-70" transform="translate(952.060547 0)"/>
     <use xlink:href="#Arial-BoldMT-75" transform="translate(1013.144531 0)"/>
     <use xlink:href="#Arial-BoldMT-74" transform="translate(1074.228516 0)"/>
     <use xlink:href="#Arial-BoldMT-20" transform="translate(1107.529297 0)"/>
     <use xlink:href="#Arial-BoldMT-6c" transform="translate(1135.3125 0)"/>
     <use xlink:href="#Arial-BoldMT-65" transform="translate(1163.095703 0)"/>
     <use xlink:href="#Arial-BoldMT-6e" transform="translate(1218.710938 0)"/>
     <use xlink:href="#Arial-BoldMT-67" transform="translate(1279.794922 0)"/>
     <use xlink:href="#Arial-BoldMT-74" transform="translate(1340.878906 0)"/>
     <use xlink:href="#Arial-BoldMT-68" transform="translate(1374.179688 0)"/>
    </g>
   </g>
  </g>
  <g id="axes_2">
   <g id="patch_5">
    <path d="M 419.056563 251.725084 
L 733.789384 251.725084 
L 733.789384 22.783594 
L 419.056563 22.783594 
z
" style="fill: #ffffff"/>
   </g>
   <g id="matplotlib.axis_3">
    <g id="xtick_7">
     <g id="line2d_23">
      <g>
       <use xlink:href="#maa6b0a5a60" x="420.066188" y="251.725084" style="fill: #222222; stroke: #222222; stroke-width: 0.8"/>
      </g>
     </g>
     <g id="text_15">
      <!-- 100 -->
      <g style="fill: #222222" transform="translate(411.724782 265.582896) scale(0.1 -0.1)">
       <use xlink:href="#ArialMT-31"/>
       <use xlink:href="#ArialMT-30" transform="translate(55.615234 0)"/>
       <use xlink:href="#ArialMT-30" transform="translate(111.230469 0)"/>
      </g>
     </g>
    </g>
    <g id="xtick_8">
     <g id="line2d_24">
      <g>
       <use xlink:href="#maa6b0a5a60" x="467.626776" y="251.725084" style="fill: #222222; stroke: #222222; stroke-width: 0.8"/>
      </g>
     </g>
     <g id="text_16">
      <!-- 110 -->
      <g style="fill: #222222" transform="translate(459.65412 265.582896) scale(0.1 -0.1)">
       <use xlink:href="#ArialMT-31"/>
       <use xlink:href="#ArialMT-31" transform="translate(48.240234 0)"/>
       <use xlink:href="#ArialMT-30" transform="translate(103.855469 0)"/>
      </g>
     </g>
    </g>
    <g id="xtick_9">
     <g id="line2d_25">
      <g>
       <use xlink:href="#maa6b0a5a60" x="515.187364" y="251.725084" style="fill: #222222; stroke: #222222; stroke-width: 0.8"/>
      </g>
     </g>
     <g id="text_17">
      <!-- 120 -->
      <g style="fill: #222222" transform="translate(506.845958 265.582896) scale(0.1 -0.1)">
       <use xlink:href="#ArialMT-31"/>
       <use xlink:href="#ArialMT-32" transform="translate(55.615234 0)"/>
       <use xlink:href="#ArialMT-30" transform="translate(111.230469 0)"/>
      </g>
     </g>
    </g>
    <g id="xtick_10">
     <g id="line2d_26">
      <g>
       <use xlink:href="#maa6b0a5a60" x="562.747952" y="251.725084" style="fill: #222222; stroke: #222222; stroke-width: 0.8"/>
      </g>
     </g>
     <g id="text_18">
      <!-- 130 -->
      <g style="fill: #222222" transform="translate(554.406546 265.582896) scale(0.1 -0.1)">
       <defs>
        <path id="ArialMT-33" d="M 269 1209 
L 831 1284 
Q 928 806 1161 595 
Q 1394 384 1728 384 
Q 2125 384 2398 659 
Q 2672 934 2672 1341 
Q 2672 1728 2419 1979 
Q 2166 2231 1775 2231 
Q 1616 2231 1378 2169 
L 1441 2663 
Q 1497 2656 1531 2656 
Q 1891 2656 2178 2843 
Q 2466 3031 2466 3422 
Q 2466 3731 2256 3934 
Q 2047 4138 1716 4138 
Q 1388 4138 1169 3931 
Q 950 3725 888 3313 
L 325 3413 
Q 428 3978 793 4289 
Q 1159 4600 1703 4600 
Q 2078 4600 2393 4439 
Q 2709 4278 2876 4000 
Q 3044 3722 3044 3409 
Q 3044 3113 2884 2869 
Q 2725 2625 2413 2481 
Q 2819 2388 3044 2092 
Q 3269 1797 3269 1353 
Q 3269 753 2831 336 
Q 2394 -81 1725 -81 
Q 1122 -81 723 278 
Q 325 638 269 1209 
z
" transform="scale(0.015625)"/>
       </defs>
       <use xlink:href="#ArialMT-31"/>
       <use xlink:href="#ArialMT-33" transform="translate(55.615234 0)"/>
       <use xlink:href="#ArialMT-30" transform="translate(111.230469 0)"/>
      </g>
     </g>
    </g>
    <g id="xtick_11">
     <g id="line2d_27">
      <g>
       <use xlink:href="#maa6b0a5a60" x="610.30854" y="251.725084" style="fill: #222222; stroke: #222222; stroke-width: 0.8"/>
      </g>
     </g>
     <g id="text_19">
      <!-- 140 -->
      <g style="fill: #222222" transform="translate(601.967134 265.582896) scale(0.1 -0.1)">
       <use xlink:href="#ArialMT-31"/>
       <use xlink:href="#ArialMT-34" transform="translate(55.615234 0)"/>
       <use xlink:href="#ArialMT-30" transform="translate(111.230469 0)"/>
      </g>
     </g>
    </g>
    <g id="xtick_12">
     <g id="line2d_28">
      <g>
       <use xlink:href="#maa6b0a5a60" x="657.869128" y="251.725084" style="fill: #222222; stroke: #222222; stroke-width: 0.8"/>
      </g>
     </g>
     <g id="text_20">
      <!-- 150 -->
      <g style="fill: #222222" transform="translate(649.527722 265.582896) scale(0.1 -0.1)">
       <use xlink:href="#ArialMT-31"/>
       <use xlink:href="#ArialMT-35" transform="translate(55.615234 0)"/>
       <use xlink:href="#ArialMT-30" transform="translate(111.230469 0)"/>
      </g>
     </g>
    </g>
    <g id="xtick_13">
     <g id="line2d_29">
      <g>
       <use xlink:href="#maa6b0a5a60" x="705.429716" y="251.725084" style="fill: #222222; stroke: #222222; stroke-width: 0.8"/>
      </g>
     </g>
     <g id="text_21">
      <!-- 160 -->
      <g style="fill: #222222" transform="translate(697.088309 265.582896) scale(0.1 -0.1)">
       <use xlink:href="#ArialMT-31"/>
       <use xlink:href="#ArialMT-36" transform="translate(55.615234 0)"/>
       <use xlink:href="#ArialMT-30" transform="translate(111.230469 0)"/>
      </g>
     </g>
    </g>
    <g id="text_22">
     <!-- Average output length (words) -->
     <g transform="translate(495.439098 282.723646) scale(0.112 -0.112)">
      <defs>
       <path id="Arial-BoldMT-76" d="M 1372 0 
L 34 3319 
L 956 3319 
L 1581 1625 
L 1763 1059 
Q 1834 1275 1853 1344 
Q 1897 1484 1947 1625 
L 2578 3319 
L 3481 3319 
L 2163 0 
L 1372 0 
z
" transform="scale(0.015625)"/>
      </defs>
      <use xlink:href="#Arial-BoldMT-41"/>
      <use xlink:href="#Arial-BoldMT-76" transform="translate(68.466797 0)"/>
      <use xlink:href="#Arial-BoldMT-65" transform="translate(124.082031 0)"/>
      <use xlink:href="#Arial-BoldMT-72" transform="translate(179.697266 0)"/>
      <use xlink:href="#Arial-BoldMT-61" transform="translate(218.613281 0)"/>
      <use xlink:href="#Arial-BoldMT-67" transform="translate(274.228516 0)"/>
      <use xlink:href="#Arial-BoldMT-65" transform="translate(335.3125 0)"/>
      <use xlink:href="#Arial-BoldMT-20" transform="translate(390.927734 0)"/>
      <use xlink:href="#Arial-BoldMT-6f" transform="translate(418.710938 0)"/>
      <use xlink:href="#Arial-BoldMT-75" transform="translate(479.794922 0)"/>
      <use xlink:href="#Arial-BoldMT-74" transform="translate(540.878906 0)"/>
      <use xlink:href="#Arial-BoldMT-70" transform="translate(574.179688 0)"/>
      <use xlink:href="#Arial-BoldMT-75" transform="translate(635.263672 0)"/>
      <use xlink:href="#Arial-BoldMT-74" transform="translate(696.347656 0)"/>
      <use xlink:href="#Arial-BoldMT-20" transform="translate(729.648438 0)"/>
      <use xlink:href="#Arial-BoldMT-6c" transform="translate(757.431641 0)"/>
      <use xlink:href="#Arial-BoldMT-65" transform="translate(785.214844 0)"/>
      <use xlink:href="#Arial-BoldMT-6e" transform="translate(840.830078 0)"/>
      <use xlink:href="#Arial-BoldMT-67" transform="translate(901.914062 0)"/>
      <use xlink:href="#Arial-BoldMT-74" transform="translate(962.998047 0)"/>
      <use xlink:href="#Arial-BoldMT-68" transform="translate(996.298828 0)"/>
      <use xlink:href="#Arial-BoldMT-20" transform="translate(1057.382812 0)"/>
      <use xlink:href="#Arial-BoldMT-28" transform="translate(1085.166016 0)"/>
      <use xlink:href="#Arial-BoldMT-77" transform="translate(1118.466797 0)"/>
      <use xlink:href="#Arial-BoldMT-6f" transform="translate(1196.25 0)"/>
      <use xlink:href="#Arial-BoldMT-72" transform="translate(1257.333984 0)"/>
      <use xlink:href="#Arial-BoldMT-64" transform="translate(1296.25 0)"/>
      <use xlink:href="#Arial-BoldMT-73" transform="translate(1357.333984 0)"/>
      <use xlink:href="#Arial-BoldMT-29" transform="translate(1412.949219 0)"/>
     </g>
    </g>
   </g>
   <g id="matplotlib.axis_4">
    <g id="ytick_6">
     <g id="line2d_30">
      <path d="M 419.056563 238.936227 
L 733.789384 238.936227 
" clip-path="url(#p9a2862b986)" style="fill: none; stroke: #dddddd; stroke-opacity: 0.9; stroke-width: 0.8; stroke-linecap: square"/>
     </g>
     <g id="line2d_31">
      <g>
       <use xlink:href="#m43c3c8eb8d" x="419.056563" y="238.936227" style="fill: #222222; stroke: #222222; stroke-width: 0.8"/>
      </g>
     </g>
     <g id="text_23">
      <!-- 40% -->
      <g style="fill: #222222" transform="translate(392.3425 242.515134) scale(0.1 -0.1)">
       <use xlink:href="#ArialMT-34"/>
       <use xlink:href="#ArialMT-30" transform="translate(55.615234 0)"/>
       <use xlink:href="#ArialMT-25" transform="translate(111.230469 0)"/>
      </g>
     </g>
    </g>
    <g id="ytick_7">
     <g id="line2d_32">
      <path d="M 419.056563 207.512045 
L 733.789384 207.512045 
" clip-path="url(#p9a2862b986)" style="fill: none; stroke: #dddddd; stroke-opacity: 0.9; stroke-width: 0.8; stroke-linecap: square"/>
     </g>
     <g id="line2d_33">
      <g>
       <use xlink:href="#m43c3c8eb8d" x="419.056563" y="207.512045" style="fill: #222222; stroke: #222222; stroke-width: 0.8"/>
      </g>
     </g>
     <g id="text_24">
      <!-- 45% -->
      <g style="fill: #222222" transform="translate(392.3425 211.090951) scale(0.1 -0.1)">
       <use xlink:href="#ArialMT-34"/>
       <use xlink:href="#ArialMT-35" transform="translate(55.615234 0)"/>
       <use xlink:href="#ArialMT-25" transform="translate(111.230469 0)"/>
      </g>
     </g>
    </g>
    <g id="ytick_8">
     <g id="line2d_34">
      <path d="M 419.056563 176.087862 
L 733.789384 176.087862 
" clip-path="url(#p9a2862b986)" style="fill: none; stroke: #dddddd; stroke-opacity: 0.9; stroke-width: 0.8; stroke-linecap: square"/>
     </g>
     <g id="line2d_35">
      <g>
       <use xlink:href="#m43c3c8eb8d" x="419.056563" y="176.087862" style="fill: #222222; stroke: #222222; stroke-width: 0.8"/>
      </g>
     </g>
     <g id="text_25">
      <!-- 50% -->
      <g style="fill: #222222" transform="translate(392.3425 179.666769) scale(0.1 -0.1)">
       <use xlink:href="#ArialMT-35"/>
       <use xlink:href="#ArialMT-30" transform="translate(55.615234 0)"/>
       <use xlink:href="#ArialMT-25" transform="translate(111.230469 0)"/>
      </g>
     </g>
    </g>
    <g id="ytick_9">
     <g id="line2d_36">
      <path d="M 419.056563 144.66368 
L 733.789384 144.66368 
" clip-path="url(#p9a2862b986)" style="fill: none; stroke: #dddddd; stroke-opacity: 0.9; stroke-width: 0.8; stroke-linecap: square"/>
     </g>
     <g id="line2d_37">
      <g>
       <use xlink:href="#m43c3c8eb8d" x="419.056563" y="144.66368" style="fill: #222222; stroke: #222222; stroke-width: 0.8"/>
      </g>
     </g>
     <g id="text_26">
      <!-- 55% -->
      <g style="fill: #222222" transform="translate(392.3425 148.242586) scale(0.1 -0.1)">
       <use xlink:href="#ArialMT-35"/>
       <use xlink:href="#ArialMT-35" transform="translate(55.615234 0)"/>
       <use xlink:href="#ArialMT-25" transform="translate(111.230469 0)"/>
      </g>
     </g>
    </g>
    <g id="ytick_10">
     <g id="line2d_38">
      <path d="M 419.056563 113.239497 
L 733.789384 113.239497 
" clip-path="url(#p9a2862b986)" style="fill: none; stroke: #dddddd; stroke-opacity: 0.9; stroke-width: 0.8; stroke-linecap: square"/>
     </g>
     <g id="line2d_39">
      <g>
       <use xlink:href="#m43c3c8eb8d" x="419.056563" y="113.239497" style="fill: #222222; stroke: #222222; stroke-width: 0.8"/>
      </g>
     </g>
     <g id="text_27">
      <!-- 60% -->
      <g style="fill: #222222" transform="translate(392.3425 116.818403) scale(0.1 -0.1)">
       <use xlink:href="#ArialMT-36"/>
       <use xlink:href="#ArialMT-30" transform="translate(55.615234 0)"/>
       <use xlink:href="#ArialMT-25" transform="translate(111.230469 0)"/>
      </g>
     </g>
    </g>
    <g id="ytick_11">
     <g id="line2d_40">
      <path d="M 419.056563 81.815314 
L 733.789384 81.815314 
" clip-path="url(#p9a2862b986)" style="fill: none; stroke: #dddddd; stroke-opacity: 0.9; stroke-width: 0.8; stroke-linecap: square"/>
     </g>
     <g id="line2d_41">
      <g>
       <use xlink:href="#m43c3c8eb8d" x="419.056563" y="81.815314" style="fill: #222222; stroke: #222222; stroke-width: 0.8"/>
      </g>
     </g>
     <g id="text_28">
      <!-- 65% -->
      <g style="fill: #222222" transform="translate(392.3425 85.394221) scale(0.1 -0.1)">
       <use xlink:href="#ArialMT-36"/>
       <use xlink:href="#ArialMT-35" transform="translate(55.615234 0)"/>
       <use xlink:href="#ArialMT-25" transform="translate(111.230469 0)"/>
      </g>
     </g>
    </g>
    <g id="ytick_12">
     <g id="line2d_42">
      <path d="M 419.056563 50.391132 
L 733.789384 50.391132 
" clip-path="url(#p9a2862b986)" style="fill: none; stroke: #dddddd; stroke-opacity: 0.9; stroke-width: 0.8; stroke-linecap: square"/>
     </g>
     <g id="line2d_43">
      <g>
       <use xlink:href="#m43c3c8eb8d" x="419.056563" y="50.391132" style="fill: #222222; stroke: #222222; stroke-width: 0.8"/>
      </g>
     </g>
     <g id="text_29">
      <!-- 70% -->
      <g style="fill: #222222" transform="translate(392.3425 53.970038) scale(0.1 -0.1)">
       <defs>
        <path id="ArialMT-37" d="M 303 3981 
L 303 4522 
L 3269 4522 
L 3269 4084 
Q 2831 3619 2401 2847 
Q 1972 2075 1738 1259 
Q 1569 684 1522 0 
L 944 0 
Q 953 541 1156 1306 
Q 1359 2072 1739 2783 
Q 2119 3494 2547 3981 
L 303 3981 
z
" transform="scale(0.015625)"/>
       </defs>
       <use xlink:href="#ArialMT-37"/>
       <use xlink:href="#ArialMT-30" transform="translate(55.615234 0)"/>
       <use xlink:href="#ArialMT-25" transform="translate(111.230469 0)"/>
      </g>
     </g>
    </g>
    <g id="text_30">
     <!-- Strict accuracy -->
     <g transform="translate(382.98525 177.408964) rotate(-90) scale(0.112 -0.112)">
      <use xlink:href="#Arial-BoldMT-53"/>
      <use xlink:href="#Arial-BoldMT-74" transform="translate(66.699219 0)"/>
      <use xlink:href="#Arial-BoldMT-72" transform="translate(100 0)"/>
      <use xlink:href="#Arial-BoldMT-69" transform="translate(138.916016 0)"/>
      <use xlink:href="#Arial-BoldMT-63" transform="translate(166.699219 0)"/>
      <use xlink:href="#Arial-BoldMT-74" transform="translate(222.314453 0)"/>
      <use xlink:href="#Arial-BoldMT-20" transform="translate(255.615234 0)"/>
      <use xlink:href="#Arial-BoldMT-61" transform="translate(283.398438 0)"/>
      <use xlink:href="#Arial-BoldMT-63" transform="translate(339.013672 0)"/>
      <use xlink:href="#Arial-BoldMT-63" transform="translate(394.628906 0)"/>
      <use xlink:href="#Arial-BoldMT-75" transform="translate(450.244141 0)"/>
      <use xlink:href="#Arial-BoldMT-72" transform="translate(511.328125 0)"/>
      <use xlink:href="#Arial-BoldMT-61" transform="translate(550.244141 0)"/>
      <use xlink:href="#Arial-BoldMT-63" transform="translate(605.859375 0)"/>
      <use xlink:href="#Arial-BoldMT-79" transform="translate(661.474609 0)"/>
     </g>
    </g>
   </g>
   <g id="patch_6">
    <path d="M 419.056563 251.725084 
L 419.056563 22.783594 
" style="fill: none; stroke: #444444; stroke-linejoin: miter; stroke-linecap: square"/>
   </g>
   <g id="patch_7">
    <path d="M 419.056563 251.725084 
L 733.789384 251.725084 
" style="fill: none; stroke: #444444; stroke-linejoin: miter; stroke-linecap: square"/>
   </g>
   <g id="PathCollection_1">
    <defs>
     <path id="mc81b71250b" d="M 0 5.477226 
C 1.452577 5.477226 2.845856 4.900111 3.872983 3.872983 
C 4.900111 2.845856 5.477226 1.452577 5.477226 0 
C 5.477226 -1.452577 4.900111 -2.845856 3.872983 -3.872983 
C 2.845856 -4.900111 1.452577 -5.477226 0 -5.477226 
C -1.452577 -5.477226 -2.845856 -4.900111 -3.872983 -3.872983 
C -4.900111 -2.845856 -5.477226 -1.452577 -5.477226 0 
C -5.477226 1.452577 -4.900111 2.845856 -3.872983 3.872983 
C -2.845856 4.900111 -1.452577 5.477226 0 5.477226 
z
" style="stroke: #3f6fa8; stroke-width: 1.6"/>
    </defs>
    <g clip-path="url(#p9a2862b986)">
     <use xlink:href="#mc81b71250b" x="609.464781" y="223.9746" style="fill: #afc9e8; stroke: #3f6fa8; stroke-width: 1.6"/>
    </g>
   </g>
   <g id="PathCollection_2">
    <defs>
     <path id="m5c7b8a9766" d="M 0 5.477226 
C 1.452577 5.477226 2.845856 4.900111 3.872983 3.872983 
C 4.900111 2.845856 5.477226 1.452577 5.477226 0 
C 5.477226 -1.452577 4.900111 -2.845856 3.872983 -3.872983 
C 2.845856 -4.900111 1.452577 -5.477226 0 -5.477226 
C -1.452577 -5.477226 -2.845856 -4.900111 -3.872983 -3.872983 
C -4.900111 -2.845856 -5.477226 -1.452577 -5.477226 0 
C -5.477226 1.452577 -4.900111 2.845856 -3.872983 3.872983 
C -2.845856 4.900111 -1.452577 5.477226 0 5.477226 
z
" style="stroke: #5e9544; stroke-width: 1.6"/>
    </defs>
    <g clip-path="url(#p9a2862b986)">
     <use xlink:href="#m5c7b8a9766" x="457.469219" y="93.894208" style="fill: #c7e0b4; stroke: #5e9544; stroke-width: 1.6"/>
    </g>
   </g>
   <g id="PathCollection_3">
    <defs>
     <path id="m03dcd8241e" d="M 0 5.477226 
C 1.452577 5.477226 2.845856 4.900111 3.872983 3.872983 
C 4.900111 2.845856 5.477226 1.452577 5.477226 0 
C 5.477226 -1.452577 4.900111 -2.845856 3.872983 -3.872983 
C 2.845856 -4.900111 1.452577 -5.477226 0 -5.477226 
C -1.452577 -5.477226 -2.845856 -4.900111 -3.872983 -3.872983 
C -4.900111 -2.845856 -5.477226 -1.452577 -5.477226 0 
C -5.477226 1.452577 -4.900111 2.845856 -3.872983 3.872983 
C -2.845856 4.900111 -1.452577 5.477226 0 5.477226 
z
" style="stroke: #b23b7e; stroke-width: 1.6"/>
    </defs>
    <g clip-path="url(#p9a2862b986)">
     <use xlink:href="#m03dcd8241e" x="695.639951" y="50.534077" style="fill: #e6aecf; stroke: #b23b7e; stroke-width: 1.6"/>
    </g>
   </g>
   <g id="PathCollection_4">
    <defs>
     <path id="mb64d66d09c" d="M 0 5.477226 
C 1.452577 5.477226 2.845856 4.900111 3.872983 3.872983 
C 4.900111 2.845856 5.477226 1.452577 5.477226 0 
C 5.477226 -1.452577 4.900111 -2.845856 3.872983 -3.872983 
C 2.845856 -4.900111 1.452577 -5.477226 0 -5.477226 
C -1.452577 -5.477226 -2.845856 -4.900111 -3.872983 -3.872983 
C -4.900111 -2.845856 -5.477226 -1.452577 -5.477226 0 
C -5.477226 1.452577 -4.900111 2.845856 -3.872983 3.872983 
C -2.845856 4.900111 -1.452577 5.477226 0 5.477226 
z
" style="stroke: #7b5ea8; stroke-width: 1.6"/>
    </defs>
    <g clip-path="url(#p9a2862b986)">
     <use xlink:href="#mb64d66d09c" x="457.205995" y="87.699904" style="fill: #d2c2ea; stroke: #7b5ea8; stroke-width: 1.6"/>
    </g>
   </g>
   <g id="PathCollection_5">
    <defs>
     <path id="m957ca4cb18" d="M 0 5.477226 
C 1.452577 5.477226 2.845856 4.900111 3.872983 3.872983 
C 4.900111 2.845856 5.477226 1.452577 5.477226 0 
C 5.477226 -1.452577 4.900111 -2.845856 3.872983 -3.872983 
C 2.845856 -4.900111 1.452577 -5.477226 0 -5.477226 
C -1.452577 -5.477226 -2.845856 -4.900111 -3.872983 -3.872983 
C -4.900111 -2.845856 -5.477226 -1.452577 -5.477226 0 
C -5.477226 1.452577 -4.900111 2.845856 -3.872983 3.872983 
C -2.845856 4.900111 -1.452577 5.477226 0 5.477226 
z
" style="stroke: #be7c1e; stroke-width: 1.6"/>
    </defs>
    <g clip-path="url(#p9a2862b986)">
     <use xlink:href="#m957ca4cb18" x="458.381488" y="87.223419" style="fill: #f2c893; stroke: #be7c1e; stroke-width: 1.6"/>
    </g>
   </g>
   <g id="PathCollection_6">
    <defs>
     <path id="mec4af11849" d="M 0 5.477226 
C 1.452577 5.477226 2.845856 4.900111 3.872983 3.872983 
C 4.900111 2.845856 5.477226 1.452577 5.477226 0 
C 5.477226 -1.452577 4.900111 -2.845856 3.872983 -3.872983 
C 2.845856 -4.900111 1.452577 -5.477226 0 -5.477226 
C -1.452577 -5.477226 -2.845856 -4.900111 -3.872983 -3.872983 
C -4.900111 -2.845856 -5.477226 -1.452577 -5.477226 0 
C -5.477226 1.452577 -4.900111 2.845856 -3.872983 3.872983 
C -2.845856 4.900111 -1.452577 5.477226 0 5.477226 
z
" style="stroke: #3e8c82; stroke-width: 1.6"/>
    </defs>
    <g clip-path="url(#p9a2862b986)">
     <use xlink:href="#mec4af11849" x="464.734919" y="83.411539" style="fill: #a9d6d0; stroke: #3e8c82; stroke-width: 1.6"/>
    </g>
   </g>
   <g id="text_31">
    <!-- (b)  Length vs. accuracy -->
    <g transform="translate(502.019301 13.783594) scale(0.13 -0.13)">
     <defs>
      <path id="Arial-BoldMT-4c" d="M 491 0 
L 491 4544 
L 1416 4544 
L 1416 772 
L 3716 772 
L 3716 0 
L 491 0 
z
" transform="scale(0.015625)"/>
      <path id="Arial-BoldMT-2e" d="M 459 0 
L 459 878 
L 1338 878 
L 1338 0 
L 459 0 
z
" transform="scale(0.015625)"/>
     </defs>
     <use xlink:href="#Arial-BoldMT-28"/>
     <use xlink:href="#Arial-BoldMT-62" transform="translate(33.300781 0)"/>
     <use xlink:href="#Arial-BoldMT-29" transform="translate(94.384766 0)"/>
     <use xlink:href="#Arial-BoldMT-20" transform="translate(127.685547 0)"/>
     <use xlink:href="#Arial-BoldMT-20" transform="translate(155.46875 0)"/>
     <use xlink:href="#Arial-BoldMT-4c" transform="translate(183.251953 0)"/>
     <use xlink:href="#Arial-BoldMT-65" transform="translate(244.335938 0)"/>
     <use xlink:href="#Arial-BoldMT-6e" transform="translate(299.951172 0)"/>
     <use xlink:href="#Arial-BoldMT-67" transform="translate(361.035156 0)"/>
     <use xlink:href="#Arial-BoldMT-74" transform="translate(422.119141 0)"/>
     <use xlink:href="#Arial-BoldMT-68" transform="translate(455.419922 0)"/>
     <use xlink:href="#Arial-BoldMT-20" transform="translate(516.503906 0)"/>
     <use xlink:href="#Arial-BoldMT-76" transform="translate(544.287109 0)"/>
     <use xlink:href="#Arial-BoldMT-73" transform="translate(599.902344 0)"/>
     <use xlink:href="#Arial-BoldMT-2e" transform="translate(655.517578 0)"/>
     <use xlink:href="#Arial-BoldMT-20" transform="translate(683.300781 0)"/>
     <use xlink:href="#Arial-BoldMT-61" transform="translate(711.083984 0)"/>
     <use xlink:href="#Arial-BoldMT-63" transform="translate(766.699219 0)"/>
     <use xlink:href="#Arial-BoldMT-63" transform="translate(822.314453 0)"/>
     <use xlink:href="#Arial-BoldMT-75" transform="translate(877.929688 0)"/>
     <use xlink:href="#Arial-BoldMT-72" transform="translate(939.013672 0)"/>
     <use xlink:href="#Arial-BoldMT-61" transform="translate(977.929688 0)"/>
     <use xlink:href="#Arial-BoldMT-63" transform="translate(1033.544922 0)"/>
     <use xlink:href="#Arial-BoldMT-79" transform="translate(1089.160156 0)"/>
    </g>
   </g>
  </g>
  <g id="axes_3">
   <g id="patch_8">
    <path d="M 789.568562 251.725084 
L 1104.301384 251.725084 
L 1104.301384 22.783594 
L 789.568562 22.783594 
z
" style="fill: #ffffff"/>
   </g>
   <g id="matplotlib.axis_5">
    <g id="xtick_14">
     <g id="line2d_44"/>
     <g id="text_32">
      <!-- Base -->
      <g style="fill: #222222" transform="translate(793.505468 269.075741) rotate(-18) scale(0.1 -0.1)">
       <defs>
        <path id="ArialMT-42" d="M 469 0 
L 469 4581 
L 2188 4581 
Q 2713 4581 3030 4442 
Q 3347 4303 3526 4014 
Q 3706 3725 3706 3409 
Q 3706 3116 3547 2856 
Q 3388 2597 3066 2438 
Q 3481 2316 3704 2022 
Q 3928 1728 3928 1328 
Q 3928 1006 3792 729 
Q 3656 453 3456 303 
Q 3256 153 2954 76 
Q 2653 0 2216 0 
L 469 0 
z
M 1075 2656 
L 2066 2656 
Q 2469 2656 2644 2709 
Q 2875 2778 2992 2937 
Q 3109 3097 3109 3338 
Q 3109 3566 3000 3739 
Q 2891 3913 2687 3977 
Q 2484 4041 1991 4041 
L 1075 4041 
L 1075 2656 
z
M 1075 541 
L 2216 541 
Q 2509 541 2628 563 
Q 2838 600 2978 687 
Q 3119 775 3209 942 
Q 3300 1109 3300 1328 
Q 3300 1584 3169 1773 
Q 3038 1963 2805 2039 
Q 2572 2116 2134 2116 
L 1075 2116 
L 1075 541 
z
" transform="scale(0.015625)"/>
        <path id="ArialMT-61" d="M 2588 409 
Q 2275 144 1986 34 
Q 1697 -75 1366 -75 
Q 819 -75 525 192 
Q 231 459 231 875 
Q 231 1119 342 1320 
Q 453 1522 633 1644 
Q 813 1766 1038 1828 
Q 1203 1872 1538 1913 
Q 2219 1994 2541 2106 
Q 2544 2222 2544 2253 
Q 2544 2597 2384 2738 
Q 2169 2928 1744 2928 
Q 1347 2928 1158 2789 
Q 969 2650 878 2297 
L 328 2372 
Q 403 2725 575 2942 
Q 747 3159 1072 3276 
Q 1397 3394 1825 3394 
Q 2250 3394 2515 3294 
Q 2781 3194 2906 3042 
Q 3031 2891 3081 2659 
Q 3109 2516 3109 2141 
L 3109 1391 
Q 3109 606 3145 398 
Q 3181 191 3288 0 
L 2700 0 
Q 2613 175 2588 409 
z
M 2541 1666 
Q 2234 1541 1622 1453 
Q 1275 1403 1131 1340 
Q 988 1278 909 1158 
Q 831 1038 831 891 
Q 831 666 1001 516 
Q 1172 366 1500 366 
Q 1825 366 2078 508 
Q 2331 650 2450 897 
Q 2541 1088 2541 1459 
L 2541 1666 
z
" transform="scale(0.015625)"/>
        <path id="ArialMT-73" d="M 197 991 
L 753 1078 
Q 800 744 1014 566 
Q 1228 388 1613 388 
Q 2000 388 2187 545 
Q 2375 703 2375 916 
Q 2375 1106 2209 1216 
Q 2094 1291 1634 1406 
Q 1016 1563 777 1677 
Q 538 1791 414 1992 
Q 291 2194 291 2438 
Q 291 2659 392 2848 
Q 494 3038 669 3163 
Q 800 3259 1026 3326 
Q 1253 3394 1513 3394 
Q 1903 3394 2198 3281 
Q 2494 3169 2634 2976 
Q 2775 2784 2828 2463 
L 2278 2388 
Q 2241 2644 2061 2787 
Q 1881 2931 1553 2931 
Q 1166 2931 1000 2803 
Q 834 2675 834 2503 
Q 834 2394 903 2306 
Q 972 2216 1119 2156 
Q 1203 2125 1616 2013 
Q 2213 1853 2448 1751 
Q 2684 1650 2818 1456 
Q 2953 1263 2953 975 
Q 2953 694 2789 445 
Q 2625 197 2315 61 
Q 2006 -75 1616 -75 
Q 969 -75 630 194 
Q 291 463 197 991 
z
" transform="scale(0.015625)"/>
        <path id="ArialMT-65" d="M 2694 1069 
L 3275 997 
Q 3138 488 2766 206 
Q 2394 -75 1816 -75 
Q 1088 -75 661 373 
Q 234 822 234 1631 
Q 234 2469 665 2931 
Q 1097 3394 1784 3394 
Q 2450 3394 2872 2941 
Q 3294 2488 3294 1666 
Q 3294 1616 3291 1516 
L 816 1516 
Q 847 969 1125 678 
Q 1403 388 1819 388 
Q 2128 388 2347 550 
Q 2566 713 2694 1069 
z
M 847 1978 
L 2700 1978 
Q 2663 2397 2488 2606 
Q 2219 2931 1791 2931 
Q 1403 2931 1139 2672 
Q 875 2413 847 1978 
z
" transform="scale(0.015625)"/>
       </defs>
       <use xlink:href="#ArialMT-42"/>
       <use xlink:href="#ArialMT-61" transform="translate(66.699219 0)"/>
       <use xlink:href="#ArialMT-73" transform="translate(122.314453 0)"/>
       <use xlink:href="#ArialMT-65" transform="translate(172.314453 0)"/>
      </g>
     </g>
    </g>
    <g id="xtick_15">
     <g id="line2d_45"/>
     <g id="text_33">
      <!-- CoT-SFT -->
      <g style="fill: #222222" transform="translate(829.066311 274.565138) rotate(-18) scale(0.1 -0.1)">
       <defs>
        <path id="ArialMT-43" d="M 3763 1606 
L 4369 1453 
Q 4178 706 3683 314 
Q 3188 -78 2472 -78 
Q 1731 -78 1267 223 
Q 803 525 561 1097 
Q 319 1669 319 2325 
Q 319 3041 592 3573 
Q 866 4106 1370 4382 
Q 1875 4659 2481 4659 
Q 3169 4659 3637 4309 
Q 4106 3959 4291 3325 
L 3694 3184 
Q 3534 3684 3231 3912 
Q 2928 4141 2469 4141 
Q 1941 4141 1586 3887 
Q 1231 3634 1087 3207 
Q 944 2781 944 2328 
Q 944 1744 1114 1308 
Q 1284 872 1643 656 
Q 2003 441 2422 441 
Q 2931 441 3284 734 
Q 3638 1028 3763 1606 
z
" transform="scale(0.015625)"/>
        <path id="ArialMT-6f" d="M 213 1659 
Q 213 2581 725 3025 
Q 1153 3394 1769 3394 
Q 2453 3394 2887 2945 
Q 3322 2497 3322 1706 
Q 3322 1066 3130 698 
Q 2938 331 2570 128 
Q 2203 -75 1769 -75 
Q 1072 -75 642 372 
Q 213 819 213 1659 
z
M 791 1659 
Q 791 1022 1069 705 
Q 1347 388 1769 388 
Q 2188 388 2466 706 
Q 2744 1025 2744 1678 
Q 2744 2294 2464 2611 
Q 2184 2928 1769 2928 
Q 1347 2928 1069 2612 
Q 791 2297 791 1659 
z
" transform="scale(0.015625)"/>
        <path id="ArialMT-54" d="M 1659 0 
L 1659 4041 
L 150 4041 
L 150 4581 
L 3781 4581 
L 3781 4041 
L 2266 4041 
L 2266 0 
L 1659 0 
z
" transform="scale(0.015625)"/>
        <path id="ArialMT-53" d="M 288 1472 
L 859 1522 
Q 900 1178 1048 958 
Q 1197 738 1509 602 
Q 1822 466 2213 466 
Q 2559 466 2825 569 
Q 3091 672 3220 851 
Q 3350 1031 3350 1244 
Q 3350 1459 3225 1620 
Q 3100 1781 2813 1891 
Q 2628 1963 1997 2114 
Q 1366 2266 1113 2400 
Q 784 2572 623 2826 
Q 463 3081 463 3397 
Q 463 3744 659 4045 
Q 856 4347 1234 4503 
Q 1613 4659 2075 4659 
Q 2584 4659 2973 4495 
Q 3363 4331 3572 4012 
Q 3781 3694 3797 3291 
L 3216 3247 
Q 3169 3681 2898 3903 
Q 2628 4125 2100 4125 
Q 1550 4125 1298 3923 
Q 1047 3722 1047 3438 
Q 1047 3191 1225 3031 
Q 1400 2872 2139 2705 
Q 2878 2538 3153 2413 
Q 3553 2228 3743 1945 
Q 3934 1663 3934 1294 
Q 3934 928 3725 604 
Q 3516 281 3123 101 
Q 2731 -78 2241 -78 
Q 1619 -78 1198 103 
Q 778 284 539 648 
Q 300 1013 288 1472 
z
" transform="scale(0.015625)"/>
        <path id="ArialMT-46" d="M 525 0 
L 525 4581 
L 3616 4581 
L 3616 4041 
L 1131 4041 
L 1131 2622 
L 3281 2622 
L 3281 2081 
L 1131 2081 
L 1131 0 
L 525 0 
z
" transform="scale(0.015625)"/>
       </defs>
       <use xlink:href="#ArialMT-43"/>
       <use xlink:href="#ArialMT-6f" transform="translate(72.216797 0)"/>
       <use xlink:href="#ArialMT-54" transform="translate(127.832031 0)"/>
       <use xlink:href="#ArialMT-2d" transform="translate(183.416016 0)"/>
       <use xlink:href="#ArialMT-53" transform="translate(216.716797 0)"/>
       <use xlink:href="#ArialMT-46" transform="translate(283.416016 0)"/>
       <use xlink:href="#ArialMT-54" transform="translate(344.5 0)"/>
      </g>
     </g>
    </g>
    <g id="xtick_16">
     <g id="line2d_46"/>
     <g id="text_34">
      <!-- GRPO -->
      <g style="fill: #222222" transform="translate(892.085938 271.132635) rotate(-18) scale(0.1 -0.1)">
       <defs>
        <path id="ArialMT-47" d="M 2638 1797 
L 2638 2334 
L 4578 2338 
L 4578 638 
Q 4131 281 3656 101 
Q 3181 -78 2681 -78 
Q 2006 -78 1454 211 
Q 903 500 622 1047 
Q 341 1594 341 2269 
Q 341 2938 620 3517 
Q 900 4097 1425 4378 
Q 1950 4659 2634 4659 
Q 3131 4659 3532 4498 
Q 3934 4338 4162 4050 
Q 4391 3763 4509 3300 
L 3963 3150 
Q 3859 3500 3706 3700 
Q 3553 3900 3268 4020 
Q 2984 4141 2638 4141 
Q 2222 4141 1919 4014 
Q 1616 3888 1430 3681 
Q 1244 3475 1141 3228 
Q 966 2803 966 2306 
Q 966 1694 1177 1281 
Q 1388 869 1791 669 
Q 2194 469 2647 469 
Q 3041 469 3416 620 
Q 3791 772 3984 944 
L 3984 1797 
L 2638 1797 
z
" transform="scale(0.015625)"/>
        <path id="ArialMT-52" d="M 503 0 
L 503 4581 
L 2534 4581 
Q 3147 4581 3465 4457 
Q 3784 4334 3975 4021 
Q 4166 3709 4166 3331 
Q 4166 2844 3850 2509 
Q 3534 2175 2875 2084 
Q 3116 1969 3241 1856 
Q 3506 1613 3744 1247 
L 4541 0 
L 3778 0 
L 3172 953 
Q 2906 1366 2734 1584 
Q 2563 1803 2427 1890 
Q 2291 1978 2150 2013 
Q 2047 2034 1813 2034 
L 1109 2034 
L 1109 0 
L 503 0 
z
M 1109 2559 
L 2413 2559 
Q 2828 2559 3062 2645 
Q 3297 2731 3419 2920 
Q 3541 3109 3541 3331 
Q 3541 3656 3305 3865 
Q 3069 4075 2559 4075 
L 1109 4075 
L 1109 2559 
z
" transform="scale(0.015625)"/>
        <path id="ArialMT-50" d="M 494 0 
L 494 4581 
L 2222 4581 
Q 2678 4581 2919 4538 
Q 3256 4481 3484 4323 
Q 3713 4166 3852 3881 
Q 3991 3597 3991 3256 
Q 3991 2672 3619 2267 
Q 3247 1863 2275 1863 
L 1100 1863 
L 1100 0 
L 494 0 
z
M 1100 2403 
L 2284 2403 
Q 2872 2403 3119 2622 
Q 3366 2841 3366 3238 
Q 3366 3525 3220 3729 
Q 3075 3934 2838 4000 
Q 2684 4041 2272 4041 
L 1100 4041 
L 1100 2403 
z
" transform="scale(0.015625)"/>
        <path id="ArialMT-4f" d="M 309 2231 
Q 309 3372 921 4017 
Q 1534 4663 2503 4663 
Q 3138 4663 3647 4359 
Q 4156 4056 4423 3514 
Q 4691 2972 4691 2284 
Q 4691 1588 4409 1038 
Q 4128 488 3612 205 
Q 3097 -78 2500 -78 
Q 1853 -78 1343 234 
Q 834 547 571 1087 
Q 309 1628 309 2231 
z
M 934 2222 
Q 934 1394 1379 917 
Q 1825 441 2497 441 
Q 3181 441 3623 922 
Q 4066 1403 4066 2288 
Q 4066 2847 3877 3264 
Q 3688 3681 3323 3911 
Q 2959 4141 2506 4141 
Q 1863 4141 1398 3698 
Q 934 3256 934 2222 
z
" transform="scale(0.015625)"/>
       </defs>
       <use xlink:href="#ArialMT-47"/>
       <use xlink:href="#ArialMT-52" transform="translate(77.783203 0)"/>
       <use xlink:href="#ArialMT-50" transform="translate(150 0)"/>
       <use xlink:href="#ArialMT-4f" transform="translate(216.699219 0)"/>
      </g>
     </g>
    </g>
    <g id="xtick_17">
     <g id="line2d_47"/>
     <g id="text_35">
      <!-- SFT-GRPO-R1 -->
      <g style="fill: #222222" transform="translate(908.612277 282.806718) rotate(-18) scale(0.1 -0.1)">
       <use xlink:href="#ArialMT-53"/>
       <use xlink:href="#ArialMT-46" transform="translate(66.699219 0)"/>
       <use xlink:href="#ArialMT-54" transform="translate(127.783203 0)"/>
       <use xlink:href="#ArialMT-2d" transform="translate(183.367188 0)"/>
       <use xlink:href="#ArialMT-47" transform="translate(216.667969 0)"/>
       <use xlink:href="#ArialMT-52" transform="translate(294.451172 0)"/>
       <use xlink:href="#ArialMT-50" transform="translate(366.667969 0)"/>
       <use xlink:href="#ArialMT-4f" transform="translate(433.367188 0)"/>
       <use xlink:href="#ArialMT-2d" transform="translate(511.150391 0)"/>
       <use xlink:href="#ArialMT-52" transform="translate(544.451172 0)"/>
       <use xlink:href="#ArialMT-31" transform="translate(616.667969 0)"/>
      </g>
     </g>
    </g>
    <g id="xtick_18">
     <g id="line2d_48"/>
     <g id="text_36">
      <!-- SFT-GRPO-R2 -->
      <g style="fill: #222222" transform="translate(961.067747 282.806718) rotate(-18) scale(0.1 -0.1)">
       <use xlink:href="#ArialMT-53"/>
       <use xlink:href="#ArialMT-46" transform="translate(66.699219 0)"/>
       <use xlink:href="#ArialMT-54" transform="translate(127.783203 0)"/>
       <use xlink:href="#ArialMT-2d" transform="translate(183.367188 0)"/>
       <use xlink:href="#ArialMT-47" transform="translate(216.667969 0)"/>
       <use xlink:href="#ArialMT-52" transform="translate(294.451172 0)"/>
       <use xlink:href="#ArialMT-50" transform="translate(366.667969 0)"/>
       <use xlink:href="#ArialMT-4f" transform="translate(433.367188 0)"/>
       <use xlink:href="#ArialMT-2d" transform="translate(511.150391 0)"/>
       <use xlink:href="#ArialMT-52" transform="translate(544.451172 0)"/>
       <use xlink:href="#ArialMT-32" transform="translate(616.667969 0)"/>
      </g>
     </g>
    </g>
    <g id="xtick_19">
     <g id="line2d_49"/>
     <g id="text_37">
      <!-- SFT-GRPO-R3 -->
      <g style="fill: #222222" transform="translate(1013.523217 282.806718) rotate(-18) scale(0.1 -0.1)">
       <use xlink:href="#ArialMT-53"/>
       <use xlink:href="#ArialMT-46" transform="translate(66.699219 0)"/>
       <use xlink:href="#ArialMT-54" transform="translate(127.783203 0)"/>
       <use xlink:href="#ArialMT-2d" transform="translate(183.367188 0)"/>
       <use xlink:href="#ArialMT-47" transform="translate(216.667969 0)"/>
       <use xlink:href="#ArialMT-52" transform="translate(294.451172 0)"/>
       <use xlink:href="#ArialMT-50" transform="translate(366.667969 0)"/>
       <use xlink:href="#ArialMT-4f" transform="translate(433.367188 0)"/>
       <use xlink:href="#ArialMT-2d" transform="translate(511.150391 0)"/>
       <use xlink:href="#ArialMT-52" transform="translate(544.451172 0)"/>
       <use xlink:href="#ArialMT-33" transform="translate(616.667969 0)"/>
      </g>
     </g>
    </g>
   </g>
   <g id="matplotlib.axis_6">
    <g id="ytick_13">
     <g id="line2d_50">
      <path d="M 789.568562 223.639773 
L 1104.301384 223.639773 
" clip-path="url(#pd8bc4e70af)" style="fill: none; stroke: #dddddd; stroke-opacity: 0.9; stroke-width: 0.8; stroke-linecap: square"/>
     </g>
     <g id="line2d_51">
      <g>
       <use xlink:href="#m43c3c8eb8d" x="789.568562" y="223.639773" style="fill: #222222; stroke: #222222; stroke-width: 0.8"/>
      </g>
     </g>
     <g id="text_38">
      <!-- 50 -->
      <g style="fill: #222222" transform="translate(771.746687 227.218679) scale(0.1 -0.1)">
       <use xlink:href="#ArialMT-35"/>
       <use xlink:href="#ArialMT-30" transform="translate(55.615234 0)"/>
      </g>
     </g>
    </g>
    <g id="ytick_14">
     <g id="line2d_52">
      <path d="M 789.568562 183.460501 
L 1104.301384 183.460501 
" clip-path="url(#pd8bc4e70af)" style="fill: none; stroke: #dddddd; stroke-opacity: 0.9; stroke-width: 0.8; stroke-linecap: square"/>
     </g>
     <g id="line2d_53">
      <g>
       <use xlink:href="#m43c3c8eb8d" x="789.568562" y="183.460501" style="fill: #222222; stroke: #222222; stroke-width: 0.8"/>
      </g>
     </g>
     <g id="text_39">
      <!-- 100 -->
      <g style="fill: #222222" transform="translate(766.18575 187.039407) scale(0.1 -0.1)">
       <use xlink:href="#ArialMT-31"/>
       <use xlink:href="#ArialMT-30" transform="translate(55.615234 0)"/>
       <use xlink:href="#ArialMT-30" transform="translate(111.230469 0)"/>
      </g>
     </g>
    </g>
    <g id="ytick_15">
     <g id="line2d_54">
      <path d="M 789.568562 143.281229 
L 1104.301384 143.281229 
" clip-path="url(#pd8bc4e70af)" style="fill: none; stroke: #dddddd; stroke-opacity: 0.9; stroke-width: 0.8; stroke-linecap: square"/>
     </g>
     <g id="line2d_55">
      <g>
       <use xlink:href="#m43c3c8eb8d" x="789.568562" y="143.281229" style="fill: #222222; stroke: #222222; stroke-width: 0.8"/>
      </g>
     </g>
     <g id="text_40">
      <!-- 150 -->
      <g style="fill: #222222" transform="translate(766.18575 146.860136) scale(0.1 -0.1)">
       <use xlink:href="#ArialMT-31"/>
       <use xlink:href="#ArialMT-35" transform="translate(55.615234 0)"/>
       <use xlink:href="#ArialMT-30" transform="translate(111.230469 0)"/>
      </g>
     </g>
    </g>
    <g id="ytick_16">
     <g id="line2d_56">
      <path d="M 789.568562 103.101958 
L 1104.301384 103.101958 
" clip-path="url(#pd8bc4e70af)" style="fill: none; stroke: #dddddd; stroke-opacity: 0.9; stroke-width: 0.8; stroke-linecap: square"/>
     </g>
     <g id="line2d_57">
      <g>
       <use xlink:href="#m43c3c8eb8d" x="789.568562" y="103.101958" style="fill: #222222; stroke: #222222; stroke-width: 0.8"/>
      </g>
     </g>
     <g id="text_41">
      <!-- 200 -->
      <g style="fill: #222222" transform="translate(766.18575 106.680864) scale(0.1 -0.1)">
       <use xlink:href="#ArialMT-32"/>
       <use xlink:href="#ArialMT-30" transform="translate(55.615234 0)"/>
       <use xlink:href="#ArialMT-30" transform="translate(111.230469 0)"/>
      </g>
     </g>
    </g>
    <g id="ytick_17">
     <g id="line2d_58">
      <path d="M 789.568562 62.922686 
L 1104.301384 62.922686 
" clip-path="url(#pd8bc4e70af)" style="fill: none; stroke: #dddddd; stroke-opacity: 0.9; stroke-width: 0.8; stroke-linecap: square"/>
     </g>
     <g id="line2d_59">
      <g>
       <use xlink:href="#m43c3c8eb8d" x="789.568562" y="62.922686" style="fill: #222222; stroke: #222222; stroke-width: 0.8"/>
      </g>
     </g>
     <g id="text_42">
      <!-- 250 -->
      <g style="fill: #222222" transform="translate(766.18575 66.501592) scale(0.1 -0.1)">
       <use xlink:href="#ArialMT-32"/>
       <use xlink:href="#ArialMT-35" transform="translate(55.615234 0)"/>
       <use xlink:href="#ArialMT-30" transform="translate(111.230469 0)"/>
      </g>
     </g>
    </g>
    <g id="text_43">
     <!-- Output length (words) -->
     <g transform="translate(756.8285 195.727089) rotate(-90) scale(0.112 -0.112)">
      <use xlink:href="#Arial-BoldMT-4f"/>
      <use xlink:href="#Arial-BoldMT-75" transform="translate(77.783203 0)"/>
      <use xlink:href="#Arial-BoldMT-74" transform="translate(138.867188 0)"/>
      <use xlink:href="#Arial-BoldMT-70" transform="translate(172.167969 0)"/>
      <use xlink:href="#Arial-BoldMT-75" transform="translate(233.251953 0)"/>
      <use xlink:href="#Arial-BoldMT-74" transform="translate(294.335938 0)"/>
      <use xlink:href="#Arial-BoldMT-20" transform="translate(327.636719 0)"/>
      <use xlink:href="#Arial-BoldMT-6c" transform="translate(355.419922 0)"/>
      <use xlink:href="#Arial-BoldMT-65" transform="translate(383.203125 0)"/>
      <use xlink:href="#Arial-BoldMT-6e" transform="translate(438.818359 0)"/>
      <use xlink:href="#Arial-BoldMT-67" transform="translate(499.902344 0)"/>
      <use xlink:href="#Arial-BoldMT-74" transform="translate(560.986328 0)"/>
      <use xlink:href="#Arial-BoldMT-68" transform="translate(594.287109 0)"/>
      <use xlink:href="#Arial-BoldMT-20" transform="translate(655.371094 0)"/>
      <use xlink:href="#Arial-BoldMT-28" transform="translate(683.154297 0)"/>
      <use xlink:href="#Arial-BoldMT-77" transform="translate(716.455078 0)"/>
      <use xlink:href="#Arial-BoldMT-6f" transform="translate(794.238281 0)"/>
      <use xlink:href="#Arial-BoldMT-72" transform="translate(855.322266 0)"/>
      <use xlink:href="#Arial-BoldMT-64" transform="translate(894.238281 0)"/>
      <use xlink:href="#Arial-BoldMT-73" transform="translate(955.322266 0)"/>
      <use xlink:href="#Arial-BoldMT-29" transform="translate(1010.9375 0)"/>
     </g>
    </g>
   </g>
   <g id="patch_9">
    <path d="M 800.059657 166.585207 
L 831.532939 166.585207 
L 831.532939 134.44179 
L 800.059657 134.44179 
L 800.059657 166.585207 
z
" clip-path="url(#pd8bc4e70af)" style="fill: #afc9e8; stroke: #3f6fa8; stroke-width: 1.3; stroke-linejoin: miter"/>
   </g>
   <g id="line2d_60">
    <path d="M 815.796298 166.585207 
L 815.796298 214.800333 
" clip-path="url(#pd8bc4e70af)" style="fill: none; stroke: #586069; stroke-width: 0.9; stroke-linecap: square"/>
   </g>
   <g id="line2d_61">
    <path d="M 815.796298 134.44179 
L 815.796298 95.869689 
" clip-path="url(#pd8bc4e70af)" style="fill: none; stroke: #586069; stroke-width: 0.9; stroke-linecap: square"/>
   </g>
   <g id="line2d_62">
    <path d="M 807.927977 214.800333 
L 823.664618 214.800333 
" clip-path="url(#pd8bc4e70af)" style="fill: none; stroke: #586069; stroke-width: 0.9; stroke-linecap: square"/>
   </g>
   <g id="line2d_63">
    <path d="M 807.927977 95.869689 
L 823.664618 95.869689 
" clip-path="url(#pd8bc4e70af)" style="fill: none; stroke: #586069; stroke-width: 0.9; stroke-linecap: square"/>
   </g>
   <g id="patch_10">
    <path d="M 852.515127 199.53221 
L 883.988409 199.53221 
L 883.988409 162.56728 
L 852.515127 162.56728 
L 852.515127 199.53221 
z
" clip-path="url(#pd8bc4e70af)" style="fill: #c7e0b4; stroke: #5e9544; stroke-width: 1.3; stroke-linejoin: miter"/>
   </g>
   <g id="line2d_64">
    <path d="M 868.251768 199.53221 
L 868.251768 241.318652 
" clip-path="url(#pd8bc4e70af)" style="fill: none; stroke: #586069; stroke-width: 0.9; stroke-linecap: square"/>
   </g>
   <g id="line2d_65">
    <path d="M 868.251768 162.56728 
L 868.251768 107.119885 
" clip-path="url(#pd8bc4e70af)" style="fill: none; stroke: #586069; stroke-width: 0.9; stroke-linecap: square"/>
   </g>
   <g id="line2d_66">
    <path d="M 860.383447 241.318652 
L 876.120088 241.318652 
" clip-path="url(#pd8bc4e70af)" style="fill: none; stroke: #586069; stroke-width: 0.9; stroke-linecap: square"/>
   </g>
   <g id="line2d_67">
    <path d="M 860.383447 107.119885 
L 876.120088 107.119885 
" clip-path="url(#pd8bc4e70af)" style="fill: none; stroke: #586069; stroke-width: 0.9; stroke-linecap: square"/>
   </g>
   <g id="patch_11">
    <path d="M 904.970597 168.995963 
L 936.443879 168.995963 
L 936.443879 114.352154 
L 904.970597 114.352154 
L 904.970597 168.995963 
z
" clip-path="url(#pd8bc4e70af)" style="fill: #e6aecf; stroke: #b23b7e; stroke-width: 1.3; stroke-linejoin: miter"/>
   </g>
   <g id="line2d_68">
    <path d="M 920.707238 168.995963 
L 920.707238 227.6577 
" clip-path="url(#pd8bc4e70af)" style="fill: none; stroke: #586069; stroke-width: 0.9; stroke-linecap: square"/>
   </g>
   <g id="line2d_69">
    <path d="M 920.707238 114.352154 
L 920.707238 33.190025 
" clip-path="url(#pd8bc4e70af)" style="fill: none; stroke: #586069; stroke-width: 0.9; stroke-linecap: square"/>
   </g>
   <g id="line2d_70">
    <path d="M 912.838918 227.6577 
L 928.575559 227.6577 
" clip-path="url(#pd8bc4e70af)" style="fill: none; stroke: #586069; stroke-width: 0.9; stroke-linecap: square"/>
   </g>
   <g id="line2d_71">
    <path d="M 912.838918 33.190025 
L 928.575559 33.190025 
" clip-path="url(#pd8bc4e70af)" style="fill: none; stroke: #586069; stroke-width: 0.9; stroke-linecap: square"/>
   </g>
   <g id="patch_12">
    <path d="M 957.426067 199.130417 
L 988.899349 199.130417 
L 988.899349 162.56728 
L 957.426067 162.56728 
L 957.426067 199.130417 
z
" clip-path="url(#pd8bc4e70af)" style="fill: #d2c2ea; stroke: #7b5ea8; stroke-width: 1.3; stroke-linejoin: miter"/>
   </g>
   <g id="line2d_72">
    <path d="M 973.162708 199.130417 
L 973.162708 239.711481 
" clip-path="url(#pd8bc4e70af)" style="fill: none; stroke: #586069; stroke-width: 0.9; stroke-linecap: square"/>
   </g>
   <g id="line2d_73">
    <path d="M 973.162708 162.56728 
L 973.162708 107.92347 
" clip-path="url(#pd8bc4e70af)" style="fill: none; stroke: #586069; stroke-width: 0.9; stroke-linecap: square"/>
   </g>
   <g id="line2d_74">
    <path d="M 965.294388 239.711481 
L 981.031029 239.711481 
" clip-path="url(#pd8bc4e70af)" style="fill: none; stroke: #586069; stroke-width: 0.9; stroke-linecap: square"/>
   </g>
   <g id="line2d_75">
    <path d="M 965.294388 107.92347 
L 981.031029 107.92347 
" clip-path="url(#pd8bc4e70af)" style="fill: none; stroke: #586069; stroke-width: 0.9; stroke-linecap: square"/>
   </g>
   <g id="patch_13">
    <path d="M 1009.881538 198.728624 
L 1041.35482 198.728624 
L 1041.35482 160.960109 
L 1009.881538 160.960109 
L 1009.881538 198.728624 
z
" clip-path="url(#pd8bc4e70af)" style="fill: #f2c893; stroke: #be7c1e; stroke-width: 1.3; stroke-linejoin: miter"/>
   </g>
   <g id="line2d_76">
    <path d="M 1025.618179 198.728624 
L 1025.618179 239.711481 
" clip-path="url(#pd8bc4e70af)" style="fill: none; stroke: #586069; stroke-width: 0.9; stroke-linecap: square"/>
   </g>
   <g id="line2d_77">
    <path d="M 1025.618179 160.960109 
L 1025.618179 104.709129 
" clip-path="url(#pd8bc4e70af)" style="fill: none; stroke: #586069; stroke-width: 0.9; stroke-linecap: square"/>
   </g>
   <g id="line2d_78">
    <path d="M 1017.749858 239.711481 
L 1033.486499 239.711481 
" clip-path="url(#pd8bc4e70af)" style="fill: none; stroke: #586069; stroke-width: 0.9; stroke-linecap: square"/>
   </g>
   <g id="line2d_79">
    <path d="M 1017.749858 104.709129 
L 1033.486499 104.709129 
" clip-path="url(#pd8bc4e70af)" style="fill: none; stroke: #586069; stroke-width: 0.9; stroke-linecap: square"/>
   </g>
   <g id="patch_14">
    <path d="M 1062.337008 197.925039 
L 1093.81029 197.925039 
L 1093.81029 160.156523 
L 1062.337008 160.156523 
L 1062.337008 197.925039 
z
" clip-path="url(#pd8bc4e70af)" style="fill: #a9d6d0; stroke: #3e8c82; stroke-width: 1.3; stroke-linejoin: miter"/>
   </g>
   <g id="line2d_80">
    <path d="M 1078.073649 197.925039 
L 1078.073649 239.711481 
" clip-path="url(#pd8bc4e70af)" style="fill: none; stroke: #586069; stroke-width: 0.9; stroke-linecap: square"/>
   </g>
   <g id="line2d_81">
    <path d="M 1078.073649 160.156523 
L 1078.073649 103.905543 
" clip-path="url(#pd8bc4e70af)" style="fill: none; stroke: #586069; stroke-width: 0.9; stroke-linecap: square"/>
   </g>
   <g id="line2d_82">
    <path d="M 1070.205328 239.711481 
L 1085.941969 239.711481 
" clip-path="url(#pd8bc4e70af)" style="fill: none; stroke: #586069; stroke-width: 0.9; stroke-linecap: square"/>
   </g>
   <g id="line2d_83">
    <path d="M 1070.205328 103.905543 
L 1085.941969 103.905543 
" clip-path="url(#pd8bc4e70af)" style="fill: none; stroke: #586069; stroke-width: 0.9; stroke-linecap: square"/>
   </g>
   <g id="line2d_84">
    <path d="M 800.059657 149.709913 
L 831.532939 149.709913 
" clip-path="url(#pd8bc4e70af)" style="fill: none; stroke: #111111; stroke-width: 1.3"/>
   </g>
   <g id="line2d_85">
    <path d="M 852.515127 182.656916 
L 883.988409 182.656916 
" clip-path="url(#pd8bc4e70af)" style="fill: none; stroke: #111111; stroke-width: 1.3"/>
   </g>
   <g id="line2d_86">
    <path d="M 904.970597 142.477644 
L 936.443879 142.477644 
" clip-path="url(#pd8bc4e70af)" style="fill: none; stroke: #111111; stroke-width: 1.3"/>
   </g>
   <g id="line2d_87">
    <path d="M 957.426067 181.85333 
L 988.899349 181.85333 
" clip-path="url(#pd8bc4e70af)" style="fill: none; stroke: #111111; stroke-width: 1.3"/>
   </g>
   <g id="line2d_88">
    <path d="M 1009.881538 182.656916 
L 1041.35482 182.656916 
" clip-path="url(#pd8bc4e70af)" style="fill: none; stroke: #111111; stroke-width: 1.3"/>
   </g>
   <g id="line2d_89">
    <path d="M 1062.337008 180.246159 
L 1093.81029 180.246159 
" clip-path="url(#pd8bc4e70af)" style="fill: none; stroke: #111111; stroke-width: 1.3"/>
   </g>
   <g id="patch_15">
    <path d="M 789.568562 251.725084 
L 789.568562 22.783594 
" style="fill: none; stroke: #444444; stroke-linejoin: miter; stroke-linecap: square"/>
   </g>
   <g id="patch_16">
    <path d="M 789.568562 251.725084 
L 1104.301384 251.725084 
" style="fill: none; stroke: #444444; stroke-linejoin: miter; stroke-linecap: square"/>
   </g>
   <g id="text_44">
    <!-- (c)  Length distribution -->
    <g transform="translate(876.174348 13.783594) scale(0.13 -0.13)">
     <use xlink:href="#Arial-BoldMT-28"/>
     <use xlink:href="#Arial-BoldMT-63" transform="translate(33.300781 0)"/>
     <use xlink:href="#Arial-BoldMT-29" transform="translate(88.916016 0)"/>
     <use xlink:href="#Arial-BoldMT-20" transform="translate(122.216797 0)"/>
     <use xlink:href="#Arial-BoldMT-20" transform="translate(150 0)"/>
     <use xlink:href="#Arial-BoldMT-4c" transform="translate(177.783203 0)"/>
     <use xlink:href="#Arial-BoldMT-65" transform="translate(238.867188 0)"/>
     <use xlink:href="#Arial-BoldMT-6e" transform="translate(294.482422 0)"/>
     <use xlink:href="#Arial-BoldMT-67" transform="translate(355.566406 0)"/>
     <use xlink:href="#Arial-BoldMT-74" transform="translate(416.650391 0)"/>
     <use xlink:href="#Arial-BoldMT-68" transform="translate(449.951172 0)"/>
     <use xlink:href="#Arial-BoldMT-20" transform="translate(511.035156 0)"/>
     <use xlink:href="#Arial-BoldMT-64" transform="translate(538.818359 0)"/>
     <use xlink:href="#Arial-BoldMT-69" transform="translate(599.902344 0)"/>
     <use xlink:href="#Arial-BoldMT-73" transform="translate(627.685547 0)"/>
     <use xlink:href="#Arial-BoldMT-74" transform="translate(683.300781 0)"/>
     <use xlink:href="#Arial-BoldMT-72" transform="translate(716.601562 0)"/>
     <use xlink:href="#Arial-BoldMT-69" transform="translate(755.517578 0)"/>
     <use xlink:href="#Arial-BoldMT-62" transform="translate(783.300781 0)"/>
     <use xlink:href="#Arial-BoldMT-75" transform="translate(844.384766 0)"/>
     <use xlink:href="#Arial-BoldMT-74" transform="translate(905.46875 0)"/>
     <use xlink:href="#Arial-BoldMT-69" transform="translate(938.769531 0)"/>
     <use xlink:href="#Arial-BoldMT-6f" transform="translate(966.552734 0)"/>
     <use xlink:href="#Arial-BoldMT-6e" transform="translate(1027.636719 0)"/>
    </g>
   </g>
  </g>
  <g id="legend_1">
   <g id="patch_17">
    <path d="M 270.627103 333.030451 
L 838.103665 333.030451 
Q 840.103665 333.030451 840.103665 331.030451 
L 840.103665 316.885138 
Q 840.103665 314.885138 838.103665 314.885138 
L 270.627103 314.885138 
Q 268.627103 314.885138 268.627103 316.885138 
L 268.627103 331.030451 
Q 268.627103 333.030451 270.627103 333.030451 
z
" style="fill: #ffffff; opacity: 0.95; stroke: #c9c9c9; stroke-width: 1.2; stroke-linejoin: miter"/>
   </g>
   <g id="line2d_90">
    <path d="M 273.127103 323.042951 
L 283.127103 323.042951 
L 293.127103 323.042951 
" style="fill: none; stroke: #3f6fa8; stroke-width: 2; stroke-linecap: square"/>
    <g>
     <use xlink:href="#m4aa94aff25" x="283.127103" y="323.042951" style="fill: #3f6fa8; stroke: #3f6fa8"/>
    </g>
   </g>
   <g id="text_45">
    <!-- Base -->
    <g transform="translate(301.127103 326.542951) scale(0.1 -0.1)">
     <use xlink:href="#ArialMT-42"/>
     <use xlink:href="#ArialMT-61" transform="translate(66.699219 0)"/>
     <use xlink:href="#ArialMT-73" transform="translate(122.314453 0)"/>
     <use xlink:href="#ArialMT-65" transform="translate(172.314453 0)"/>
    </g>
   </g>
   <g id="line2d_91">
    <path d="M 343.91929 323.042951 
L 353.91929 323.042951 
L 363.91929 323.042951 
" style="fill: none; stroke: #5e9544; stroke-width: 2; stroke-linecap: square"/>
    <g>
     <use xlink:href="#m6fc65f689b" x="353.91929" y="323.042951" style="fill: #5e9544; stroke: #5e9544; stroke-linejoin: miter"/>
    </g>
   </g>
   <g id="text_46">
    <!-- CoT-SFT -->
    <g transform="translate(371.91929 326.542951) scale(0.1 -0.1)">
     <use xlink:href="#ArialMT-43"/>
     <use xlink:href="#ArialMT-6f" transform="translate(72.216797 0)"/>
     <use xlink:href="#ArialMT-54" transform="translate(127.832031 0)"/>
     <use xlink:href="#ArialMT-2d" transform="translate(183.416016 0)"/>
     <use xlink:href="#ArialMT-53" transform="translate(216.716797 0)"/>
     <use xlink:href="#ArialMT-46" transform="translate(283.416016 0)"/>
     <use xlink:href="#ArialMT-54" transform="translate(344.5 0)"/>
    </g>
   </g>
   <g id="line2d_92">
    <path d="M 432.47554 323.042951 
L 442.47554 323.042951 
L 452.47554 323.042951 
" style="fill: none; stroke: #b23b7e; stroke-width: 2; stroke-linecap: square"/>
    <g>
     <use xlink:href="#m53e0021caf" x="442.47554" y="323.042951" style="fill: #b23b7e; stroke: #b23b7e; stroke-linejoin: miter"/>
    </g>
   </g>
   <g id="text_47">
    <!-- GRPO -->
    <g transform="translate(460.47554 326.542951) scale(0.1 -0.1)">
     <use xlink:href="#ArialMT-47"/>
     <use xlink:href="#ArialMT-52" transform="translate(77.783203 0)"/>
     <use xlink:href="#ArialMT-50" transform="translate(150 0)"/>
     <use xlink:href="#ArialMT-4f" transform="translate(216.699219 0)"/>
    </g>
   </g>
   <g id="line2d_93">
    <path d="M 509.923978 323.042951 
L 519.923978 323.042951 
L 529.923978 323.042951 
" style="fill: none; stroke: #7b5ea8; stroke-width: 2; stroke-linecap: square"/>
    <g>
     <use xlink:href="#me582c37084" x="519.923978" y="323.042951" style="fill: #7b5ea8; stroke: #7b5ea8; stroke-linejoin: miter"/>
    </g>
   </g>
   <g id="text_48">
    <!-- SFT-GRPO-R1 -->
    <g transform="translate(537.923978 326.542951) scale(0.1 -0.1)">
     <use xlink:href="#ArialMT-53"/>
     <use xlink:href="#ArialMT-46" transform="translate(66.699219 0)"/>
     <use xlink:href="#ArialMT-54" transform="translate(127.783203 0)"/>
     <use xlink:href="#ArialMT-2d" transform="translate(183.367188 0)"/>
     <use xlink:href="#ArialMT-47" transform="translate(216.667969 0)"/>
     <use xlink:href="#ArialMT-52" transform="translate(294.451172 0)"/>
     <use xlink:href="#ArialMT-50" transform="translate(366.667969 0)"/>
     <use xlink:href="#ArialMT-4f" transform="translate(433.367188 0)"/>
     <use xlink:href="#ArialMT-2d" transform="translate(511.150391 0)"/>
     <use xlink:href="#ArialMT-52" transform="translate(544.451172 0)"/>
     <use xlink:href="#ArialMT-31" transform="translate(616.667969 0)"/>
    </g>
   </g>
   <g id="line2d_94">
    <path d="M 625.15054 323.042951 
L 635.15054 323.042951 
L 645.15054 323.042951 
" style="fill: none; stroke: #be7c1e; stroke-width: 2; stroke-linecap: square"/>
    <g>
     <use xlink:href="#ma871c68793" x="635.15054" y="323.042951" style="fill: #be7c1e; stroke: #be7c1e; stroke-linejoin: miter"/>
    </g>
   </g>
   <g id="text_49">
    <!-- SFT-GRPO-R2 -->
    <g transform="translate(653.15054 326.542951) scale(0.1 -0.1)">
     <use xlink:href="#ArialMT-53"/>
     <use xlink:href="#ArialMT-46" transform="translate(66.699219 0)"/>
     <use xlink:href="#ArialMT-54" transform="translate(127.783203 0)"/>
     <use xlink:href="#ArialMT-2d" transform="translate(183.367188 0)"/>
     <use xlink:href="#ArialMT-47" transform="translate(216.667969 0)"/>
     <use xlink:href="#ArialMT-52" transform="translate(294.451172 0)"/>
     <use xlink:href="#ArialMT-50" transform="translate(366.667969 0)"/>
     <use xlink:href="#ArialMT-4f" transform="translate(433.367188 0)"/>
     <use xlink:href="#ArialMT-2d" transform="translate(511.150391 0)"/>
     <use xlink:href="#ArialMT-52" transform="translate(544.451172 0)"/>
     <use xlink:href="#ArialMT-32" transform="translate(616.667969 0)"/>
    </g>
   </g>
   <g id="line2d_95">
    <path d="M 740.377103 323.042951 
L 750.377103 323.042951 
L 760.377103 323.042951 
" style="fill: none; stroke: #3e8c82; stroke-width: 2; stroke-linecap: square"/>
    <g>
     <use xlink:href="#mfd837cbd92" x="750.377103" y="323.042951" style="fill: #3e8c82; stroke: #3e8c82; stroke-linejoin: miter"/>
    </g>
   </g>
   <g id="text_50">
    <!-- SFT-GRPO-R3 -->
    <g transform="translate(768.377103 326.542951) scale(0.1 -0.1)">
     <use xlink:href="#ArialMT-53"/>
     <use xlink:href="#ArialMT-46" transform="translate(66.699219 0)"/>
     <use xlink:href="#ArialMT-54" transform="translate(127.783203 0)"/>
     <use xlink:href="#ArialMT-2d" transform="translate(183.367188 0)"/>
     <use xlink:href="#ArialMT-47" transform="translate(216.667969 0)"/>
     <use xlink:href="#ArialMT-52" transform="translate(294.451172 0)"/>
     <use xlink:href="#ArialMT-50" transform="translate(366.667969 0)"/>
     <use xlink:href="#ArialMT-4f" transform="translate(433.367188 0)"/>
     <use xlink:href="#ArialMT-2d" transform="translate(511.150391 0)"/>
     <use xlink:href="#ArialMT-52" transform="translate(544.451172 0)"/>
     <use xlink:href="#ArialMT-33" transform="translate(616.667969 0)"/>
    </g>
   </g>
  </g>
 </g>
 <defs>
  <clipPath id="p990e5701d6">
   <rect x="48.544563" y="22.783594" width="314.732821" height="228.94149"/>
  </clipPath>
  <clipPath id="p9a2862b986">
   <rect x="419.056563" y="22.783594" width="314.732821" height="228.94149"/>
  </clipPath>
  <clipPath id="pd8bc4e70af">
   <rect x="789.568562" y="22.783594" width="314.732821" height="228.94149"/>
  </clipPath>
 </defs>
</svg>
