<?xml version="1.0" encoding="utf-8" standalone="no"?>
<!DOCTYPE svg PUBLIC "-//W3C//DTD SVG 1.1//EN"
  "http://www.w3.org/Graphics/SVG/1.1/DTD/svg11.dtd">
<svg xmlns:xlink="http://www.w3.org/1999/xlink" width="504.185147pt" height="439.744766pt" viewBox="0 0 504.185147 439.744766" xmlns="http://www.w3.org/2000/svg" version="1.1">
 <metadata>
  <rdf:RDF xmlns:dc="http://purl.org/dc/elements/1.1/" xmlns:cc="http://creativecommons.org/ns#" xmlns:rdf="http://www.w3.org/1999/02/22-rdf-syntax-ns#">
   <cc:Work>
    <dc:type rdf:resource="http://purl.org/dc/dcmitype/StillImage"/>
    <dc:date>2026-06-20T02:51:24.268487</dc:date>
    <dc:format>image/svg+xml</dc:format>
    <dc:creator>
     <cc:Agent>
      <dc:title>Matplotlib v3.10.8, https://matplotlib.org/</dc:title>
     </cc:Agent>
    </dc:creator>
   </cc:Work>
  </rdf:RDF>
 </metadata>
 <defs>
  <style type="text/css">*{stroke-linejoin: round; stroke-linecap: butt}</style>
 </defs>
 <g id="figure_1">
  <g id="patch_1">
   <path d="M 0 439.744766 
L 504.185147 439.744766 
L 504.185147 0 
L 0 0 
z
" style="fill: #ffffff"/>
  </g>
  <g id="axes_1">
   <g id="patch_2">
    <path d="M 395.395585 233.097633 
C 395.395585 207.591405 390.371414 182.333192 380.610603 158.768509 
C 370.849792 135.203827 356.542163 113.790948 338.506536 95.755321 
C 320.470909 77.719694 299.05803 63.412065 275.493347 53.651254 
C 251.928665 43.890443 226.670452 38.866272 201.164224 38.866272 
C 175.657995 38.866272 150.399782 43.890443 126.8351 53.651254 
C 103.270417 63.412065 81.857538 77.719694 63.821911 95.755321 
C 45.786284 113.790948 31.478656 135.203827 21.717844 158.768509 
C 11.957033 182.333192 6.932862 207.591405 6.932862 233.097633 
C 6.932862 258.603862 11.957033 283.862075 21.717844 307.426757 
C 31.478656 330.99144 45.786284 352.404319 63.821911 370.439946 
C 81.857538 388.475573 103.270417 402.783201 126.8351 412.544012 
C 150.399782 422.304824 175.657995 427.328994 201.164224 427.328994 
C 226.670452 427.328994 251.928665 422.304824 275.493347 412.544012 
C 299.05803 402.783201 320.470909 388.475573 338.506536 370.439946 
C 356.542163 352.404319 370.849792 330.99144 380.610603 307.426757 
C 390.371414 283.862075 395.395585 258.603862 395.395585 233.097633 
M 201.164224 233.097633 
C 201.164224 233.097633 201.164224 233.097633 201.164224 233.097633 
C 201.164224 233.097633 201.164224 233.097633 201.164224 233.097633 
C 201.164224 233.097633 201.164224 233.097633 201.164224 233.097633 
C 201.164224 233.097633 201.164224 233.097633 201.164224 233.097633 
C 201.164224 233.097633 201.164224 233.097633 201.164224 233.097633 
C 201.164224 233.097633 201.164224 233.097633 201.164224 233.097633 
C 201.164224 233.097633 201.164224 233.097633 201.164224 233.097633 
C 201.164224 233.097633 201.164224 233.097633 201.164224 233.097633 
C 201.164224 233.097633 201.164224 233.097633 201.164224 233.097633 
C 201.164224 233.097633 201.164224 233.097633 201.164224 233.097633 
C 201.164224 233.097633 201.164224 233.097633 201.164224 233.097633 
C 201.164224 233.097633 201.164224 233.097633 201.164224 233.097633 
C 201.164224 233.097633 201.164224 233.097633 201.164224 233.097633 
C 201.164224 233.097633 201.164224 233.097633 201.164224 233.097633 
C 201.164224 233.097633 201.164224 233.097633 201.164224 233.097633 
C 201.164224 233.097633 201.164224 233.097633 201.164224 233.097633 
z
" style="fill: #ffffff"/>
   </g>
   <g id="matplotlib.axis_1">
    <g id="xtick_1">
     <g id="line2d_1">
      <path d="M 201.164224 233.097633 
L 395.395585 233.097633 
" clip-path="url(#p41a67e7b28)" style="fill: none; stroke: #d6d9dc; stroke-opacity: 0.9; stroke-width: 0.7; stroke-linecap: square"/>
     </g>
     <g id="text_1">
      <!-- Strict Acc -->
      <g style="fill: #222222" transform="translate(388.257303 235.68279) scale(0.1 -0.1)">
       <defs>
        <path id="ArialMT-53" d="M 288 1472 
L 859 1522 
Q 900 1178 1048 958 
Q 1197 738 1509 602 
Q 1822 466 2213 466 
Q 2559 466 2825 569 
Q 3091 672 3220 851 
Q 3350 1031 3350 1244 
Q 3350 1459 3225 1620 
Q 3100 1781 2813 1891 
Q 2628 1963 1997 2114 
Q 1366 2266 1113 2400 
Q 784 2572 623 2826 
Q 463 3081 463 3397 
Q 463 3744 659 4045 
Q 856 4347 1234 4503 
Q 1613 4659 2075 4659 
Q 2584 4659 2973 4495 
Q 3363 4331 3572 4012 
Q 3781 3694 3797 3291 
L 3216 3247 
Q 3169 3681 2898 3903 
Q 2628 4125 2100 4125 
Q 1550 4125 1298 3923 
Q 1047 3722 1047 3438 
Q 1047 3191 1225 3031 
Q 1400 2872 2139 2705 
Q 2878 2538 3153 2413 
Q 3553 2228 3743 1945 
Q 3934 1663 3934 1294 
Q 3934 928 3725 604 
Q 3516 281 3123 101 
Q 2731 -78 2241 -78 
Q 1619 -78 1198 103 
Q 778 284 539 648 
Q 300 1013 288 1472 
z
" transform="scale(0.015625)"/>
        <path id="ArialMT-74" d="M 1650 503 
L 1731 6 
Q 1494 -44 1306 -44 
Q 1000 -44 831 53 
Q 663 150 594 308 
Q 525 466 525 972 
L 525 2881 
L 113 2881 
L 113 3319 
L 525 3319 
L 525 4141 
L 1084 4478 
L 1084 3319 
L 1650 3319 
L 1650 2881 
L 1084 2881 
L 1084 941 
Q 1084 700 1114 631 
Q 1144 563 1211 522 
Q 1278 481 1403 481 
Q 1497 481 1650 503 
z
" transform="scale(0.015625)"/>
        <path id="ArialMT-72" d="M 416 0 
L 416 3319 
L 922 3319 
L 922 2816 
Q 1116 3169 1280 3281 
Q 1444 3394 1641 3394 
Q 1925 3394 2219 3213 
L 2025 2691 
Q 1819 2813 1613 2813 
Q 1428 2813 1281 2702 
Q 1134 2591 1072 2394 
Q 978 2094 978 1738 
L 978 0 
L 416 0 
z
" transform="scale(0.015625)"/>
        <path id="ArialMT-69" d="M 425 3934 
L 425 4581 
L 988 4581 
L 988 3934 
L 425 3934 
z
M 425 0 
L 425 3319 
L 988 3319 
L 988 0 
L 425 0 
z
" transform="scale(0.015625)"/>
        <path id="ArialMT-63" d="M 2588 1216 
L 3141 1144 
Q 3050 572 2676 248 
Q 2303 -75 1759 -75 
Q 1078 -75 664 370 
Q 250 816 250 1647 
Q 250 2184 428 2587 
Q 606 2991 970 3192 
Q 1334 3394 1763 3394 
Q 2303 3394 2647 3120 
Q 2991 2847 3088 2344 
L 2541 2259 
Q 2463 2594 2264 2762 
Q 2066 2931 1784 2931 
Q 1359 2931 1093 2626 
Q 828 2322 828 1663 
Q 828 994 1084 691 
Q 1341 388 1753 388 
Q 2084 388 2306 591 
Q 2528 794 2588 1216 
z
" transform="scale(0.015625)"/>
        <path id="ArialMT-20" transform="scale(0.015625)"/>
        <path id="ArialMT-41" d="M -9 0 
L 1750 4581 
L 2403 4581 
L 4278 0 
L 3588 0 
L 3053 1388 
L 1138 1388 
L 634 0 
L -9 0 
z
M 1313 1881 
L 2866 1881 
L 2388 3150 
Q 2169 3728 2063 4100 
Q 1975 3659 1816 3225 
L 1313 1881 
z
" transform="scale(0.015625)"/>
       </defs>
       <use xlink:href="#ArialMT-53"/>
       <use xlink:href="#ArialMT-74" transform="translate(66.699219 0)"/>
       <use xlink:href="#ArialMT-72" transform="translate(94.482422 0)"/>
       <use xlink:href="#ArialMT-69" transform="translate(127.783203 0)"/>
       <use xlink:href="#ArialMT-63" transform="translate(150 0)"/>
       <use xlink:href="#ArialMT-74" transform="translate(200 0)"/>
       <use xlink:href="#ArialMT-20" transform="translate(227.783203 0)"/>
       <use xlink:href="#ArialMT-41" transform="translate(250.066406 0)"/>
       <use xlink:href="#ArialMT-63" transform="translate(316.765625 0)"/>
       <use xlink:href="#ArialMT-63" transform="translate(366.765625 0)"/>
      </g>
     </g>
    </g>
    <g id="xtick_2">
     <g id="line2d_2">
      <path d="M 201.164224 233.097633 
L 261.185015 48.372632 
" clip-path="url(#p41a67e7b28)" style="fill: none; stroke: #d6d9dc; stroke-opacity: 0.9; stroke-width: 0.7; stroke-linecap: square"/>
     </g>
     <g id="text_2">
      <!-- Format -->
      <g style="fill: #222222" transform="translate(249.584954 37.928314) scale(0.1 -0.1)">
       <defs>
        <path id="ArialMT-46" d="M 525 0 
L 525 4581 
L 3616 4581 
L 3616 4041 
L 1131 4041 
L 1131 2622 
L 3281 2622 
L 3281 2081 
L 1131 2081 
L 1131 0 
L 525 0 
z
" transform="scale(0.015625)"/>
        <path id="ArialMT-6f" d="M 213 1659 
Q 213 2581 725 3025 
Q 1153 3394 1769 3394 
Q 2453 3394 2887 2945 
Q 3322 2497 3322 1706 
Q 3322 1066 3130 698 
Q 2938 331 2570 128 
Q 2203 -75 1769 -75 
Q 1072 -75 642 372 
Q 213 819 213 1659 
z
M 791 1659 
Q 791 1022 1069 705 
Q 1347 388 1769 388 
Q 2188 388 2466 706 
Q 2744 1025 2744 1678 
Q 2744 2294 2464 2611 
Q 2184 2928 1769 2928 
Q 1347 2928 1069 2612 
Q 791 2297 791 1659 
z
" transform="scale(0.015625)"/>
        <path id="ArialMT-6d" d="M 422 0 
L 422 3319 
L 925 3319 
L 925 2853 
Q 1081 3097 1340 3245 
Q 1600 3394 1931 3394 
Q 2300 3394 2536 3241 
Q 2772 3088 2869 2813 
Q 3263 3394 3894 3394 
Q 4388 3394 4653 3120 
Q 4919 2847 4919 2278 
L 4919 0 
L 4359 0 
L 4359 2091 
Q 4359 2428 4304 2576 
Q 4250 2725 4106 2815 
Q 3963 2906 3769 2906 
Q 3419 2906 3187 2673 
Q 2956 2441 2956 1928 
L 2956 0 
L 2394 0 
L 2394 2156 
Q 2394 2531 2256 2718 
Q 2119 2906 1806 2906 
Q 1569 2906 1367 2781 
Q 1166 2656 1075 2415 
Q 984 2175 984 1722 
L 984 0 
L 422 0 
z
" transform="scale(0.015625)"/>
        <path id="ArialMT-61" d="M 2588 409 
Q 2275 144 1986 34 
Q 1697 -75 1366 -75 
Q 819 -75 525 192 
Q 231 459 231 875 
Q 231 1119 342 1320 
Q 453 1522 633 1644 
Q 813 1766 1038 1828 
Q 1203 1872 1538 1913 
Q 2219 1994 2541 2106 
Q 2544 2222 2544 2253 
Q 2544 2597 2384 2738 
Q 2169 2928 1744 2928 
Q 1347 2928 1158 2789 
Q 969 2650 878 2297 
L 328 2372 
Q 403 2725 575 2942 
Q 747 3159 1072 3276 
Q 1397 3394 1825 3394 
Q 2250 3394 2515 3294 
Q 2781 3194 2906 3042 
Q 3031 2891 3081 2659 
Q 3109 2516 3109 2141 
L 3109 1391 
Q 3109 606 3145 398 
Q 3181 191 3288 0 
L 2700 0 
Q 2613 175 2588 409 
z
M 2541 1666 
Q 2234 1541 1622 1453 
Q 1275 1403 1131 1340 
Q 988 1278 909 1158 
Q 831 1038 831 891 
Q 831 666 1001 516 
Q 1172 366 1500 366 
Q 1825 366 2078 508 
Q 2331 650 2450 897 
Q 2541 1088 2541 1459 
L 2541 1666 
z
" transform="scale(0.015625)"/>
       </defs>
       <use xlink:href="#ArialMT-46"/>
       <use xlink:href="#ArialMT-6f" transform="translate(61.083984 0)"/>
       <use xlink:href="#ArialMT-72" transform="translate(116.699219 0)"/>
       <use xlink:href="#ArialMT-6d" transform="translate(150 0)"/>
       <use xlink:href="#ArialMT-61" transform="translate(233.300781 0)"/>
       <use xlink:href="#ArialMT-74" transform="translate(288.916016 0)"/>
      </g>
     </g>
    </g>
    <g id="xtick_3">
     <g id="line2d_3">
      <path d="M 201.164224 233.097633 
L 44.027752 118.931304 
" clip-path="url(#p41a67e7b28)" style="fill: none; stroke: #d6d9dc; stroke-opacity: 0.9; stroke-width: 0.7; stroke-linecap: square"/>
     </g>
     <g id="text_3">
      <!-- Extraction -->
      <g style="fill: #222222" transform="translate(10.71375 113.463802) scale(0.1 -0.1)">
       <defs>
        <path id="ArialMT-45" d="M 506 0 
L 506 4581 
L 3819 4581 
L 3819 4041 
L 1113 4041 
L 1113 2638 
L 3647 2638 
L 3647 2100 
L 1113 2100 
L 1113 541 
L 3925 541 
L 3925 0 
L 506 0 
z
" transform="scale(0.015625)"/>
        <path id="ArialMT-78" d="M 47 0 
L 1259 1725 
L 138 3319 
L 841 3319 
L 1350 2541 
Q 1494 2319 1581 2169 
Q 1719 2375 1834 2534 
L 2394 3319 
L 3066 3319 
L 1919 1756 
L 3153 0 
L 2463 0 
L 1781 1031 
L 1600 1309 
L 728 0 
L 47 0 
z
" transform="scale(0.015625)"/>
        <path id="ArialMT-6e" d="M 422 0 
L 422 3319 
L 928 3319 
L 928 2847 
Q 1294 3394 1984 3394 
Q 2284 3394 2536 3286 
Q 2788 3178 2913 3003 
Q 3038 2828 3088 2588 
Q 3119 2431 3119 2041 
L 3119 0 
L 2556 0 
L 2556 2019 
Q 2556 2363 2490 2533 
Q 2425 2703 2258 2804 
Q 2091 2906 1866 2906 
Q 1506 2906 1245 2678 
Q 984 2450 984 1813 
L 984 0 
L 422 0 
z
" transform="scale(0.015625)"/>
       </defs>
       <use xlink:href="#ArialMT-45"/>
       <use xlink:href="#ArialMT-78" transform="translate(66.699219 0)"/>
       <use xlink:href="#ArialMT-74" transform="translate(116.699219 0)"/>
       <use xlink:href="#ArialMT-72" transform="translate(144.482422 0)"/>
       <use xlink:href="#ArialMT-61" transform="translate(177.783203 0)"/>
       <use xlink:href="#ArialMT-63" transform="translate(233.398438 0)"/>
       <use xlink:href="#ArialMT-74" transform="translate(283.398438 0)"/>
       <use xlink:href="#ArialMT-69" transform="translate(311.181641 0)"/>
       <use xlink:href="#ArialMT-6f" transform="translate(333.398438 0)"/>
       <use xlink:href="#ArialMT-6e" transform="translate(389.013672 0)"/>
      </g>
     </g>
    </g>
    <g id="xtick_4">
     <g id="line2d_4">
      <path d="M 201.164224 233.097633 
L 44.027752 347.263963 
" clip-path="url(#p41a67e7b28)" style="fill: none; stroke: #d6d9dc; stroke-opacity: 0.9; stroke-width: 0.7; stroke-linecap: square"/>
     </g>
     <g id="text_4">
      <!-- Conciseness -->
      <g style="fill: #222222" transform="translate(4.32 357.901777) scale(0.1 -0.1)">
       <defs>
        <path id="ArialMT-43" d="M 3763 1606 
L 4369 1453 
Q 4178 706 3683 314 
Q 3188 -78 2472 -78 
Q 1731 -78 1267 223 
Q 803 525 561 1097 
Q 319 1669 319 2325 
Q 319 3041 592 3573 
Q 866 4106 1370 4382 
Q 1875 4659 2481 4659 
Q 3169 4659 3637 4309 
Q 4106 3959 4291 3325 
L 3694 3184 
Q 3534 3684 3231 3912 
Q 2928 4141 2469 4141 
Q 1941 4141 1586 3887 
Q 1231 3634 1087 3207 
Q 944 2781 944 2328 
Q 944 1744 1114 1308 
Q 1284 872 1643 656 
Q 2003 441 2422 441 
Q 2931 441 3284 734 
Q 3638 1028 3763 1606 
z
" transform="scale(0.015625)"/>
        <path id="ArialMT-73" d="M 197 991 
L 753 1078 
Q 800 744 1014 566 
Q 1228 388 1613 388 
Q 2000 388 2187 545 
Q 2375 703 2375 916 
Q 2375 1106 2209 1216 
Q 2094 1291 1634 1406 
Q 1016 1563 777 1677 
Q 538 1791 414 1992 
Q 291 2194 291 2438 
Q 291 2659 392 2848 
Q 494 3038 669 3163 
Q 800 3259 1026 3326 
Q 1253 3394 1513 3394 
Q 1903 3394 2198 3281 
Q 2494 3169 2634 2976 
Q 2775 2784 2828 2463 
L 2278 2388 
Q 2241 2644 2061 2787 
Q 1881 2931 1553 2931 
Q 1166 2931 1000 2803 
Q 834 2675 834 2503 
Q 834 2394 903 2306 
Q 972 2216 1119 2156 
Q 1203 2125 1616 2013 
Q 2213 1853 2448 1751 
Q 2684 1650 2818 1456 
Q 2953 1263 2953 975 
Q 2953 694 2789 445 
Q 2625 197 2315 61 
Q 2006 -75 1616 -75 
Q 969 -75 630 194 
Q 291 463 197 991 
z
" transform="scale(0.015625)"/>
        <path id="ArialMT-65" d="M 2694 1069 
L 3275 997 
Q 3138 488 2766 206 
Q 2394 -75 1816 -75 
Q 1088 -75 661 373 
Q 234 822 234 1631 
Q 234 2469 665 2931 
Q 1097 3394 1784 3394 
Q 2450 3394 2872 2941 
Q 3294 2488 3294 1666 
Q 3294 1616 3291 1516 
L 816 1516 
Q 847 969 1125 678 
Q 1403 388 1819 388 
Q 2128 388 2347 550 
Q 2566 713 2694 1069 
z
M 847 1978 
L 2700 1978 
Q 2663 2397 2488 2606 
Q 2219 2931 1791 2931 
Q 1403 2931 1139 2672 
Q 875 2413 847 1978 
z
" transform="scale(0.015625)"/>
       </defs>
       <use xlink:href="#ArialMT-43"/>
       <use xlink:href="#ArialMT-6f" transform="translate(72.216797 0)"/>
       <use xlink:href="#ArialMT-6e" transform="translate(127.832031 0)"/>
       <use xlink:href="#ArialMT-63" transform="translate(183.447266 0)"/>
       <use xlink:href="#ArialMT-69" transform="translate(233.447266 0)"/>
       <use xlink:href="#ArialMT-73" transform="translate(255.664062 0)"/>
       <use xlink:href="#ArialMT-65" transform="translate(305.664062 0)"/>
       <use xlink:href="#ArialMT-6e" transform="translate(361.279297 0)"/>
       <use xlink:href="#ArialMT-65" transform="translate(416.894531 0)"/>
       <use xlink:href="#ArialMT-73" transform="translate(472.509766 0)"/>
       <use xlink:href="#ArialMT-73" transform="translate(522.509766 0)"/>
      </g>
     </g>
    </g>
    <g id="xtick_5">
     <g id="line2d_5">
      <path d="M 201.164224 233.097633 
L 261.185015 417.822635 
" clip-path="url(#p41a67e7b28)" style="fill: none; stroke: #d6d9dc; stroke-opacity: 0.9; stroke-width: 0.7; stroke-linecap: square"/>
     </g>
     <g id="text_5">
      <!-- Low Over-reason -->
      <g style="fill: #222222" transform="translate(227.071673 433.437266) scale(0.1 -0.1)">
       <defs>
        <path id="ArialMT-4c" d="M 469 0 
L 469 4581 
L 1075 4581 
L 1075 541 
L 3331 541 
L 3331 0 
L 469 0 
z
" transform="scale(0.015625)"/>
        <path id="ArialMT-77" d="M 1034 0 
L 19 3319 
L 600 3319 
L 1128 1403 
L 1325 691 
Q 1338 744 1497 1375 
L 2025 3319 
L 2603 3319 
L 3100 1394 
L 3266 759 
L 3456 1400 
L 4025 3319 
L 4572 3319 
L 3534 0 
L 2950 0 
L 2422 1988 
L 2294 2553 
L 1622 0 
L 1034 0 
z
" transform="scale(0.015625)"/>
        <path id="ArialMT-4f" d="M 309 2231 
Q 309 3372 921 4017 
Q 1534 4663 2503 4663 
Q 3138 4663 3647 4359 
Q 4156 4056 4423 3514 
Q 4691 2972 4691 2284 
Q 4691 1588 4409 1038 
Q 4128 488 3612 205 
Q 3097 -78 2500 -78 
Q 1853 -78 1343 234 
Q 834 547 571 1087 
Q 309 1628 309 2231 
z
M 934 2222 
Q 934 1394 1379 917 
Q 1825 441 2497 441 
Q 3181 441 3623 922 
Q 4066 1403 4066 2288 
Q 4066 2847 3877 3264 
Q 3688 3681 3323 3911 
Q 2959 4141 2506 4141 
Q 1863 4141 1398 3698 
Q 934 3256 934 2222 
z
" transform="scale(0.015625)"/>
        <path id="ArialMT-76" d="M 1344 0 
L 81 3319 
L 675 3319 
L 1388 1331 
Q 1503 1009 1600 663 
Q 1675 925 1809 1294 
L 2547 3319 
L 3125 3319 
L 1869 0 
L 1344 0 
z
" transform="scale(0.015625)"/>
        <path id="ArialMT-2d" d="M 203 1375 
L 203 1941 
L 1931 1941 
L 1931 1375 
L 203 1375 
z
" transform="scale(0.015625)"/>
       </defs>
       <use xlink:href="#ArialMT-4c"/>
       <use xlink:href="#ArialMT-6f" transform="translate(55.615234 0)"/>
       <use xlink:href="#ArialMT-77" transform="translate(111.230469 0)"/>
       <use xlink:href="#ArialMT-20" transform="translate(183.447266 0)"/>
       <use xlink:href="#ArialMT-4f" transform="translate(211.230469 0)"/>
       <use xlink:href="#ArialMT-76" transform="translate(289.013672 0)"/>
       <use xlink:href="#ArialMT-65" transform="translate(339.013672 0)"/>
       <use xlink:href="#ArialMT-72" transform="translate(394.628906 0)"/>
       <use xlink:href="#ArialMT-2d" transform="translate(427.929688 0)"/>
       <use xlink:href="#ArialMT-72" transform="translate(461.230469 0)"/>
       <use xlink:href="#ArialMT-65" transform="translate(494.53125 0)"/>
       <use xlink:href="#ArialMT-61" transform="translate(550.146484 0)"/>
       <use xlink:href="#ArialMT-73" transform="translate(605.761719 0)"/>
       <use xlink:href="#ArialMT-6f" transform="translate(655.761719 0)"/>
       <use xlink:href="#ArialMT-6e" transform="translate(711.376953 0)"/>
      </g>
     </g>
    </g>
   </g>
   <g id="matplotlib.axis_2">
    <g id="ytick_1">
     <g id="line2d_6">
      <path d="M 238.160673 233.097633 
C 238.160673 228.239304 237.203688 223.428216 235.344486 218.939705 
C 233.485284 214.451194 230.760022 210.37255 227.324664 206.937193 
C 223.889306 203.501835 219.810663 200.776573 215.322152 198.917371 
C 210.833641 197.058169 206.022553 196.101184 201.164224 196.101184 
C 196.305894 196.101184 191.494806 197.058169 187.006295 198.917371 
C 182.517784 200.776573 178.439141 203.501835 175.003783 206.937193 
C 171.568425 210.37255 168.843163 214.451194 166.983961 218.939705 
C 165.124759 223.428216 164.167774 228.239304 164.167774 233.097633 
C 164.167774 237.955963 165.124759 242.767051 166.983961 247.255562 
C 168.843163 251.744073 171.568425 255.822716 175.003783 259.258074 
C 178.439141 262.693431 182.517784 265.418694 187.006295 267.277896 
C 191.494806 269.137098 196.305894 270.094083 201.164224 270.094083 
C 206.022553 270.094083 210.833641 269.137098 215.322152 267.277896 
C 219.810663 265.418694 223.889306 262.693431 227.324664 259.258074 
C 230.760022 255.822716 233.485284 251.744073 235.344486 247.255562 
C 237.203688 242.767051 238.160673 237.955963 238.160673 233.097633 
" clip-path="url(#p41a67e7b28)" style="fill: none; stroke: #d6d9dc; stroke-opacity: 0.9; stroke-width: 0.7; stroke-linecap: square"/>
     </g>
    </g>
    <g id="ytick_2">
     <g id="line2d_7">
      <path d="M 275.157123 233.097633 
C 275.157123 223.380975 273.243153 213.758799 269.524749 204.781777 
C 265.806345 195.804755 260.35582 187.647467 253.485105 180.776752 
C 246.614389 173.906037 238.457102 168.455512 229.48008 164.737108 
C 220.503058 161.018704 210.880882 159.104734 201.164224 159.104734 
C 191.447565 159.104734 181.825389 161.018704 172.848367 164.737108 
C 163.871345 168.455512 155.714058 173.906037 148.843343 180.776752 
C 141.972627 187.647467 136.522102 195.804755 132.803698 204.781777 
C 129.085294 213.758799 127.171324 223.380975 127.171324 233.097633 
C 127.171324 242.814292 129.085294 252.436468 132.803698 261.41349 
C 136.522102 270.390512 141.972627 278.547799 148.843343 285.418514 
C 155.714058 292.289229 163.871345 297.739754 172.848367 301.458159 
C 181.825389 305.176563 191.447565 307.090533 201.164224 307.090533 
C 210.880882 307.090533 220.503058 305.176563 229.48008 301.458159 
C 238.457102 297.739754 246.614389 292.289229 253.485105 285.418514 
C 260.35582 278.547799 265.806345 270.390512 269.524749 261.41349 
C 273.243153 252.436468 275.157123 242.814292 275.157123 233.097633 
" clip-path="url(#p41a67e7b28)" style="fill: none; stroke: #d6d9dc; stroke-opacity: 0.9; stroke-width: 0.7; stroke-linecap: square"/>
     </g>
    </g>
    <g id="ytick_3">
     <g id="line2d_8">
      <path d="M 312.153573 233.097633 
C 312.153573 218.522646 309.282618 204.089381 303.705012 190.623848 
C 298.127405 177.158315 289.951618 164.922385 279.645545 154.616312 
C 269.339472 144.310239 257.103542 136.134452 243.638009 130.556845 
C 230.172476 124.979239 215.739211 122.108284 201.164224 122.108284 
C 186.589236 122.108284 172.155971 124.979239 158.690438 130.556845 
C 145.224906 136.134452 132.988975 144.310239 122.682902 154.616312 
C 112.376829 164.922385 104.201042 177.158315 98.623435 190.623848 
C 93.045829 204.089381 90.174874 218.522646 90.174874 233.097633 
C 90.174874 247.672621 93.045829 262.105886 98.623435 275.571418 
C 104.201042 289.036951 112.376829 301.272882 122.682902 311.578955 
C 132.988975 321.885028 145.224906 330.060815 158.690438 335.638421 
C 172.155971 341.216028 186.589236 344.086983 201.164224 344.086983 
C 215.739211 344.086983 230.172476 341.216028 243.638009 335.638421 
C 257.103542 330.060815 269.339472 321.885028 279.645545 311.578955 
C 289.951618 301.272882 298.127405 289.036951 303.705012 275.571418 
C 309.282618 262.105886 312.153573 247.672621 312.153573 233.097633 
" clip-path="url(#p41a67e7b28)" style="fill: none; stroke: #d6d9dc; stroke-opacity: 0.9; stroke-width: 0.7; stroke-linecap: square"/>
     </g>
    </g>
    <g id="ytick_4">
     <g id="line2d_9">
      <path d="M 349.150022 233.097633 
C 349.150022 213.664316 345.322083 194.419964 337.885274 176.46592 
C 330.448466 158.511876 319.547416 142.197302 305.805986 128.455871 
C 292.064555 114.714441 275.749981 103.813391 257.795937 96.376583 
C 239.841893 88.939774 220.597541 85.111834 201.164224 85.111834 
C 181.730906 85.111834 162.486554 88.939774 144.53251 96.376583 
C 126.578466 103.813391 110.263892 114.714441 96.522462 128.455871 
C 82.781031 142.197302 71.879981 158.511876 64.443173 176.46592 
C 57.006364 194.419964 53.178425 213.664316 53.178425 233.097633 
C 53.178425 252.53095 57.006364 271.775303 64.443173 289.729347 
C 71.879981 307.683391 82.781031 323.997965 96.522462 337.739395 
C 110.263892 351.480826 126.578466 362.381876 144.53251 369.818684 
C 162.486554 377.255493 181.730906 381.083432 201.164224 381.083432 
C 220.597541 381.083432 239.841893 377.255493 257.795937 369.818684 
C 275.749981 362.381876 292.064555 351.480826 305.805986 337.739395 
C 319.547416 323.997965 330.448466 307.683391 337.885274 289.729347 
C 345.322083 271.775303 349.150022 252.53095 349.150022 233.097633 
" clip-path="url(#p41a67e7b28)" style="fill: none; stroke: #d6d9dc; stroke-opacity: 0.9; stroke-width: 0.7; stroke-linecap: square"/>
     </g>
    </g>
    <g id="ytick_5">
     <g id="line2d_10">
      <path d="M 386.146472 233.097633 
C 386.146472 208.805987 381.361548 184.750546 372.065537 162.307991 
C 362.769526 139.865437 349.143214 119.472219 331.966426 102.295431 
C 314.789638 85.118643 294.39642 71.49233 271.953865 62.19632 
C 249.511311 52.900309 225.45587 48.115385 201.164224 48.115385 
C 176.872577 48.115385 152.817137 52.900309 130.374582 62.19632 
C 107.932027 71.49233 87.538809 85.118643 70.362021 102.295431 
C 53.185233 119.472219 39.558921 139.865437 30.26291 162.307991 
C 20.9669 184.750546 16.181975 208.805987 16.181975 233.097633 
C 16.181975 257.38928 20.9669 281.44472 30.26291 303.887275 
C 39.558921 326.32983 53.185233 346.723048 70.362021 363.899836 
C 87.538809 381.076624 107.932027 394.702936 130.374582 403.998947 
C 152.817137 413.294957 176.872577 418.079882 201.164224 418.079882 
C 225.45587 418.079882 249.511311 413.294957 271.953865 403.998947 
C 294.39642 394.702936 314.789638 381.076624 331.966426 363.899836 
C 349.143214 346.723048 362.769526 326.32983 372.065537 303.887275 
C 381.361548 281.44472 386.146472 257.38928 386.146472 233.097633 
" clip-path="url(#p41a67e7b28)" style="fill: none; stroke: #d6d9dc; stroke-opacity: 0.9; stroke-width: 0.7; stroke-linecap: square"/>
     </g>
    </g>
   </g>
   <g id="patch_3">
    <path d="M 201.164224 233.097633 
L 201.164224 233.097633 
L 201.164224 233.097633 
L 147.076121 272.39494 
L 258.326882 409.026206 
z
" clip-path="url(#p41a67e7b28)" style="fill: #3e8c82; opacity: 0.1; stroke: #3e8c82; stroke-width: 1.2; stroke-linejoin: miter"/>
   </g>
   <g id="patch_4">
    <path d="M 339.90091 233.097633 
L 257.952045 58.32269 
L 52.562488 125.132153 
L 51.675654 341.707437 
L 249.140026 380.751971 
z
" clip-path="url(#p41a67e7b28)" style="fill: #7b5ea8; opacity: 0.1; stroke: #7b5ea8; stroke-width: 1.2; stroke-linejoin: miter"/>
   </g>
   <g id="patch_5">
    <path d="M 386.146472 233.097633 
L 255.890441 64.667655 
L 60.715858 131.055923 
L 201.164224 233.097633 
L 201.164224 233.097633 
z
" clip-path="url(#p41a67e7b28)" style="fill: #be7c1e; opacity: 0.1; stroke: #be7c1e; stroke-width: 1.2; stroke-linejoin: miter"/>
   </g>
   <g id="patch_6">
    <path d="M 346.507419 233.097633 
L 258.326882 57.16906 
L 51.510441 124.367796 
L 51.510441 341.827471 
L 250.160788 383.893553 
z
" clip-path="url(#p41a67e7b28)" style="fill: #3f6fa8; opacity: 0.1; stroke: #3f6fa8; stroke-width: 1.2; stroke-linejoin: miter"/>
   </g>
   <g id="patch_7">
    <path d="M 347.015612 233.097633 
L 258.139464 57.745875 
L 52.036465 124.749974 
L 52.248242 341.291427 
L 248.119264 377.61039 
z
" clip-path="url(#p41a67e7b28)" style="fill: #b23b7e; opacity: 0.1; stroke: #b23b7e; stroke-width: 1.2; stroke-linejoin: miter"/>
   </g>
   <g id="patch_8">
    <path d="M 351.081156 233.097633 
L 258.045754 58.034283 
L 52.036465 124.749974 
L 56.235992 338.394157 
L 249.140026 380.751971 
z
" clip-path="url(#p41a67e7b28)" style="fill: #5e9544; opacity: 0.1; stroke: #5e9544; stroke-width: 1.2; stroke-linejoin: miter"/>
   </g>
   <g id="line2d_11">
    <path d="M 201.164224 233.097633 
L 201.164224 233.097633 
L 201.164224 233.097633 
L 147.076121 272.39494 
L 258.326882 409.026206 
L 201.164224 233.097633 
" clip-path="url(#p41a67e7b28)" style="fill: none; stroke: #3e8c82; stroke-width: 1.9; stroke-linecap: square"/>
   </g>
   <g id="line2d_12">
    <path d="M 339.90091 233.097633 
L 257.952045 58.32269 
L 52.562488 125.132153 
L 51.675654 341.707437 
L 249.140026 380.751971 
L 339.90091 233.097633 
" clip-path="url(#p41a67e7b28)" style="fill: none; stroke: #7b5ea8; stroke-width: 1.9; stroke-linecap: square"/>
   </g>
   <g id="line2d_13">
    <path d="M 386.146472 233.097633 
L 255.890441 64.667655 
L 60.715858 131.055923 
L 201.164224 233.097633 
L 201.164224 233.097633 
L 386.146472 233.097633 
" clip-path="url(#p41a67e7b28)" style="fill: none; stroke: #be7c1e; stroke-width: 1.9; stroke-linecap: square"/>
   </g>
   <g id="line2d_14">
    <path d="M 346.507419 233.097633 
L 258.326882 57.16906 
L 51.510441 124.367796 
L 51.510441 341.827471 
L 250.160788 383.893553 
L 346.507419 233.097633 
" clip-path="url(#p41a67e7b28)" style="fill: none; stroke: #3f6fa8; stroke-width: 1.9; stroke-linecap: square"/>
   </g>
   <g id="line2d_15">
    <path d="M 347.015612 233.097633 
L 258.139464 57.745875 
L 52.036465 124.749974 
L 52.248242 341.291427 
L 248.119264 377.61039 
L 347.015612 233.097633 
" clip-path="url(#p41a67e7b28)" style="fill: none; stroke: #b23b7e; stroke-width: 1.9; stroke-linecap: square"/>
   </g>
   <g id="line2d_16">
    <path d="M 351.081156 233.097633 
L 258.045754 58.034283 
L 52.036465 124.749974 
L 56.235992 338.394157 
L 249.140026 380.751971 
L 351.081156 233.097633 
" clip-path="url(#p41a67e7b28)" style="fill: none; stroke: #5e9544; stroke-width: 1.9; stroke-linecap: square"/>
   </g>
   <g id="patch_9">
    <path d="M 395.395585 233.097633 
C 395.395585 207.591405 390.371414 182.333192 380.610603 158.768509 
C 370.849792 135.203827 356.542163 113.790948 338.506536 95.755321 
C 320.470909 77.719694 299.05803 63.412065 275.493347 53.651254 
C 251.928665 43.890443 226.670452 38.866272 201.164224 38.866272 
C 175.657995 38.866272 150.399782 43.890443 126.8351 53.651254 
C 103.270417 63.412065 81.857538 77.719694 63.821911 95.755321 
C 45.786284 113.790948 31.478656 135.203827 21.717844 158.768509 
C 11.957033 182.333192 6.932862 207.591405 6.932862 233.097633 
C 6.932862 258.603862 11.957033 283.862075 21.717844 307.426757 
C 31.478656 330.99144 45.786284 352.404319 63.821911 370.439946 
C 81.857538 388.475573 103.270417 402.783201 126.8351 412.544012 
C 150.399782 422.304824 175.657995 427.328994 201.164224 427.328994 
C 226.670452 427.328994 251.928665 422.304824 275.493347 412.544012 
C 299.05803 402.783201 320.470909 388.475573 338.506536 370.439946 
C 356.542163 352.404319 370.849792 330.99144 380.610603 307.426757 
C 390.371414 283.862075 395.395585 258.603862 395.395585 233.097633 
" style="fill: none; stroke: #b8c0c8; stroke-linejoin: miter; stroke-linecap: square"/>
   </g>
   <g id="text_6">
    <!-- Normalized multi-metric comparison -->
    <g transform="translate(88.478599 20.866272) scale(0.13 -0.13)">
     <defs>
      <path id="Arial-BoldMT-4e" d="M 475 0 
L 475 4581 
L 1375 4581 
L 3250 1522 
L 3250 4581 
L 4109 4581 
L 4109 0 
L 3181 0 
L 1334 2988 
L 1334 0 
L 475 0 
z
" transform="scale(0.015625)"/>
      <path id="Arial-BoldMT-6f" d="M 256 1706 
Q 256 2144 472 2553 
Q 688 2963 1083 3178 
Q 1478 3394 1966 3394 
Q 2719 3394 3200 2905 
Q 3681 2416 3681 1669 
Q 3681 916 3195 420 
Q 2709 -75 1972 -75 
Q 1516 -75 1102 131 
Q 688 338 472 736 
Q 256 1134 256 1706 
z
M 1156 1659 
Q 1156 1166 1390 903 
Q 1625 641 1969 641 
Q 2313 641 2545 903 
Q 2778 1166 2778 1666 
Q 2778 2153 2545 2415 
Q 2313 2678 1969 2678 
Q 1625 2678 1390 2415 
Q 1156 2153 1156 1659 
z
" transform="scale(0.015625)"/>
      <path id="Arial-BoldMT-72" d="M 1300 0 
L 422 0 
L 422 3319 
L 1238 3319 
L 1238 2847 
Q 1447 3181 1614 3287 
Q 1781 3394 1994 3394 
Q 2294 3394 2572 3228 
L 2300 2463 
Q 2078 2606 1888 2606 
Q 1703 2606 1575 2504 
Q 1447 2403 1373 2137 
Q 1300 1872 1300 1025 
L 1300 0 
z
" transform="scale(0.015625)"/>
      <path id="Arial-BoldMT-6d" d="M 394 3319 
L 1203 3319 
L 1203 2866 
Q 1638 3394 2238 3394 
Q 2556 3394 2790 3262 
Q 3025 3131 3175 2866 
Q 3394 3131 3647 3262 
Q 3900 3394 4188 3394 
Q 4553 3394 4806 3245 
Q 5059 3097 5184 2809 
Q 5275 2597 5275 2122 
L 5275 0 
L 4397 0 
L 4397 1897 
Q 4397 2391 4306 2534 
Q 4184 2722 3931 2722 
Q 3747 2722 3584 2609 
Q 3422 2497 3350 2280 
Q 3278 2063 3278 1594 
L 3278 0 
L 2400 0 
L 2400 1819 
Q 2400 2303 2353 2443 
Q 2306 2584 2207 2653 
Q 2109 2722 1941 2722 
Q 1738 2722 1575 2612 
Q 1413 2503 1342 2297 
Q 1272 2091 1272 1613 
L 1272 0 
L 394 0 
L 394 3319 
z
" transform="scale(0.015625)"/>
      <path id="Arial-BoldMT-61" d="M 1116 2306 
L 319 2450 
Q 453 2931 781 3162 
Q 1109 3394 1756 3394 
Q 2344 3394 2631 3255 
Q 2919 3116 3036 2902 
Q 3153 2688 3153 2116 
L 3144 1091 
Q 3144 653 3186 445 
Q 3228 238 3344 0 
L 2475 0 
Q 2441 88 2391 259 
Q 2369 338 2359 363 
Q 2134 144 1878 34 
Q 1622 -75 1331 -75 
Q 819 -75 523 203 
Q 228 481 228 906 
Q 228 1188 362 1408 
Q 497 1628 739 1745 
Q 981 1863 1438 1950 
Q 2053 2066 2291 2166 
L 2291 2253 
Q 2291 2506 2166 2614 
Q 2041 2722 1694 2722 
Q 1459 2722 1328 2630 
Q 1197 2538 1116 2306 
z
M 2291 1594 
Q 2122 1538 1756 1459 
Q 1391 1381 1278 1306 
Q 1106 1184 1106 997 
Q 1106 813 1243 678 
Q 1381 544 1594 544 
Q 1831 544 2047 700 
Q 2206 819 2256 991 
Q 2291 1103 2291 1419 
L 2291 1594 
z
" transform="scale(0.015625)"/>
      <path id="Arial-BoldMT-6c" d="M 459 0 
L 459 4581 
L 1338 4581 
L 1338 0 
L 459 0 
z
" transform="scale(0.015625)"/>
      <path id="Arial-BoldMT-69" d="M 459 3769 
L 459 4581 
L 1338 4581 
L 1338 3769 
L 459 3769 
z
M 459 0 
L 459 3319 
L 1338 3319 
L 1338 0 
L 459 0 
z
" transform="scale(0.015625)"/>
      <path id="Arial-BoldMT-7a" d="M 106 0 
L 106 684 
L 1350 2113 
Q 1656 2463 1803 2609 
Q 1650 2600 1400 2597 
L 228 2591 
L 228 3319 
L 2972 3319 
L 2972 2697 
L 1703 1234 
L 1256 750 
Q 1622 772 1709 772 
L 3069 772 
L 3069 0 
L 106 0 
z
" transform="scale(0.015625)"/>
      <path id="Arial-BoldMT-65" d="M 2381 1056 
L 3256 909 
Q 3088 428 2723 176 
Q 2359 -75 1813 -75 
Q 947 -75 531 491 
Q 203 944 203 1634 
Q 203 2459 634 2926 
Q 1066 3394 1725 3394 
Q 2466 3394 2894 2905 
Q 3322 2416 3303 1406 
L 1103 1406 
Q 1113 1016 1316 798 
Q 1519 581 1822 581 
Q 2028 581 2168 693 
Q 2309 806 2381 1056 
z
M 2431 1944 
Q 2422 2325 2234 2523 
Q 2047 2722 1778 2722 
Q 1491 2722 1303 2513 
Q 1116 2303 1119 1944 
L 2431 1944 
z
" transform="scale(0.015625)"/>
      <path id="Arial-BoldMT-64" d="M 3503 0 
L 2688 0 
L 2688 488 
Q 2484 203 2207 64 
Q 1931 -75 1650 -75 
Q 1078 -75 670 386 
Q 263 847 263 1672 
Q 263 2516 659 2955 
Q 1056 3394 1663 3394 
Q 2219 3394 2625 2931 
L 2625 4581 
L 3503 4581 
L 3503 0 
z
M 1159 1731 
Q 1159 1200 1306 963 
Q 1519 619 1900 619 
Q 2203 619 2415 876 
Q 2628 1134 2628 1647 
Q 2628 2219 2422 2470 
Q 2216 2722 1894 2722 
Q 1581 2722 1370 2473 
Q 1159 2225 1159 1731 
z
" transform="scale(0.015625)"/>
      <path id="Arial-BoldMT-20" transform="scale(0.015625)"/>
      <path id="Arial-BoldMT-75" d="M 2644 0 
L 2644 497 
Q 2463 231 2167 78 
Q 1872 -75 1544 -75 
Q 1209 -75 943 72 
Q 678 219 559 484 
Q 441 750 441 1219 
L 441 3319 
L 1319 3319 
L 1319 1794 
Q 1319 1094 1367 936 
Q 1416 778 1544 686 
Q 1672 594 1869 594 
Q 2094 594 2272 717 
Q 2450 841 2515 1023 
Q 2581 1206 2581 1919 
L 2581 3319 
L 3459 3319 
L 3459 0 
L 2644 0 
z
" transform="scale(0.015625)"/>
      <path id="Arial-BoldMT-74" d="M 1981 3319 
L 1981 2619 
L 1381 2619 
L 1381 1281 
Q 1381 875 1398 808 
Q 1416 741 1477 697 
Q 1538 653 1625 653 
Q 1747 653 1978 738 
L 2053 56 
Q 1747 -75 1359 -75 
Q 1122 -75 931 4 
Q 741 84 652 211 
Q 563 338 528 553 
Q 500 706 500 1172 
L 500 2619 
L 97 2619 
L 97 3319 
L 500 3319 
L 500 3978 
L 1381 4491 
L 1381 3319 
L 1981 3319 
z
" transform="scale(0.015625)"/>
      <path id="Arial-BoldMT-2d" d="M 359 1222 
L 359 2100 
L 2084 2100 
L 2084 1222 
L 359 1222 
z
" transform="scale(0.015625)"/>
      <path id="Arial-BoldMT-63" d="M 3353 2338 
L 2488 2181 
Q 2444 2441 2289 2572 
Q 2134 2703 1888 2703 
Q 1559 2703 1364 2476 
Q 1169 2250 1169 1719 
Q 1169 1128 1367 884 
Q 1566 641 1900 641 
Q 2150 641 2309 783 
Q 2469 925 2534 1272 
L 3397 1125 
Q 3263 531 2881 228 
Q 2500 -75 1859 -75 
Q 1131 -75 698 384 
Q 266 844 266 1656 
Q 266 2478 700 2936 
Q 1134 3394 1875 3394 
Q 2481 3394 2839 3133 
Q 3197 2872 3353 2338 
z
" transform="scale(0.015625)"/>
      <path id="Arial-BoldMT-70" d="M 434 3319 
L 1253 3319 
L 1253 2831 
Q 1413 3081 1684 3237 
Q 1956 3394 2288 3394 
Q 2866 3394 3269 2941 
Q 3672 2488 3672 1678 
Q 3672 847 3265 386 
Q 2859 -75 2281 -75 
Q 2006 -75 1782 34 
Q 1559 144 1313 409 
L 1313 -1263 
L 434 -1263 
L 434 3319 
z
M 1303 1716 
Q 1303 1156 1525 889 
Q 1747 622 2066 622 
Q 2372 622 2575 867 
Q 2778 1113 2778 1672 
Q 2778 2194 2568 2447 
Q 2359 2700 2050 2700 
Q 1728 2700 1515 2451 
Q 1303 2203 1303 1716 
z
" transform="scale(0.015625)"/>
      <path id="Arial-BoldMT-73" d="M 150 947 
L 1031 1081 
Q 1088 825 1259 692 
Q 1431 559 1741 559 
Q 2081 559 2253 684 
Q 2369 772 2369 919 
Q 2369 1019 2306 1084 
Q 2241 1147 2013 1200 
Q 950 1434 666 1628 
Q 272 1897 272 2375 
Q 272 2806 612 3100 
Q 953 3394 1669 3394 
Q 2350 3394 2681 3172 
Q 3013 2950 3138 2516 
L 2309 2363 
Q 2256 2556 2107 2659 
Q 1959 2763 1684 2763 
Q 1338 2763 1188 2666 
Q 1088 2597 1088 2488 
Q 1088 2394 1175 2328 
Q 1294 2241 1995 2081 
Q 2697 1922 2975 1691 
Q 3250 1456 3250 1038 
Q 3250 581 2869 253 
Q 2488 -75 1741 -75 
Q 1063 -75 667 200 
Q 272 475 150 947 
z
" transform="scale(0.015625)"/>
      <path id="Arial-BoldMT-6e" d="M 3478 0 
L 2600 0 
L 2600 1694 
Q 2600 2231 2544 2389 
Q 2488 2547 2361 2634 
Q 2234 2722 2056 2722 
Q 1828 2722 1647 2597 
Q 1466 2472 1398 2265 
Q 1331 2059 1331 1503 
L 1331 0 
L 453 0 
L 453 3319 
L 1269 3319 
L 1269 2831 
Q 1703 3394 2363 3394 
Q 2653 3394 2893 3289 
Q 3134 3184 3257 3021 
Q 3381 2859 3429 2653 
Q 3478 2447 3478 2063 
L 3478 0 
z
" transform="scale(0.015625)"/>
     </defs>
     <use xlink:href="#Arial-BoldMT-4e"/>
     <use xlink:href="#Arial-BoldMT-6f" transform="translate(72.216797 0)"/>
     <use xlink:href="#Arial-BoldMT-72" transform="translate(133.300781 0)"/>
     <use xlink:href="#Arial-BoldMT-6d" transform="translate(172.216797 0)"/>
     <use xlink:href="#Arial-BoldMT-61" transform="translate(261.132812 0)"/>
     <use xlink:href="#Arial-BoldMT-6c" transform="translate(316.748047 0)"/>
     <use xlink:href="#Arial-BoldMT-69" transform="translate(344.53125 0)"/>
     <use xlink:href="#Arial-BoldMT-7a" transform="translate(372.314453 0)"/>
     <use xlink:href="#Arial-BoldMT-65" transform="translate(422.314453 0)"/>
     <use xlink:href="#Arial-BoldMT-64" transform="translate(477.929688 0)"/>
     <use xlink:href="#Arial-BoldMT-20" transform="translate(539.013672 0)"/>
     <use xlink:href="#Arial-BoldMT-6d" transform="translate(566.796875 0)"/>
     <use xlink:href="#Arial-BoldMT-75" transform="translate(655.712891 0)"/>
     <use xlink:href="#Arial-BoldMT-6c" transform="translate(716.796875 0)"/>
     <use xlink:href="#Arial-BoldMT-74" transform="translate(744.580078 0)"/>
     <use xlink:href="#Arial-BoldMT-69" transform="translate(777.880859 0)"/>
     <use xlink:href="#Arial-BoldMT-2d" transform="translate(805.664062 0)"/>
     <use xlink:href="#Arial-BoldMT-6d" transform="translate(838.964844 0)"/>
     <use xlink:href="#Arial-BoldMT-65" transform="translate(927.880859 0)"/>
     <use xlink:href="#Arial-BoldMT-74" transform="translate(983.496094 0)"/>
     <use xlink:href="#Arial-BoldMT-72" transform="translate(1016.796875 0)"/>
     <use xlink:href="#Arial-BoldMT-69" transform="translate(1055.712891 0)"/>
     <use xlink:href="#Arial-BoldMT-63" transform="translate(1083.496094 0)"/>
     <use xlink:href="#Arial-BoldMT-20" transform="translate(1139.111328 0)"/>
     <use xlink:href="#Arial-BoldMT-63" transform="translate(1166.894531 0)"/>
     <use xlink:href="#Arial-BoldMT-6f" transform="translate(1222.509766 0)"/>
     <use xlink:href="#Arial-BoldMT-6d" transform="translate(1283.59375 0)"/>
     <use xlink:href="#Arial-BoldMT-70" transform="translate(1372.509766 0)"/>
     <use xlink:href="#Arial-BoldMT-61" transform="translate(1433.59375 0)"/>
     <use xlink:href="#Arial-BoldMT-72" transform="translate(1489.208984 0)"/>
     <use xlink:href="#Arial-BoldMT-69" transform="translate(1528.125 0)"/>
     <use xlink:href="#Arial-BoldMT-73" transform="translate(1555.908203 0)"/>
     <use xlink:href="#Arial-BoldMT-6f" transform="translate(1611.523438 0)"/>
     <use xlink:href="#Arial-BoldMT-6e" transform="translate(1672.607422 0)"/>
    </g>
   </g>
   <g id="legend_1">
    <g id="patch_10">
     <path d="M 411.950303 74.299812 
L 498.145147 74.299812 
Q 499.865147 74.299812 499.865147 72.579812 
L 499.865147 6.04 
Q 499.865147 4.32 498.145147 4.32 
L 411.950303 4.32 
Q 410.230303 4.32 410.230303 6.04 
L 410.230303 72.579812 
Q 410.230303 74.299812 411.950303 74.299812 
z
" style="fill: #ffffff; opacity: 0.95; stroke: #c9c9c9; stroke-width: 1.2; stroke-linejoin: miter"/>
    </g>
    <g id="line2d_17">
     <path d="M 414.100303 11.335719 
L 422.700303 11.335719 
L 431.300303 11.335719 
" style="fill: none; stroke: #3e8c82; stroke-width: 1.9; stroke-linecap: square"/>
    </g>
    <g id="text_7">
     <!-- Base -->
     <g transform="translate(438.180303 14.345719) scale(0.086 -0.086)">
      <defs>
       <path id="ArialMT-42" d="M 469 0 
L 469 4581 
L 2188 4581 
Q 2713 4581 3030 4442 
Q 3347 4303 3526 4014 
Q 3706 3725 3706 3409 
Q 3706 3116 3547 2856 
Q 3388 2597 3066 2438 
Q 3481 2316 3704 2022 
Q 3928 1728 3928 1328 
Q 3928 1006 3792 729 
Q 3656 453 3456 303 
Q 3256 153 2954 76 
Q 2653 0 2216 0 
L 469 0 
z
M 1075 2656 
L 2066 2656 
Q 2469 2656 2644 2709 
Q 2875 2778 2992 2937 
Q 3109 3097 3109 3338 
Q 3109 3566 3000 3739 
Q 2891 3913 2687 3977 
Q 2484 4041 1991 4041 
L 1075 4041 
L 1075 2656 
z
M 1075 541 
L 2216 541 
Q 2509 541 2628 563 
Q 2838 600 2978 687 
Q 3119 775 3209 942 
Q 3300 1109 3300 1328 
Q 3300 1584 3169 1773 
Q 3038 1963 2805 2039 
Q 2572 2116 2134 2116 
L 1075 2116 
L 1075 541 
z
" transform="scale(0.015625)"/>
      </defs>
      <use xlink:href="#ArialMT-42"/>
      <use xlink:href="#ArialMT-61" transform="translate(66.699219 0)"/>
      <use xlink:href="#ArialMT-73" transform="translate(122.314453 0)"/>
      <use xlink:href="#ArialMT-65" transform="translate(172.314453 0)"/>
     </g>
    </g>
    <g id="line2d_18">
     <path d="M 414.100303 22.210687 
L 422.700303 22.210687 
L 431.300303 22.210687 
" style="fill: none; stroke: #7b5ea8; stroke-width: 1.9; stroke-linecap: square"/>
    </g>
    <g id="text_8">
     <!-- CoT-SFT -->
     <g transform="translate(438.180303 25.220687) scale(0.086 -0.086)">
      <defs>
       <path id="ArialMT-54" d="M 1659 0 
L 1659 4041 
L 150 4041 
L 150 4581 
L 3781 4581 
L 3781 4041 
L 2266 4041 
L 2266 0 
L 1659 0 
z
" transform="scale(0.015625)"/>
      </defs>
      <use xlink:href="#ArialMT-43"/>
      <use xlink:href="#ArialMT-6f" transform="translate(72.216797 0)"/>
      <use xlink:href="#ArialMT-54" transform="translate(127.832031 0)"/>
      <use xlink:href="#ArialMT-2d" transform="translate(183.416016 0)"/>
      <use xlink:href="#ArialMT-53" transform="translate(216.716797 0)"/>
      <use xlink:href="#ArialMT-46" transform="translate(283.416016 0)"/>
      <use xlink:href="#ArialMT-54" transform="translate(344.5 0)"/>
     </g>
    </g>
    <g id="line2d_19">
     <path d="M 414.100303 33.085656 
L 422.700303 33.085656 
L 431.300303 33.085656 
" style="fill: none; stroke: #be7c1e; stroke-width: 1.9; stroke-linecap: square"/>
    </g>
    <g id="text_9">
     <!-- GRPO -->
     <g transform="translate(438.180303 36.095656) scale(0.086 -0.086)">
      <defs>
       <path id="ArialMT-47" d="M 2638 1797 
L 2638 2334 
L 4578 2338 
L 4578 638 
Q 4131 281 3656 101 
Q 3181 -78 2681 -78 
Q 2006 -78 1454 211 
Q 903 500 622 1047 
Q 341 1594 341 2269 
Q 341 2938 620 3517 
Q 900 4097 1425 4378 
Q 1950 4659 2634 4659 
Q 3131 4659 3532 4498 
Q 3934 4338 4162 4050 
Q 4391 3763 4509 3300 
L 3963 3150 
Q 3859 3500 3706 3700 
Q 3553 3900 3268 4020 
Q 2984 4141 2638 4141 
Q 2222 4141 1919 4014 
Q 1616 3888 1430 3681 
Q 1244 3475 1141 3228 
Q 966 2803 966 2306 
Q 966 1694 1177 1281 
Q 1388 869 1791 669 
Q 2194 469 2647 469 
Q 3041 469 3416 620 
Q 3791 772 3984 944 
L 3984 1797 
L 2638 1797 
z
" transform="scale(0.015625)"/>
       <path id="ArialMT-52" d="M 503 0 
L 503 4581 
L 2534 4581 
Q 3147 4581 3465 4457 
Q 3784 4334 3975 4021 
Q 4166 3709 4166 3331 
Q 4166 2844 3850 2509 
Q 3534 2175 2875 2084 
Q 3116 1969 3241 1856 
Q 3506 1613 3744 1247 
L 4541 0 
L 3778 0 
L 3172 953 
Q 2906 1366 2734 1584 
Q 2563 1803 2427 1890 
Q 2291 1978 2150 2013 
Q 2047 2034 1813 2034 
L 1109 2034 
L 1109 0 
L 503 0 
z
M 1109 2559 
L 2413 2559 
Q 2828 2559 3062 2645 
Q 3297 2731 3419 2920 
Q 3541 3109 3541 3331 
Q 3541 3656 3305 3865 
Q 3069 4075 2559 4075 
L 1109 4075 
L 1109 2559 
z
" transform="scale(0.015625)"/>
       <path id="ArialMT-50" d="M 494 0 
L 494 4581 
L 2222 4581 
Q 2678 4581 2919 4538 
Q 3256 4481 3484 4323 
Q 3713 4166 3852 3881 
Q 3991 3597 3991 3256 
Q 3991 2672 3619 2267 
Q 3247 1863 2275 1863 
L 1100 1863 
L 1100 0 
L 494 0 
z
M 1100 2403 
L 2284 2403 
Q 2872 2403 3119 2622 
Q 3366 2841 3366 3238 
Q 3366 3525 3220 3729 
Q 3075 3934 2838 4000 
Q 2684 4041 2272 4041 
L 1100 4041 
L 1100 2403 
z
" transform="scale(0.015625)"/>
      </defs>
      <use xlink:href="#ArialMT-47"/>
      <use xlink:href="#ArialMT-52" transform="translate(77.783203 0)"/>
      <use xlink:href="#ArialMT-50" transform="translate(150 0)"/>
      <use xlink:href="#ArialMT-4f" transform="translate(216.699219 0)"/>
     </g>
    </g>
    <g id="line2d_20">
     <path d="M 414.100303 43.960625 
L 422.700303 43.960625 
L 431.300303 43.960625 
" style="fill: none; stroke: #3f6fa8; stroke-width: 1.9; stroke-linecap: square"/>
    </g>
    <g id="text_10">
     <!-- SFT-GRPO-R1 -->
     <g transform="translate(438.180303 46.970625) scale(0.086 -0.086)">
      <defs>
       <path id="ArialMT-31" d="M 2384 0 
L 1822 0 
L 1822 3584 
Q 1619 3391 1289 3197 
Q 959 3003 697 2906 
L 697 3450 
Q 1169 3672 1522 3987 
Q 1875 4303 2022 4600 
L 2384 4600 
L 2384 0 
z
" transform="scale(0.015625)"/>
      </defs>
      <use xlink:href="#ArialMT-53"/>
      <use xlink:href="#ArialMT-46" transform="translate(66.699219 0)"/>
      <use xlink:href="#ArialMT-54" transform="translate(127.783203 0)"/>
      <use xlink:href="#ArialMT-2d" transform="translate(183.367188 0)"/>
      <use xlink:href="#ArialMT-47" transform="translate(216.667969 0)"/>
      <use xlink:href="#ArialMT-52" transform="translate(294.451172 0)"/>
      <use xlink:href="#ArialMT-50" transform="translate(366.667969 0)"/>
      <use xlink:href="#ArialMT-4f" transform="translate(433.367188 0)"/>
      <use xlink:href="#ArialMT-2d" transform="translate(511.150391 0)"/>
      <use xlink:href="#ArialMT-52" transform="translate(544.451172 0)"/>
      <use xlink:href="#ArialMT-31" transform="translate(616.667969 0)"/>
     </g>
    </g>
    <g id="line2d_21">
     <path d="M 414.100303 54.835594 
L 422.700303 54.835594 
L 431.300303 54.835594 
" style="fill: none; stroke: #b23b7e; stroke-width: 1.9; stroke-linecap: square"/>
    </g>
    <g id="text_11">
     <!-- SFT-GRPO-R2 -->
     <g transform="translate(438.180303 57.845594) scale(0.086 -0.086)">
      <defs>
       <path id="ArialMT-32" d="M 3222 541 
L 3222 0 
L 194 0 
Q 188 203 259 391 
Q 375 700 629 1000 
Q 884 1300 1366 1694 
Q 2113 2306 2375 2664 
Q 2638 3022 2638 3341 
Q 2638 3675 2398 3904 
Q 2159 4134 1775 4134 
Q 1369 4134 1125 3890 
Q 881 3647 878 3216 
L 300 3275 
Q 359 3922 746 4261 
Q 1134 4600 1788 4600 
Q 2447 4600 2831 4234 
Q 3216 3869 3216 3328 
Q 3216 3053 3103 2787 
Q 2991 2522 2730 2228 
Q 2469 1934 1863 1422 
Q 1356 997 1212 845 
Q 1069 694 975 541 
L 3222 541 
z
" transform="scale(0.015625)"/>
      </defs>
      <use xlink:href="#ArialMT-53"/>
      <use xlink:href="#ArialMT-46" transform="translate(66.699219 0)"/>
      <use xlink:href="#ArialMT-54" transform="translate(127.783203 0)"/>
      <use xlink:href="#ArialMT-2d" transform="translate(183.367188 0)"/>
      <use xlink:href="#ArialMT-47" transform="translate(216.667969 0)"/>
      <use xlink:href="#ArialMT-52" transform="translate(294.451172 0)"/>
      <use xlink:href="#ArialMT-50" transform="translate(366.667969 0)"/>
      <use xlink:href="#ArialMT-4f" transform="translate(433.367188 0)"/>
      <use xlink:href="#ArialMT-2d" transform="translate(511.150391 0)"/>
      <use xlink:href="#ArialMT-52" transform="translate(544.451172 0)"/>
      <use xlink:href="#ArialMT-32" transform="translate(616.667969 0)"/>
     </g>
    </g>
    <g id="line2d_22">
     <path d="M 414.100303 65.710562 
L 422.700303 65.710562 
L 431.300303 65.710562 
" style="fill: none; stroke: #5e9544; stroke-width: 1.9; stroke-linecap: square"/>
    </g>
    <g id="text_12">
     <!-- SFT-GRPO-R3 -->
     <g transform="translate(438.180303 68.720562) scale(0.086 -0.086)">
      <defs>
       <path id="ArialMT-33" d="M 269 1209 
L 831 1284 
Q 928 806 1161 595 
Q 1394 384 1728 384 
Q 2125 384 2398 659 
Q 2672 934 2672 1341 
Q 2672 1728 2419 1979 
Q 2166 2231 1775 2231 
Q 1616 2231 1378 2169 
L 1441 2663 
Q 1497 2656 1531 2656 
Q 1891 2656 2178 2843 
Q 2466 3031 2466 3422 
Q 2466 3731 2256 3934 
Q 2047 4138 1716 4138 
Q 1388 4138 1169 3931 
Q 950 3725 888 3313 
L 325 3413 
Q 428 3978 793 4289 
Q 1159 4600 1703 4600 
Q 2078 4600 2393 4439 
Q 2709 4278 2876 4000 
Q 3044 3722 3044 3409 
Q 3044 3113 2884 2869 
Q 2725 2625 2413 2481 
Q 2819 2388 3044 2092 
Q 3269 1797 3269 1353 
Q 3269 753 2831 336 
Q 2394 -81 1725 -81 
Q 1122 -81 723 278 
Q 325 638 269 1209 
z
" transform="scale(0.015625)"/>
      </defs>
      <use xlink:href="#ArialMT-53"/>
      <use xlink:href="#ArialMT-46" transform="translate(66.699219 0)"/>
      <use xlink:href="#ArialMT-54" transform="translate(127.783203 0)"/>
      <use xlink:href="#ArialMT-2d" transform="translate(183.367188 0)"/>
      <use xlink:href="#ArialMT-47" transform="translate(216.667969 0)"/>
      <use xlink:href="#ArialMT-52" transform="translate(294.451172 0)"/>
      <use xlink:href="#ArialMT-50" transform="translate(366.667969 0)"/>
      <use xlink:href="#ArialMT-4f" transform="translate(433.367188 0)"/>
      <use xlink:href="#ArialMT-2d" transform="translate(511.150391 0)"/>
      <use xlink:href="#ArialMT-52" transform="translate(544.451172 0)"/>
      <use xlink:href="#ArialMT-33" transform="translate(616.667969 0)"/>
     </g>
    </g>
   </g>
  </g>
 </g>
 <defs>
  <clipPath id="p41a67e7b28">
   <path d="M 395.395585 233.097633 
C 395.395585 207.591405 390.371414 182.333192 380.610603 158.768509 
C 370.849792 135.203827 356.542163 113.790948 338.506536 95.755321 
C 320.470909 77.719694 299.05803 63.412065 275.493347 53.651254 
C 251.928665 43.890443 226.670452 38.866272 201.164224 38.866272 
C 175.657995 38.866272 150.399782 43.890443 126.8351 53.651254 
C 103.270417 63.412065 81.857538 77.719694 63.821911 95.755321 
C 45.786284 113.790948 31.478656 135.203827 21.717844 158.768509 
C 11.957033 182.333192 6.932862 207.591405 6.932862 233.097633 
C 6.932862 258.603862 11.957033 283.862075 21.717844 307.426757 
C 31.478656 330.99144 45.786284 352.404319 63.821911 370.439946 
C 81.857538 388.475573 103.270417 402.783201 126.8351 412.544012 
C 150.399782 422.304824 175.657995 427.328994 201.164224 427.328994 
C 226.670452 427.328994 251.928665 422.304824 275.493347 412.544012 
C 299.05803 402.783201 320.470909 388.475573 338.506536 370.439946 
C 356.542163 352.404319 370.849792 330.99144 380.610603 307.426757 
C 390.371414 283.862075 395.395585 258.603862 395.395585 233.097633 
M 201.164224 233.097633 
C 201.164224 233.097633 201.164224 233.097633 201.164224 233.097633 
C 201.164224 233.097633 201.164224 233.097633 201.164224 233.097633 
C 201.164224 233.097633 201.164224 233.097633 201.164224 233.097633 
C 201.164224 233.097633 201.164224 233.097633 201.164224 233.097633 
C 201.164224 233.097633 201.164224 233.097633 201.164224 233.097633 
C 201.164224 233.097633 201.164224 233.097633 201.164224 233.097633 
C 201.164224 233.097633 201.164224 233.097633 201.164224 233.097633 
C 201.164224 233.097633 201.164224 233.097633 201.164224 233.097633 
C 201.164224 233.097633 201.164224 233.097633 201.164224 233.097633 
C 201.164224 233.097633 201.164224 233.097633 201.164224 233.097633 
C 201.164224 233.097633 201.164224 233.097633 201.164224 233.097633 
C 201.164224 233.097633 201.164224 233.097633 201.164224 233.097633 
C 201.164224 233.097633 201.164224 233.097633 201.164224 233.097633 
C 201.164224 233.097633 201.164224 233.097633 201.164224 233.097633 
C 201.164224 233.097633 201.164224 233.097633 201.164224 233.097633 
C 201.164224 233.097633 201.164224 233.097633 201.164224 233.097633 
z
"/>
  </clipPath>
 </defs>
</svg>
