<?xml version="1.0" encoding="utf-8" standalone="no"?>
<!DOCTYPE svg PUBLIC "-//W3C//DTD SVG 1.1//EN"
  "http://www.w3.org/Graphics/SVG/1.1/DTD/svg11.dtd">
<svg xmlns:xlink="http://www.w3.org/1999/xlink" width="590.891938pt" height="352.891833pt" viewBox="0 0 590.891938 352.891833" xmlns="http://www.w3.org/2000/svg" version="1.1">
 <metadata>
  <rdf:RDF xmlns:dc="http://purl.org/dc/elements/1.1/" xmlns:cc="http://creativecommons.org/ns#" xmlns:rdf="http://www.w3.org/1999/02/22-rdf-syntax-ns#">
   <cc:Work>
    <dc:type rdf:resource="http://purl.org/dc/dcmitype/StillImage"/>
    <dc:date>2026-06-19T21:06:54.699661</dc:date>
    <dc:format>image/svg+xml</dc:format>
    <dc:creator>
     <cc:Agent>
      <dc:title>Matplotlib v3.10.0, https://matplotlib.org/</dc:title>
     </cc:Agent>
    </dc:creator>
   </cc:Work>
  </rdf:RDF>
 </metadata>
 <defs>
  <style type="text/css">*{stroke-linejoin: round; stroke-linecap: butt}</style>
 </defs>
 <g id="figure_1">
  <g id="patch_1">
   <path d="M 0 352.891833 
L 590.891938 352.891833 
L 590.891938 0 
L 0 0 
z
" style="fill: #f2f2f5"/>
  </g>
  <g id="axes_1">
   <g id="patch_2">
    <path d="M 42.101938 315.180286 
L 586.571937 315.180286 
L 586.571937 22.646 
L 42.101938 22.646 
z
" style="fill: #eaeaf2"/>
   </g>
   <g id="matplotlib.axis_1">
    <g id="xtick_1">
     <g id="line2d_1">
      <path d="M 54.158965 315.180286 
L 54.158965 22.646 
" clip-path="url(#p78c3ca1e72)" style="fill: none; stroke: #ffffff; stroke-opacity: 0.95; stroke-width: 0.85; stroke-linecap: square"/>
     </g>
     <g id="line2d_2">
      <defs>
       <path id="m0676c5a5bf" d="M 0 0 
L 0 3.2 
" style="stroke: #3c3c3c; stroke-width: 0.8"/>
      </defs>
      <g>
       <use xlink:href="#m0676c5a5bf" x="54.158965" y="315.180286" style="fill: #3c3c3c; stroke: #3c3c3c; stroke-width: 0.8"/>
      </g>
     </g>
     <g id="text_1">
      <!-- 0 -->
      <g style="fill: #3c3c3c" transform="translate(51.51752 328.680208) scale(0.095 -0.095)">
       <defs>
        <path id="ArialMT-30" d="M 266 2259 
Q 266 3072 433 3567 
Q 600 4063 929 4331 
Q 1259 4600 1759 4600 
Q 2128 4600 2406 4451 
Q 2684 4303 2865 4023 
Q 3047 3744 3150 3342 
Q 3253 2941 3253 2259 
Q 3253 1453 3087 958 
Q 2922 463 2592 192 
Q 2263 -78 1759 -78 
Q 1097 -78 719 397 
Q 266 969 266 2259 
z
M 844 2259 
Q 844 1131 1108 757 
Q 1372 384 1759 384 
Q 2147 384 2411 759 
Q 2675 1134 2675 2259 
Q 2675 3391 2411 3762 
Q 2147 4134 1753 4134 
Q 1366 4134 1134 3806 
Q 844 3388 844 2259 
z
" transform="scale(0.015625)"/>
       </defs>
       <use xlink:href="#ArialMT-30"/>
      </g>
     </g>
    </g>
    <g id="xtick_2">
     <g id="line2d_3">
      <path d="M 117.617007 315.180286 
L 117.617007 22.646 
" clip-path="url(#p78c3ca1e72)" style="fill: none; stroke: #ffffff; stroke-opacity: 0.95; stroke-width: 0.85; stroke-linecap: square"/>
     </g>
     <g id="line2d_4">
      <g>
       <use xlink:href="#m0676c5a5bf" x="117.617007" y="315.180286" style="fill: #3c3c3c; stroke: #3c3c3c; stroke-width: 0.8"/>
      </g>
     </g>
     <g id="text_2">
      <!-- 25 -->
      <g style="fill: #3c3c3c" transform="translate(112.334117 328.680208) scale(0.095 -0.095)">
       <defs>
        <path id="ArialMT-32" d="M 3222 541 
L 3222 0 
L 194 0 
Q 188 203 259 391 
Q 375 700 629 1000 
Q 884 1300 1366 1694 
Q 2113 2306 2375 2664 
Q 2638 3022 2638 3341 
Q 2638 3675 2398 3904 
Q 2159 4134 1775 4134 
Q 1369 4134 1125 3890 
Q 881 3647 878 3216 
L 300 3275 
Q 359 3922 746 4261 
Q 1134 4600 1788 4600 
Q 2447 4600 2831 4234 
Q 3216 3869 3216 3328 
Q 3216 3053 3103 2787 
Q 2991 2522 2730 2228 
Q 2469 1934 1863 1422 
Q 1356 997 1212 845 
Q 1069 694 975 541 
L 3222 541 
z
" transform="scale(0.015625)"/>
        <path id="ArialMT-35" d="M 266 1200 
L 856 1250 
Q 922 819 1161 601 
Q 1400 384 1738 384 
Q 2144 384 2425 690 
Q 2706 997 2706 1503 
Q 2706 1984 2436 2262 
Q 2166 2541 1728 2541 
Q 1456 2541 1237 2417 
Q 1019 2294 894 2097 
L 366 2166 
L 809 4519 
L 3088 4519 
L 3088 3981 
L 1259 3981 
L 1013 2750 
Q 1425 3038 1878 3038 
Q 2478 3038 2890 2622 
Q 3303 2206 3303 1553 
Q 3303 931 2941 478 
Q 2500 -78 1738 -78 
Q 1113 -78 717 272 
Q 322 622 266 1200 
z
" transform="scale(0.015625)"/>
       </defs>
       <use xlink:href="#ArialMT-32"/>
       <use xlink:href="#ArialMT-35" transform="translate(55.615234 0)"/>
      </g>
     </g>
    </g>
    <g id="xtick_3">
     <g id="line2d_5">
      <path d="M 181.075049 315.180286 
L 181.075049 22.646 
" clip-path="url(#p78c3ca1e72)" style="fill: none; stroke: #ffffff; stroke-opacity: 0.95; stroke-width: 0.85; stroke-linecap: square"/>
     </g>
     <g id="line2d_6">
      <g>
       <use xlink:href="#m0676c5a5bf" x="181.075049" y="315.180286" style="fill: #3c3c3c; stroke: #3c3c3c; stroke-width: 0.8"/>
      </g>
     </g>
     <g id="text_3">
      <!-- 50 -->
      <g style="fill: #3c3c3c" transform="translate(175.792159 328.680208) scale(0.095 -0.095)">
       <use xlink:href="#ArialMT-35"/>
       <use xlink:href="#ArialMT-30" transform="translate(55.615234 0)"/>
      </g>
     </g>
    </g>
    <g id="xtick_4">
     <g id="line2d_7">
      <path d="M 244.533091 315.180286 
L 244.533091 22.646 
" clip-path="url(#p78c3ca1e72)" style="fill: none; stroke: #ffffff; stroke-opacity: 0.95; stroke-width: 0.85; stroke-linecap: square"/>
     </g>
     <g id="line2d_8">
      <g>
       <use xlink:href="#m0676c5a5bf" x="244.533091" y="315.180286" style="fill: #3c3c3c; stroke: #3c3c3c; stroke-width: 0.8"/>
      </g>
     </g>
     <g id="text_4">
      <!-- 75 -->
      <g style="fill: #3c3c3c" transform="translate(239.250201 328.680208) scale(0.095 -0.095)">
       <defs>
        <path id="ArialMT-37" d="M 303 3981 
L 303 4522 
L 3269 4522 
L 3269 4084 
Q 2831 3619 2401 2847 
Q 1972 2075 1738 1259 
Q 1569 684 1522 0 
L 944 0 
Q 953 541 1156 1306 
Q 1359 2072 1739 2783 
Q 2119 3494 2547 3981 
L 303 3981 
z
" transform="scale(0.015625)"/>
       </defs>
       <use xlink:href="#ArialMT-37"/>
       <use xlink:href="#ArialMT-35" transform="translate(55.615234 0)"/>
      </g>
     </g>
    </g>
    <g id="xtick_5">
     <g id="line2d_9">
      <path d="M 307.991133 315.180286 
L 307.991133 22.646 
" clip-path="url(#p78c3ca1e72)" style="fill: none; stroke: #ffffff; stroke-opacity: 0.95; stroke-width: 0.85; stroke-linecap: square"/>
     </g>
     <g id="line2d_10">
      <g>
       <use xlink:href="#m0676c5a5bf" x="307.991133" y="315.180286" style="fill: #3c3c3c; stroke: #3c3c3c; stroke-width: 0.8"/>
      </g>
     </g>
     <g id="text_5">
      <!-- 100 -->
      <g style="fill: #3c3c3c" transform="translate(300.066797 328.680208) scale(0.095 -0.095)">
       <defs>
        <path id="ArialMT-31" d="M 2384 0 
L 1822 0 
L 1822 3584 
Q 1619 3391 1289 3197 
Q 959 3003 697 2906 
L 697 3450 
Q 1169 3672 1522 3987 
Q 1875 4303 2022 4600 
L 2384 4600 
L 2384 0 
z
" transform="scale(0.015625)"/>
       </defs>
       <use xlink:href="#ArialMT-31"/>
       <use xlink:href="#ArialMT-30" transform="translate(55.615234 0)"/>
       <use xlink:href="#ArialMT-30" transform="translate(111.230469 0)"/>
      </g>
     </g>
    </g>
    <g id="xtick_6">
     <g id="line2d_11">
      <path d="M 371.449175 315.180286 
L 371.449175 22.646 
" clip-path="url(#p78c3ca1e72)" style="fill: none; stroke: #ffffff; stroke-opacity: 0.95; stroke-width: 0.85; stroke-linecap: square"/>
     </g>
     <g id="line2d_12">
      <g>
       <use xlink:href="#m0676c5a5bf" x="371.449175" y="315.180286" style="fill: #3c3c3c; stroke: #3c3c3c; stroke-width: 0.8"/>
      </g>
     </g>
     <g id="text_6">
      <!-- 125 -->
      <g style="fill: #3c3c3c" transform="translate(363.524839 328.680208) scale(0.095 -0.095)">
       <use xlink:href="#ArialMT-31"/>
       <use xlink:href="#ArialMT-32" transform="translate(55.615234 0)"/>
       <use xlink:href="#ArialMT-35" transform="translate(111.230469 0)"/>
      </g>
     </g>
    </g>
    <g id="xtick_7">
     <g id="line2d_13">
      <path d="M 434.907217 315.180286 
L 434.907217 22.646 
" clip-path="url(#p78c3ca1e72)" style="fill: none; stroke: #ffffff; stroke-opacity: 0.95; stroke-width: 0.85; stroke-linecap: square"/>
     </g>
     <g id="line2d_14">
      <g>
       <use xlink:href="#m0676c5a5bf" x="434.907217" y="315.180286" style="fill: #3c3c3c; stroke: #3c3c3c; stroke-width: 0.8"/>
      </g>
     </g>
     <g id="text_7">
      <!-- 150 -->
      <g style="fill: #3c3c3c" transform="translate(426.982881 328.680208) scale(0.095 -0.095)">
       <use xlink:href="#ArialMT-31"/>
       <use xlink:href="#ArialMT-35" transform="translate(55.615234 0)"/>
       <use xlink:href="#ArialMT-30" transform="translate(111.230469 0)"/>
      </g>
     </g>
    </g>
    <g id="xtick_8">
     <g id="line2d_15">
      <path d="M 498.365259 315.180286 
L 498.365259 22.646 
" clip-path="url(#p78c3ca1e72)" style="fill: none; stroke: #ffffff; stroke-opacity: 0.95; stroke-width: 0.85; stroke-linecap: square"/>
     </g>
     <g id="line2d_16">
      <g>
       <use xlink:href="#m0676c5a5bf" x="498.365259" y="315.180286" style="fill: #3c3c3c; stroke: #3c3c3c; stroke-width: 0.8"/>
      </g>
     </g>
     <g id="text_8">
      <!-- 175 -->
      <g style="fill: #3c3c3c" transform="translate(490.440923 328.680208) scale(0.095 -0.095)">
       <use xlink:href="#ArialMT-31"/>
       <use xlink:href="#ArialMT-37" transform="translate(55.615234 0)"/>
       <use xlink:href="#ArialMT-35" transform="translate(111.230469 0)"/>
      </g>
     </g>
    </g>
    <g id="xtick_9">
     <g id="line2d_17">
      <path d="M 561.823301 315.180286 
L 561.823301 22.646 
" clip-path="url(#p78c3ca1e72)" style="fill: none; stroke: #ffffff; stroke-opacity: 0.95; stroke-width: 0.85; stroke-linecap: square"/>
     </g>
     <g id="line2d_18">
      <g>
       <use xlink:href="#m0676c5a5bf" x="561.823301" y="315.180286" style="fill: #3c3c3c; stroke: #3c3c3c; stroke-width: 0.8"/>
      </g>
     </g>
     <g id="text_9">
      <!-- 200 -->
      <g style="fill: #3c3c3c" transform="translate(553.898965 328.680208) scale(0.095 -0.095)">
       <use xlink:href="#ArialMT-32"/>
       <use xlink:href="#ArialMT-30" transform="translate(55.615234 0)"/>
       <use xlink:href="#ArialMT-30" transform="translate(111.230469 0)"/>
      </g>
     </g>
    </g>
    <g id="text_10">
     <!-- Training step -->
     <g transform="translate(283.32575 346.29877) scale(0.108 -0.108)">
      <defs>
       <path id="ArialMT-54" d="M 1659 0 
L 1659 4041 
L 150 4041 
L 150 4581 
L 3781 4581 
L 3781 4041 
L 2266 4041 
L 2266 0 
L 1659 0 
z
" transform="scale(0.015625)"/>
       <path id="ArialMT-72" d="M 416 0 
L 416 3319 
L 922 3319 
L 922 2816 
Q 1116 3169 1280 3281 
Q 1444 3394 1641 3394 
Q 1925 3394 2219 3213 
L 2025 2691 
Q 1819 2813 1613 2813 
Q 1428 2813 1281 2702 
Q 1134 2591 1072 2394 
Q 978 2094 978 1738 
L 978 0 
L 416 0 
z
" transform="scale(0.015625)"/>
       <path id="ArialMT-61" d="M 2588 409 
Q 2275 144 1986 34 
Q 1697 -75 1366 -75 
Q 819 -75 525 192 
Q 231 459 231 875 
Q 231 1119 342 1320 
Q 453 1522 633 1644 
Q 813 1766 1038 1828 
Q 1203 1872 1538 1913 
Q 2219 1994 2541 2106 
Q 2544 2222 2544 2253 
Q 2544 2597 2384 2738 
Q 2169 2928 1744 2928 
Q 1347 2928 1158 2789 
Q 969 2650 878 2297 
L 328 2372 
Q 403 2725 575 2942 
Q 747 3159 1072 3276 
Q 1397 3394 1825 3394 
Q 2250 3394 2515 3294 
Q 2781 3194 2906 3042 
Q 3031 2891 3081 2659 
Q 3109 2516 3109 2141 
L 3109 1391 
Q 3109 606 3145 398 
Q 3181 191 3288 0 
L 2700 0 
Q 2613 175 2588 409 
z
M 2541 1666 
Q 2234 1541 1622 1453 
Q 1275 1403 1131 1340 
Q 988 1278 909 1158 
Q 831 1038 831 891 
Q 831 666 1001 516 
Q 1172 366 1500 366 
Q 1825 366 2078 508 
Q 2331 650 2450 897 
Q 2541 1088 2541 1459 
L 2541 1666 
z
" transform="scale(0.015625)"/>
       <path id="ArialMT-69" d="M 425 3934 
L 425 4581 
L 988 4581 
L 988 3934 
L 425 3934 
z
M 425 0 
L 425 3319 
L 988 3319 
L 988 0 
L 425 0 
z
" transform="scale(0.015625)"/>
       <path id="ArialMT-6e" d="M 422 0 
L 422 3319 
L 928 3319 
L 928 2847 
Q 1294 3394 1984 3394 
Q 2284 3394 2536 3286 
Q 2788 3178 2913 3003 
Q 3038 2828 3088 2588 
Q 3119 2431 3119 2041 
L 3119 0 
L 2556 0 
L 2556 2019 
Q 2556 2363 2490 2533 
Q 2425 2703 2258 2804 
Q 2091 2906 1866 2906 
Q 1506 2906 1245 2678 
Q 984 2450 984 1813 
L 984 0 
L 422 0 
z
" transform="scale(0.015625)"/>
       <path id="ArialMT-67" d="M 319 -275 
L 866 -356 
Q 900 -609 1056 -725 
Q 1266 -881 1628 -881 
Q 2019 -881 2231 -725 
Q 2444 -569 2519 -288 
Q 2563 -116 2559 434 
Q 2191 0 1641 0 
Q 956 0 581 494 
Q 206 988 206 1678 
Q 206 2153 378 2554 
Q 550 2956 876 3175 
Q 1203 3394 1644 3394 
Q 2231 3394 2613 2919 
L 2613 3319 
L 3131 3319 
L 3131 450 
Q 3131 -325 2973 -648 
Q 2816 -972 2473 -1159 
Q 2131 -1347 1631 -1347 
Q 1038 -1347 672 -1080 
Q 306 -813 319 -275 
z
M 784 1719 
Q 784 1066 1043 766 
Q 1303 466 1694 466 
Q 2081 466 2343 764 
Q 2606 1063 2606 1700 
Q 2606 2309 2336 2618 
Q 2066 2928 1684 2928 
Q 1309 2928 1046 2623 
Q 784 2319 784 1719 
z
" transform="scale(0.015625)"/>
       <path id="ArialMT-20" transform="scale(0.015625)"/>
       <path id="ArialMT-73" d="M 197 991 
L 753 1078 
Q 800 744 1014 566 
Q 1228 388 1613 388 
Q 2000 388 2187 545 
Q 2375 703 2375 916 
Q 2375 1106 2209 1216 
Q 2094 1291 1634 1406 
Q 1016 1563 777 1677 
Q 538 1791 414 1992 
Q 291 2194 291 2438 
Q 291 2659 392 2848 
Q 494 3038 669 3163 
Q 800 3259 1026 3326 
Q 1253 3394 1513 3394 
Q 1903 3394 2198 3281 
Q 2494 3169 2634 2976 
Q 2775 2784 2828 2463 
L 2278 2388 
Q 2241 2644 2061 2787 
Q 1881 2931 1553 2931 
Q 1166 2931 1000 2803 
Q 834 2675 834 2503 
Q 834 2394 903 2306 
Q 972 2216 1119 2156 
Q 1203 2125 1616 2013 
Q 2213 1853 2448 1751 
Q 2684 1650 2818 1456 
Q 2953 1263 2953 975 
Q 2953 694 2789 445 
Q 2625 197 2315 61 
Q 2006 -75 1616 -75 
Q 969 -75 630 194 
Q 291 463 197 991 
z
" transform="scale(0.015625)"/>
       <path id="ArialMT-74" d="M 1650 503 
L 1731 6 
Q 1494 -44 1306 -44 
Q 1000 -44 831 53 
Q 663 150 594 308 
Q 525 466 525 972 
L 525 2881 
L 113 2881 
L 113 3319 
L 525 3319 
L 525 4141 
L 1084 4478 
L 1084 3319 
L 1650 3319 
L 1650 2881 
L 1084 2881 
L 1084 941 
Q 1084 700 1114 631 
Q 1144 563 1211 522 
Q 1278 481 1403 481 
Q 1497 481 1650 503 
z
" transform="scale(0.015625)"/>
       <path id="ArialMT-65" d="M 2694 1069 
L 3275 997 
Q 3138 488 2766 206 
Q 2394 -75 1816 -75 
Q 1088 -75 661 373 
Q 234 822 234 1631 
Q 234 2469 665 2931 
Q 1097 3394 1784 3394 
Q 2450 3394 2872 2941 
Q 3294 2488 3294 1666 
Q 3294 1616 3291 1516 
L 816 1516 
Q 847 969 1125 678 
Q 1403 388 1819 388 
Q 2128 388 2347 550 
Q 2566 713 2694 1069 
z
M 847 1978 
L 2700 1978 
Q 2663 2397 2488 2606 
Q 2219 2931 1791 2931 
Q 1403 2931 1139 2672 
Q 875 2413 847 1978 
z
" transform="scale(0.015625)"/>
       <path id="ArialMT-70" d="M 422 -1272 
L 422 3319 
L 934 3319 
L 934 2888 
Q 1116 3141 1344 3267 
Q 1572 3394 1897 3394 
Q 2322 3394 2647 3175 
Q 2972 2956 3137 2557 
Q 3303 2159 3303 1684 
Q 3303 1175 3120 767 
Q 2938 359 2589 142 
Q 2241 -75 1856 -75 
Q 1575 -75 1351 44 
Q 1128 163 984 344 
L 984 -1272 
L 422 -1272 
z
M 931 1641 
Q 931 1000 1190 694 
Q 1450 388 1819 388 
Q 2194 388 2461 705 
Q 2728 1022 2728 1688 
Q 2728 2322 2467 2637 
Q 2206 2953 1844 2953 
Q 1484 2953 1207 2617 
Q 931 2281 931 1641 
z
" transform="scale(0.015625)"/>
      </defs>
      <use xlink:href="#ArialMT-54"/>
      <use xlink:href="#ArialMT-72" transform="translate(57.333984 0)"/>
      <use xlink:href="#ArialMT-61" transform="translate(90.634766 0)"/>
      <use xlink:href="#ArialMT-69" transform="translate(146.25 0)"/>
      <use xlink:href="#ArialMT-6e" transform="translate(168.466797 0)"/>
      <use xlink:href="#ArialMT-69" transform="translate(224.082031 0)"/>
      <use xlink:href="#ArialMT-6e" transform="translate(246.298828 0)"/>
      <use xlink:href="#ArialMT-67" transform="translate(301.914062 0)"/>
      <use xlink:href="#ArialMT-20" transform="translate(357.529297 0)"/>
      <use xlink:href="#ArialMT-73" transform="translate(385.3125 0)"/>
      <use xlink:href="#ArialMT-74" transform="translate(435.3125 0)"/>
      <use xlink:href="#ArialMT-65" transform="translate(463.095703 0)"/>
      <use xlink:href="#ArialMT-70" transform="translate(518.710938 0)"/>
     </g>
    </g>
   </g>
   <g id="matplotlib.axis_2">
    <g id="ytick_1">
     <g id="line2d_19">
      <path d="M 42.101938 304.744239 
L 586.571937 304.744239 
" clip-path="url(#p78c3ca1e72)" style="fill: none; stroke: #ffffff; stroke-opacity: 0.95; stroke-width: 0.85; stroke-linecap: square"/>
     </g>
     <g id="line2d_20">
      <defs>
       <path id="m3388882d9e" d="M 0 0 
L -3.2 0 
" style="stroke: #3c3c3c; stroke-width: 0.8"/>
      </defs>
      <g>
       <use xlink:href="#m3388882d9e" x="42.101938" y="304.744239" style="fill: #3c3c3c; stroke: #3c3c3c; stroke-width: 0.8"/>
      </g>
     </g>
     <g id="text_11">
      <!-- 0.5 -->
      <g style="fill: #3c3c3c" transform="translate(22.196938 308.1442) scale(0.095 -0.095)">
       <defs>
        <path id="ArialMT-2e" d="M 581 0 
L 581 641 
L 1222 641 
L 1222 0 
L 581 0 
z
" transform="scale(0.015625)"/>
       </defs>
       <use xlink:href="#ArialMT-30"/>
       <use xlink:href="#ArialMT-2e" transform="translate(55.615234 0)"/>
       <use xlink:href="#ArialMT-35" transform="translate(83.398438 0)"/>
      </g>
     </g>
    </g>
    <g id="ytick_2">
     <g id="line2d_21">
      <path d="M 42.101938 258.968777 
L 586.571937 258.968777 
" clip-path="url(#p78c3ca1e72)" style="fill: none; stroke: #ffffff; stroke-opacity: 0.95; stroke-width: 0.85; stroke-linecap: square"/>
     </g>
     <g id="line2d_22">
      <g>
       <use xlink:href="#m3388882d9e" x="42.101938" y="258.968777" style="fill: #3c3c3c; stroke: #3c3c3c; stroke-width: 0.8"/>
      </g>
     </g>
     <g id="text_12">
      <!-- 0.6 -->
      <g style="fill: #3c3c3c" transform="translate(22.196938 262.368738) scale(0.095 -0.095)">
       <defs>
        <path id="ArialMT-36" d="M 3184 3459 
L 2625 3416 
Q 2550 3747 2413 3897 
Q 2184 4138 1850 4138 
Q 1581 4138 1378 3988 
Q 1113 3794 959 3422 
Q 806 3050 800 2363 
Q 1003 2672 1297 2822 
Q 1591 2972 1913 2972 
Q 2475 2972 2870 2558 
Q 3266 2144 3266 1488 
Q 3266 1056 3080 686 
Q 2894 316 2569 119 
Q 2244 -78 1831 -78 
Q 1128 -78 684 439 
Q 241 956 241 2144 
Q 241 3472 731 4075 
Q 1159 4600 1884 4600 
Q 2425 4600 2770 4297 
Q 3116 3994 3184 3459 
z
M 888 1484 
Q 888 1194 1011 928 
Q 1134 663 1356 523 
Q 1578 384 1822 384 
Q 2178 384 2434 671 
Q 2691 959 2691 1453 
Q 2691 1928 2437 2201 
Q 2184 2475 1800 2475 
Q 1419 2475 1153 2201 
Q 888 1928 888 1484 
z
" transform="scale(0.015625)"/>
       </defs>
       <use xlink:href="#ArialMT-30"/>
       <use xlink:href="#ArialMT-2e" transform="translate(55.615234 0)"/>
       <use xlink:href="#ArialMT-36" transform="translate(83.398438 0)"/>
      </g>
     </g>
    </g>
    <g id="ytick_3">
     <g id="line2d_23">
      <path d="M 42.101938 213.193316 
L 586.571937 213.193316 
" clip-path="url(#p78c3ca1e72)" style="fill: none; stroke: #ffffff; stroke-opacity: 0.95; stroke-width: 0.85; stroke-linecap: square"/>
     </g>
     <g id="line2d_24">
      <g>
       <use xlink:href="#m3388882d9e" x="42.101938" y="213.193316" style="fill: #3c3c3c; stroke: #3c3c3c; stroke-width: 0.8"/>
      </g>
     </g>
     <g id="text_13">
      <!-- 0.7 -->
      <g style="fill: #3c3c3c" transform="translate(22.196938 216.593277) scale(0.095 -0.095)">
       <use xlink:href="#ArialMT-30"/>
       <use xlink:href="#ArialMT-2e" transform="translate(55.615234 0)"/>
       <use xlink:href="#ArialMT-37" transform="translate(83.398438 0)"/>
      </g>
     </g>
    </g>
    <g id="ytick_4">
     <g id="line2d_25">
      <path d="M 42.101938 167.417854 
L 586.571937 167.417854 
" clip-path="url(#p78c3ca1e72)" style="fill: none; stroke: #ffffff; stroke-opacity: 0.95; stroke-width: 0.85; stroke-linecap: square"/>
     </g>
     <g id="line2d_26">
      <g>
       <use xlink:href="#m3388882d9e" x="42.101938" y="167.417854" style="fill: #3c3c3c; stroke: #3c3c3c; stroke-width: 0.8"/>
      </g>
     </g>
     <g id="text_14">
      <!-- 0.8 -->
      <g style="fill: #3c3c3c" transform="translate(22.196938 170.817815) scale(0.095 -0.095)">
       <defs>
        <path id="ArialMT-38" d="M 1131 2484 
Q 781 2613 612 2850 
Q 444 3088 444 3419 
Q 444 3919 803 4259 
Q 1163 4600 1759 4600 
Q 2359 4600 2725 4251 
Q 3091 3903 3091 3403 
Q 3091 3084 2923 2848 
Q 2756 2613 2416 2484 
Q 2838 2347 3058 2040 
Q 3278 1734 3278 1309 
Q 3278 722 2862 322 
Q 2447 -78 1769 -78 
Q 1091 -78 675 323 
Q 259 725 259 1325 
Q 259 1772 486 2073 
Q 713 2375 1131 2484 
z
M 1019 3438 
Q 1019 3113 1228 2906 
Q 1438 2700 1772 2700 
Q 2097 2700 2305 2904 
Q 2513 3109 2513 3406 
Q 2513 3716 2298 3927 
Q 2084 4138 1766 4138 
Q 1444 4138 1231 3931 
Q 1019 3725 1019 3438 
z
M 838 1322 
Q 838 1081 952 856 
Q 1066 631 1291 507 
Q 1516 384 1775 384 
Q 2178 384 2440 643 
Q 2703 903 2703 1303 
Q 2703 1709 2433 1975 
Q 2163 2241 1756 2241 
Q 1359 2241 1098 1978 
Q 838 1716 838 1322 
z
" transform="scale(0.015625)"/>
       </defs>
       <use xlink:href="#ArialMT-30"/>
       <use xlink:href="#ArialMT-2e" transform="translate(55.615234 0)"/>
       <use xlink:href="#ArialMT-38" transform="translate(83.398438 0)"/>
      </g>
     </g>
    </g>
    <g id="ytick_5">
     <g id="line2d_27">
      <path d="M 42.101938 121.642392 
L 586.571937 121.642392 
" clip-path="url(#p78c3ca1e72)" style="fill: none; stroke: #ffffff; stroke-opacity: 0.95; stroke-width: 0.85; stroke-linecap: square"/>
     </g>
     <g id="line2d_28">
      <g>
       <use xlink:href="#m3388882d9e" x="42.101938" y="121.642392" style="fill: #3c3c3c; stroke: #3c3c3c; stroke-width: 0.8"/>
      </g>
     </g>
     <g id="text_15">
      <!-- 0.9 -->
      <g style="fill: #3c3c3c" transform="translate(22.196938 125.042353) scale(0.095 -0.095)">
       <defs>
        <path id="ArialMT-39" d="M 350 1059 
L 891 1109 
Q 959 728 1153 556 
Q 1347 384 1650 384 
Q 1909 384 2104 503 
Q 2300 622 2425 820 
Q 2550 1019 2634 1356 
Q 2719 1694 2719 2044 
Q 2719 2081 2716 2156 
Q 2547 1888 2255 1720 
Q 1963 1553 1622 1553 
Q 1053 1553 659 1965 
Q 266 2378 266 3053 
Q 266 3750 677 4175 
Q 1088 4600 1706 4600 
Q 2153 4600 2523 4359 
Q 2894 4119 3086 3673 
Q 3278 3228 3278 2384 
Q 3278 1506 3087 986 
Q 2897 466 2520 194 
Q 2144 -78 1638 -78 
Q 1100 -78 759 220 
Q 419 519 350 1059 
z
M 2653 3081 
Q 2653 3566 2395 3850 
Q 2138 4134 1775 4134 
Q 1400 4134 1122 3828 
Q 844 3522 844 3034 
Q 844 2597 1108 2323 
Q 1372 2050 1759 2050 
Q 2150 2050 2401 2323 
Q 2653 2597 2653 3081 
z
" transform="scale(0.015625)"/>
       </defs>
       <use xlink:href="#ArialMT-30"/>
       <use xlink:href="#ArialMT-2e" transform="translate(55.615234 0)"/>
       <use xlink:href="#ArialMT-39" transform="translate(83.398438 0)"/>
      </g>
     </g>
    </g>
    <g id="ytick_6">
     <g id="line2d_29">
      <path d="M 42.101938 75.866931 
L 586.571937 75.866931 
" clip-path="url(#p78c3ca1e72)" style="fill: none; stroke: #ffffff; stroke-opacity: 0.95; stroke-width: 0.85; stroke-linecap: square"/>
     </g>
     <g id="line2d_30">
      <g>
       <use xlink:href="#m3388882d9e" x="42.101938" y="75.866931" style="fill: #3c3c3c; stroke: #3c3c3c; stroke-width: 0.8"/>
      </g>
     </g>
     <g id="text_16">
      <!-- 1.0 -->
      <g style="fill: #3c3c3c" transform="translate(22.196938 79.266892) scale(0.095 -0.095)">
       <use xlink:href="#ArialMT-31"/>
       <use xlink:href="#ArialMT-2e" transform="translate(55.615234 0)"/>
       <use xlink:href="#ArialMT-30" transform="translate(83.398438 0)"/>
      </g>
     </g>
    </g>
    <g id="ytick_7">
     <g id="line2d_31">
      <path d="M 42.101938 30.091469 
L 586.571937 30.091469 
" clip-path="url(#p78c3ca1e72)" style="fill: none; stroke: #ffffff; stroke-opacity: 0.95; stroke-width: 0.85; stroke-linecap: square"/>
     </g>
     <g id="line2d_32">
      <g>
       <use xlink:href="#m3388882d9e" x="42.101938" y="30.091469" style="fill: #3c3c3c; stroke: #3c3c3c; stroke-width: 0.8"/>
      </g>
     </g>
     <g id="text_17">
      <!-- 1.1 -->
      <g style="fill: #3c3c3c" transform="translate(22.196938 33.49143) scale(0.095 -0.095)">
       <use xlink:href="#ArialMT-31"/>
       <use xlink:href="#ArialMT-2e" transform="translate(55.615234 0)"/>
       <use xlink:href="#ArialMT-31" transform="translate(83.398438 0)"/>
      </g>
     </g>
    </g>
    <g id="text_18">
     <!-- reward -->
     <g transform="translate(12.050438 185.417737) rotate(-90) scale(0.108 -0.108)">
      <defs>
       <path id="ArialMT-77" d="M 1034 0 
L 19 3319 
L 600 3319 
L 1128 1403 
L 1325 691 
Q 1338 744 1497 1375 
L 2025 3319 
L 2603 3319 
L 3100 1394 
L 3266 759 
L 3456 1400 
L 4025 3319 
L 4572 3319 
L 3534 0 
L 2950 0 
L 2422 1988 
L 2294 2553 
L 1622 0 
L 1034 0 
z
" transform="scale(0.015625)"/>
       <path id="ArialMT-64" d="M 2575 0 
L 2575 419 
Q 2259 -75 1647 -75 
Q 1250 -75 917 144 
Q 584 363 401 755 
Q 219 1147 219 1656 
Q 219 2153 384 2558 
Q 550 2963 881 3178 
Q 1213 3394 1622 3394 
Q 1922 3394 2156 3267 
Q 2391 3141 2538 2938 
L 2538 4581 
L 3097 4581 
L 3097 0 
L 2575 0 
z
M 797 1656 
Q 797 1019 1065 703 
Q 1334 388 1700 388 
Q 2069 388 2326 689 
Q 2584 991 2584 1609 
Q 2584 2291 2321 2609 
Q 2059 2928 1675 2928 
Q 1300 2928 1048 2622 
Q 797 2316 797 1656 
z
" transform="scale(0.015625)"/>
      </defs>
      <use xlink:href="#ArialMT-72"/>
      <use xlink:href="#ArialMT-65" transform="translate(33.300781 0)"/>
      <use xlink:href="#ArialMT-77" transform="translate(88.916016 0)"/>
      <use xlink:href="#ArialMT-61" transform="translate(161.132812 0)"/>
      <use xlink:href="#ArialMT-72" transform="translate(216.748047 0)"/>
      <use xlink:href="#ArialMT-64" transform="translate(250.048828 0)"/>
     </g>
    </g>
   </g>
   <g id="line2d_33">
    <path d="M 66.850574 210.332349 
L 79.542182 299.022306 
L 92.233791 301.883273 
L 104.925399 204.610417 
L 117.617007 187.444618 
L 130.308616 233.22008 
L 143.000224 193.166551 
L 155.691833 181.722686 
L 168.383441 181.722686 
L 181.075049 216.054282 
L 193.766658 167.417854 
L 206.458266 161.695921 
L 219.149875 210.332349 
L 231.841483 170.27882 
L 244.533091 213.193316 
L 257.2247 155.973989 
L 269.916308 241.802979 
L 282.607917 138.80819 
L 295.299525 193.166551 
L 307.991133 213.193316 
L 320.682742 173.139787 
L 333.37435 147.39109 
L 346.065958 193.166551 
L 358.757567 253.246845 
L 371.449175 196.027518 
L 384.140784 193.166551 
L 396.832392 147.39109 
L 409.524 213.193316 
L 422.215609 170.27882 
L 434.907217 144.530123 
L 447.598826 221.776215 
L 460.290434 207.471383 
L 472.982042 221.776215 
L 485.673651 170.27882 
L 498.365259 178.861719 
L 511.056868 147.39109 
L 523.748476 198.888484 
L 536.440084 301.883273 
L 549.131693 247.524912 
L 561.823301 236.081047 
" clip-path="url(#p78c3ca1e72)" style="fill: none; stroke: #c44e52; stroke-opacity: 0.15; stroke-width: 0.8; stroke-linecap: square"/>
   </g>
   <g id="line2d_34">
    <path d="M 66.850574 193.166551 
L 79.542182 218.915248 
L 92.233791 218.915248 
L 104.925399 184.583652 
L 117.617007 161.695921 
L 130.308616 213.193316 
L 143.000224 196.027518 
L 155.691833 184.583652 
L 168.383441 184.583652 
L 181.075049 213.193316 
L 193.766658 190.305585 
L 206.458266 167.417854 
L 219.149875 250.385878 
L 231.841483 198.888484 
L 244.533091 224.637181 
L 257.2247 207.471383 
L 269.916308 241.802979 
L 282.607917 138.80819 
L 295.299525 210.332349 
L 307.991133 264.69071 
L 320.682742 133.086258 
L 333.37435 190.305585 
L 346.065958 233.22008 
L 358.757567 241.802979 
L 371.449175 184.583652 
L 384.140784 287.578441 
L 396.832392 184.583652 
L 409.524 167.417854 
L 422.215609 167.417854 
L 434.907217 167.417854 
L 447.598826 258.968777 
L 460.290434 218.915248 
L 472.982042 247.524912 
L 485.673651 207.471383 
L 498.365259 276.134576 
L 511.056868 184.583652 
L 523.748476 173.139787 
L 536.440084 276.134576 
L 549.131693 278.995542 
L 561.823301 258.968777 
" clip-path="url(#p78c3ca1e72)" style="fill: none; stroke: #8172b3; stroke-opacity: 0.15; stroke-width: 0.8; stroke-linecap: square"/>
   </g>
   <g id="line2d_35">
    <path d="M 66.850574 96.694746 
L 79.542182 138.808169 
L 92.233791 102.416673 
L 104.925399 87.310774 
L 117.617007 58.701111 
L 130.308616 136.748275 
L 143.000224 117.522583 
L 155.691833 115.920438 
L 168.383441 90.972813 
L 181.075049 121.64237 
L 193.766658 98.75464 
L 206.458266 127.364303 
L 219.149875 136.748275 
L 231.841483 155.973967 
L 244.533091 134.230627 
L 257.2247 87.310774 
L 269.916308 121.64237 
L 282.607917 75.866909 
L 295.299525 127.364303 
L 307.991133 169.019977 
L 320.682742 41.535313 
L 333.37435 133.086236 
L 346.065958 125.304409 
L 358.757567 182.523737 
L 371.449175 104.476572 
L 384.140784 138.808169 
L 396.832392 70.144976 
L 409.524 58.701111 
L 422.215609 93.032707 
L 434.907217 52.979178 
L 447.598826 138.808169 
L 460.290434 144.530101 
L 472.982042 167.417832 
L 485.673651 121.64237 
L 498.365259 153.914073 
L 511.056868 121.64237 
L 523.748476 93.032707 
L 536.440084 216.855333 
L 549.131693 159.178246 
L 561.823301 207.471361 
" clip-path="url(#p78c3ca1e72)" style="fill: none; stroke: #64b5cd; stroke-opacity: 0.15; stroke-width: 0.8; stroke-linecap: square"/>
   </g>
   <g id="line2d_36">
    <path d="M 66.850574 108.17437 
L 79.542182 171.102225 
L 92.233791 93.032707 
L 104.925399 124.84665 
L 117.617007 76.210222 
L 130.308616 126.906554 
L 143.000224 148.19214 
L 155.691833 114.173462 
L 168.383441 75.866909 
L 181.075049 127.364303 
L 193.766658 127.364303 
L 206.458266 127.364303 
L 219.149875 123.289213 
L 231.841483 127.364303 
L 244.533091 133.090711 
L 257.2247 99.216863 
L 269.916308 87.359946 
L 282.607917 60.325602 
L 295.299525 133.086236 
L 307.991133 110.198505 
L 320.682742 41.535313 
L 333.37435 75.866909 
L 346.065958 125.344643 
L 358.757567 182.523737 
L 371.449175 93.032707 
L 384.140784 151.883237 
L 396.832392 70.144976 
L 409.524 93.052821 
L 422.215609 70.270146 
L 434.907217 35.943013 
L 447.598826 133.086236 
L 460.290434 144.588217 
L 472.982042 138.808169 
L 485.673651 119.645061 
L 498.365259 161.695899 
L 511.056868 110.20298 
L 523.748476 70.144976 
L 536.440084 245.206169 
L 549.131693 151.854179 
L 561.823301 228.406488 
" clip-path="url(#p78c3ca1e72)" style="fill: none; stroke: #8a6fad; stroke-opacity: 0.15; stroke-width: 0.8; stroke-linecap: square"/>
   </g>
   <g id="patch_3">
    <path d="M 42.101938 315.180286 
L 42.101938 22.646 
" style="fill: none; stroke: #d2d2e0; stroke-width: 0.9; stroke-linejoin: miter; stroke-linecap: square"/>
   </g>
   <g id="patch_4">
    <path d="M 42.101938 315.180286 
L 586.571937 315.180286 
" style="fill: none; stroke: #d2d2e0; stroke-width: 0.9; stroke-linejoin: miter; stroke-linecap: square"/>
   </g>
   <g id="line2d_37">
    <path d="M 66.850574 210.332349 
L 79.542182 226.296542 
L 92.233791 239.902153 
L 104.925399 233.549641 
L 117.617007 225.250737 
L 130.308616 226.685218 
L 143.000224 220.651858 
L 155.691833 213.644607 
L 168.383441 207.898661 
L 181.075049 209.366673 
L 193.766658 201.815886 
L 206.458266 194.594292 
L 219.149875 197.427142 
L 231.841483 192.540444 
L 244.533091 196.257961 
L 257.2247 189.006846 
L 269.916308 198.51015 
L 282.607917 187.763797 
L 295.299525 188.736293 
L 307.991133 193.138557 
L 320.682742 189.538778 
L 333.37435 181.952194 
L 346.065958 183.970779 
L 358.757567 196.440471 
L 371.449175 196.366139 
L 384.140784 195.790213 
L 396.832392 187.078371 
L 409.524 191.779061 
L 422.215609 187.909018 
L 434.907217 180.100817 
L 447.598826 187.602388 
L 460.290434 191.178807 
L 472.982042 196.686341 
L 485.673651 191.932987 
L 498.365259 189.580159 
L 511.056868 181.986126 
L 523.748476 185.028551 
L 536.440084 206.062401 
L 549.131693 213.525653 
L 561.823301 217.585624 
" clip-path="url(#p78c3ca1e72)" style="fill: none; stroke: #c44e52; stroke-width: 1.9; stroke-linecap: square"/>
   </g>
   <g id="line2d_38">
    <path d="M 66.850574 193.166551 
L 79.542182 197.801317 
L 92.233791 201.601824 
L 104.925399 198.538553 
L 117.617007 191.90688 
L 130.308616 195.738438 
L 143.000224 195.790472 
L 155.691833 193.773245 
L 168.383441 192.119118 
L 181.075049 195.912474 
L 193.766658 194.903234 
L 206.458266 189.955865 
L 219.149875 200.833268 
L 231.841483 200.483207 
L 244.533091 204.830922 
L 257.2247 205.306205 
L 269.916308 211.875624 
L 282.607917 198.723486 
L 295.299525 200.813082 
L 307.991133 212.311055 
L 320.682742 198.050591 
L 333.37435 196.65649 
L 346.065958 203.237936 
L 358.757567 210.179644 
L 371.449175 205.572366 
L 384.140784 220.333459 
L 396.832392 213.898494 
L 409.524 205.531979 
L 422.215609 198.671436 
L 434.907217 193.045791 
L 447.598826 204.911929 
L 460.290434 207.432526 
L 472.982042 214.649156 
L 485.673651 213.357157 
L 498.365259 224.657092 
L 511.056868 217.443873 
L 523.748476 209.469137 
L 536.440084 221.468916 
L 549.131693 231.823709 
L 561.823301 236.709821 
" clip-path="url(#p78c3ca1e72)" style="fill: none; stroke: #8172b3; stroke-width: 1.9; stroke-linecap: square"/>
   </g>
   <g id="line2d_39">
    <path d="M 66.850574 96.694746 
L 79.542182 104.275162 
L 92.233791 103.940634 
L 104.925399 100.947259 
L 117.617007 93.342952 
L 130.308616 101.15591 
L 143.000224 104.101912 
L 155.691833 106.229246 
L 168.383441 103.483088 
L 181.075049 106.751759 
L 193.766658 105.312278 
L 206.458266 109.281642 
L 219.149875 114.225636 
L 231.841483 121.740336 
L 244.533091 123.988588 
L 257.2247 117.386582 
L 269.916308 118.152624 
L 282.607917 110.541195 
L 295.299525 113.569354 
L 307.991133 123.550467 
L 320.682742 108.787739 
L 333.37435 113.161468 
L 346.065958 115.347198 
L 358.757567 127.438975 
L 371.449175 123.305742 
L 384.140784 126.096179 
L 396.832392 116.024962 
L 409.524 105.706669 
L 422.215609 103.425356 
L 434.907217 94.345044 
L 447.598826 102.348406 
L 460.290434 109.941111 
L 472.982042 120.286921 
L 485.673651 120.530902 
L 498.365259 126.539873 
L 511.056868 125.658322 
L 523.748476 119.785712 
L 536.440084 137.258243 
L 549.131693 141.203844 
L 561.823301 153.131997 
" clip-path="url(#p78c3ca1e72)" style="fill: none; stroke: #64b5cd; stroke-width: 1.9; stroke-linecap: square"/>
   </g>
   <g id="line2d_40">
    <path d="M 66.850574 108.17437 
L 79.542182 119.501384 
L 92.233791 114.737022 
L 104.925399 116.556755 
L 117.617007 109.294379 
L 130.308616 112.464571 
L 143.000224 118.895533 
L 155.691833 118.04556 
L 168.383441 110.453403 
L 181.075049 113.497365 
L 193.766658 115.993414 
L 206.458266 118.040174 
L 219.149875 118.985001 
L 231.841483 120.493275 
L 244.533091 122.760814 
L 257.2247 118.522903 
L 269.916308 112.91357 
L 282.607917 103.447736 
L 295.299525 108.782666 
L 307.991133 109.037517 
L 320.682742 96.88712 
L 333.37435 93.103482 
L 346.065958 98.906891 
L 358.757567 113.957923 
L 371.449175 110.191384 
L 384.140784 117.695918 
L 396.832392 109.136748 
L 409.524 106.241641 
L 422.215609 99.766772 
L 434.907217 88.278495 
L 447.598826 96.343889 
L 460.290434 105.027868 
L 472.982042 111.108322 
L 485.673651 112.644935 
L 498.365259 121.474109 
L 511.056868 119.445305 
L 523.748476 110.571246 
L 536.440084 134.805532 
L 549.131693 137.874289 
L 561.823301 154.170085 
" clip-path="url(#p78c3ca1e72)" style="fill: none; stroke: #8a6fad; stroke-width: 1.9; stroke-linecap: square"/>
   </g>
   <g id="text_19">
    <!-- GRPO training: reward -->
    <g transform="translate(249.605938 13.646) scale(0.128 -0.128)">
     <defs>
      <path id="ArialMT-47" d="M 2638 1797 
L 2638 2334 
L 4578 2338 
L 4578 638 
Q 4131 281 3656 101 
Q 3181 -78 2681 -78 
Q 2006 -78 1454 211 
Q 903 500 622 1047 
Q 341 1594 341 2269 
Q 341 2938 620 3517 
Q 900 4097 1425 4378 
Q 1950 4659 2634 4659 
Q 3131 4659 3532 4498 
Q 3934 4338 4162 4050 
Q 4391 3763 4509 3300 
L 3963 3150 
Q 3859 3500 3706 3700 
Q 3553 3900 3268 4020 
Q 2984 4141 2638 4141 
Q 2222 4141 1919 4014 
Q 1616 3888 1430 3681 
Q 1244 3475 1141 3228 
Q 966 2803 966 2306 
Q 966 1694 1177 1281 
Q 1388 869 1791 669 
Q 2194 469 2647 469 
Q 3041 469 3416 620 
Q 3791 772 3984 944 
L 3984 1797 
L 2638 1797 
z
" transform="scale(0.015625)"/>
      <path id="ArialMT-52" d="M 503 0 
L 503 4581 
L 2534 4581 
Q 3147 4581 3465 4457 
Q 3784 4334 3975 4021 
Q 4166 3709 4166 3331 
Q 4166 2844 3850 2509 
Q 3534 2175 2875 2084 
Q 3116 1969 3241 1856 
Q 3506 1613 3744 1247 
L 4541 0 
L 3778 0 
L 3172 953 
Q 2906 1366 2734 1584 
Q 2563 1803 2427 1890 
Q 2291 1978 2150 2013 
Q 2047 2034 1813 2034 
L 1109 2034 
L 1109 0 
L 503 0 
z
M 1109 2559 
L 2413 2559 
Q 2828 2559 3062 2645 
Q 3297 2731 3419 2920 
Q 3541 3109 3541 3331 
Q 3541 3656 3305 3865 
Q 3069 4075 2559 4075 
L 1109 4075 
L 1109 2559 
z
" transform="scale(0.015625)"/>
      <path id="ArialMT-50" d="M 494 0 
L 494 4581 
L 2222 4581 
Q 2678 4581 2919 4538 
Q 3256 4481 3484 4323 
Q 3713 4166 3852 3881 
Q 3991 3597 3991 3256 
Q 3991 2672 3619 2267 
Q 3247 1863 2275 1863 
L 1100 1863 
L 1100 0 
L 494 0 
z
M 1100 2403 
L 2284 2403 
Q 2872 2403 3119 2622 
Q 3366 2841 3366 3238 
Q 3366 3525 3220 3729 
Q 3075 3934 2838 4000 
Q 2684 4041 2272 4041 
L 1100 4041 
L 1100 2403 
z
" transform="scale(0.015625)"/>
      <path id="ArialMT-4f" d="M 309 2231 
Q 309 3372 921 4017 
Q 1534 4663 2503 4663 
Q 3138 4663 3647 4359 
Q 4156 4056 4423 3514 
Q 4691 2972 4691 2284 
Q 4691 1588 4409 1038 
Q 4128 488 3612 205 
Q 3097 -78 2500 -78 
Q 1853 -78 1343 234 
Q 834 547 571 1087 
Q 309 1628 309 2231 
z
M 934 2222 
Q 934 1394 1379 917 
Q 1825 441 2497 441 
Q 3181 441 3623 922 
Q 4066 1403 4066 2288 
Q 4066 2847 3877 3264 
Q 3688 3681 3323 3911 
Q 2959 4141 2506 4141 
Q 1863 4141 1398 3698 
Q 934 3256 934 2222 
z
" transform="scale(0.015625)"/>
      <path id="ArialMT-3a" d="M 578 2678 
L 578 3319 
L 1219 3319 
L 1219 2678 
L 578 2678 
z
M 578 0 
L 578 641 
L 1219 641 
L 1219 0 
L 578 0 
z
" transform="scale(0.015625)"/>
     </defs>
     <use xlink:href="#ArialMT-47"/>
     <use xlink:href="#ArialMT-52" transform="translate(77.783203 0)"/>
     <use xlink:href="#ArialMT-50" transform="translate(150 0)"/>
     <use xlink:href="#ArialMT-4f" transform="translate(216.699219 0)"/>
     <use xlink:href="#ArialMT-20" transform="translate(294.482422 0)"/>
     <use xlink:href="#ArialMT-74" transform="translate(322.265625 0)"/>
     <use xlink:href="#ArialMT-72" transform="translate(350.048828 0)"/>
     <use xlink:href="#ArialMT-61" transform="translate(383.349609 0)"/>
     <use xlink:href="#ArialMT-69" transform="translate(438.964844 0)"/>
     <use xlink:href="#ArialMT-6e" transform="translate(461.181641 0)"/>
     <use xlink:href="#ArialMT-69" transform="translate(516.796875 0)"/>
     <use xlink:href="#ArialMT-6e" transform="translate(539.013672 0)"/>
     <use xlink:href="#ArialMT-67" transform="translate(594.628906 0)"/>
     <use xlink:href="#ArialMT-3a" transform="translate(650.244141 0)"/>
     <use xlink:href="#ArialMT-20" transform="translate(678.027344 0)"/>
     <use xlink:href="#ArialMT-72" transform="translate(705.810547 0)"/>
     <use xlink:href="#ArialMT-65" transform="translate(739.111328 0)"/>
     <use xlink:href="#ArialMT-77" transform="translate(794.726562 0)"/>
     <use xlink:href="#ArialMT-61" transform="translate(866.943359 0)"/>
     <use xlink:href="#ArialMT-72" transform="translate(922.558594 0)"/>
     <use xlink:href="#ArialMT-64" transform="translate(955.859375 0)"/>
    </g>
   </g>
   <g id="legend_1">
    <g id="patch_5">
     <path d="M 490.068031 77.619125 
L 580.271938 77.619125 
Q 582.071938 77.619125 582.071938 75.819125 
L 582.071938 28.946 
Q 582.071938 27.146 580.271938 27.146 
L 490.068031 27.146 
Q 488.268031 27.146 488.268031 28.946 
L 488.268031 75.819125 
Q 488.268031 77.619125 490.068031 77.619125 
z
" style="fill: #f7f7fa; opacity: 0.92; stroke: #d2d2e0; stroke-width: 0.65; stroke-linejoin: miter"/>
    </g>
    <g id="line2d_41">
     <path d="M 492.318031 34.488031 
L 501.318031 34.488031 
L 510.318031 34.488031 
" style="fill: none; stroke: #c44e52; stroke-width: 1.9; stroke-linecap: square"/>
    </g>
    <g id="text_20">
     <!-- GRPO -->
     <g transform="translate(517.518031 37.638031) scale(0.09 -0.09)">
      <use xlink:href="#ArialMT-47"/>
      <use xlink:href="#ArialMT-52" transform="translate(77.783203 0)"/>
      <use xlink:href="#ArialMT-50" transform="translate(150 0)"/>
      <use xlink:href="#ArialMT-4f" transform="translate(216.699219 0)"/>
     </g>
    </g>
    <g id="line2d_42">
     <path d="M 492.318031 45.868812 
L 501.318031 45.868812 
L 510.318031 45.868812 
" style="fill: none; stroke: #8172b3; stroke-width: 1.9; stroke-linecap: square"/>
    </g>
    <g id="text_21">
     <!-- SFT-GRPO-R1 -->
     <g transform="translate(517.518031 49.018812) scale(0.09 -0.09)">
      <defs>
       <path id="ArialMT-53" d="M 288 1472 
L 859 1522 
Q 900 1178 1048 958 
Q 1197 738 1509 602 
Q 1822 466 2213 466 
Q 2559 466 2825 569 
Q 3091 672 3220 851 
Q 3350 1031 3350 1244 
Q 3350 1459 3225 1620 
Q 3100 1781 2813 1891 
Q 2628 1963 1997 2114 
Q 1366 2266 1113 2400 
Q 784 2572 623 2826 
Q 463 3081 463 3397 
Q 463 3744 659 4045 
Q 856 4347 1234 4503 
Q 1613 4659 2075 4659 
Q 2584 4659 2973 4495 
Q 3363 4331 3572 4012 
Q 3781 3694 3797 3291 
L 3216 3247 
Q 3169 3681 2898 3903 
Q 2628 4125 2100 4125 
Q 1550 4125 1298 3923 
Q 1047 3722 1047 3438 
Q 1047 3191 1225 3031 
Q 1400 2872 2139 2705 
Q 2878 2538 3153 2413 
Q 3553 2228 3743 1945 
Q 3934 1663 3934 1294 
Q 3934 928 3725 604 
Q 3516 281 3123 101 
Q 2731 -78 2241 -78 
Q 1619 -78 1198 103 
Q 778 284 539 648 
Q 300 1013 288 1472 
z
" transform="scale(0.015625)"/>
       <path id="ArialMT-46" d="M 525 0 
L 525 4581 
L 3616 4581 
L 3616 4041 
L 1131 4041 
L 1131 2622 
L 3281 2622 
L 3281 2081 
L 1131 2081 
L 1131 0 
L 525 0 
z
" transform="scale(0.015625)"/>
       <path id="ArialMT-2d" d="M 203 1375 
L 203 1941 
L 1931 1941 
L 1931 1375 
L 203 1375 
z
" transform="scale(0.015625)"/>
      </defs>
      <use xlink:href="#ArialMT-53"/>
      <use xlink:href="#ArialMT-46" transform="translate(66.699219 0)"/>
      <use xlink:href="#ArialMT-54" transform="translate(127.783203 0)"/>
      <use xlink:href="#ArialMT-2d" transform="translate(183.367188 0)"/>
      <use xlink:href="#ArialMT-47" transform="translate(216.667969 0)"/>
      <use xlink:href="#ArialMT-52" transform="translate(294.451172 0)"/>
      <use xlink:href="#ArialMT-50" transform="translate(366.667969 0)"/>
      <use xlink:href="#ArialMT-4f" transform="translate(433.367188 0)"/>
      <use xlink:href="#ArialMT-2d" transform="translate(511.150391 0)"/>
      <use xlink:href="#ArialMT-52" transform="translate(544.451172 0)"/>
      <use xlink:href="#ArialMT-31" transform="translate(616.667969 0)"/>
     </g>
    </g>
    <g id="line2d_43">
     <path d="M 492.318031 57.249594 
L 501.318031 57.249594 
L 510.318031 57.249594 
" style="fill: none; stroke: #64b5cd; stroke-width: 1.9; stroke-linecap: square"/>
    </g>
    <g id="text_22">
     <!-- SFT-GRPO-R2 -->
     <g transform="translate(517.518031 60.399594) scale(0.09 -0.09)">
      <use xlink:href="#ArialMT-53"/>
      <use xlink:href="#ArialMT-46" transform="translate(66.699219 0)"/>
      <use xlink:href="#ArialMT-54" transform="translate(127.783203 0)"/>
      <use xlink:href="#ArialMT-2d" transform="translate(183.367188 0)"/>
      <use xlink:href="#ArialMT-47" transform="translate(216.667969 0)"/>
      <use xlink:href="#ArialMT-52" transform="translate(294.451172 0)"/>
      <use xlink:href="#ArialMT-50" transform="translate(366.667969 0)"/>
      <use xlink:href="#ArialMT-4f" transform="translate(433.367188 0)"/>
      <use xlink:href="#ArialMT-2d" transform="translate(511.150391 0)"/>
      <use xlink:href="#ArialMT-52" transform="translate(544.451172 0)"/>
      <use xlink:href="#ArialMT-32" transform="translate(616.667969 0)"/>
     </g>
    </g>
    <g id="line2d_44">
     <path d="M 492.318031 68.630375 
L 501.318031 68.630375 
L 510.318031 68.630375 
" style="fill: none; stroke: #8a6fad; stroke-width: 1.9; stroke-linecap: square"/>
    </g>
    <g id="text_23">
     <!-- SFT-GRPO-R3 -->
     <g transform="translate(517.518031 71.780375) scale(0.09 -0.09)">
      <defs>
       <path id="ArialMT-33" d="M 269 1209 
L 831 1284 
Q 928 806 1161 595 
Q 1394 384 1728 384 
Q 2125 384 2398 659 
Q 2672 934 2672 1341 
Q 2672 1728 2419 1979 
Q 2166 2231 1775 2231 
Q 1616 2231 1378 2169 
L 1441 2663 
Q 1497 2656 1531 2656 
Q 1891 2656 2178 2843 
Q 2466 3031 2466 3422 
Q 2466 3731 2256 3934 
Q 2047 4138 1716 4138 
Q 1388 4138 1169 3931 
Q 950 3725 888 3313 
L 325 3413 
Q 428 3978 793 4289 
Q 1159 4600 1703 4600 
Q 2078 4600 2393 4439 
Q 2709 4278 2876 4000 
Q 3044 3722 3044 3409 
Q 3044 3113 2884 2869 
Q 2725 2625 2413 2481 
Q 2819 2388 3044 2092 
Q 3269 1797 3269 1353 
Q 3269 753 2831 336 
Q 2394 -81 1725 -81 
Q 1122 -81 723 278 
Q 325 638 269 1209 
z
" transform="scale(0.015625)"/>
      </defs>
      <use xlink:href="#ArialMT-53"/>
      <use xlink:href="#ArialMT-46" transform="translate(66.699219 0)"/>
      <use xlink:href="#ArialMT-54" transform="translate(127.783203 0)"/>
      <use xlink:href="#ArialMT-2d" transform="translate(183.367188 0)"/>
      <use xlink:href="#ArialMT-47" transform="translate(216.667969 0)"/>
      <use xlink:href="#ArialMT-52" transform="translate(294.451172 0)"/>
      <use xlink:href="#ArialMT-50" transform="translate(366.667969 0)"/>
      <use xlink:href="#ArialMT-4f" transform="translate(433.367188 0)"/>
      <use xlink:href="#ArialMT-2d" transform="translate(511.150391 0)"/>
      <use xlink:href="#ArialMT-52" transform="translate(544.451172 0)"/>
      <use xlink:href="#ArialMT-33" transform="translate(616.667969 0)"/>
     </g>
    </g>
   </g>
  </g>
 </g>
 <defs>
  <clipPath id="p78c3ca1e72">
   <rect x="42.101938" y="22.646" width="544.47" height="292.534286"/>
  </clipPath>
 </defs>
</svg>
