<?xml version="1.0" encoding="utf-8" standalone="no"?>
<!DOCTYPE svg PUBLIC "-//W3C//DTD SVG 1.1//EN"
  "http://www.w3.org/Graphics/SVG/1.1/DTD/svg11.dtd">
<svg xmlns:xlink="http://www.w3.org/1999/xlink" width="591.026458pt" height="352.891833pt" viewBox="0 0 591.026458 352.891833" xmlns="http://www.w3.org/2000/svg" version="1.1">
 <metadata>
  <rdf:RDF xmlns:dc="http://purl.org/dc/elements/1.1/" xmlns:cc="http://creativecommons.org/ns#" xmlns:rdf="http://www.w3.org/1999/02/22-rdf-syntax-ns#">
   <cc:Work>
    <dc:type rdf:resource="http://purl.org/dc/dcmitype/StillImage"/>
    <dc:date>2026-06-19T21:06:55.023201</dc:date>
    <dc:format>image/svg+xml</dc:format>
    <dc:creator>
     <cc:Agent>
      <dc:title>Matplotlib v3.10.0, https://matplotlib.org/</dc:title>
     </cc:Agent>
    </dc:creator>
   </cc:Work>
  </rdf:RDF>
 </metadata>
 <defs>
  <style type="text/css">*{stroke-linejoin: round; stroke-linecap: butt}</style>
 </defs>
 <g id="figure_1">
  <g id="patch_1">
   <path d="M -0 352.891833 
L 591.026458 352.891833 
L 591.026458 0 
L -0 0 
z
" style="fill: #f2f2f5"/>
  </g>
  <g id="axes_1">
   <g id="patch_2">
    <path d="M 44.872172 315.180286 
L 586.706458 315.180286 
L 586.706458 22.646 
L 44.872172 22.646 
z
" style="fill: #eaeaf2"/>
   </g>
   <g id="matplotlib.axis_1">
    <g id="xtick_1">
     <g id="line2d_1">
      <path d="M 56.870833 315.180286 
L 56.870833 22.646 
" clip-path="url(#p01a5e859ab)" style="fill: none; stroke: #ffffff; stroke-opacity: 0.95; stroke-width: 0.85; stroke-linecap: square"/>
     </g>
     <g id="line2d_2">
      <defs>
       <path id="mda1faf9acc" d="M 0 0 
L 0 3.2 
" style="stroke: #3c3c3c; stroke-width: 0.8"/>
      </defs>
      <g>
       <use xlink:href="#mda1faf9acc" x="56.870833" y="315.180286" style="fill: #3c3c3c; stroke: #3c3c3c; stroke-width: 0.8"/>
      </g>
     </g>
     <g id="text_1">
      <!-- 0 -->
      <g style="fill: #3c3c3c" transform="translate(54.229388 328.680208) scale(0.095 -0.095)">
       <defs>
        <path id="ArialMT-30" d="M 266 2259 
Q 266 3072 433 3567 
Q 600 4063 929 4331 
Q 1259 4600 1759 4600 
Q 2128 4600 2406 4451 
Q 2684 4303 2865 4023 
Q 3047 3744 3150 3342 
Q 3253 2941 3253 2259 
Q 3253 1453 3087 958 
Q 2922 463 2592 192 
Q 2263 -78 1759 -78 
Q 1097 -78 719 397 
Q 266 969 266 2259 
z
M 844 2259 
Q 844 1131 1108 757 
Q 1372 384 1759 384 
Q 2147 384 2411 759 
Q 2675 1134 2675 2259 
Q 2675 3391 2411 3762 
Q 2147 4134 1753 4134 
Q 1366 4134 1134 3806 
Q 844 3388 844 2259 
z
" transform="scale(0.015625)"/>
       </defs>
       <use xlink:href="#ArialMT-30"/>
      </g>
     </g>
    </g>
    <g id="xtick_2">
     <g id="line2d_3">
      <path d="M 120.021682 315.180286 
L 120.021682 22.646 
" clip-path="url(#p01a5e859ab)" style="fill: none; stroke: #ffffff; stroke-opacity: 0.95; stroke-width: 0.85; stroke-linecap: square"/>
     </g>
     <g id="line2d_4">
      <g>
       <use xlink:href="#mda1faf9acc" x="120.021682" y="315.180286" style="fill: #3c3c3c; stroke: #3c3c3c; stroke-width: 0.8"/>
      </g>
     </g>
     <g id="text_2">
      <!-- 25 -->
      <g style="fill: #3c3c3c" transform="translate(114.738792 328.680208) scale(0.095 -0.095)">
       <defs>
        <path id="ArialMT-32" d="M 3222 541 
L 3222 0 
L 194 0 
Q 188 203 259 391 
Q 375 700 629 1000 
Q 884 1300 1366 1694 
Q 2113 2306 2375 2664 
Q 2638 3022 2638 3341 
Q 2638 3675 2398 3904 
Q 2159 4134 1775 4134 
Q 1369 4134 1125 3890 
Q 881 3647 878 3216 
L 300 3275 
Q 359 3922 746 4261 
Q 1134 4600 1788 4600 
Q 2447 4600 2831 4234 
Q 3216 3869 3216 3328 
Q 3216 3053 3103 2787 
Q 2991 2522 2730 2228 
Q 2469 1934 1863 1422 
Q 1356 997 1212 845 
Q 1069 694 975 541 
L 3222 541 
z
" transform="scale(0.015625)"/>
        <path id="ArialMT-35" d="M 266 1200 
L 856 1250 
Q 922 819 1161 601 
Q 1400 384 1738 384 
Q 2144 384 2425 690 
Q 2706 997 2706 1503 
Q 2706 1984 2436 2262 
Q 2166 2541 1728 2541 
Q 1456 2541 1237 2417 
Q 1019 2294 894 2097 
L 366 2166 
L 809 4519 
L 3088 4519 
L 3088 3981 
L 1259 3981 
L 1013 2750 
Q 1425 3038 1878 3038 
Q 2478 3038 2890 2622 
Q 3303 2206 3303 1553 
Q 3303 931 2941 478 
Q 2500 -78 1738 -78 
Q 1113 -78 717 272 
Q 322 622 266 1200 
z
" transform="scale(0.015625)"/>
       </defs>
       <use xlink:href="#ArialMT-32"/>
       <use xlink:href="#ArialMT-35" transform="translate(55.615234 0)"/>
      </g>
     </g>
    </g>
    <g id="xtick_3">
     <g id="line2d_5">
      <path d="M 183.172532 315.180286 
L 183.172532 22.646 
" clip-path="url(#p01a5e859ab)" style="fill: none; stroke: #ffffff; stroke-opacity: 0.95; stroke-width: 0.85; stroke-linecap: square"/>
     </g>
     <g id="line2d_6">
      <g>
       <use xlink:href="#mda1faf9acc" x="183.172532" y="315.180286" style="fill: #3c3c3c; stroke: #3c3c3c; stroke-width: 0.8"/>
      </g>
     </g>
     <g id="text_3">
      <!-- 50 -->
      <g style="fill: #3c3c3c" transform="translate(177.889641 328.680208) scale(0.095 -0.095)">
       <use xlink:href="#ArialMT-35"/>
       <use xlink:href="#ArialMT-30" transform="translate(55.615234 0)"/>
      </g>
     </g>
    </g>
    <g id="xtick_4">
     <g id="line2d_7">
      <path d="M 246.323381 315.180286 
L 246.323381 22.646 
" clip-path="url(#p01a5e859ab)" style="fill: none; stroke: #ffffff; stroke-opacity: 0.95; stroke-width: 0.85; stroke-linecap: square"/>
     </g>
     <g id="line2d_8">
      <g>
       <use xlink:href="#mda1faf9acc" x="246.323381" y="315.180286" style="fill: #3c3c3c; stroke: #3c3c3c; stroke-width: 0.8"/>
      </g>
     </g>
     <g id="text_4">
      <!-- 75 -->
      <g style="fill: #3c3c3c" transform="translate(241.04049 328.680208) scale(0.095 -0.095)">
       <defs>
        <path id="ArialMT-37" d="M 303 3981 
L 303 4522 
L 3269 4522 
L 3269 4084 
Q 2831 3619 2401 2847 
Q 1972 2075 1738 1259 
Q 1569 684 1522 0 
L 944 0 
Q 953 541 1156 1306 
Q 1359 2072 1739 2783 
Q 2119 3494 2547 3981 
L 303 3981 
z
" transform="scale(0.015625)"/>
       </defs>
       <use xlink:href="#ArialMT-37"/>
       <use xlink:href="#ArialMT-35" transform="translate(55.615234 0)"/>
      </g>
     </g>
    </g>
    <g id="xtick_5">
     <g id="line2d_9">
      <path d="M 309.47423 315.180286 
L 309.47423 22.646 
" clip-path="url(#p01a5e859ab)" style="fill: none; stroke: #ffffff; stroke-opacity: 0.95; stroke-width: 0.85; stroke-linecap: square"/>
     </g>
     <g id="line2d_10">
      <g>
       <use xlink:href="#mda1faf9acc" x="309.47423" y="315.180286" style="fill: #3c3c3c; stroke: #3c3c3c; stroke-width: 0.8"/>
      </g>
     </g>
     <g id="text_5">
      <!-- 100 -->
      <g style="fill: #3c3c3c" transform="translate(301.549894 328.680208) scale(0.095 -0.095)">
       <defs>
        <path id="ArialMT-31" d="M 2384 0 
L 1822 0 
L 1822 3584 
Q 1619 3391 1289 3197 
Q 959 3003 697 2906 
L 697 3450 
Q 1169 3672 1522 3987 
Q 1875 4303 2022 4600 
L 2384 4600 
L 2384 0 
z
" transform="scale(0.015625)"/>
       </defs>
       <use xlink:href="#ArialMT-31"/>
       <use xlink:href="#ArialMT-30" transform="translate(55.615234 0)"/>
       <use xlink:href="#ArialMT-30" transform="translate(111.230469 0)"/>
      </g>
     </g>
    </g>
    <g id="xtick_6">
     <g id="line2d_11">
      <path d="M 372.625079 315.180286 
L 372.625079 22.646 
" clip-path="url(#p01a5e859ab)" style="fill: none; stroke: #ffffff; stroke-opacity: 0.95; stroke-width: 0.85; stroke-linecap: square"/>
     </g>
     <g id="line2d_12">
      <g>
       <use xlink:href="#mda1faf9acc" x="372.625079" y="315.180286" style="fill: #3c3c3c; stroke: #3c3c3c; stroke-width: 0.8"/>
      </g>
     </g>
     <g id="text_6">
      <!-- 125 -->
      <g style="fill: #3c3c3c" transform="translate(364.700743 328.680208) scale(0.095 -0.095)">
       <use xlink:href="#ArialMT-31"/>
       <use xlink:href="#ArialMT-32" transform="translate(55.615234 0)"/>
       <use xlink:href="#ArialMT-35" transform="translate(111.230469 0)"/>
      </g>
     </g>
    </g>
    <g id="xtick_7">
     <g id="line2d_13">
      <path d="M 435.775928 315.180286 
L 435.775928 22.646 
" clip-path="url(#p01a5e859ab)" style="fill: none; stroke: #ffffff; stroke-opacity: 0.95; stroke-width: 0.85; stroke-linecap: square"/>
     </g>
     <g id="line2d_14">
      <g>
       <use xlink:href="#mda1faf9acc" x="435.775928" y="315.180286" style="fill: #3c3c3c; stroke: #3c3c3c; stroke-width: 0.8"/>
      </g>
     </g>
     <g id="text_7">
      <!-- 150 -->
      <g style="fill: #3c3c3c" transform="translate(427.851592 328.680208) scale(0.095 -0.095)">
       <use xlink:href="#ArialMT-31"/>
       <use xlink:href="#ArialMT-35" transform="translate(55.615234 0)"/>
       <use xlink:href="#ArialMT-30" transform="translate(111.230469 0)"/>
      </g>
     </g>
    </g>
    <g id="xtick_8">
     <g id="line2d_15">
      <path d="M 498.926777 315.180286 
L 498.926777 22.646 
" clip-path="url(#p01a5e859ab)" style="fill: none; stroke: #ffffff; stroke-opacity: 0.95; stroke-width: 0.85; stroke-linecap: square"/>
     </g>
     <g id="line2d_16">
      <g>
       <use xlink:href="#mda1faf9acc" x="498.926777" y="315.180286" style="fill: #3c3c3c; stroke: #3c3c3c; stroke-width: 0.8"/>
      </g>
     </g>
     <g id="text_8">
      <!-- 175 -->
      <g style="fill: #3c3c3c" transform="translate(491.002441 328.680208) scale(0.095 -0.095)">
       <use xlink:href="#ArialMT-31"/>
       <use xlink:href="#ArialMT-37" transform="translate(55.615234 0)"/>
       <use xlink:href="#ArialMT-35" transform="translate(111.230469 0)"/>
      </g>
     </g>
    </g>
    <g id="xtick_9">
     <g id="line2d_17">
      <path d="M 562.077626 315.180286 
L 562.077626 22.646 
" clip-path="url(#p01a5e859ab)" style="fill: none; stroke: #ffffff; stroke-opacity: 0.95; stroke-width: 0.85; stroke-linecap: square"/>
     </g>
     <g id="line2d_18">
      <g>
       <use xlink:href="#mda1faf9acc" x="562.077626" y="315.180286" style="fill: #3c3c3c; stroke: #3c3c3c; stroke-width: 0.8"/>
      </g>
     </g>
     <g id="text_9">
      <!-- 200 -->
      <g style="fill: #3c3c3c" transform="translate(554.15329 328.680208) scale(0.095 -0.095)">
       <use xlink:href="#ArialMT-32"/>
       <use xlink:href="#ArialMT-30" transform="translate(55.615234 0)"/>
       <use xlink:href="#ArialMT-30" transform="translate(111.230469 0)"/>
      </g>
     </g>
    </g>
    <g id="text_10">
     <!-- Training step -->
     <g transform="translate(284.778127 346.29877) scale(0.108 -0.108)">
      <defs>
       <path id="ArialMT-54" d="M 1659 0 
L 1659 4041 
L 150 4041 
L 150 4581 
L 3781 4581 
L 3781 4041 
L 2266 4041 
L 2266 0 
L 1659 0 
z
" transform="scale(0.015625)"/>
       <path id="ArialMT-72" d="M 416 0 
L 416 3319 
L 922 3319 
L 922 2816 
Q 1116 3169 1280 3281 
Q 1444 3394 1641 3394 
Q 1925 3394 2219 3213 
L 2025 2691 
Q 1819 2813 1613 2813 
Q 1428 2813 1281 2702 
Q 1134 2591 1072 2394 
Q 978 2094 978 1738 
L 978 0 
L 416 0 
z
" transform="scale(0.015625)"/>
       <path id="ArialMT-61" d="M 2588 409 
Q 2275 144 1986 34 
Q 1697 -75 1366 -75 
Q 819 -75 525 192 
Q 231 459 231 875 
Q 231 1119 342 1320 
Q 453 1522 633 1644 
Q 813 1766 1038 1828 
Q 1203 1872 1538 1913 
Q 2219 1994 2541 2106 
Q 2544 2222 2544 2253 
Q 2544 2597 2384 2738 
Q 2169 2928 1744 2928 
Q 1347 2928 1158 2789 
Q 969 2650 878 2297 
L 328 2372 
Q 403 2725 575 2942 
Q 747 3159 1072 3276 
Q 1397 3394 1825 3394 
Q 2250 3394 2515 3294 
Q 2781 3194 2906 3042 
Q 3031 2891 3081 2659 
Q 3109 2516 3109 2141 
L 3109 1391 
Q 3109 606 3145 398 
Q 3181 191 3288 0 
L 2700 0 
Q 2613 175 2588 409 
z
M 2541 1666 
Q 2234 1541 1622 1453 
Q 1275 1403 1131 1340 
Q 988 1278 909 1158 
Q 831 1038 831 891 
Q 831 666 1001 516 
Q 1172 366 1500 366 
Q 1825 366 2078 508 
Q 2331 650 2450 897 
Q 2541 1088 2541 1459 
L 2541 1666 
z
" transform="scale(0.015625)"/>
       <path id="ArialMT-69" d="M 425 3934 
L 425 4581 
L 988 4581 
L 988 3934 
L 425 3934 
z
M 425 0 
L 425 3319 
L 988 3319 
L 988 0 
L 425 0 
z
" transform="scale(0.015625)"/>
       <path id="ArialMT-6e" d="M 422 0 
L 422 3319 
L 928 3319 
L 928 2847 
Q 1294 3394 1984 3394 
Q 2284 3394 2536 3286 
Q 2788 3178 2913 3003 
Q 3038 2828 3088 2588 
Q 3119 2431 3119 2041 
L 3119 0 
L 2556 0 
L 2556 2019 
Q 2556 2363 2490 2533 
Q 2425 2703 2258 2804 
Q 2091 2906 1866 2906 
Q 1506 2906 1245 2678 
Q 984 2450 984 1813 
L 984 0 
L 422 0 
z
" transform="scale(0.015625)"/>
       <path id="ArialMT-67" d="M 319 -275 
L 866 -356 
Q 900 -609 1056 -725 
Q 1266 -881 1628 -881 
Q 2019 -881 2231 -725 
Q 2444 -569 2519 -288 
Q 2563 -116 2559 434 
Q 2191 0 1641 0 
Q 956 0 581 494 
Q 206 988 206 1678 
Q 206 2153 378 2554 
Q 550 2956 876 3175 
Q 1203 3394 1644 3394 
Q 2231 3394 2613 2919 
L 2613 3319 
L 3131 3319 
L 3131 450 
Q 3131 -325 2973 -648 
Q 2816 -972 2473 -1159 
Q 2131 -1347 1631 -1347 
Q 1038 -1347 672 -1080 
Q 306 -813 319 -275 
z
M 784 1719 
Q 784 1066 1043 766 
Q 1303 466 1694 466 
Q 2081 466 2343 764 
Q 2606 1063 2606 1700 
Q 2606 2309 2336 2618 
Q 2066 2928 1684 2928 
Q 1309 2928 1046 2623 
Q 784 2319 784 1719 
z
" transform="scale(0.015625)"/>
       <path id="ArialMT-20" transform="scale(0.015625)"/>
       <path id="ArialMT-73" d="M 197 991 
L 753 1078 
Q 800 744 1014 566 
Q 1228 388 1613 388 
Q 2000 388 2187 545 
Q 2375 703 2375 916 
Q 2375 1106 2209 1216 
Q 2094 1291 1634 1406 
Q 1016 1563 777 1677 
Q 538 1791 414 1992 
Q 291 2194 291 2438 
Q 291 2659 392 2848 
Q 494 3038 669 3163 
Q 800 3259 1026 3326 
Q 1253 3394 1513 3394 
Q 1903 3394 2198 3281 
Q 2494 3169 2634 2976 
Q 2775 2784 2828 2463 
L 2278 2388 
Q 2241 2644 2061 2787 
Q 1881 2931 1553 2931 
Q 1166 2931 1000 2803 
Q 834 2675 834 2503 
Q 834 2394 903 2306 
Q 972 2216 1119 2156 
Q 1203 2125 1616 2013 
Q 2213 1853 2448 1751 
Q 2684 1650 2818 1456 
Q 2953 1263 2953 975 
Q 2953 694 2789 445 
Q 2625 197 2315 61 
Q 2006 -75 1616 -75 
Q 969 -75 630 194 
Q 291 463 197 991 
z
" transform="scale(0.015625)"/>
       <path id="ArialMT-74" d="M 1650 503 
L 1731 6 
Q 1494 -44 1306 -44 
Q 1000 -44 831 53 
Q 663 150 594 308 
Q 525 466 525 972 
L 525 2881 
L 113 2881 
L 113 3319 
L 525 3319 
L 525 4141 
L 1084 4478 
L 1084 3319 
L 1650 3319 
L 1650 2881 
L 1084 2881 
L 1084 941 
Q 1084 700 1114 631 
Q 1144 563 1211 522 
Q 1278 481 1403 481 
Q 1497 481 1650 503 
z
" transform="scale(0.015625)"/>
       <path id="ArialMT-65" d="M 2694 1069 
L 3275 997 
Q 3138 488 2766 206 
Q 2394 -75 1816 -75 
Q 1088 -75 661 373 
Q 234 822 234 1631 
Q 234 2469 665 2931 
Q 1097 3394 1784 3394 
Q 2450 3394 2872 2941 
Q 3294 2488 3294 1666 
Q 3294 1616 3291 1516 
L 816 1516 
Q 847 969 1125 678 
Q 1403 388 1819 388 
Q 2128 388 2347 550 
Q 2566 713 2694 1069 
z
M 847 1978 
L 2700 1978 
Q 2663 2397 2488 2606 
Q 2219 2931 1791 2931 
Q 1403 2931 1139 2672 
Q 875 2413 847 1978 
z
" transform="scale(0.015625)"/>
       <path id="ArialMT-70" d="M 422 -1272 
L 422 3319 
L 934 3319 
L 934 2888 
Q 1116 3141 1344 3267 
Q 1572 3394 1897 3394 
Q 2322 3394 2647 3175 
Q 2972 2956 3137 2557 
Q 3303 2159 3303 1684 
Q 3303 1175 3120 767 
Q 2938 359 2589 142 
Q 2241 -75 1856 -75 
Q 1575 -75 1351 44 
Q 1128 163 984 344 
L 984 -1272 
L 422 -1272 
z
M 931 1641 
Q 931 1000 1190 694 
Q 1450 388 1819 388 
Q 2194 388 2461 705 
Q 2728 1022 2728 1688 
Q 2728 2322 2467 2637 
Q 2206 2953 1844 2953 
Q 1484 2953 1207 2617 
Q 931 2281 931 1641 
z
" transform="scale(0.015625)"/>
      </defs>
      <use xlink:href="#ArialMT-54"/>
      <use xlink:href="#ArialMT-72" transform="translate(57.333984 0)"/>
      <use xlink:href="#ArialMT-61" transform="translate(90.634766 0)"/>
      <use xlink:href="#ArialMT-69" transform="translate(146.25 0)"/>
      <use xlink:href="#ArialMT-6e" transform="translate(168.466797 0)"/>
      <use xlink:href="#ArialMT-69" transform="translate(224.082031 0)"/>
      <use xlink:href="#ArialMT-6e" transform="translate(246.298828 0)"/>
      <use xlink:href="#ArialMT-67" transform="translate(301.914062 0)"/>
      <use xlink:href="#ArialMT-20" transform="translate(357.529297 0)"/>
      <use xlink:href="#ArialMT-73" transform="translate(385.3125 0)"/>
      <use xlink:href="#ArialMT-74" transform="translate(435.3125 0)"/>
      <use xlink:href="#ArialMT-65" transform="translate(463.095703 0)"/>
      <use xlink:href="#ArialMT-70" transform="translate(518.710938 0)"/>
     </g>
    </g>
   </g>
   <g id="matplotlib.axis_2">
    <g id="ytick_1">
     <g id="line2d_19">
      <path d="M 44.872172 295.433229 
L 586.706458 295.433229 
" clip-path="url(#p01a5e859ab)" style="fill: none; stroke: #ffffff; stroke-opacity: 0.95; stroke-width: 0.85; stroke-linecap: square"/>
     </g>
     <g id="line2d_20">
      <defs>
       <path id="mc8cf744c61" d="M 0 0 
L -3.2 0 
" style="stroke: #3c3c3c; stroke-width: 0.8"/>
      </defs>
      <g>
       <use xlink:href="#mc8cf744c61" x="44.872172" y="295.433229" style="fill: #3c3c3c; stroke: #3c3c3c; stroke-width: 0.8"/>
      </g>
     </g>
     <g id="text_11">
      <!-- 200 -->
      <g style="fill: #3c3c3c" transform="translate(22.3235 298.83319) scale(0.095 -0.095)">
       <use xlink:href="#ArialMT-32"/>
       <use xlink:href="#ArialMT-30" transform="translate(55.615234 0)"/>
       <use xlink:href="#ArialMT-30" transform="translate(111.230469 0)"/>
      </g>
     </g>
    </g>
    <g id="ytick_2">
     <g id="line2d_21">
      <path d="M 44.872172 262.356082 
L 586.706458 262.356082 
" clip-path="url(#p01a5e859ab)" style="fill: none; stroke: #ffffff; stroke-opacity: 0.95; stroke-width: 0.85; stroke-linecap: square"/>
     </g>
     <g id="line2d_22">
      <g>
       <use xlink:href="#mc8cf744c61" x="44.872172" y="262.356082" style="fill: #3c3c3c; stroke: #3c3c3c; stroke-width: 0.8"/>
      </g>
     </g>
     <g id="text_12">
      <!-- 210 -->
      <g style="fill: #3c3c3c" transform="translate(22.3235 265.756043) scale(0.095 -0.095)">
       <use xlink:href="#ArialMT-32"/>
       <use xlink:href="#ArialMT-31" transform="translate(55.615234 0)"/>
       <use xlink:href="#ArialMT-30" transform="translate(111.230469 0)"/>
      </g>
     </g>
    </g>
    <g id="ytick_3">
     <g id="line2d_23">
      <path d="M 44.872172 229.278936 
L 586.706458 229.278936 
" clip-path="url(#p01a5e859ab)" style="fill: none; stroke: #ffffff; stroke-opacity: 0.95; stroke-width: 0.85; stroke-linecap: square"/>
     </g>
     <g id="line2d_24">
      <g>
       <use xlink:href="#mc8cf744c61" x="44.872172" y="229.278936" style="fill: #3c3c3c; stroke: #3c3c3c; stroke-width: 0.8"/>
      </g>
     </g>
     <g id="text_13">
      <!-- 220 -->
      <g style="fill: #3c3c3c" transform="translate(22.3235 232.678897) scale(0.095 -0.095)">
       <use xlink:href="#ArialMT-32"/>
       <use xlink:href="#ArialMT-32" transform="translate(55.615234 0)"/>
       <use xlink:href="#ArialMT-30" transform="translate(111.230469 0)"/>
      </g>
     </g>
    </g>
    <g id="ytick_4">
     <g id="line2d_25">
      <path d="M 44.872172 196.201789 
L 586.706458 196.201789 
" clip-path="url(#p01a5e859ab)" style="fill: none; stroke: #ffffff; stroke-opacity: 0.95; stroke-width: 0.85; stroke-linecap: square"/>
     </g>
     <g id="line2d_26">
      <g>
       <use xlink:href="#mc8cf744c61" x="44.872172" y="196.201789" style="fill: #3c3c3c; stroke: #3c3c3c; stroke-width: 0.8"/>
      </g>
     </g>
     <g id="text_14">
      <!-- 230 -->
      <g style="fill: #3c3c3c" transform="translate(22.3235 199.60175) scale(0.095 -0.095)">
       <defs>
        <path id="ArialMT-33" d="M 269 1209 
L 831 1284 
Q 928 806 1161 595 
Q 1394 384 1728 384 
Q 2125 384 2398 659 
Q 2672 934 2672 1341 
Q 2672 1728 2419 1979 
Q 2166 2231 1775 2231 
Q 1616 2231 1378 2169 
L 1441 2663 
Q 1497 2656 1531 2656 
Q 1891 2656 2178 2843 
Q 2466 3031 2466 3422 
Q 2466 3731 2256 3934 
Q 2047 4138 1716 4138 
Q 1388 4138 1169 3931 
Q 950 3725 888 3313 
L 325 3413 
Q 428 3978 793 4289 
Q 1159 4600 1703 4600 
Q 2078 4600 2393 4439 
Q 2709 4278 2876 4000 
Q 3044 3722 3044 3409 
Q 3044 3113 2884 2869 
Q 2725 2625 2413 2481 
Q 2819 2388 3044 2092 
Q 3269 1797 3269 1353 
Q 3269 753 2831 336 
Q 2394 -81 1725 -81 
Q 1122 -81 723 278 
Q 325 638 269 1209 
z
" transform="scale(0.015625)"/>
       </defs>
       <use xlink:href="#ArialMT-32"/>
       <use xlink:href="#ArialMT-33" transform="translate(55.615234 0)"/>
       <use xlink:href="#ArialMT-30" transform="translate(111.230469 0)"/>
      </g>
     </g>
    </g>
    <g id="ytick_5">
     <g id="line2d_27">
      <path d="M 44.872172 163.124642 
L 586.706458 163.124642 
" clip-path="url(#p01a5e859ab)" style="fill: none; stroke: #ffffff; stroke-opacity: 0.95; stroke-width: 0.85; stroke-linecap: square"/>
     </g>
     <g id="line2d_28">
      <g>
       <use xlink:href="#mc8cf744c61" x="44.872172" y="163.124642" style="fill: #3c3c3c; stroke: #3c3c3c; stroke-width: 0.8"/>
      </g>
     </g>
     <g id="text_15">
      <!-- 240 -->
      <g style="fill: #3c3c3c" transform="translate(22.3235 166.524603) scale(0.095 -0.095)">
       <defs>
        <path id="ArialMT-34" d="M 2069 0 
L 2069 1097 
L 81 1097 
L 81 1613 
L 2172 4581 
L 2631 4581 
L 2631 1613 
L 3250 1613 
L 3250 1097 
L 2631 1097 
L 2631 0 
L 2069 0 
z
M 2069 1613 
L 2069 3678 
L 634 1613 
L 2069 1613 
z
" transform="scale(0.015625)"/>
       </defs>
       <use xlink:href="#ArialMT-32"/>
       <use xlink:href="#ArialMT-34" transform="translate(55.615234 0)"/>
       <use xlink:href="#ArialMT-30" transform="translate(111.230469 0)"/>
      </g>
     </g>
    </g>
    <g id="ytick_6">
     <g id="line2d_29">
      <path d="M 44.872172 130.047495 
L 586.706458 130.047495 
" clip-path="url(#p01a5e859ab)" style="fill: none; stroke: #ffffff; stroke-opacity: 0.95; stroke-width: 0.85; stroke-linecap: square"/>
     </g>
     <g id="line2d_30">
      <g>
       <use xlink:href="#mc8cf744c61" x="44.872172" y="130.047495" style="fill: #3c3c3c; stroke: #3c3c3c; stroke-width: 0.8"/>
      </g>
     </g>
     <g id="text_16">
      <!-- 250 -->
      <g style="fill: #3c3c3c" transform="translate(22.3235 133.447456) scale(0.095 -0.095)">
       <use xlink:href="#ArialMT-32"/>
       <use xlink:href="#ArialMT-35" transform="translate(55.615234 0)"/>
       <use xlink:href="#ArialMT-30" transform="translate(111.230469 0)"/>
      </g>
     </g>
    </g>
    <g id="ytick_7">
     <g id="line2d_31">
      <path d="M 44.872172 96.970349 
L 586.706458 96.970349 
" clip-path="url(#p01a5e859ab)" style="fill: none; stroke: #ffffff; stroke-opacity: 0.95; stroke-width: 0.85; stroke-linecap: square"/>
     </g>
     <g id="line2d_32">
      <g>
       <use xlink:href="#mc8cf744c61" x="44.872172" y="96.970349" style="fill: #3c3c3c; stroke: #3c3c3c; stroke-width: 0.8"/>
      </g>
     </g>
     <g id="text_17">
      <!-- 260 -->
      <g style="fill: #3c3c3c" transform="translate(22.3235 100.37031) scale(0.095 -0.095)">
       <defs>
        <path id="ArialMT-36" d="M 3184 3459 
L 2625 3416 
Q 2550 3747 2413 3897 
Q 2184 4138 1850 4138 
Q 1581 4138 1378 3988 
Q 1113 3794 959 3422 
Q 806 3050 800 2363 
Q 1003 2672 1297 2822 
Q 1591 2972 1913 2972 
Q 2475 2972 2870 2558 
Q 3266 2144 3266 1488 
Q 3266 1056 3080 686 
Q 2894 316 2569 119 
Q 2244 -78 1831 -78 
Q 1128 -78 684 439 
Q 241 956 241 2144 
Q 241 3472 731 4075 
Q 1159 4600 1884 4600 
Q 2425 4600 2770 4297 
Q 3116 3994 3184 3459 
z
M 888 1484 
Q 888 1194 1011 928 
Q 1134 663 1356 523 
Q 1578 384 1822 384 
Q 2178 384 2434 671 
Q 2691 959 2691 1453 
Q 2691 1928 2437 2201 
Q 2184 2475 1800 2475 
Q 1419 2475 1153 2201 
Q 888 1928 888 1484 
z
" transform="scale(0.015625)"/>
       </defs>
       <use xlink:href="#ArialMT-32"/>
       <use xlink:href="#ArialMT-36" transform="translate(55.615234 0)"/>
       <use xlink:href="#ArialMT-30" transform="translate(111.230469 0)"/>
      </g>
     </g>
    </g>
    <g id="ytick_8">
     <g id="line2d_33">
      <path d="M 44.872172 63.893202 
L 586.706458 63.893202 
" clip-path="url(#p01a5e859ab)" style="fill: none; stroke: #ffffff; stroke-opacity: 0.95; stroke-width: 0.85; stroke-linecap: square"/>
     </g>
     <g id="line2d_34">
      <g>
       <use xlink:href="#mc8cf744c61" x="44.872172" y="63.893202" style="fill: #3c3c3c; stroke: #3c3c3c; stroke-width: 0.8"/>
      </g>
     </g>
     <g id="text_18">
      <!-- 270 -->
      <g style="fill: #3c3c3c" transform="translate(22.3235 67.293163) scale(0.095 -0.095)">
       <use xlink:href="#ArialMT-32"/>
       <use xlink:href="#ArialMT-37" transform="translate(55.615234 0)"/>
       <use xlink:href="#ArialMT-30" transform="translate(111.230469 0)"/>
      </g>
     </g>
    </g>
    <g id="ytick_9">
     <g id="line2d_35">
      <path d="M 44.872172 30.816055 
L 586.706458 30.816055 
" clip-path="url(#p01a5e859ab)" style="fill: none; stroke: #ffffff; stroke-opacity: 0.95; stroke-width: 0.85; stroke-linecap: square"/>
     </g>
     <g id="line2d_36">
      <g>
       <use xlink:href="#mc8cf744c61" x="44.872172" y="30.816055" style="fill: #3c3c3c; stroke: #3c3c3c; stroke-width: 0.8"/>
      </g>
     </g>
     <g id="text_19">
      <!-- 280 -->
      <g style="fill: #3c3c3c" transform="translate(22.3235 34.216016) scale(0.095 -0.095)">
       <defs>
        <path id="ArialMT-38" d="M 1131 2484 
Q 781 2613 612 2850 
Q 444 3088 444 3419 
Q 444 3919 803 4259 
Q 1163 4600 1759 4600 
Q 2359 4600 2725 4251 
Q 3091 3903 3091 3403 
Q 3091 3084 2923 2848 
Q 2756 2613 2416 2484 
Q 2838 2347 3058 2040 
Q 3278 1734 3278 1309 
Q 3278 722 2862 322 
Q 2447 -78 1769 -78 
Q 1091 -78 675 323 
Q 259 725 259 1325 
Q 259 1772 486 2073 
Q 713 2375 1131 2484 
z
M 1019 3438 
Q 1019 3113 1228 2906 
Q 1438 2700 1772 2700 
Q 2097 2700 2305 2904 
Q 2513 3109 2513 3406 
Q 2513 3716 2298 3927 
Q 2084 4138 1766 4138 
Q 1444 4138 1231 3931 
Q 1019 3725 1019 3438 
z
M 838 1322 
Q 838 1081 952 856 
Q 1066 631 1291 507 
Q 1516 384 1775 384 
Q 2178 384 2440 643 
Q 2703 903 2703 1303 
Q 2703 1709 2433 1975 
Q 2163 2241 1756 2241 
Q 1359 2241 1098 1978 
Q 838 1716 838 1322 
z
" transform="scale(0.015625)"/>
       </defs>
       <use xlink:href="#ArialMT-32"/>
       <use xlink:href="#ArialMT-38" transform="translate(55.615234 0)"/>
       <use xlink:href="#ArialMT-30" transform="translate(111.230469 0)"/>
      </g>
     </g>
    </g>
    <g id="text_20">
     <!-- completion length -->
     <g transform="translate(12.050438 211.23733) rotate(-90) scale(0.108 -0.108)">
      <defs>
       <path id="ArialMT-63" d="M 2588 1216 
L 3141 1144 
Q 3050 572 2676 248 
Q 2303 -75 1759 -75 
Q 1078 -75 664 370 
Q 250 816 250 1647 
Q 250 2184 428 2587 
Q 606 2991 970 3192 
Q 1334 3394 1763 3394 
Q 2303 3394 2647 3120 
Q 2991 2847 3088 2344 
L 2541 2259 
Q 2463 2594 2264 2762 
Q 2066 2931 1784 2931 
Q 1359 2931 1093 2626 
Q 828 2322 828 1663 
Q 828 994 1084 691 
Q 1341 388 1753 388 
Q 2084 388 2306 591 
Q 2528 794 2588 1216 
z
" transform="scale(0.015625)"/>
       <path id="ArialMT-6f" d="M 213 1659 
Q 213 2581 725 3025 
Q 1153 3394 1769 3394 
Q 2453 3394 2887 2945 
Q 3322 2497 3322 1706 
Q 3322 1066 3130 698 
Q 2938 331 2570 128 
Q 2203 -75 1769 -75 
Q 1072 -75 642 372 
Q 213 819 213 1659 
z
M 791 1659 
Q 791 1022 1069 705 
Q 1347 388 1769 388 
Q 2188 388 2466 706 
Q 2744 1025 2744 1678 
Q 2744 2294 2464 2611 
Q 2184 2928 1769 2928 
Q 1347 2928 1069 2612 
Q 791 2297 791 1659 
z
" transform="scale(0.015625)"/>
       <path id="ArialMT-6d" d="M 422 0 
L 422 3319 
L 925 3319 
L 925 2853 
Q 1081 3097 1340 3245 
Q 1600 3394 1931 3394 
Q 2300 3394 2536 3241 
Q 2772 3088 2869 2813 
Q 3263 3394 3894 3394 
Q 4388 3394 4653 3120 
Q 4919 2847 4919 2278 
L 4919 0 
L 4359 0 
L 4359 2091 
Q 4359 2428 4304 2576 
Q 4250 2725 4106 2815 
Q 3963 2906 3769 2906 
Q 3419 2906 3187 2673 
Q 2956 2441 2956 1928 
L 2956 0 
L 2394 0 
L 2394 2156 
Q 2394 2531 2256 2718 
Q 2119 2906 1806 2906 
Q 1569 2906 1367 2781 
Q 1166 2656 1075 2415 
Q 984 2175 984 1722 
L 984 0 
L 422 0 
z
" transform="scale(0.015625)"/>
       <path id="ArialMT-6c" d="M 409 0 
L 409 4581 
L 972 4581 
L 972 0 
L 409 0 
z
" transform="scale(0.015625)"/>
       <path id="ArialMT-68" d="M 422 0 
L 422 4581 
L 984 4581 
L 984 2938 
Q 1378 3394 1978 3394 
Q 2347 3394 2619 3248 
Q 2891 3103 3008 2847 
Q 3125 2591 3125 2103 
L 3125 0 
L 2563 0 
L 2563 2103 
Q 2563 2525 2380 2717 
Q 2197 2909 1863 2909 
Q 1613 2909 1392 2779 
Q 1172 2650 1078 2428 
Q 984 2206 984 1816 
L 984 0 
L 422 0 
z
" transform="scale(0.015625)"/>
      </defs>
      <use xlink:href="#ArialMT-63"/>
      <use xlink:href="#ArialMT-6f" transform="translate(50 0)"/>
      <use xlink:href="#ArialMT-6d" transform="translate(105.615234 0)"/>
      <use xlink:href="#ArialMT-70" transform="translate(188.916016 0)"/>
      <use xlink:href="#ArialMT-6c" transform="translate(244.53125 0)"/>
      <use xlink:href="#ArialMT-65" transform="translate(266.748047 0)"/>
      <use xlink:href="#ArialMT-74" transform="translate(322.363281 0)"/>
      <use xlink:href="#ArialMT-69" transform="translate(350.146484 0)"/>
      <use xlink:href="#ArialMT-6f" transform="translate(372.363281 0)"/>
      <use xlink:href="#ArialMT-6e" transform="translate(427.978516 0)"/>
      <use xlink:href="#ArialMT-20" transform="translate(483.59375 0)"/>
      <use xlink:href="#ArialMT-6c" transform="translate(511.376953 0)"/>
      <use xlink:href="#ArialMT-65" transform="translate(533.59375 0)"/>
      <use xlink:href="#ArialMT-6e" transform="translate(589.208984 0)"/>
      <use xlink:href="#ArialMT-67" transform="translate(644.824219 0)"/>
      <use xlink:href="#ArialMT-74" transform="translate(700.439453 0)"/>
      <use xlink:href="#ArialMT-68" transform="translate(728.222656 0)"/>
     </g>
    </g>
   </g>
   <g id="line2d_37">
    <path d="M 69.501003 199.137386 
L 82.131173 138.440821 
L 94.761343 61.040298 
L 107.391513 169.98815 
L 120.021682 246.437706 
L 132.651852 129.096527 
L 145.282022 165.522735 
L 157.912192 180.738223 
L 170.542362 198.930654 
L 183.172532 163.000603 
L 195.802701 166.142932 
L 208.432871 223.945246 
L 221.063041 96.970349 
L 233.693211 159.982313 
L 246.323381 170.815079 
L 258.95355 126.657088 
L 271.58372 100.691528 
L 284.21389 185.038252 
L 296.84406 154.069773 
L 309.47423 160.767895 
L 322.1044 202.775872 
L 334.734569 207.696097 
L 347.364739 154.56593 
L 359.994909 147.991848 
L 372.625079 147.950501 
L 385.255249 172.675668 
L 397.885419 301.883273 
L 410.515588 152.25053 
L 423.145758 263.927247 
L 435.775928 263.720515 
L 448.406098 214.97307 
L 461.036268 227.666425 
L 473.666438 151.382255 
L 486.296607 200.088354 
L 498.926777 126.491702 
L 511.556947 198.847961 
L 524.187117 296.797661 
L 536.817287 35.943013 
L 549.447457 105.901178 
L 562.077626 71.33556 
" clip-path="url(#p01a5e859ab)" style="fill: none; stroke: #c44e52; stroke-opacity: 0.15; stroke-width: 0.8; stroke-linecap: square"/>
   </g>
   <g id="line2d_38">
    <path d="M 69.501003 227.046228 
L 82.131173 206.124933 
L 94.761343 208.316294 
L 107.391513 266.532072 
L 120.021682 246.479052 
L 132.651852 126.615741 
L 145.282022 198.765268 
L 157.912192 198.558536 
L 170.542362 250.076192 
L 183.172532 226.053914 
L 195.802701 175.942037 
L 208.432871 254.252181 
L 221.063041 114.583929 
L 233.693211 206.869169 
L 246.323381 205.670122 
L 258.95355 176.396847 
L 271.58372 208.564373 
L 284.21389 277.323491 
L 296.84406 166.142932 
L 309.47423 199.013346 
L 322.1044 251.399278 
L 334.734569 197.23545 
L 347.364739 197.938339 
L 359.994909 232.214532 
L 372.625079 166.928514 
L 385.255249 166.473703 
L 397.885419 290.678389 
L 410.515588 246.975209 
L 423.145758 233.785697 
L 435.775928 241.352094 
L 448.406098 191.446949 
L 461.036268 277.736956 
L 473.666438 195.746978 
L 486.296607 176.727619 
L 498.926777 158.493842 
L 511.556947 201.86625 
L 524.187117 287.329328 
L 536.817287 153.614962 
L 549.447457 121.902248 
L 562.077626 188.88347 
" clip-path="url(#p01a5e859ab)" style="fill: none; stroke: #8172b3; stroke-opacity: 0.15; stroke-width: 0.8; stroke-linecap: square"/>
   </g>
   <g id="line2d_39">
    <path d="M 69.501003 212.285552 
L 82.131173 240.029008 
L 94.761343 144.973558 
L 107.391513 231.511643 
L 120.021682 239.243426 
L 132.651852 161.346746 
L 145.282022 187.601731 
L 157.912192 202.734525 
L 170.542362 210.549001 
L 183.172532 207.117247 
L 195.802701 212.947094 
L 208.432871 247.223288 
L 221.063041 118.966651 
L 233.693211 210.921119 
L 246.323381 210.838426 
L 258.95355 219.314445 
L 271.58372 215.469227 
L 284.21389 259.2551 
L 296.84406 201.659518 
L 309.47423 248.711759 
L 322.1044 277.240798 
L 334.734569 244.453077 
L 347.364739 191.777721 
L 359.994909 199.137386 
L 372.625079 228.576046 
L 385.255249 157.294795 
L 397.885419 263.472436 
L 410.515588 243.460762 
L 423.145758 230.188557 
L 435.775928 280.837938 
L 448.406098 197.070064 
L 461.036268 233.537618 
L 473.666438 197.359489 
L 486.296607 157.129409 
L 498.926777 154.56593 
L 511.556947 202.982604 
L 524.187117 238.292458 
L 536.817287 101.973267 
L 549.447457 139.309097 
L 562.077626 148.239926 
" clip-path="url(#p01a5e859ab)" style="fill: none; stroke: #64b5cd; stroke-opacity: 0.15; stroke-width: 0.8; stroke-linecap: square"/>
   </g>
   <g id="line2d_40">
    <path d="M 69.501003 211.210544 
L 82.131173 197.648914 
L 94.761343 174.040101 
L 107.391513 209.225915 
L 120.021682 265.498411 
L 132.651852 113.219497 
L 145.282022 176.934351 
L 157.912192 233.28954 
L 170.542362 220.141374 
L 183.172532 212.947094 
L 195.802701 219.355792 
L 208.432871 246.520398 
L 221.063041 126.946513 
L 233.693211 229.030857 
L 246.323381 202.362407 
L 258.95355 162.91791 
L 271.58372 208.93649 
L 284.21389 223.407742 
L 296.84406 191.157524 
L 309.47423 233.372233 
L 322.1044 228.493353 
L 334.734569 185.98922 
L 347.364739 226.426032 
L 359.994909 137.613893 
L 372.625079 217.908666 
L 385.255249 147.371651 
L 397.885419 294.02745 
L 410.515588 211.95478 
L 423.145758 278.109074 
L 435.775928 280.507167 
L 448.406098 212.120166 
L 461.036268 250.985813 
L 473.666438 257.435857 
L 486.296607 145.717794 
L 498.926777 171.84874 
L 511.556947 197.855646 
L 524.187117 253.673331 
L 536.817287 58.063355 
L 549.447457 151.67168 
L 562.077626 200.749897 
" clip-path="url(#p01a5e859ab)" style="fill: none; stroke: #8a6fad; stroke-opacity: 0.15; stroke-width: 0.8; stroke-linecap: square"/>
   </g>
   <g id="patch_3">
    <path d="M 44.872172 315.180286 
L 44.872172 22.646 
" style="fill: none; stroke: #d2d2e0; stroke-width: 0.9; stroke-linejoin: miter; stroke-linecap: square"/>
   </g>
   <g id="patch_4">
    <path d="M 44.872172 315.180286 
L 586.706458 315.180286 
" style="fill: none; stroke: #d2d2e0; stroke-width: 0.9; stroke-linejoin: miter; stroke-linecap: square"/>
   </g>
   <g id="line2d_41">
    <path d="M 69.501003 199.137386 
L 82.131173 188.212004 
L 94.761343 165.321097 
L 107.391513 166.161167 
L 120.021682 180.610944 
L 132.651852 171.338349 
L 145.282022 170.291538 
L 157.912192 172.171942 
L 170.542362 176.98851 
L 183.172532 174.470686 
L 195.802701 172.971691 
L 208.432871 182.146931 
L 221.063041 166.815146 
L 233.693211 165.585236 
L 246.323381 166.526608 
L 258.95355 159.350094 
L 271.58372 148.791552 
L 284.21389 155.315958 
L 296.84406 155.091645 
L 309.47423 156.11337 
L 322.1044 164.51262 
L 334.734569 172.285646 
L 347.364739 169.096097 
L 359.994909 165.297332 
L 372.625079 162.174903 
L 385.255249 164.065041 
L 397.885419 188.872322 
L 410.515588 182.2804 
L 423.145758 196.976832 
L 435.775928 208.990695 
L 448.406098 210.067523 
L 461.036268 213.235325 
L 473.666438 202.101772 
L 486.296607 201.739357 
L 498.926777 188.194779 
L 511.556947 190.112352 
L 524.187117 209.315708 
L 536.817287 178.108623 
L 549.447457 165.111283 
L 562.077626 148.231652 
" clip-path="url(#p01a5e859ab)" style="fill: none; stroke: #c44e52; stroke-width: 1.9; stroke-linecap: square"/>
   </g>
   <g id="line2d_42">
    <path d="M 69.501003 227.046228 
L 82.131173 223.280395 
L 94.761343 220.586857 
L 107.391513 228.856996 
L 120.021682 232.028966 
L 132.651852 213.054585 
L 145.282022 210.482508 
L 157.912192 208.336193 
L 170.542362 215.849393 
L 183.172532 217.686207 
L 195.802701 210.172256 
L 208.432871 218.106643 
L 221.063041 199.472554 
L 233.693211 200.803945 
L 246.323381 201.679857 
L 258.95355 197.128915 
L 271.58372 199.187297 
L 284.21389 213.251812 
L 296.84406 204.772214 
L 309.47423 203.735618 
L 322.1044 212.315076 
L 334.734569 209.600744 
L 347.364739 207.501511 
L 359.994909 211.949855 
L 372.625079 203.846013 
L 385.255249 197.118998 
L 397.885419 213.959688 
L 410.515588 219.902482 
L 423.145758 222.401461 
L 435.775928 225.812575 
L 448.406098 219.626762 
L 461.036268 230.086597 
L 473.666438 223.905466 
L 486.296607 215.413453 
L 498.926777 205.167923 
L 511.556947 204.573622 
L 524.187117 219.469649 
L 536.817287 207.615805 
L 549.447457 192.187365 
L 562.077626 191.592664 
" clip-path="url(#p01a5e859ab)" style="fill: none; stroke: #8172b3; stroke-width: 1.9; stroke-linecap: square"/>
   </g>
   <g id="line2d_43">
    <path d="M 69.501003 212.285552 
L 82.131173 217.279374 
L 94.761343 204.264327 
L 107.391513 209.168844 
L 120.021682 214.582269 
L 132.651852 204.999874 
L 145.282022 201.868209 
L 157.912192 202.024146 
L 170.542362 203.55862 
L 183.172532 204.199173 
L 195.802701 205.773799 
L 208.432871 213.234707 
L 221.063041 196.266457 
L 233.693211 198.904296 
L 246.323381 201.052439 
L 258.95355 204.3396 
L 271.58372 206.342933 
L 284.21389 215.867123 
L 296.84406 213.309754 
L 309.47423 219.682115 
L 322.1044 230.042678 
L 334.734569 232.63655 
L 347.364739 225.281961 
L 359.994909 220.575937 
L 372.625079 222.015957 
L 385.255249 210.366148 
L 397.885419 219.92528 
L 410.515588 224.161666 
L 423.145758 225.246507 
L 435.775928 235.252964 
L 448.406098 228.380042 
L 461.036268 229.308406 
L 473.666438 223.557601 
L 486.296607 211.600526 
L 498.926777 201.334299 
L 511.556947 201.630994 
L 524.187117 208.230058 
L 536.817287 189.103835 
L 549.447457 180.140782 
L 562.077626 174.398628 
" clip-path="url(#p01a5e859ab)" style="fill: none; stroke: #64b5cd; stroke-width: 1.9; stroke-linecap: square"/>
   </g>
   <g id="line2d_44">
    <path d="M 69.501003 211.210544 
L 82.131173 208.769451 
L 94.761343 202.518168 
L 107.391513 203.725562 
L 120.021682 214.844675 
L 132.651852 196.552143 
L 145.282022 193.020941 
L 157.912192 200.269288 
L 170.542362 203.846264 
L 183.172532 205.484413 
L 195.802701 207.981261 
L 208.432871 214.918306 
L 221.063041 199.083383 
L 233.693211 204.473929 
L 246.323381 204.093855 
L 258.95355 196.682185 
L 271.58372 198.88796 
L 284.21389 203.301521 
L 296.84406 201.115601 
L 309.47423 206.921795 
L 322.1044 210.804675 
L 334.734569 206.337893 
L 347.364739 209.953758 
L 359.994909 196.932582 
L 372.625079 200.708278 
L 385.255249 191.107685 
L 397.885419 209.633243 
L 410.515588 210.051119 
L 423.145758 222.301551 
L 435.775928 232.778562 
L 448.406098 229.060051 
L 461.036268 233.006688 
L 473.666438 237.403938 
L 486.296607 220.900432 
L 498.926777 212.071128 
L 511.556947 209.512341 
L 524.187117 217.461319 
L 536.817287 188.769686 
L 549.447457 182.092045 
L 562.077626 185.450458 
" clip-path="url(#p01a5e859ab)" style="fill: none; stroke: #8a6fad; stroke-width: 1.9; stroke-linecap: square"/>
   </g>
   <g id="text_21">
    <!-- GRPO training: completion length -->
    <g transform="translate(220.457315 13.646) scale(0.128 -0.128)">
     <defs>
      <path id="ArialMT-47" d="M 2638 1797 
L 2638 2334 
L 4578 2338 
L 4578 638 
Q 4131 281 3656 101 
Q 3181 -78 2681 -78 
Q 2006 -78 1454 211 
Q 903 500 622 1047 
Q 341 1594 341 2269 
Q 341 2938 620 3517 
Q 900 4097 1425 4378 
Q 1950 4659 2634 4659 
Q 3131 4659 3532 4498 
Q 3934 4338 4162 4050 
Q 4391 3763 4509 3300 
L 3963 3150 
Q 3859 3500 3706 3700 
Q 3553 3900 3268 4020 
Q 2984 4141 2638 4141 
Q 2222 4141 1919 4014 
Q 1616 3888 1430 3681 
Q 1244 3475 1141 3228 
Q 966 2803 966 2306 
Q 966 1694 1177 1281 
Q 1388 869 1791 669 
Q 2194 469 2647 469 
Q 3041 469 3416 620 
Q 3791 772 3984 944 
L 3984 1797 
L 2638 1797 
z
" transform="scale(0.015625)"/>
      <path id="ArialMT-52" d="M 503 0 
L 503 4581 
L 2534 4581 
Q 3147 4581 3465 4457 
Q 3784 4334 3975 4021 
Q 4166 3709 4166 3331 
Q 4166 2844 3850 2509 
Q 3534 2175 2875 2084 
Q 3116 1969 3241 1856 
Q 3506 1613 3744 1247 
L 4541 0 
L 3778 0 
L 3172 953 
Q 2906 1366 2734 1584 
Q 2563 1803 2427 1890 
Q 2291 1978 2150 2013 
Q 2047 2034 1813 2034 
L 1109 2034 
L 1109 0 
L 503 0 
z
M 1109 2559 
L 2413 2559 
Q 2828 2559 3062 2645 
Q 3297 2731 3419 2920 
Q 3541 3109 3541 3331 
Q 3541 3656 3305 3865 
Q 3069 4075 2559 4075 
L 1109 4075 
L 1109 2559 
z
" transform="scale(0.015625)"/>
      <path id="ArialMT-50" d="M 494 0 
L 494 4581 
L 2222 4581 
Q 2678 4581 2919 4538 
Q 3256 4481 3484 4323 
Q 3713 4166 3852 3881 
Q 3991 3597 3991 3256 
Q 3991 2672 3619 2267 
Q 3247 1863 2275 1863 
L 1100 1863 
L 1100 0 
L 494 0 
z
M 1100 2403 
L 2284 2403 
Q 2872 2403 3119 2622 
Q 3366 2841 3366 3238 
Q 3366 3525 3220 3729 
Q 3075 3934 2838 4000 
Q 2684 4041 2272 4041 
L 1100 4041 
L 1100 2403 
z
" transform="scale(0.015625)"/>
      <path id="ArialMT-4f" d="M 309 2231 
Q 309 3372 921 4017 
Q 1534 4663 2503 4663 
Q 3138 4663 3647 4359 
Q 4156 4056 4423 3514 
Q 4691 2972 4691 2284 
Q 4691 1588 4409 1038 
Q 4128 488 3612 205 
Q 3097 -78 2500 -78 
Q 1853 -78 1343 234 
Q 834 547 571 1087 
Q 309 1628 309 2231 
z
M 934 2222 
Q 934 1394 1379 917 
Q 1825 441 2497 441 
Q 3181 441 3623 922 
Q 4066 1403 4066 2288 
Q 4066 2847 3877 3264 
Q 3688 3681 3323 3911 
Q 2959 4141 2506 4141 
Q 1863 4141 1398 3698 
Q 934 3256 934 2222 
z
" transform="scale(0.015625)"/>
      <path id="ArialMT-3a" d="M 578 2678 
L 578 3319 
L 1219 3319 
L 1219 2678 
L 578 2678 
z
M 578 0 
L 578 641 
L 1219 641 
L 1219 0 
L 578 0 
z
" transform="scale(0.015625)"/>
     </defs>
     <use xlink:href="#ArialMT-47"/>
     <use xlink:href="#ArialMT-52" transform="translate(77.783203 0)"/>
     <use xlink:href="#ArialMT-50" transform="translate(150 0)"/>
     <use xlink:href="#ArialMT-4f" transform="translate(216.699219 0)"/>
     <use xlink:href="#ArialMT-20" transform="translate(294.482422 0)"/>
     <use xlink:href="#ArialMT-74" transform="translate(322.265625 0)"/>
     <use xlink:href="#ArialMT-72" transform="translate(350.048828 0)"/>
     <use xlink:href="#ArialMT-61" transform="translate(383.349609 0)"/>
     <use xlink:href="#ArialMT-69" transform="translate(438.964844 0)"/>
     <use xlink:href="#ArialMT-6e" transform="translate(461.181641 0)"/>
     <use xlink:href="#ArialMT-69" transform="translate(516.796875 0)"/>
     <use xlink:href="#ArialMT-6e" transform="translate(539.013672 0)"/>
     <use xlink:href="#ArialMT-67" transform="translate(594.628906 0)"/>
     <use xlink:href="#ArialMT-3a" transform="translate(650.244141 0)"/>
     <use xlink:href="#ArialMT-20" transform="translate(678.027344 0)"/>
     <use xlink:href="#ArialMT-63" transform="translate(705.810547 0)"/>
     <use xlink:href="#ArialMT-6f" transform="translate(755.810547 0)"/>
     <use xlink:href="#ArialMT-6d" transform="translate(811.425781 0)"/>
     <use xlink:href="#ArialMT-70" transform="translate(894.726562 0)"/>
     <use xlink:href="#ArialMT-6c" transform="translate(950.341797 0)"/>
     <use xlink:href="#ArialMT-65" transform="translate(972.558594 0)"/>
     <use xlink:href="#ArialMT-74" transform="translate(1028.173828 0)"/>
     <use xlink:href="#ArialMT-69" transform="translate(1055.957031 0)"/>
     <use xlink:href="#ArialMT-6f" transform="translate(1078.173828 0)"/>
     <use xlink:href="#ArialMT-6e" transform="translate(1133.789062 0)"/>
     <use xlink:href="#ArialMT-20" transform="translate(1189.404297 0)"/>
     <use xlink:href="#ArialMT-6c" transform="translate(1217.1875 0)"/>
     <use xlink:href="#ArialMT-65" transform="translate(1239.404297 0)"/>
     <use xlink:href="#ArialMT-6e" transform="translate(1295.019531 0)"/>
     <use xlink:href="#ArialMT-67" transform="translate(1350.634766 0)"/>
     <use xlink:href="#ArialMT-74" transform="translate(1406.25 0)"/>
     <use xlink:href="#ArialMT-68" transform="translate(1434.033203 0)"/>
    </g>
   </g>
   <g id="legend_1">
    <g id="patch_5">
     <path d="M 270.687362 77.619125 
L 360.891268 77.619125 
Q 362.691268 77.619125 362.691268 75.819125 
L 362.691268 28.946 
Q 362.691268 27.146 360.891268 27.146 
L 270.687362 27.146 
Q 268.887362 27.146 268.887362 28.946 
L 268.887362 75.819125 
Q 268.887362 77.619125 270.687362 77.619125 
z
" style="fill: #f7f7fa; opacity: 0.92; stroke: #d2d2e0; stroke-width: 0.65; stroke-linejoin: miter"/>
    </g>
    <g id="line2d_45">
     <path d="M 272.937362 34.488031 
L 281.937362 34.488031 
L 290.937362 34.488031 
" style="fill: none; stroke: #c44e52; stroke-width: 1.9; stroke-linecap: square"/>
    </g>
    <g id="text_22">
     <!-- GRPO -->
     <g transform="translate(298.137362 37.638031) scale(0.09 -0.09)">
      <use xlink:href="#ArialMT-47"/>
      <use xlink:href="#ArialMT-52" transform="translate(77.783203 0)"/>
      <use xlink:href="#ArialMT-50" transform="translate(150 0)"/>
      <use xlink:href="#ArialMT-4f" transform="translate(216.699219 0)"/>
     </g>
    </g>
    <g id="line2d_46">
     <path d="M 272.937362 45.868812 
L 281.937362 45.868812 
L 290.937362 45.868812 
" style="fill: none; stroke: #8172b3; stroke-width: 1.9; stroke-linecap: square"/>
    </g>
    <g id="text_23">
     <!-- SFT-GRPO-R1 -->
     <g transform="translate(298.137362 49.018812) scale(0.09 -0.09)">
      <defs>
       <path id="ArialMT-53" d="M 288 1472 
L 859 1522 
Q 900 1178 1048 958 
Q 1197 738 1509 602 
Q 1822 466 2213 466 
Q 2559 466 2825 569 
Q 3091 672 3220 851 
Q 3350 1031 3350 1244 
Q 3350 1459 3225 1620 
Q 3100 1781 2813 1891 
Q 2628 1963 1997 2114 
Q 1366 2266 1113 2400 
Q 784 2572 623 2826 
Q 463 3081 463 3397 
Q 463 3744 659 4045 
Q 856 4347 1234 4503 
Q 1613 4659 2075 4659 
Q 2584 4659 2973 4495 
Q 3363 4331 3572 4012 
Q 3781 3694 3797 3291 
L 3216 3247 
Q 3169 3681 2898 3903 
Q 2628 4125 2100 4125 
Q 1550 4125 1298 3923 
Q 1047 3722 1047 3438 
Q 1047 3191 1225 3031 
Q 1400 2872 2139 2705 
Q 2878 2538 3153 2413 
Q 3553 2228 3743 1945 
Q 3934 1663 3934 1294 
Q 3934 928 3725 604 
Q 3516 281 3123 101 
Q 2731 -78 2241 -78 
Q 1619 -78 1198 103 
Q 778 284 539 648 
Q 300 1013 288 1472 
z
" transform="scale(0.015625)"/>
       <path id="ArialMT-46" d="M 525 0 
L 525 4581 
L 3616 4581 
L 3616 4041 
L 1131 4041 
L 1131 2622 
L 3281 2622 
L 3281 2081 
L 1131 2081 
L 1131 0 
L 525 0 
z
" transform="scale(0.015625)"/>
       <path id="ArialMT-2d" d="M 203 1375 
L 203 1941 
L 1931 1941 
L 1931 1375 
L 203 1375 
z
" transform="scale(0.015625)"/>
      </defs>
      <use xlink:href="#ArialMT-53"/>
      <use xlink:href="#ArialMT-46" transform="translate(66.699219 0)"/>
      <use xlink:href="#ArialMT-54" transform="translate(127.783203 0)"/>
      <use xlink:href="#ArialMT-2d" transform="translate(183.367188 0)"/>
      <use xlink:href="#ArialMT-47" transform="translate(216.667969 0)"/>
      <use xlink:href="#ArialMT-52" transform="translate(294.451172 0)"/>
      <use xlink:href="#ArialMT-50" transform="translate(366.667969 0)"/>
      <use xlink:href="#ArialMT-4f" transform="translate(433.367188 0)"/>
      <use xlink:href="#ArialMT-2d" transform="translate(511.150391 0)"/>
      <use xlink:href="#ArialMT-52" transform="translate(544.451172 0)"/>
      <use xlink:href="#ArialMT-31" transform="translate(616.667969 0)"/>
     </g>
    </g>
    <g id="line2d_47">
     <path d="M 272.937362 57.249594 
L 281.937362 57.249594 
L 290.937362 57.249594 
" style="fill: none; stroke: #64b5cd; stroke-width: 1.9; stroke-linecap: square"/>
    </g>
    <g id="text_24">
     <!-- SFT-GRPO-R2 -->
     <g transform="translate(298.137362 60.399594) scale(0.09 -0.09)">
      <use xlink:href="#ArialMT-53"/>
      <use xlink:href="#ArialMT-46" transform="translate(66.699219 0)"/>
      <use xlink:href="#ArialMT-54" transform="translate(127.783203 0)"/>
      <use xlink:href="#ArialMT-2d" transform="translate(183.367188 0)"/>
      <use xlink:href="#ArialMT-47" transform="translate(216.667969 0)"/>
      <use xlink:href="#ArialMT-52" transform="translate(294.451172 0)"/>
      <use xlink:href="#ArialMT-50" transform="translate(366.667969 0)"/>
      <use xlink:href="#ArialMT-4f" transform="translate(433.367188 0)"/>
      <use xlink:href="#ArialMT-2d" transform="translate(511.150391 0)"/>
      <use xlink:href="#ArialMT-52" transform="translate(544.451172 0)"/>
      <use xlink:href="#ArialMT-32" transform="translate(616.667969 0)"/>
     </g>
    </g>
    <g id="line2d_48">
     <path d="M 272.937362 68.630375 
L 281.937362 68.630375 
L 290.937362 68.630375 
" style="fill: none; stroke: #8a6fad; stroke-width: 1.9; stroke-linecap: square"/>
    </g>
    <g id="text_25">
     <!-- SFT-GRPO-R3 -->
     <g transform="translate(298.137362 71.780375) scale(0.09 -0.09)">
      <use xlink:href="#ArialMT-53"/>
      <use xlink:href="#ArialMT-46" transform="translate(66.699219 0)"/>
      <use xlink:href="#ArialMT-54" transform="translate(127.783203 0)"/>
      <use xlink:href="#ArialMT-2d" transform="translate(183.367188 0)"/>
      <use xlink:href="#ArialMT-47" transform="translate(216.667969 0)"/>
      <use xlink:href="#ArialMT-52" transform="translate(294.451172 0)"/>
      <use xlink:href="#ArialMT-50" transform="translate(366.667969 0)"/>
      <use xlink:href="#ArialMT-4f" transform="translate(433.367188 0)"/>
      <use xlink:href="#ArialMT-2d" transform="translate(511.150391 0)"/>
      <use xlink:href="#ArialMT-52" transform="translate(544.451172 0)"/>
      <use xlink:href="#ArialMT-33" transform="translate(616.667969 0)"/>
     </g>
    </g>
   </g>
  </g>
 </g>
 <defs>
  <clipPath id="p01a5e859ab">
   <rect x="44.872172" y="22.646" width="541.834286" height="292.534286"/>
  </clipPath>
 </defs>
</svg>
