<?xml version="1.0" encoding="utf-8" standalone="no"?>
<!DOCTYPE svg PUBLIC "-//W3C//DTD SVG 1.1//EN"
  "http://www.w3.org/Graphics/SVG/1.1/DTD/svg11.dtd">
<svg xmlns:xlink="http://www.w3.org/1999/xlink" width="590.923422pt" height="352.891833pt" viewBox="0 0 590.923422 352.891833" xmlns="http://www.w3.org/2000/svg" version="1.1">
 <metadata>
  <rdf:RDF xmlns:dc="http://purl.org/dc/elements/1.1/" xmlns:cc="http://creativecommons.org/ns#" xmlns:rdf="http://www.w3.org/1999/02/22-rdf-syntax-ns#">
   <cc:Work>
    <dc:type rdf:resource="http://purl.org/dc/dcmitype/StillImage"/>
    <dc:date>2026-06-19T21:06:54.808000</dc:date>
    <dc:format>image/svg+xml</dc:format>
    <dc:creator>
     <cc:Agent>
      <dc:title>Matplotlib v3.10.0, https://matplotlib.org/</dc:title>
     </cc:Agent>
    </dc:creator>
   </cc:Work>
  </rdf:RDF>
 </metadata>
 <defs>
  <style type="text/css">*{stroke-linejoin: round; stroke-linecap: butt}</style>
 </defs>
 <g id="figure_1">
  <g id="patch_1">
   <path d="M 0 352.891833 
L 590.923422 352.891833 
L 590.923422 0 
L 0 0 
z
" style="fill: #f2f2f5"/>
  </g>
  <g id="axes_1">
   <g id="patch_2">
    <path d="M 52.933422 315.180286 
L 586.603422 315.180286 
L 586.603422 22.646 
L 52.933422 22.646 
z
" style="fill: #eaeaf2"/>
   </g>
   <g id="matplotlib.axis_1">
    <g id="xtick_1">
     <g id="line2d_1">
      <path d="M 64.751289 315.180286 
L 64.751289 22.646 
" clip-path="url(#p9035197750)" style="fill: none; stroke: #ffffff; stroke-opacity: 0.95; stroke-width: 0.85; stroke-linecap: square"/>
     </g>
     <g id="line2d_2">
      <defs>
       <path id="m31115b4d69" d="M 0 0 
L 0 3.2 
" style="stroke: #3c3c3c; stroke-width: 0.8"/>
      </defs>
      <g>
       <use xlink:href="#m31115b4d69" x="64.751289" y="315.180286" style="fill: #3c3c3c; stroke: #3c3c3c; stroke-width: 0.8"/>
      </g>
     </g>
     <g id="text_1">
      <!-- 0 -->
      <g style="fill: #3c3c3c" transform="translate(62.109844 328.680208) scale(0.095 -0.095)">
       <defs>
        <path id="ArialMT-30" d="M 266 2259 
Q 266 3072 433 3567 
Q 600 4063 929 4331 
Q 1259 4600 1759 4600 
Q 2128 4600 2406 4451 
Q 2684 4303 2865 4023 
Q 3047 3744 3150 3342 
Q 3253 2941 3253 2259 
Q 3253 1453 3087 958 
Q 2922 463 2592 192 
Q 2263 -78 1759 -78 
Q 1097 -78 719 397 
Q 266 969 266 2259 
z
M 844 2259 
Q 844 1131 1108 757 
Q 1372 384 1759 384 
Q 2147 384 2411 759 
Q 2675 1134 2675 2259 
Q 2675 3391 2411 3762 
Q 2147 4134 1753 4134 
Q 1366 4134 1134 3806 
Q 844 3388 844 2259 
z
" transform="scale(0.015625)"/>
       </defs>
       <use xlink:href="#ArialMT-30"/>
      </g>
     </g>
    </g>
    <g id="xtick_2">
     <g id="line2d_3">
      <path d="M 126.95059 315.180286 
L 126.95059 22.646 
" clip-path="url(#p9035197750)" style="fill: none; stroke: #ffffff; stroke-opacity: 0.95; stroke-width: 0.85; stroke-linecap: square"/>
     </g>
     <g id="line2d_4">
      <g>
       <use xlink:href="#m31115b4d69" x="126.95059" y="315.180286" style="fill: #3c3c3c; stroke: #3c3c3c; stroke-width: 0.8"/>
      </g>
     </g>
     <g id="text_2">
      <!-- 25 -->
      <g style="fill: #3c3c3c" transform="translate(121.667699 328.680208) scale(0.095 -0.095)">
       <defs>
        <path id="ArialMT-32" d="M 3222 541 
L 3222 0 
L 194 0 
Q 188 203 259 391 
Q 375 700 629 1000 
Q 884 1300 1366 1694 
Q 2113 2306 2375 2664 
Q 2638 3022 2638 3341 
Q 2638 3675 2398 3904 
Q 2159 4134 1775 4134 
Q 1369 4134 1125 3890 
Q 881 3647 878 3216 
L 300 3275 
Q 359 3922 746 4261 
Q 1134 4600 1788 4600 
Q 2447 4600 2831 4234 
Q 3216 3869 3216 3328 
Q 3216 3053 3103 2787 
Q 2991 2522 2730 2228 
Q 2469 1934 1863 1422 
Q 1356 997 1212 845 
Q 1069 694 975 541 
L 3222 541 
z
" transform="scale(0.015625)"/>
        <path id="ArialMT-35" d="M 266 1200 
L 856 1250 
Q 922 819 1161 601 
Q 1400 384 1738 384 
Q 2144 384 2425 690 
Q 2706 997 2706 1503 
Q 2706 1984 2436 2262 
Q 2166 2541 1728 2541 
Q 1456 2541 1237 2417 
Q 1019 2294 894 2097 
L 366 2166 
L 809 4519 
L 3088 4519 
L 3088 3981 
L 1259 3981 
L 1013 2750 
Q 1425 3038 1878 3038 
Q 2478 3038 2890 2622 
Q 3303 2206 3303 1553 
Q 3303 931 2941 478 
Q 2500 -78 1738 -78 
Q 1113 -78 717 272 
Q 322 622 266 1200 
z
" transform="scale(0.015625)"/>
       </defs>
       <use xlink:href="#ArialMT-32"/>
       <use xlink:href="#ArialMT-35" transform="translate(55.615234 0)"/>
      </g>
     </g>
    </g>
    <g id="xtick_3">
     <g id="line2d_5">
      <path d="M 189.14989 315.180286 
L 189.14989 22.646 
" clip-path="url(#p9035197750)" style="fill: none; stroke: #ffffff; stroke-opacity: 0.95; stroke-width: 0.85; stroke-linecap: square"/>
     </g>
     <g id="line2d_6">
      <g>
       <use xlink:href="#m31115b4d69" x="189.14989" y="315.180286" style="fill: #3c3c3c; stroke: #3c3c3c; stroke-width: 0.8"/>
      </g>
     </g>
     <g id="text_3">
      <!-- 50 -->
      <g style="fill: #3c3c3c" transform="translate(183.867 328.680208) scale(0.095 -0.095)">
       <use xlink:href="#ArialMT-35"/>
       <use xlink:href="#ArialMT-30" transform="translate(55.615234 0)"/>
      </g>
     </g>
    </g>
    <g id="xtick_4">
     <g id="line2d_7">
      <path d="M 251.349191 315.180286 
L 251.349191 22.646 
" clip-path="url(#p9035197750)" style="fill: none; stroke: #ffffff; stroke-opacity: 0.95; stroke-width: 0.85; stroke-linecap: square"/>
     </g>
     <g id="line2d_8">
      <g>
       <use xlink:href="#m31115b4d69" x="251.349191" y="315.180286" style="fill: #3c3c3c; stroke: #3c3c3c; stroke-width: 0.8"/>
      </g>
     </g>
     <g id="text_4">
      <!-- 75 -->
      <g style="fill: #3c3c3c" transform="translate(246.0663 328.680208) scale(0.095 -0.095)">
       <defs>
        <path id="ArialMT-37" d="M 303 3981 
L 303 4522 
L 3269 4522 
L 3269 4084 
Q 2831 3619 2401 2847 
Q 1972 2075 1738 1259 
Q 1569 684 1522 0 
L 944 0 
Q 953 541 1156 1306 
Q 1359 2072 1739 2783 
Q 2119 3494 2547 3981 
L 303 3981 
z
" transform="scale(0.015625)"/>
       </defs>
       <use xlink:href="#ArialMT-37"/>
       <use xlink:href="#ArialMT-35" transform="translate(55.615234 0)"/>
      </g>
     </g>
    </g>
    <g id="xtick_5">
     <g id="line2d_9">
      <path d="M 313.548492 315.180286 
L 313.548492 22.646 
" clip-path="url(#p9035197750)" style="fill: none; stroke: #ffffff; stroke-opacity: 0.95; stroke-width: 0.85; stroke-linecap: square"/>
     </g>
     <g id="line2d_10">
      <g>
       <use xlink:href="#m31115b4d69" x="313.548492" y="315.180286" style="fill: #3c3c3c; stroke: #3c3c3c; stroke-width: 0.8"/>
      </g>
     </g>
     <g id="text_5">
      <!-- 100 -->
      <g style="fill: #3c3c3c" transform="translate(305.624156 328.680208) scale(0.095 -0.095)">
       <defs>
        <path id="ArialMT-31" d="M 2384 0 
L 1822 0 
L 1822 3584 
Q 1619 3391 1289 3197 
Q 959 3003 697 2906 
L 697 3450 
Q 1169 3672 1522 3987 
Q 1875 4303 2022 4600 
L 2384 4600 
L 2384 0 
z
" transform="scale(0.015625)"/>
       </defs>
       <use xlink:href="#ArialMT-31"/>
       <use xlink:href="#ArialMT-30" transform="translate(55.615234 0)"/>
       <use xlink:href="#ArialMT-30" transform="translate(111.230469 0)"/>
      </g>
     </g>
    </g>
    <g id="xtick_6">
     <g id="line2d_11">
      <path d="M 375.747793 315.180286 
L 375.747793 22.646 
" clip-path="url(#p9035197750)" style="fill: none; stroke: #ffffff; stroke-opacity: 0.95; stroke-width: 0.85; stroke-linecap: square"/>
     </g>
     <g id="line2d_12">
      <g>
       <use xlink:href="#m31115b4d69" x="375.747793" y="315.180286" style="fill: #3c3c3c; stroke: #3c3c3c; stroke-width: 0.8"/>
      </g>
     </g>
     <g id="text_6">
      <!-- 125 -->
      <g style="fill: #3c3c3c" transform="translate(367.823457 328.680208) scale(0.095 -0.095)">
       <use xlink:href="#ArialMT-31"/>
       <use xlink:href="#ArialMT-32" transform="translate(55.615234 0)"/>
       <use xlink:href="#ArialMT-35" transform="translate(111.230469 0)"/>
      </g>
     </g>
    </g>
    <g id="xtick_7">
     <g id="line2d_13">
      <path d="M 437.947093 315.180286 
L 437.947093 22.646 
" clip-path="url(#p9035197750)" style="fill: none; stroke: #ffffff; stroke-opacity: 0.95; stroke-width: 0.85; stroke-linecap: square"/>
     </g>
     <g id="line2d_14">
      <g>
       <use xlink:href="#m31115b4d69" x="437.947093" y="315.180286" style="fill: #3c3c3c; stroke: #3c3c3c; stroke-width: 0.8"/>
      </g>
     </g>
     <g id="text_7">
      <!-- 150 -->
      <g style="fill: #3c3c3c" transform="translate(430.022757 328.680208) scale(0.095 -0.095)">
       <use xlink:href="#ArialMT-31"/>
       <use xlink:href="#ArialMT-35" transform="translate(55.615234 0)"/>
       <use xlink:href="#ArialMT-30" transform="translate(111.230469 0)"/>
      </g>
     </g>
    </g>
    <g id="xtick_8">
     <g id="line2d_15">
      <path d="M 500.146394 315.180286 
L 500.146394 22.646 
" clip-path="url(#p9035197750)" style="fill: none; stroke: #ffffff; stroke-opacity: 0.95; stroke-width: 0.85; stroke-linecap: square"/>
     </g>
     <g id="line2d_16">
      <g>
       <use xlink:href="#m31115b4d69" x="500.146394" y="315.180286" style="fill: #3c3c3c; stroke: #3c3c3c; stroke-width: 0.8"/>
      </g>
     </g>
     <g id="text_8">
      <!-- 175 -->
      <g style="fill: #3c3c3c" transform="translate(492.222058 328.680208) scale(0.095 -0.095)">
       <use xlink:href="#ArialMT-31"/>
       <use xlink:href="#ArialMT-37" transform="translate(55.615234 0)"/>
       <use xlink:href="#ArialMT-35" transform="translate(111.230469 0)"/>
      </g>
     </g>
    </g>
    <g id="xtick_9">
     <g id="line2d_17">
      <path d="M 562.345695 315.180286 
L 562.345695 22.646 
" clip-path="url(#p9035197750)" style="fill: none; stroke: #ffffff; stroke-opacity: 0.95; stroke-width: 0.85; stroke-linecap: square"/>
     </g>
     <g id="line2d_18">
      <g>
       <use xlink:href="#m31115b4d69" x="562.345695" y="315.180286" style="fill: #3c3c3c; stroke: #3c3c3c; stroke-width: 0.8"/>
      </g>
     </g>
     <g id="text_9">
      <!-- 200 -->
      <g style="fill: #3c3c3c" transform="translate(554.421359 328.680208) scale(0.095 -0.095)">
       <use xlink:href="#ArialMT-32"/>
       <use xlink:href="#ArialMT-30" transform="translate(55.615234 0)"/>
       <use xlink:href="#ArialMT-30" transform="translate(111.230469 0)"/>
      </g>
     </g>
    </g>
    <g id="text_10">
     <!-- Training step -->
     <g transform="translate(288.757234 346.29877) scale(0.108 -0.108)">
      <defs>
       <path id="ArialMT-54" d="M 1659 0 
L 1659 4041 
L 150 4041 
L 150 4581 
L 3781 4581 
L 3781 4041 
L 2266 4041 
L 2266 0 
L 1659 0 
z
" transform="scale(0.015625)"/>
       <path id="ArialMT-72" d="M 416 0 
L 416 3319 
L 922 3319 
L 922 2816 
Q 1116 3169 1280 3281 
Q 1444 3394 1641 3394 
Q 1925 3394 2219 3213 
L 2025 2691 
Q 1819 2813 1613 2813 
Q 1428 2813 1281 2702 
Q 1134 2591 1072 2394 
Q 978 2094 978 1738 
L 978 0 
L 416 0 
z
" transform="scale(0.015625)"/>
       <path id="ArialMT-61" d="M 2588 409 
Q 2275 144 1986 34 
Q 1697 -75 1366 -75 
Q 819 -75 525 192 
Q 231 459 231 875 
Q 231 1119 342 1320 
Q 453 1522 633 1644 
Q 813 1766 1038 1828 
Q 1203 1872 1538 1913 
Q 2219 1994 2541 2106 
Q 2544 2222 2544 2253 
Q 2544 2597 2384 2738 
Q 2169 2928 1744 2928 
Q 1347 2928 1158 2789 
Q 969 2650 878 2297 
L 328 2372 
Q 403 2725 575 2942 
Q 747 3159 1072 3276 
Q 1397 3394 1825 3394 
Q 2250 3394 2515 3294 
Q 2781 3194 2906 3042 
Q 3031 2891 3081 2659 
Q 3109 2516 3109 2141 
L 3109 1391 
Q 3109 606 3145 398 
Q 3181 191 3288 0 
L 2700 0 
Q 2613 175 2588 409 
z
M 2541 1666 
Q 2234 1541 1622 1453 
Q 1275 1403 1131 1340 
Q 988 1278 909 1158 
Q 831 1038 831 891 
Q 831 666 1001 516 
Q 1172 366 1500 366 
Q 1825 366 2078 508 
Q 2331 650 2450 897 
Q 2541 1088 2541 1459 
L 2541 1666 
z
" transform="scale(0.015625)"/>
       <path id="ArialMT-69" d="M 425 3934 
L 425 4581 
L 988 4581 
L 988 3934 
L 425 3934 
z
M 425 0 
L 425 3319 
L 988 3319 
L 988 0 
L 425 0 
z
" transform="scale(0.015625)"/>
       <path id="ArialMT-6e" d="M 422 0 
L 422 3319 
L 928 3319 
L 928 2847 
Q 1294 3394 1984 3394 
Q 2284 3394 2536 3286 
Q 2788 3178 2913 3003 
Q 3038 2828 3088 2588 
Q 3119 2431 3119 2041 
L 3119 0 
L 2556 0 
L 2556 2019 
Q 2556 2363 2490 2533 
Q 2425 2703 2258 2804 
Q 2091 2906 1866 2906 
Q 1506 2906 1245 2678 
Q 984 2450 984 1813 
L 984 0 
L 422 0 
z
" transform="scale(0.015625)"/>
       <path id="ArialMT-67" d="M 319 -275 
L 866 -356 
Q 900 -609 1056 -725 
Q 1266 -881 1628 -881 
Q 2019 -881 2231 -725 
Q 2444 -569 2519 -288 
Q 2563 -116 2559 434 
Q 2191 0 1641 0 
Q 956 0 581 494 
Q 206 988 206 1678 
Q 206 2153 378 2554 
Q 550 2956 876 3175 
Q 1203 3394 1644 3394 
Q 2231 3394 2613 2919 
L 2613 3319 
L 3131 3319 
L 3131 450 
Q 3131 -325 2973 -648 
Q 2816 -972 2473 -1159 
Q 2131 -1347 1631 -1347 
Q 1038 -1347 672 -1080 
Q 306 -813 319 -275 
z
M 784 1719 
Q 784 1066 1043 766 
Q 1303 466 1694 466 
Q 2081 466 2343 764 
Q 2606 1063 2606 1700 
Q 2606 2309 2336 2618 
Q 2066 2928 1684 2928 
Q 1309 2928 1046 2623 
Q 784 2319 784 1719 
z
" transform="scale(0.015625)"/>
       <path id="ArialMT-20" transform="scale(0.015625)"/>
       <path id="ArialMT-73" d="M 197 991 
L 753 1078 
Q 800 744 1014 566 
Q 1228 388 1613 388 
Q 2000 388 2187 545 
Q 2375 703 2375 916 
Q 2375 1106 2209 1216 
Q 2094 1291 1634 1406 
Q 1016 1563 777 1677 
Q 538 1791 414 1992 
Q 291 2194 291 2438 
Q 291 2659 392 2848 
Q 494 3038 669 3163 
Q 800 3259 1026 3326 
Q 1253 3394 1513 3394 
Q 1903 3394 2198 3281 
Q 2494 3169 2634 2976 
Q 2775 2784 2828 2463 
L 2278 2388 
Q 2241 2644 2061 2787 
Q 1881 2931 1553 2931 
Q 1166 2931 1000 2803 
Q 834 2675 834 2503 
Q 834 2394 903 2306 
Q 972 2216 1119 2156 
Q 1203 2125 1616 2013 
Q 2213 1853 2448 1751 
Q 2684 1650 2818 1456 
Q 2953 1263 2953 975 
Q 2953 694 2789 445 
Q 2625 197 2315 61 
Q 2006 -75 1616 -75 
Q 969 -75 630 194 
Q 291 463 197 991 
z
" transform="scale(0.015625)"/>
       <path id="ArialMT-74" d="M 1650 503 
L 1731 6 
Q 1494 -44 1306 -44 
Q 1000 -44 831 53 
Q 663 150 594 308 
Q 525 466 525 972 
L 525 2881 
L 113 2881 
L 113 3319 
L 525 3319 
L 525 4141 
L 1084 4478 
L 1084 3319 
L 1650 3319 
L 1650 2881 
L 1084 2881 
L 1084 941 
Q 1084 700 1114 631 
Q 1144 563 1211 522 
Q 1278 481 1403 481 
Q 1497 481 1650 503 
z
" transform="scale(0.015625)"/>
       <path id="ArialMT-65" d="M 2694 1069 
L 3275 997 
Q 3138 488 2766 206 
Q 2394 -75 1816 -75 
Q 1088 -75 661 373 
Q 234 822 234 1631 
Q 234 2469 665 2931 
Q 1097 3394 1784 3394 
Q 2450 3394 2872 2941 
Q 3294 2488 3294 1666 
Q 3294 1616 3291 1516 
L 816 1516 
Q 847 969 1125 678 
Q 1403 388 1819 388 
Q 2128 388 2347 550 
Q 2566 713 2694 1069 
z
M 847 1978 
L 2700 1978 
Q 2663 2397 2488 2606 
Q 2219 2931 1791 2931 
Q 1403 2931 1139 2672 
Q 875 2413 847 1978 
z
" transform="scale(0.015625)"/>
       <path id="ArialMT-70" d="M 422 -1272 
L 422 3319 
L 934 3319 
L 934 2888 
Q 1116 3141 1344 3267 
Q 1572 3394 1897 3394 
Q 2322 3394 2647 3175 
Q 2972 2956 3137 2557 
Q 3303 2159 3303 1684 
Q 3303 1175 3120 767 
Q 2938 359 2589 142 
Q 2241 -75 1856 -75 
Q 1575 -75 1351 44 
Q 1128 163 984 344 
L 984 -1272 
L 422 -1272 
z
M 931 1641 
Q 931 1000 1190 694 
Q 1450 388 1819 388 
Q 2194 388 2461 705 
Q 2728 1022 2728 1688 
Q 2728 2322 2467 2637 
Q 2206 2953 1844 2953 
Q 1484 2953 1207 2617 
Q 931 2281 931 1641 
z
" transform="scale(0.015625)"/>
      </defs>
      <use xlink:href="#ArialMT-54"/>
      <use xlink:href="#ArialMT-72" transform="translate(57.333984 0)"/>
      <use xlink:href="#ArialMT-61" transform="translate(90.634766 0)"/>
      <use xlink:href="#ArialMT-69" transform="translate(146.25 0)"/>
      <use xlink:href="#ArialMT-6e" transform="translate(168.466797 0)"/>
      <use xlink:href="#ArialMT-69" transform="translate(224.082031 0)"/>
      <use xlink:href="#ArialMT-6e" transform="translate(246.298828 0)"/>
      <use xlink:href="#ArialMT-67" transform="translate(301.914062 0)"/>
      <use xlink:href="#ArialMT-20" transform="translate(357.529297 0)"/>
      <use xlink:href="#ArialMT-73" transform="translate(385.3125 0)"/>
      <use xlink:href="#ArialMT-74" transform="translate(435.3125 0)"/>
      <use xlink:href="#ArialMT-65" transform="translate(463.095703 0)"/>
      <use xlink:href="#ArialMT-70" transform="translate(518.710938 0)"/>
     </g>
    </g>
   </g>
   <g id="matplotlib.axis_2">
    <g id="ytick_1">
     <g id="line2d_19">
      <path d="M 52.933422 287.582712 
L 586.603422 287.582712 
" clip-path="url(#p9035197750)" style="fill: none; stroke: #ffffff; stroke-opacity: 0.95; stroke-width: 0.85; stroke-linecap: square"/>
     </g>
     <g id="line2d_20">
      <defs>
       <path id="m1fc0389500" d="M 0 0 
L -3.2 0 
" style="stroke: #3c3c3c; stroke-width: 0.8"/>
      </defs>
      <g>
       <use xlink:href="#m1fc0389500" x="52.933422" y="287.582712" style="fill: #3c3c3c; stroke: #3c3c3c; stroke-width: 0.8"/>
      </g>
     </g>
     <g id="text_11">
      <!-- −0.04 -->
      <g style="fill: #3c3c3c" transform="translate(22.196938 290.982673) scale(0.095 -0.095)">
       <defs>
        <path id="ArialMT-2212" d="M 3381 1997 
L 356 1997 
L 356 2522 
L 3381 2522 
L 3381 1997 
z
" transform="scale(0.015625)"/>
        <path id="ArialMT-2e" d="M 581 0 
L 581 641 
L 1222 641 
L 1222 0 
L 581 0 
z
" transform="scale(0.015625)"/>
        <path id="ArialMT-34" d="M 2069 0 
L 2069 1097 
L 81 1097 
L 81 1613 
L 2172 4581 
L 2631 4581 
L 2631 1613 
L 3250 1613 
L 3250 1097 
L 2631 1097 
L 2631 0 
L 2069 0 
z
M 2069 1613 
L 2069 3678 
L 634 1613 
L 2069 1613 
z
" transform="scale(0.015625)"/>
       </defs>
       <use xlink:href="#ArialMT-2212"/>
       <use xlink:href="#ArialMT-30" transform="translate(58.398438 0)"/>
       <use xlink:href="#ArialMT-2e" transform="translate(114.013672 0)"/>
       <use xlink:href="#ArialMT-30" transform="translate(141.796875 0)"/>
       <use xlink:href="#ArialMT-34" transform="translate(197.412109 0)"/>
      </g>
     </g>
    </g>
    <g id="ytick_2">
     <g id="line2d_21">
      <path d="M 52.933422 237.405304 
L 586.603422 237.405304 
" clip-path="url(#p9035197750)" style="fill: none; stroke: #ffffff; stroke-opacity: 0.95; stroke-width: 0.85; stroke-linecap: square"/>
     </g>
     <g id="line2d_22">
      <g>
       <use xlink:href="#m1fc0389500" x="52.933422" y="237.405304" style="fill: #3c3c3c; stroke: #3c3c3c; stroke-width: 0.8"/>
      </g>
     </g>
     <g id="text_12">
      <!-- −0.02 -->
      <g style="fill: #3c3c3c" transform="translate(22.196938 240.805265) scale(0.095 -0.095)">
       <use xlink:href="#ArialMT-2212"/>
       <use xlink:href="#ArialMT-30" transform="translate(58.398438 0)"/>
       <use xlink:href="#ArialMT-2e" transform="translate(114.013672 0)"/>
       <use xlink:href="#ArialMT-30" transform="translate(141.796875 0)"/>
       <use xlink:href="#ArialMT-32" transform="translate(197.412109 0)"/>
      </g>
     </g>
    </g>
    <g id="ytick_3">
     <g id="line2d_23">
      <path d="M 52.933422 187.227897 
L 586.603422 187.227897 
" clip-path="url(#p9035197750)" style="fill: none; stroke: #ffffff; stroke-opacity: 0.95; stroke-width: 0.85; stroke-linecap: square"/>
     </g>
     <g id="line2d_24">
      <g>
       <use xlink:href="#m1fc0389500" x="52.933422" y="187.227897" style="fill: #3c3c3c; stroke: #3c3c3c; stroke-width: 0.8"/>
      </g>
     </g>
     <g id="text_13">
      <!-- 0.00 -->
      <g style="fill: #3c3c3c" transform="translate(27.745531 190.627858) scale(0.095 -0.095)">
       <use xlink:href="#ArialMT-30"/>
       <use xlink:href="#ArialMT-2e" transform="translate(55.615234 0)"/>
       <use xlink:href="#ArialMT-30" transform="translate(83.398438 0)"/>
       <use xlink:href="#ArialMT-30" transform="translate(139.013672 0)"/>
      </g>
     </g>
    </g>
    <g id="ytick_4">
     <g id="line2d_25">
      <path d="M 52.933422 137.050489 
L 586.603422 137.050489 
" clip-path="url(#p9035197750)" style="fill: none; stroke: #ffffff; stroke-opacity: 0.95; stroke-width: 0.85; stroke-linecap: square"/>
     </g>
     <g id="line2d_26">
      <g>
       <use xlink:href="#m1fc0389500" x="52.933422" y="137.050489" style="fill: #3c3c3c; stroke: #3c3c3c; stroke-width: 0.8"/>
      </g>
     </g>
     <g id="text_14">
      <!-- 0.02 -->
      <g style="fill: #3c3c3c" transform="translate(27.745531 140.45045) scale(0.095 -0.095)">
       <use xlink:href="#ArialMT-30"/>
       <use xlink:href="#ArialMT-2e" transform="translate(55.615234 0)"/>
       <use xlink:href="#ArialMT-30" transform="translate(83.398438 0)"/>
       <use xlink:href="#ArialMT-32" transform="translate(139.013672 0)"/>
      </g>
     </g>
    </g>
    <g id="ytick_5">
     <g id="line2d_27">
      <path d="M 52.933422 86.873082 
L 586.603422 86.873082 
" clip-path="url(#p9035197750)" style="fill: none; stroke: #ffffff; stroke-opacity: 0.95; stroke-width: 0.85; stroke-linecap: square"/>
     </g>
     <g id="line2d_28">
      <g>
       <use xlink:href="#m1fc0389500" x="52.933422" y="86.873082" style="fill: #3c3c3c; stroke: #3c3c3c; stroke-width: 0.8"/>
      </g>
     </g>
     <g id="text_15">
      <!-- 0.04 -->
      <g style="fill: #3c3c3c" transform="translate(27.745531 90.273043) scale(0.095 -0.095)">
       <use xlink:href="#ArialMT-30"/>
       <use xlink:href="#ArialMT-2e" transform="translate(55.615234 0)"/>
       <use xlink:href="#ArialMT-30" transform="translate(83.398438 0)"/>
       <use xlink:href="#ArialMT-34" transform="translate(139.013672 0)"/>
      </g>
     </g>
    </g>
    <g id="ytick_6">
     <g id="line2d_29">
      <path d="M 52.933422 36.695674 
L 586.603422 36.695674 
" clip-path="url(#p9035197750)" style="fill: none; stroke: #ffffff; stroke-opacity: 0.95; stroke-width: 0.85; stroke-linecap: square"/>
     </g>
     <g id="line2d_30">
      <g>
       <use xlink:href="#m1fc0389500" x="52.933422" y="36.695674" style="fill: #3c3c3c; stroke: #3c3c3c; stroke-width: 0.8"/>
      </g>
     </g>
     <g id="text_16">
      <!-- 0.06 -->
      <g style="fill: #3c3c3c" transform="translate(27.745531 40.095635) scale(0.095 -0.095)">
       <defs>
        <path id="ArialMT-36" d="M 3184 3459 
L 2625 3416 
Q 2550 3747 2413 3897 
Q 2184 4138 1850 4138 
Q 1581 4138 1378 3988 
Q 1113 3794 959 3422 
Q 806 3050 800 2363 
Q 1003 2672 1297 2822 
Q 1591 2972 1913 2972 
Q 2475 2972 2870 2558 
Q 3266 2144 3266 1488 
Q 3266 1056 3080 686 
Q 2894 316 2569 119 
Q 2244 -78 1831 -78 
Q 1128 -78 684 439 
Q 241 956 241 2144 
Q 241 3472 731 4075 
Q 1159 4600 1884 4600 
Q 2425 4600 2770 4297 
Q 3116 3994 3184 3459 
z
M 888 1484 
Q 888 1194 1011 928 
Q 1134 663 1356 523 
Q 1578 384 1822 384 
Q 2178 384 2434 671 
Q 2691 959 2691 1453 
Q 2691 1928 2437 2201 
Q 2184 2475 1800 2475 
Q 1419 2475 1153 2201 
Q 888 1928 888 1484 
z
" transform="scale(0.015625)"/>
       </defs>
       <use xlink:href="#ArialMT-30"/>
       <use xlink:href="#ArialMT-2e" transform="translate(55.615234 0)"/>
       <use xlink:href="#ArialMT-30" transform="translate(83.398438 0)"/>
       <use xlink:href="#ArialMT-36" transform="translate(139.013672 0)"/>
      </g>
     </g>
    </g>
    <g id="text_17">
     <!-- loss -->
     <g transform="translate(12.050438 178.515862) rotate(-90) scale(0.108 -0.108)">
      <defs>
       <path id="ArialMT-6c" d="M 409 0 
L 409 4581 
L 972 4581 
L 972 0 
L 409 0 
z
" transform="scale(0.015625)"/>
       <path id="ArialMT-6f" d="M 213 1659 
Q 213 2581 725 3025 
Q 1153 3394 1769 3394 
Q 2453 3394 2887 2945 
Q 3322 2497 3322 1706 
Q 3322 1066 3130 698 
Q 2938 331 2570 128 
Q 2203 -75 1769 -75 
Q 1072 -75 642 372 
Q 213 819 213 1659 
z
M 791 1659 
Q 791 1022 1069 705 
Q 1347 388 1769 388 
Q 2188 388 2466 706 
Q 2744 1025 2744 1678 
Q 2744 2294 2464 2611 
Q 2184 2928 1769 2928 
Q 1347 2928 1069 2612 
Q 791 2297 791 1659 
z
" transform="scale(0.015625)"/>
      </defs>
      <use xlink:href="#ArialMT-6c"/>
      <use xlink:href="#ArialMT-6f" transform="translate(22.216797 0)"/>
      <use xlink:href="#ArialMT-73" transform="translate(77.832031 0)"/>
      <use xlink:href="#ArialMT-73" transform="translate(127.832031 0)"/>
     </g>
    </g>
   </g>
   <g id="line2d_31">
    <path d="M 77.191149 101.173643 
L 89.631009 82.357115 
L 102.070869 131.530974 
L 114.51073 85.367759 
L 126.95059 152.103711 
L 139.39045 137.050489 
L 151.83031 141.817343 
L 164.27017 111.961785 
L 176.71003 175.436206 
L 189.14989 101.926304 
L 201.589751 68.056554 
L 214.029611 107.194932 
L 226.469471 132.534522 
L 238.909331 200.52491 
L 251.349191 94.901467 
L 263.789051 128.52033 
L 276.228911 109.703802 
L 288.668772 154.361695 
L 301.108632 230.631354 
L 313.548492 183.464591 
L 325.988352 153.609034 
L 338.428212 215.327245 
L 350.868072 187.478784 
L 363.307932 108.700254 
L 375.747793 188.984106 
L 388.187653 181.708382 
L 400.627513 178.44685 
L 413.067373 224.610065 
L 425.507233 89.883726 
L 437.947093 111.710898 
L 450.386953 156.368791 
L 462.826813 169.16403 
L 475.266674 134.290732 
L 487.706534 149.093067 
L 500.146394 113.216221 
L 512.586254 228.373371 
L 525.026114 209.055069 
L 537.465974 129.774765 
L 549.905834 143.322665 
L 562.345695 70.314537 
" clip-path="url(#p9035197750)" style="fill: none; stroke: #c44e52; stroke-opacity: 0.15; stroke-width: 0.8; stroke-linecap: square"/>
   </g>
   <g id="line2d_32">
    <path d="M 77.191149 198.016039 
L 89.631009 61.031717 
L 102.070869 115.975978 
L 114.51073 134.290732 
L 126.95059 183.715478 
L 139.39045 136.046941 
L 151.83031 150.096615 
L 164.27017 135.796054 
L 176.71003 301.883273 
L 189.14989 119.739284 
L 201.589751 129.523878 
L 214.029611 174.683545 
L 226.469471 54.508654 
L 238.909331 90.636387 
L 251.349191 157.372339 
L 263.789051 125.007911 
L 276.228911 226.366274 
L 288.668772 107.194932 
L 301.108632 49.7418 
L 313.548492 118.735735 
L 325.988352 203.786441 
L 338.428212 198.517813 
L 350.868072 192.998298 
L 363.307932 196.008943 
L 375.747793 174.934432 
L 388.187653 99.166546 
L 400.627513 97.410337 
L 413.067373 150.096615 
L 425.507233 167.407821 
L 437.947093 145.580648 
L 450.386953 90.3855 
L 462.826813 216.079906 
L 475.266674 164.89895 
L 487.706534 199.270474 
L 500.146394 127.015008 
L 512.586254 148.340406 
L 525.026114 140.562908 
L 537.465974 83.61155 
L 549.905834 53.254219 
L 562.345695 203.284667 
" clip-path="url(#p9035197750)" style="fill: none; stroke: #8172b3; stroke-opacity: 0.15; stroke-width: 0.8; stroke-linecap: square"/>
   </g>
   <g id="line2d_33">
    <path d="M 77.191149 156.368791 
L 89.631009 83.360663 
L 102.070869 110.456463 
L 114.51073 181.206608 
L 126.95059 210.811278 
L 139.39045 106.442271 
L 151.83031 94.65058 
L 164.27017 120.993719 
L 176.71003 108.951141 
L 189.14989 202.782893 
L 201.589751 162.640967 
L 214.029611 185.2208 
L 226.469471 88.378404 
L 238.909331 118.484848 
L 251.349191 106.944045 
L 263.789051 123.753476 
L 276.228911 200.274023 
L 288.668772 157.121452 
L 301.108632 135.545167 
L 313.548492 181.206608 
L 325.988352 166.906047 
L 338.428212 178.948624 
L 350.868072 78.844696 
L 363.307932 224.610065 
L 375.747793 169.665804 
L 388.187653 35.943013 
L 400.627513 118.986622 
L 413.067373 224.108291 
L 425.507233 130.025652 
L 437.947093 203.786441 
L 450.386953 80.851793 
L 462.826813 226.617161 
L 475.266674 153.358147 
L 487.706534 172.425561 
L 500.146394 158.626774 
L 512.586254 183.213704 
L 525.026114 206.295311 
L 537.465974 186.97701 
L 549.905834 128.269443 
L 562.345695 55.512202 
" clip-path="url(#p9035197750)" style="fill: none; stroke: #64b5cd; stroke-opacity: 0.15; stroke-width: 0.8; stroke-linecap: square"/>
   </g>
   <g id="line2d_34">
    <path d="M 77.191149 230.12958 
L 89.631009 145.831535 
L 102.070869 146.584197 
L 114.51073 168.411369 
L 126.95059 225.613613 
L 139.39045 171.422013 
L 151.83031 131.781861 
L 164.27017 136.046941 
L 176.71003 157.372339 
L 189.14989 213.069261 
L 201.589751 203.03378 
L 214.029611 206.295311 
L 226.469471 105.940496 
L 238.909331 154.612582 
L 251.349191 159.630322 
L 263.789051 52.752444 
L 276.228911 163.644515 
L 288.668772 89.131065 
L 301.108632 98.664772 
L 313.548492 189.48588 
L 325.988352 192.496524 
L 338.428212 204.037328 
L 350.868072 154.863469 
L 363.307932 77.339374 
L 375.747793 228.373371 
L 388.187653 82.106228 
L 400.627513 192.998298 
L 413.067373 229.627806 
L 425.507233 179.952173 
L 437.947093 112.965333 
L 450.386953 177.945076 
L 462.826813 88.880178 
L 475.266674 163.393628 
L 487.706534 93.396145 
L 500.146394 80.851793 
L 512.586254 239.161513 
L 525.026114 127.015008 
L 537.465974 140.061134 
L 549.905834 72.57252 
L 562.345695 152.856372 
" clip-path="url(#p9035197750)" style="fill: none; stroke: #8a6fad; stroke-opacity: 0.15; stroke-width: 0.8; stroke-linecap: square"/>
   </g>
   <g id="patch_3">
    <path d="M 52.933422 315.180286 
L 52.933422 22.646 
" style="fill: none; stroke: #d2d2e0; stroke-width: 0.9; stroke-linejoin: miter; stroke-linecap: square"/>
   </g>
   <g id="patch_4">
    <path d="M 52.933422 315.180286 
L 586.603422 315.180286 
" style="fill: none; stroke: #d2d2e0; stroke-width: 0.9; stroke-linejoin: miter; stroke-linecap: square"/>
   </g>
   <g id="line2d_35">
    <path d="M 77.191149 101.173643 
L 89.631009 97.786668 
L 102.070869 103.860643 
L 114.51073 100.531924 
L 126.95059 109.814846 
L 139.39045 114.717261 
L 151.83031 119.595276 
L 164.27017 118.221248 
L 176.71003 128.51994 
L 189.14989 123.733086 
L 201.589751 113.71131 
L 214.029611 112.538362 
L 226.469471 116.137671 
L 238.909331 131.327374 
L 251.349191 124.77071 
L 263.789051 125.445642 
L 276.228911 122.612111 
L 288.668772 128.327036 
L 301.108632 146.741813 
L 313.548492 153.351913 
L 325.988352 153.398195 
L 338.428212 164.545424 
L 350.868072 168.673429 
L 363.307932 157.878257 
L 375.747793 163.47731 
L 388.187653 166.758903 
L 400.627513 168.862733 
L 413.067373 178.897253 
L 425.507233 162.874818 
L 437.947093 153.665313 
L 450.386953 154.151939 
L 462.826813 156.854115 
L 475.266674 152.792706 
L 487.706534 152.126771 
L 500.146394 145.122872 
L 512.586254 160.107962 
L 525.026114 168.918441 
L 537.465974 161.872579 
L 549.905834 158.533595 
L 562.345695 142.654164 
" clip-path="url(#p9035197750)" style="fill: none; stroke: #c44e52; stroke-width: 1.9; stroke-linecap: square"/>
   </g>
   <g id="line2d_36">
    <path d="M 77.191149 198.016039 
L 89.631009 173.358861 
L 102.070869 163.029942 
L 114.51073 157.856884 
L 126.95059 162.511431 
L 139.39045 157.747823 
L 151.83031 156.370606 
L 164.27017 152.667186 
L 176.71003 179.526082 
L 189.14989 168.764458 
L 201.589751 161.701154 
L 214.029611 164.037984 
L 226.469471 144.322705 
L 238.909331 134.659167 
L 251.349191 138.747538 
L 263.789051 136.274405 
L 276.228911 152.490942 
L 288.668772 144.33766 
L 301.108632 127.310405 
L 313.548492 125.766965 
L 325.988352 139.81047 
L 338.428212 150.377792 
L 350.868072 158.049483 
L 363.307932 164.882186 
L 375.747793 166.69159 
L 388.187653 154.537082 
L 400.627513 144.254268 
L 413.067373 145.305891 
L 425.507233 149.284238 
L 437.947093 148.617592 
L 450.386953 138.135815 
L 462.826813 152.165752 
L 475.266674 154.457727 
L 487.706534 162.524022 
L 500.146394 156.132399 
L 512.586254 154.72984 
L 525.026114 152.179793 
L 537.465974 139.837509 
L 549.905834 124.252517 
L 562.345695 138.478304 
" clip-path="url(#p9035197750)" style="fill: none; stroke: #8172b3; stroke-width: 1.9; stroke-linecap: square"/>
   </g>
   <g id="line2d_37">
    <path d="M 77.191149 156.368791 
L 89.631009 143.227328 
L 102.070869 137.328572 
L 114.51073 145.226619 
L 126.95059 157.031857 
L 139.39045 147.925732 
L 151.83031 138.336204 
L 164.27017 135.214557 
L 176.71003 130.487142 
L 189.14989 143.500377 
L 201.589751 146.945683 
L 214.029611 153.835204 
L 226.469471 142.05298 
L 238.909331 137.810717 
L 251.349191 132.254716 
L 263.789051 130.724492 
L 276.228911 143.243408 
L 288.668772 145.741456 
L 301.108632 143.906124 
L 313.548492 150.620211 
L 325.988352 153.551661 
L 338.428212 158.123115 
L 350.868072 143.852999 
L 363.307932 158.389271 
L 375.747793 160.419047 
L 388.187653 138.013361 
L 400.627513 134.588548 
L 413.067373 150.702102 
L 425.507233 146.980341 
L 437.947093 157.205439 
L 450.386953 143.461783 
L 462.826813 158.429751 
L 475.266674 157.516862 
L 487.706534 160.200428 
L 500.146394 159.91717 
L 512.586254 164.110546 
L 525.026114 171.703804 
L 537.465974 174.452981 
L 549.905834 166.139944 
L 562.345695 146.226951 
" clip-path="url(#p9035197750)" style="fill: none; stroke: #64b5cd; stroke-width: 1.9; stroke-linecap: square"/>
   </g>
   <g id="line2d_38">
    <path d="M 77.191149 230.12958 
L 89.631009 214.955932 
L 102.070869 202.64902 
L 114.51073 196.486242 
L 126.95059 201.729169 
L 139.39045 196.273881 
L 151.83031 184.665318 
L 164.27017 175.91401 
L 176.71003 172.576509 
L 189.14989 179.865204 
L 201.589751 184.035548 
L 214.029611 188.042305 
L 226.469471 173.26398 
L 238.909331 169.906728 
L 251.349191 168.056975 
L 263.789051 147.30216 
L 276.228911 150.243784 
L 288.668772 139.243494 
L 301.108632 131.939324 
L 313.548492 142.297704 
L 325.988352 151.333492 
L 338.428212 160.820182 
L 350.868072 159.747974 
L 363.307932 144.914426 
L 375.747793 159.937036 
L 388.187653 145.927491 
L 400.627513 154.400236 
L 413.067373 167.941199 
L 425.507233 170.103174 
L 437.947093 159.818363 
L 450.386953 163.081171 
L 462.826813 149.724992 
L 475.266674 152.185347 
L 487.706534 141.60329 
L 500.146394 130.668021 
L 512.586254 150.196849 
L 525.026114 146.024118 
L 537.465974 144.950781 
L 549.905834 131.922694 
L 562.345695 135.690756 
" clip-path="url(#p9035197750)" style="fill: none; stroke: #8a6fad; stroke-width: 1.9; stroke-linecap: square"/>
   </g>
   <g id="text_18">
    <!-- GRPO training: loss -->
    <g transform="translate(263.217422 13.646) scale(0.128 -0.128)">
     <defs>
      <path id="ArialMT-47" d="M 2638 1797 
L 2638 2334 
L 4578 2338 
L 4578 638 
Q 4131 281 3656 101 
Q 3181 -78 2681 -78 
Q 2006 -78 1454 211 
Q 903 500 622 1047 
Q 341 1594 341 2269 
Q 341 2938 620 3517 
Q 900 4097 1425 4378 
Q 1950 4659 2634 4659 
Q 3131 4659 3532 4498 
Q 3934 4338 4162 4050 
Q 4391 3763 4509 3300 
L 3963 3150 
Q 3859 3500 3706 3700 
Q 3553 3900 3268 4020 
Q 2984 4141 2638 4141 
Q 2222 4141 1919 4014 
Q 1616 3888 1430 3681 
Q 1244 3475 1141 3228 
Q 966 2803 966 2306 
Q 966 1694 1177 1281 
Q 1388 869 1791 669 
Q 2194 469 2647 469 
Q 3041 469 3416 620 
Q 3791 772 3984 944 
L 3984 1797 
L 2638 1797 
z
" transform="scale(0.015625)"/>
      <path id="ArialMT-52" d="M 503 0 
L 503 4581 
L 2534 4581 
Q 3147 4581 3465 4457 
Q 3784 4334 3975 4021 
Q 4166 3709 4166 3331 
Q 4166 2844 3850 2509 
Q 3534 2175 2875 2084 
Q 3116 1969 3241 1856 
Q 3506 1613 3744 1247 
L 4541 0 
L 3778 0 
L 3172 953 
Q 2906 1366 2734 1584 
Q 2563 1803 2427 1890 
Q 2291 1978 2150 2013 
Q 2047 2034 1813 2034 
L 1109 2034 
L 1109 0 
L 503 0 
z
M 1109 2559 
L 2413 2559 
Q 2828 2559 3062 2645 
Q 3297 2731 3419 2920 
Q 3541 3109 3541 3331 
Q 3541 3656 3305 3865 
Q 3069 4075 2559 4075 
L 1109 4075 
L 1109 2559 
z
" transform="scale(0.015625)"/>
      <path id="ArialMT-50" d="M 494 0 
L 494 4581 
L 2222 4581 
Q 2678 4581 2919 4538 
Q 3256 4481 3484 4323 
Q 3713 4166 3852 3881 
Q 3991 3597 3991 3256 
Q 3991 2672 3619 2267 
Q 3247 1863 2275 1863 
L 1100 1863 
L 1100 0 
L 494 0 
z
M 1100 2403 
L 2284 2403 
Q 2872 2403 3119 2622 
Q 3366 2841 3366 3238 
Q 3366 3525 3220 3729 
Q 3075 3934 2838 4000 
Q 2684 4041 2272 4041 
L 1100 4041 
L 1100 2403 
z
" transform="scale(0.015625)"/>
      <path id="ArialMT-4f" d="M 309 2231 
Q 309 3372 921 4017 
Q 1534 4663 2503 4663 
Q 3138 4663 3647 4359 
Q 4156 4056 4423 3514 
Q 4691 2972 4691 2284 
Q 4691 1588 4409 1038 
Q 4128 488 3612 205 
Q 3097 -78 2500 -78 
Q 1853 -78 1343 234 
Q 834 547 571 1087 
Q 309 1628 309 2231 
z
M 934 2222 
Q 934 1394 1379 917 
Q 1825 441 2497 441 
Q 3181 441 3623 922 
Q 4066 1403 4066 2288 
Q 4066 2847 3877 3264 
Q 3688 3681 3323 3911 
Q 2959 4141 2506 4141 
Q 1863 4141 1398 3698 
Q 934 3256 934 2222 
z
" transform="scale(0.015625)"/>
      <path id="ArialMT-3a" d="M 578 2678 
L 578 3319 
L 1219 3319 
L 1219 2678 
L 578 2678 
z
M 578 0 
L 578 641 
L 1219 641 
L 1219 0 
L 578 0 
z
" transform="scale(0.015625)"/>
     </defs>
     <use xlink:href="#ArialMT-47"/>
     <use xlink:href="#ArialMT-52" transform="translate(77.783203 0)"/>
     <use xlink:href="#ArialMT-50" transform="translate(150 0)"/>
     <use xlink:href="#ArialMT-4f" transform="translate(216.699219 0)"/>
     <use xlink:href="#ArialMT-20" transform="translate(294.482422 0)"/>
     <use xlink:href="#ArialMT-74" transform="translate(322.265625 0)"/>
     <use xlink:href="#ArialMT-72" transform="translate(350.048828 0)"/>
     <use xlink:href="#ArialMT-61" transform="translate(383.349609 0)"/>
     <use xlink:href="#ArialMT-69" transform="translate(438.964844 0)"/>
     <use xlink:href="#ArialMT-6e" transform="translate(461.181641 0)"/>
     <use xlink:href="#ArialMT-69" transform="translate(516.796875 0)"/>
     <use xlink:href="#ArialMT-6e" transform="translate(539.013672 0)"/>
     <use xlink:href="#ArialMT-67" transform="translate(594.628906 0)"/>
     <use xlink:href="#ArialMT-3a" transform="translate(650.244141 0)"/>
     <use xlink:href="#ArialMT-20" transform="translate(678.027344 0)"/>
     <use xlink:href="#ArialMT-6c" transform="translate(705.810547 0)"/>
     <use xlink:href="#ArialMT-6f" transform="translate(728.027344 0)"/>
     <use xlink:href="#ArialMT-73" transform="translate(783.642578 0)"/>
     <use xlink:href="#ArialMT-73" transform="translate(833.642578 0)"/>
    </g>
   </g>
   <g id="legend_1">
    <g id="patch_5">
     <path d="M 59.233422 310.680286 
L 149.437328 310.680286 
Q 151.237328 310.680286 151.237328 308.880286 
L 151.237328 262.007161 
Q 151.237328 260.207161 149.437328 260.207161 
L 59.233422 260.207161 
Q 57.433422 260.207161 57.433422 262.007161 
L 57.433422 308.880286 
Q 57.433422 310.680286 59.233422 310.680286 
z
" style="fill: #f7f7fa; opacity: 0.92; stroke: #d2d2e0; stroke-width: 0.65; stroke-linejoin: miter"/>
    </g>
    <g id="line2d_39">
     <path d="M 61.483422 267.549192 
L 70.483422 267.549192 
L 79.483422 267.549192 
" style="fill: none; stroke: #c44e52; stroke-width: 1.9; stroke-linecap: square"/>
    </g>
    <g id="text_19">
     <!-- GRPO -->
     <g transform="translate(86.683422 270.699192) scale(0.09 -0.09)">
      <use xlink:href="#ArialMT-47"/>
      <use xlink:href="#ArialMT-52" transform="translate(77.783203 0)"/>
      <use xlink:href="#ArialMT-50" transform="translate(150 0)"/>
      <use xlink:href="#ArialMT-4f" transform="translate(216.699219 0)"/>
     </g>
    </g>
    <g id="line2d_40">
     <path d="M 61.483422 278.929973 
L 70.483422 278.929973 
L 79.483422 278.929973 
" style="fill: none; stroke: #8172b3; stroke-width: 1.9; stroke-linecap: square"/>
    </g>
    <g id="text_20">
     <!-- SFT-GRPO-R1 -->
     <g transform="translate(86.683422 282.079973) scale(0.09 -0.09)">
      <defs>
       <path id="ArialMT-53" d="M 288 1472 
L 859 1522 
Q 900 1178 1048 958 
Q 1197 738 1509 602 
Q 1822 466 2213 466 
Q 2559 466 2825 569 
Q 3091 672 3220 851 
Q 3350 1031 3350 1244 
Q 3350 1459 3225 1620 
Q 3100 1781 2813 1891 
Q 2628 1963 1997 2114 
Q 1366 2266 1113 2400 
Q 784 2572 623 2826 
Q 463 3081 463 3397 
Q 463 3744 659 4045 
Q 856 4347 1234 4503 
Q 1613 4659 2075 4659 
Q 2584 4659 2973 4495 
Q 3363 4331 3572 4012 
Q 3781 3694 3797 3291 
L 3216 3247 
Q 3169 3681 2898 3903 
Q 2628 4125 2100 4125 
Q 1550 4125 1298 3923 
Q 1047 3722 1047 3438 
Q 1047 3191 1225 3031 
Q 1400 2872 2139 2705 
Q 2878 2538 3153 2413 
Q 3553 2228 3743 1945 
Q 3934 1663 3934 1294 
Q 3934 928 3725 604 
Q 3516 281 3123 101 
Q 2731 -78 2241 -78 
Q 1619 -78 1198 103 
Q 778 284 539 648 
Q 300 1013 288 1472 
z
" transform="scale(0.015625)"/>
       <path id="ArialMT-46" d="M 525 0 
L 525 4581 
L 3616 4581 
L 3616 4041 
L 1131 4041 
L 1131 2622 
L 3281 2622 
L 3281 2081 
L 1131 2081 
L 1131 0 
L 525 0 
z
" transform="scale(0.015625)"/>
       <path id="ArialMT-2d" d="M 203 1375 
L 203 1941 
L 1931 1941 
L 1931 1375 
L 203 1375 
z
" transform="scale(0.015625)"/>
      </defs>
      <use xlink:href="#ArialMT-53"/>
      <use xlink:href="#ArialMT-46" transform="translate(66.699219 0)"/>
      <use xlink:href="#ArialMT-54" transform="translate(127.783203 0)"/>
      <use xlink:href="#ArialMT-2d" transform="translate(183.367188 0)"/>
      <use xlink:href="#ArialMT-47" transform="translate(216.667969 0)"/>
      <use xlink:href="#ArialMT-52" transform="translate(294.451172 0)"/>
      <use xlink:href="#ArialMT-50" transform="translate(366.667969 0)"/>
      <use xlink:href="#ArialMT-4f" transform="translate(433.367188 0)"/>
      <use xlink:href="#ArialMT-2d" transform="translate(511.150391 0)"/>
      <use xlink:href="#ArialMT-52" transform="translate(544.451172 0)"/>
      <use xlink:href="#ArialMT-31" transform="translate(616.667969 0)"/>
     </g>
    </g>
    <g id="line2d_41">
     <path d="M 61.483422 290.310754 
L 70.483422 290.310754 
L 79.483422 290.310754 
" style="fill: none; stroke: #64b5cd; stroke-width: 1.9; stroke-linecap: square"/>
    </g>
    <g id="text_21">
     <!-- SFT-GRPO-R2 -->
     <g transform="translate(86.683422 293.460754) scale(0.09 -0.09)">
      <use xlink:href="#ArialMT-53"/>
      <use xlink:href="#ArialMT-46" transform="translate(66.699219 0)"/>
      <use xlink:href="#ArialMT-54" transform="translate(127.783203 0)"/>
      <use xlink:href="#ArialMT-2d" transform="translate(183.367188 0)"/>
      <use xlink:href="#ArialMT-47" transform="translate(216.667969 0)"/>
      <use xlink:href="#ArialMT-52" transform="translate(294.451172 0)"/>
      <use xlink:href="#ArialMT-50" transform="translate(366.667969 0)"/>
      <use xlink:href="#ArialMT-4f" transform="translate(433.367188 0)"/>
      <use xlink:href="#ArialMT-2d" transform="translate(511.150391 0)"/>
      <use xlink:href="#ArialMT-52" transform="translate(544.451172 0)"/>
      <use xlink:href="#ArialMT-32" transform="translate(616.667969 0)"/>
     </g>
    </g>
    <g id="line2d_42">
     <path d="M 61.483422 301.691536 
L 70.483422 301.691536 
L 79.483422 301.691536 
" style="fill: none; stroke: #8a6fad; stroke-width: 1.9; stroke-linecap: square"/>
    </g>
    <g id="text_22">
     <!-- SFT-GRPO-R3 -->
     <g transform="translate(86.683422 304.841536) scale(0.09 -0.09)">
      <defs>
       <path id="ArialMT-33" d="M 269 1209 
L 831 1284 
Q 928 806 1161 595 
Q 1394 384 1728 384 
Q 2125 384 2398 659 
Q 2672 934 2672 1341 
Q 2672 1728 2419 1979 
Q 2166 2231 1775 2231 
Q 1616 2231 1378 2169 
L 1441 2663 
Q 1497 2656 1531 2656 
Q 1891 2656 2178 2843 
Q 2466 3031 2466 3422 
Q 2466 3731 2256 3934 
Q 2047 4138 1716 4138 
Q 1388 4138 1169 3931 
Q 950 3725 888 3313 
L 325 3413 
Q 428 3978 793 4289 
Q 1159 4600 1703 4600 
Q 2078 4600 2393 4439 
Q 2709 4278 2876 4000 
Q 3044 3722 3044 3409 
Q 3044 3113 2884 2869 
Q 2725 2625 2413 2481 
Q 2819 2388 3044 2092 
Q 3269 1797 3269 1353 
Q 3269 753 2831 336 
Q 2394 -81 1725 -81 
Q 1122 -81 723 278 
Q 325 638 269 1209 
z
" transform="scale(0.015625)"/>
      </defs>
      <use xlink:href="#ArialMT-53"/>
      <use xlink:href="#ArialMT-46" transform="translate(66.699219 0)"/>
      <use xlink:href="#ArialMT-54" transform="translate(127.783203 0)"/>
      <use xlink:href="#ArialMT-2d" transform="translate(183.367188 0)"/>
      <use xlink:href="#ArialMT-47" transform="translate(216.667969 0)"/>
      <use xlink:href="#ArialMT-52" transform="translate(294.451172 0)"/>
      <use xlink:href="#ArialMT-50" transform="translate(366.667969 0)"/>
      <use xlink:href="#ArialMT-4f" transform="translate(433.367188 0)"/>
      <use xlink:href="#ArialMT-2d" transform="translate(511.150391 0)"/>
      <use xlink:href="#ArialMT-52" transform="translate(544.451172 0)"/>
      <use xlink:href="#ArialMT-33" transform="translate(616.667969 0)"/>
     </g>
    </g>
   </g>
  </g>
 </g>
 <defs>
  <clipPath id="p9035197750">
   <rect x="52.933422" y="22.646" width="533.67" height="292.534286"/>
  </clipPath>
 </defs>
</svg>
