<?xml version="1.0" encoding="utf-8" standalone="no"?>
<!DOCTYPE svg PUBLIC "-//W3C//DTD SVG 1.1//EN"
  "http://www.w3.org/Graphics/SVG/1.1/DTD/svg11.dtd">
<svg xmlns:xlink="http://www.w3.org/1999/xlink" width="1108.339pt" height="322.662451pt" viewBox="0 0 1108.339 322.662451" xmlns="http://www.w3.org/2000/svg" version="1.1">
 <metadata>
  <rdf:RDF xmlns:dc="http://purl.org/dc/elements/1.1/" xmlns:cc="http://creativecommons.org/ns#" xmlns:rdf="http://www.w3.org/1999/02/22-rdf-syntax-ns#">
   <cc:Work>
    <dc:type rdf:resource="http://purl.org/dc/dcmitype/StillImage"/>
    <dc:date>2026-06-20T02:34:26.015300</dc:date>
    <dc:format>image/svg+xml</dc:format>
    <dc:creator>
     <cc:Agent>
      <dc:title>Matplotlib v3.10.8, https://matplotlib.org/</dc:title>
     </cc:Agent>
    </dc:creator>
   </cc:Work>
  </rdf:RDF>
 </metadata>
 <defs>
  <style type="text/css">*{stroke-linejoin: round; stroke-linecap: butt}</style>
 </defs>
 <g id="figure_1">
  <g id="patch_1">
   <path d="M 0 322.662451 
L 1108.339 322.662451 
L 1108.339 0 
L 0 0 
z
" style="fill: #ffffff"/>
  </g>
  <g id="axes_1">
   <g id="patch_2">
    <path d="M 42.147 252.443272 
L 351.980714 252.443272 
L 351.980714 22.783594 
L 42.147 22.783594 
z
" style="fill: #ffffff"/>
   </g>
   <g id="matplotlib.axis_1">
    <g id="xtick_1">
     <g id="line2d_1">
      <defs>
       <path id="m37be8ed2ff" d="M 0 0 
L 0 3.2 
" style="stroke: #222222; stroke-width: 0.8"/>
      </defs>
      <g>
       <use xlink:href="#m37be8ed2ff" x="49.00812" y="252.443272" style="fill: #222222; stroke: #222222; stroke-width: 0.8"/>
      </g>
     </g>
     <g id="text_1">
      <!-- 0 -->
      <g style="fill: #222222" transform="translate(46.227651 266.301085) scale(0.1 -0.1)">
       <defs>
        <path id="ArialMT-30" d="M 266 2259 
Q 266 3072 433 3567 
Q 600 4063 929 4331 
Q 1259 4600 1759 4600 
Q 2128 4600 2406 4451 
Q 2684 4303 2865 4023 
Q 3047 3744 3150 3342 
Q 3253 2941 3253 2259 
Q 3253 1453 3087 958 
Q 2922 463 2592 192 
Q 2263 -78 1759 -78 
Q 1097 -78 719 397 
Q 266 969 266 2259 
z
M 844 2259 
Q 844 1131 1108 757 
Q 1372 384 1759 384 
Q 2147 384 2411 759 
Q 2675 1134 2675 2259 
Q 2675 3391 2411 3762 
Q 2147 4134 1753 4134 
Q 1366 4134 1134 3806 
Q 844 3388 844 2259 
z
" transform="scale(0.015625)"/>
       </defs>
       <use xlink:href="#ArialMT-30"/>
      </g>
     </g>
    </g>
    <g id="xtick_2">
     <g id="line2d_2">
      <g>
       <use xlink:href="#m37be8ed2ff" x="85.119275" y="252.443272" style="fill: #222222; stroke: #222222; stroke-width: 0.8"/>
      </g>
     </g>
     <g id="text_2">
      <!-- 25 -->
      <g style="fill: #222222" transform="translate(79.558338 266.301085) scale(0.1 -0.1)">
       <defs>
        <path id="ArialMT-32" d="M 3222 541 
L 3222 0 
L 194 0 
Q 188 203 259 391 
Q 375 700 629 1000 
Q 884 1300 1366 1694 
Q 2113 2306 2375 2664 
Q 2638 3022 2638 3341 
Q 2638 3675 2398 3904 
Q 2159 4134 1775 4134 
Q 1369 4134 1125 3890 
Q 881 3647 878 3216 
L 300 3275 
Q 359 3922 746 4261 
Q 1134 4600 1788 4600 
Q 2447 4600 2831 4234 
Q 3216 3869 3216 3328 
Q 3216 3053 3103 2787 
Q 2991 2522 2730 2228 
Q 2469 1934 1863 1422 
Q 1356 997 1212 845 
Q 1069 694 975 541 
L 3222 541 
z
" transform="scale(0.015625)"/>
        <path id="ArialMT-35" d="M 266 1200 
L 856 1250 
Q 922 819 1161 601 
Q 1400 384 1738 384 
Q 2144 384 2425 690 
Q 2706 997 2706 1503 
Q 2706 1984 2436 2262 
Q 2166 2541 1728 2541 
Q 1456 2541 1237 2417 
Q 1019 2294 894 2097 
L 366 2166 
L 809 4519 
L 3088 4519 
L 3088 3981 
L 1259 3981 
L 1013 2750 
Q 1425 3038 1878 3038 
Q 2478 3038 2890 2622 
Q 3303 2206 3303 1553 
Q 3303 931 2941 478 
Q 2500 -78 1738 -78 
Q 1113 -78 717 272 
Q 322 622 266 1200 
z
" transform="scale(0.015625)"/>
       </defs>
       <use xlink:href="#ArialMT-32"/>
       <use xlink:href="#ArialMT-35" transform="translate(55.615234 0)"/>
      </g>
     </g>
    </g>
    <g id="xtick_3">
     <g id="line2d_3">
      <g>
       <use xlink:href="#m37be8ed2ff" x="121.230431" y="252.443272" style="fill: #222222; stroke: #222222; stroke-width: 0.8"/>
      </g>
     </g>
     <g id="text_3">
      <!-- 50 -->
      <g style="fill: #222222" transform="translate(115.669493 266.301085) scale(0.1 -0.1)">
       <use xlink:href="#ArialMT-35"/>
       <use xlink:href="#ArialMT-30" transform="translate(55.615234 0)"/>
      </g>
     </g>
    </g>
    <g id="xtick_4">
     <g id="line2d_4">
      <g>
       <use xlink:href="#m37be8ed2ff" x="157.341586" y="252.443272" style="fill: #222222; stroke: #222222; stroke-width: 0.8"/>
      </g>
     </g>
     <g id="text_4">
      <!-- 75 -->
      <g style="fill: #222222" transform="translate(151.780649 266.301085) scale(0.1 -0.1)">
       <defs>
        <path id="ArialMT-37" d="M 303 3981 
L 303 4522 
L 3269 4522 
L 3269 4084 
Q 2831 3619 2401 2847 
Q 1972 2075 1738 1259 
Q 1569 684 1522 0 
L 944 0 
Q 953 541 1156 1306 
Q 1359 2072 1739 2783 
Q 2119 3494 2547 3981 
L 303 3981 
z
" transform="scale(0.015625)"/>
       </defs>
       <use xlink:href="#ArialMT-37"/>
       <use xlink:href="#ArialMT-35" transform="translate(55.615234 0)"/>
      </g>
     </g>
    </g>
    <g id="xtick_5">
     <g id="line2d_5">
      <g>
       <use xlink:href="#m37be8ed2ff" x="193.452742" y="252.443272" style="fill: #222222; stroke: #222222; stroke-width: 0.8"/>
      </g>
     </g>
     <g id="text_5">
      <!-- 100 -->
      <g style="fill: #222222" transform="translate(185.111335 266.301085) scale(0.1 -0.1)">
       <defs>
        <path id="ArialMT-31" d="M 2384 0 
L 1822 0 
L 1822 3584 
Q 1619 3391 1289 3197 
Q 959 3003 697 2906 
L 697 3450 
Q 1169 3672 1522 3987 
Q 1875 4303 2022 4600 
L 2384 4600 
L 2384 0 
z
" transform="scale(0.015625)"/>
       </defs>
       <use xlink:href="#ArialMT-31"/>
       <use xlink:href="#ArialMT-30" transform="translate(55.615234 0)"/>
       <use xlink:href="#ArialMT-30" transform="translate(111.230469 0)"/>
      </g>
     </g>
    </g>
    <g id="xtick_6">
     <g id="line2d_6">
      <g>
       <use xlink:href="#m37be8ed2ff" x="229.563897" y="252.443272" style="fill: #222222; stroke: #222222; stroke-width: 0.8"/>
      </g>
     </g>
     <g id="text_6">
      <!-- 125 -->
      <g style="fill: #222222" transform="translate(221.222491 266.301085) scale(0.1 -0.1)">
       <use xlink:href="#ArialMT-31"/>
       <use xlink:href="#ArialMT-32" transform="translate(55.615234 0)"/>
       <use xlink:href="#ArialMT-35" transform="translate(111.230469 0)"/>
      </g>
     </g>
    </g>
    <g id="xtick_7">
     <g id="line2d_7">
      <g>
       <use xlink:href="#m37be8ed2ff" x="265.675053" y="252.443272" style="fill: #222222; stroke: #222222; stroke-width: 0.8"/>
      </g>
     </g>
     <g id="text_7">
      <!-- 150 -->
      <g style="fill: #222222" transform="translate(257.333646 266.301085) scale(0.1 -0.1)">
       <use xlink:href="#ArialMT-31"/>
       <use xlink:href="#ArialMT-35" transform="translate(55.615234 0)"/>
       <use xlink:href="#ArialMT-30" transform="translate(111.230469 0)"/>
      </g>
     </g>
    </g>
    <g id="xtick_8">
     <g id="line2d_8">
      <g>
       <use xlink:href="#m37be8ed2ff" x="301.786208" y="252.443272" style="fill: #222222; stroke: #222222; stroke-width: 0.8"/>
      </g>
     </g>
     <g id="text_8">
      <!-- 175 -->
      <g style="fill: #222222" transform="translate(293.444802 266.301085) scale(0.1 -0.1)">
       <use xlink:href="#ArialMT-31"/>
       <use xlink:href="#ArialMT-37" transform="translate(55.615234 0)"/>
       <use xlink:href="#ArialMT-35" transform="translate(111.230469 0)"/>
      </g>
     </g>
    </g>
    <g id="xtick_9">
     <g id="line2d_9">
      <g>
       <use xlink:href="#m37be8ed2ff" x="337.897364" y="252.443272" style="fill: #222222; stroke: #222222; stroke-width: 0.8"/>
      </g>
     </g>
     <g id="text_9">
      <!-- 200 -->
      <g style="fill: #222222" transform="translate(329.555957 266.301085) scale(0.1 -0.1)">
       <use xlink:href="#ArialMT-32"/>
       <use xlink:href="#ArialMT-30" transform="translate(55.615234 0)"/>
       <use xlink:href="#ArialMT-30" transform="translate(111.230469 0)"/>
      </g>
     </g>
    </g>
    <g id="text_10">
     <!-- Training step -->
     <g transform="translate(162.216107 283.305335) scale(0.112 -0.112)">
      <defs>
       <path id="Arial-BoldMT-54" d="M 1497 0 
L 1497 3806 
L 138 3806 
L 138 4581 
L 3778 4581 
L 3778 3806 
L 2422 3806 
L 2422 0 
L 1497 0 
z
" transform="scale(0.015625)"/>
       <path id="Arial-BoldMT-72" d="M 1300 0 
L 422 0 
L 422 3319 
L 1238 3319 
L 1238 2847 
Q 1447 3181 1614 3287 
Q 1781 3394 1994 3394 
Q 2294 3394 2572 3228 
L 2300 2463 
Q 2078 2606 1888 2606 
Q 1703 2606 1575 2504 
Q 1447 2403 1373 2137 
Q 1300 1872 1300 1025 
L 1300 0 
z
" transform="scale(0.015625)"/>
       <path id="Arial-BoldMT-61" d="M 1116 2306 
L 319 2450 
Q 453 2931 781 3162 
Q 1109 3394 1756 3394 
Q 2344 3394 2631 3255 
Q 2919 3116 3036 2902 
Q 3153 2688 3153 2116 
L 3144 1091 
Q 3144 653 3186 445 
Q 3228 238 3344 0 
L 2475 0 
Q 2441 88 2391 259 
Q 2369 338 2359 363 
Q 2134 144 1878 34 
Q 1622 -75 1331 -75 
Q 819 -75 523 203 
Q 228 481 228 906 
Q 228 1188 362 1408 
Q 497 1628 739 1745 
Q 981 1863 1438 1950 
Q 2053 2066 2291 2166 
L 2291 2253 
Q 2291 2506 2166 2614 
Q 2041 2722 1694 2722 
Q 1459 2722 1328 2630 
Q 1197 2538 1116 2306 
z
M 2291 1594 
Q 2122 1538 1756 1459 
Q 1391 1381 1278 1306 
Q 1106 1184 1106 997 
Q 1106 813 1243 678 
Q 1381 544 1594 544 
Q 1831 544 2047 700 
Q 2206 819 2256 991 
Q 2291 1103 2291 1419 
L 2291 1594 
z
" transform="scale(0.015625)"/>
       <path id="Arial-BoldMT-69" d="M 459 3769 
L 459 4581 
L 1338 4581 
L 1338 3769 
L 459 3769 
z
M 459 0 
L 459 3319 
L 1338 3319 
L 1338 0 
L 459 0 
z
" transform="scale(0.015625)"/>
       <path id="Arial-BoldMT-6e" d="M 3478 0 
L 2600 0 
L 2600 1694 
Q 2600 2231 2544 2389 
Q 2488 2547 2361 2634 
Q 2234 2722 2056 2722 
Q 1828 2722 1647 2597 
Q 1466 2472 1398 2265 
Q 1331 2059 1331 1503 
L 1331 0 
L 453 0 
L 453 3319 
L 1269 3319 
L 1269 2831 
Q 1703 3394 2363 3394 
Q 2653 3394 2893 3289 
Q 3134 3184 3257 3021 
Q 3381 2859 3429 2653 
Q 3478 2447 3478 2063 
L 3478 0 
z
" transform="scale(0.015625)"/>
       <path id="Arial-BoldMT-67" d="M 378 -219 
L 1381 -341 
Q 1406 -516 1497 -581 
Q 1622 -675 1891 -675 
Q 2234 -675 2406 -572 
Q 2522 -503 2581 -350 
Q 2622 -241 2622 53 
L 2622 538 
Q 2228 0 1628 0 
Q 959 0 569 566 
Q 263 1013 263 1678 
Q 263 2513 664 2953 
Q 1066 3394 1663 3394 
Q 2278 3394 2678 2853 
L 2678 3319 
L 3500 3319 
L 3500 341 
Q 3500 -247 3403 -537 
Q 3306 -828 3131 -993 
Q 2956 -1159 2664 -1253 
Q 2372 -1347 1925 -1347 
Q 1081 -1347 728 -1058 
Q 375 -769 375 -325 
Q 375 -281 378 -219 
z
M 1163 1728 
Q 1163 1200 1367 954 
Q 1572 709 1872 709 
Q 2194 709 2416 961 
Q 2638 1213 2638 1706 
Q 2638 2222 2425 2472 
Q 2213 2722 1888 2722 
Q 1572 2722 1367 2476 
Q 1163 2231 1163 1728 
z
" transform="scale(0.015625)"/>
       <path id="Arial-BoldMT-20" transform="scale(0.015625)"/>
       <path id="Arial-BoldMT-73" d="M 150 947 
L 1031 1081 
Q 1088 825 1259 692 
Q 1431 559 1741 559 
Q 2081 559 2253 684 
Q 2369 772 2369 919 
Q 2369 1019 2306 1084 
Q 2241 1147 2013 1200 
Q 950 1434 666 1628 
Q 272 1897 272 2375 
Q 272 2806 612 3100 
Q 953 3394 1669 3394 
Q 2350 3394 2681 3172 
Q 3013 2950 3138 2516 
L 2309 2363 
Q 2256 2556 2107 2659 
Q 1959 2763 1684 2763 
Q 1338 2763 1188 2666 
Q 1088 2597 1088 2488 
Q 1088 2394 1175 2328 
Q 1294 2241 1995 2081 
Q 2697 1922 2975 1691 
Q 3250 1456 3250 1038 
Q 3250 581 2869 253 
Q 2488 -75 1741 -75 
Q 1063 -75 667 200 
Q 272 475 150 947 
z
" transform="scale(0.015625)"/>
       <path id="Arial-BoldMT-74" d="M 1981 3319 
L 1981 2619 
L 1381 2619 
L 1381 1281 
Q 1381 875 1398 808 
Q 1416 741 1477 697 
Q 1538 653 1625 653 
Q 1747 653 1978 738 
L 2053 56 
Q 1747 -75 1359 -75 
Q 1122 -75 931 4 
Q 741 84 652 211 
Q 563 338 528 553 
Q 500 706 500 1172 
L 500 2619 
L 97 2619 
L 97 3319 
L 500 3319 
L 500 3978 
L 1381 4491 
L 1381 3319 
L 1981 3319 
z
" transform="scale(0.015625)"/>
       <path id="Arial-BoldMT-65" d="M 2381 1056 
L 3256 909 
Q 3088 428 2723 176 
Q 2359 -75 1813 -75 
Q 947 -75 531 491 
Q 203 944 203 1634 
Q 203 2459 634 2926 
Q 1066 3394 1725 3394 
Q 2466 3394 2894 2905 
Q 3322 2416 3303 1406 
L 1103 1406 
Q 1113 1016 1316 798 
Q 1519 581 1822 581 
Q 2028 581 2168 693 
Q 2309 806 2381 1056 
z
M 2431 1944 
Q 2422 2325 2234 2523 
Q 2047 2722 1778 2722 
Q 1491 2722 1303 2513 
Q 1116 2303 1119 1944 
L 2431 1944 
z
" transform="scale(0.015625)"/>
       <path id="Arial-BoldMT-70" d="M 434 3319 
L 1253 3319 
L 1253 2831 
Q 1413 3081 1684 3237 
Q 1956 3394 2288 3394 
Q 2866 3394 3269 2941 
Q 3672 2488 3672 1678 
Q 3672 847 3265 386 
Q 2859 -75 2281 -75 
Q 2006 -75 1782 34 
Q 1559 144 1313 409 
L 1313 -1263 
L 434 -1263 
L 434 3319 
z
M 1303 1716 
Q 1303 1156 1525 889 
Q 1747 622 2066 622 
Q 2372 622 2575 867 
Q 2778 1113 2778 1672 
Q 2778 2194 2568 2447 
Q 2359 2700 2050 2700 
Q 1728 2700 1515 2451 
Q 1303 2203 1303 1716 
z
" transform="scale(0.015625)"/>
      </defs>
      <use xlink:href="#Arial-BoldMT-54"/>
      <use xlink:href="#Arial-BoldMT-72" transform="translate(55.583984 0)"/>
      <use xlink:href="#Arial-BoldMT-61" transform="translate(94.5 0)"/>
      <use xlink:href="#Arial-BoldMT-69" transform="translate(150.115234 0)"/>
      <use xlink:href="#Arial-BoldMT-6e" transform="translate(177.898438 0)"/>
      <use xlink:href="#Arial-BoldMT-69" transform="translate(238.982422 0)"/>
      <use xlink:href="#Arial-BoldMT-6e" transform="translate(266.765625 0)"/>
      <use xlink:href="#Arial-BoldMT-67" transform="translate(327.849609 0)"/>
      <use xlink:href="#Arial-BoldMT-20" transform="translate(388.933594 0)"/>
      <use xlink:href="#Arial-BoldMT-73" transform="translate(416.716797 0)"/>
      <use xlink:href="#Arial-BoldMT-74" transform="translate(472.332031 0)"/>
      <use xlink:href="#Arial-BoldMT-65" transform="translate(505.632812 0)"/>
      <use xlink:href="#Arial-BoldMT-70" transform="translate(561.248047 0)"/>
     </g>
    </g>
   </g>
   <g id="matplotlib.axis_2">
    <g id="ytick_1">
     <g id="line2d_10">
      <path d="M 42.147 244.250261 
L 351.980714 244.250261 
" clip-path="url(#p36c94e9020)" style="fill: none; stroke: #dddddd; stroke-opacity: 0.9; stroke-width: 0.8; stroke-linecap: square"/>
     </g>
     <g id="line2d_11">
      <defs>
       <path id="m2250e0360d" d="M 0 0 
L -3.2 0 
" style="stroke: #222222; stroke-width: 0.8"/>
      </defs>
      <g>
       <use xlink:href="#m2250e0360d" x="42.147" y="244.250261" style="fill: #222222; stroke: #222222; stroke-width: 0.8"/>
      </g>
     </g>
     <g id="text_11">
      <!-- 0.5 -->
      <g style="fill: #222222" transform="translate(21.547 247.829168) scale(0.1 -0.1)">
       <defs>
        <path id="ArialMT-2e" d="M 581 0 
L 581 641 
L 1222 641 
L 1222 0 
L 581 0 
z
" transform="scale(0.015625)"/>
       </defs>
       <use xlink:href="#ArialMT-30"/>
       <use xlink:href="#ArialMT-2e" transform="translate(55.615234 0)"/>
       <use xlink:href="#ArialMT-35" transform="translate(83.398438 0)"/>
      </g>
     </g>
    </g>
    <g id="ytick_2">
     <g id="line2d_12">
      <path d="M 42.147 208.313352 
L 351.980714 208.313352 
" clip-path="url(#p36c94e9020)" style="fill: none; stroke: #dddddd; stroke-opacity: 0.9; stroke-width: 0.8; stroke-linecap: square"/>
     </g>
     <g id="line2d_13">
      <g>
       <use xlink:href="#m2250e0360d" x="42.147" y="208.313352" style="fill: #222222; stroke: #222222; stroke-width: 0.8"/>
      </g>
     </g>
     <g id="text_12">
      <!-- 0.6 -->
      <g style="fill: #222222" transform="translate(21.547 211.892258) scale(0.1 -0.1)">
       <defs>
        <path id="ArialMT-36" d="M 3184 3459 
L 2625 3416 
Q 2550 3747 2413 3897 
Q 2184 4138 1850 4138 
Q 1581 4138 1378 3988 
Q 1113 3794 959 3422 
Q 806 3050 800 2363 
Q 1003 2672 1297 2822 
Q 1591 2972 1913 2972 
Q 2475 2972 2870 2558 
Q 3266 2144 3266 1488 
Q 3266 1056 3080 686 
Q 2894 316 2569 119 
Q 2244 -78 1831 -78 
Q 1128 -78 684 439 
Q 241 956 241 2144 
Q 241 3472 731 4075 
Q 1159 4600 1884 4600 
Q 2425 4600 2770 4297 
Q 3116 3994 3184 3459 
z
M 888 1484 
Q 888 1194 1011 928 
Q 1134 663 1356 523 
Q 1578 384 1822 384 
Q 2178 384 2434 671 
Q 2691 959 2691 1453 
Q 2691 1928 2437 2201 
Q 2184 2475 1800 2475 
Q 1419 2475 1153 2201 
Q 888 1928 888 1484 
z
" transform="scale(0.015625)"/>
       </defs>
       <use xlink:href="#ArialMT-30"/>
       <use xlink:href="#ArialMT-2e" transform="translate(55.615234 0)"/>
       <use xlink:href="#ArialMT-36" transform="translate(83.398438 0)"/>
      </g>
     </g>
    </g>
    <g id="ytick_3">
     <g id="line2d_14">
      <path d="M 42.147 172.376442 
L 351.980714 172.376442 
" clip-path="url(#p36c94e9020)" style="fill: none; stroke: #dddddd; stroke-opacity: 0.9; stroke-width: 0.8; stroke-linecap: square"/>
     </g>
     <g id="line2d_15">
      <g>
       <use xlink:href="#m2250e0360d" x="42.147" y="172.376442" style="fill: #222222; stroke: #222222; stroke-width: 0.8"/>
      </g>
     </g>
     <g id="text_13">
      <!-- 0.7 -->
      <g style="fill: #222222" transform="translate(21.547 175.955348) scale(0.1 -0.1)">
       <use xlink:href="#ArialMT-30"/>
       <use xlink:href="#ArialMT-2e" transform="translate(55.615234 0)"/>
       <use xlink:href="#ArialMT-37" transform="translate(83.398438 0)"/>
      </g>
     </g>
    </g>
    <g id="ytick_4">
     <g id="line2d_16">
      <path d="M 42.147 136.439532 
L 351.980714 136.439532 
" clip-path="url(#p36c94e9020)" style="fill: none; stroke: #dddddd; stroke-opacity: 0.9; stroke-width: 0.8; stroke-linecap: square"/>
     </g>
     <g id="line2d_17">
      <g>
       <use xlink:href="#m2250e0360d" x="42.147" y="136.439532" style="fill: #222222; stroke: #222222; stroke-width: 0.8"/>
      </g>
     </g>
     <g id="text_14">
      <!-- 0.8 -->
      <g style="fill: #222222" transform="translate(21.547 140.018438) scale(0.1 -0.1)">
       <defs>
        <path id="ArialMT-38" d="M 1131 2484 
Q 781 2613 612 2850 
Q 444 3088 444 3419 
Q 444 3919 803 4259 
Q 1163 4600 1759 4600 
Q 2359 4600 2725 4251 
Q 3091 3903 3091 3403 
Q 3091 3084 2923 2848 
Q 2756 2613 2416 2484 
Q 2838 2347 3058 2040 
Q 3278 1734 3278 1309 
Q 3278 722 2862 322 
Q 2447 -78 1769 -78 
Q 1091 -78 675 323 
Q 259 725 259 1325 
Q 259 1772 486 2073 
Q 713 2375 1131 2484 
z
M 1019 3438 
Q 1019 3113 1228 2906 
Q 1438 2700 1772 2700 
Q 2097 2700 2305 2904 
Q 2513 3109 2513 3406 
Q 2513 3716 2298 3927 
Q 2084 4138 1766 4138 
Q 1444 4138 1231 3931 
Q 1019 3725 1019 3438 
z
M 838 1322 
Q 838 1081 952 856 
Q 1066 631 1291 507 
Q 1516 384 1775 384 
Q 2178 384 2440 643 
Q 2703 903 2703 1303 
Q 2703 1709 2433 1975 
Q 2163 2241 1756 2241 
Q 1359 2241 1098 1978 
Q 838 1716 838 1322 
z
" transform="scale(0.015625)"/>
       </defs>
       <use xlink:href="#ArialMT-30"/>
       <use xlink:href="#ArialMT-2e" transform="translate(55.615234 0)"/>
       <use xlink:href="#ArialMT-38" transform="translate(83.398438 0)"/>
      </g>
     </g>
    </g>
    <g id="ytick_5">
     <g id="line2d_18">
      <path d="M 42.147 100.502622 
L 351.980714 100.502622 
" clip-path="url(#p36c94e9020)" style="fill: none; stroke: #dddddd; stroke-opacity: 0.9; stroke-width: 0.8; stroke-linecap: square"/>
     </g>
     <g id="line2d_19">
      <g>
       <use xlink:href="#m2250e0360d" x="42.147" y="100.502622" style="fill: #222222; stroke: #222222; stroke-width: 0.8"/>
      </g>
     </g>
     <g id="text_15">
      <!-- 0.9 -->
      <g style="fill: #222222" transform="translate(21.547 104.081528) scale(0.1 -0.1)">
       <defs>
        <path id="ArialMT-39" d="M 350 1059 
L 891 1109 
Q 959 728 1153 556 
Q 1347 384 1650 384 
Q 1909 384 2104 503 
Q 2300 622 2425 820 
Q 2550 1019 2634 1356 
Q 2719 1694 2719 2044 
Q 2719 2081 2716 2156 
Q 2547 1888 2255 1720 
Q 1963 1553 1622 1553 
Q 1053 1553 659 1965 
Q 266 2378 266 3053 
Q 266 3750 677 4175 
Q 1088 4600 1706 4600 
Q 2153 4600 2523 4359 
Q 2894 4119 3086 3673 
Q 3278 3228 3278 2384 
Q 3278 1506 3087 986 
Q 2897 466 2520 194 
Q 2144 -78 1638 -78 
Q 1100 -78 759 220 
Q 419 519 350 1059 
z
M 2653 3081 
Q 2653 3566 2395 3850 
Q 2138 4134 1775 4134 
Q 1400 4134 1122 3828 
Q 844 3522 844 3034 
Q 844 2597 1108 2323 
Q 1372 2050 1759 2050 
Q 2150 2050 2401 2323 
Q 2653 2597 2653 3081 
z
" transform="scale(0.015625)"/>
       </defs>
       <use xlink:href="#ArialMT-30"/>
       <use xlink:href="#ArialMT-2e" transform="translate(55.615234 0)"/>
       <use xlink:href="#ArialMT-39" transform="translate(83.398438 0)"/>
      </g>
     </g>
    </g>
    <g id="ytick_6">
     <g id="line2d_20">
      <path d="M 42.147 64.565712 
L 351.980714 64.565712 
" clip-path="url(#p36c94e9020)" style="fill: none; stroke: #dddddd; stroke-opacity: 0.9; stroke-width: 0.8; stroke-linecap: square"/>
     </g>
     <g id="line2d_21">
      <g>
       <use xlink:href="#m2250e0360d" x="42.147" y="64.565712" style="fill: #222222; stroke: #222222; stroke-width: 0.8"/>
      </g>
     </g>
     <g id="text_16">
      <!-- 1.0 -->
      <g style="fill: #222222" transform="translate(21.547 68.144619) scale(0.1 -0.1)">
       <use xlink:href="#ArialMT-31"/>
       <use xlink:href="#ArialMT-2e" transform="translate(55.615234 0)"/>
       <use xlink:href="#ArialMT-30" transform="translate(83.398438 0)"/>
      </g>
     </g>
    </g>
    <g id="ytick_7">
     <g id="line2d_22">
      <path d="M 42.147 28.628802 
L 351.980714 28.628802 
" clip-path="url(#p36c94e9020)" style="fill: none; stroke: #dddddd; stroke-opacity: 0.9; stroke-width: 0.8; stroke-linecap: square"/>
     </g>
     <g id="line2d_23">
      <g>
       <use xlink:href="#m2250e0360d" x="42.147" y="28.628802" style="fill: #222222; stroke: #222222; stroke-width: 0.8"/>
      </g>
     </g>
     <g id="text_17">
      <!-- 1.1 -->
      <g style="fill: #222222" transform="translate(21.547 32.207709) scale(0.1 -0.1)">
       <use xlink:href="#ArialMT-31"/>
       <use xlink:href="#ArialMT-2e" transform="translate(55.615234 0)"/>
       <use xlink:href="#ArialMT-31" transform="translate(83.398438 0)"/>
      </g>
     </g>
    </g>
    <g id="text_18">
     <!-- reward -->
     <g transform="translate(12.33675 155.977058) rotate(-90) scale(0.112 -0.112)">
      <defs>
       <path id="Arial-BoldMT-77" d="M 1078 0 
L 28 3319 
L 881 3319 
L 1503 1144 
L 2075 3319 
L 2922 3319 
L 3475 1144 
L 4109 3319 
L 4975 3319 
L 3909 0 
L 3066 0 
L 2494 2134 
L 1931 0 
L 1078 0 
z
" transform="scale(0.015625)"/>
       <path id="Arial-BoldMT-64" d="M 3503 0 
L 2688 0 
L 2688 488 
Q 2484 203 2207 64 
Q 1931 -75 1650 -75 
Q 1078 -75 670 386 
Q 263 847 263 1672 
Q 263 2516 659 2955 
Q 1056 3394 1663 3394 
Q 2219 3394 2625 2931 
L 2625 4581 
L 3503 4581 
L 3503 0 
z
M 1159 1731 
Q 1159 1200 1306 963 
Q 1519 619 1900 619 
Q 2203 619 2415 876 
Q 2628 1134 2628 1647 
Q 2628 2219 2422 2470 
Q 2216 2722 1894 2722 
Q 1581 2722 1370 2473 
Q 1159 2225 1159 1731 
z
" transform="scale(0.015625)"/>
      </defs>
      <use xlink:href="#Arial-BoldMT-72"/>
      <use xlink:href="#Arial-BoldMT-65" transform="translate(38.916016 0)"/>
      <use xlink:href="#Arial-BoldMT-77" transform="translate(94.53125 0)"/>
      <use xlink:href="#Arial-BoldMT-61" transform="translate(172.314453 0)"/>
      <use xlink:href="#Arial-BoldMT-72" transform="translate(227.929688 0)"/>
      <use xlink:href="#Arial-BoldMT-64" transform="translate(266.845703 0)"/>
     </g>
    </g>
   </g>
   <g id="line2d_24">
    <path d="M 56.230351 170.130381 
L 63.452582 239.758152 
L 70.674813 242.004196 
L 77.897044 165.638271 
L 85.119275 152.161921 
L 92.341506 188.09884 
L 99.563737 156.654052 
L 106.785968 147.669812 
L 114.008199 147.669812 
L 121.230431 174.62249 
L 128.452662 136.439528 
L 135.674893 131.947418 
L 142.897124 170.130381 
L 150.119355 138.685593 
L 157.341586 172.376446 
L 164.563817 127.455309 
L 171.786048 194.837015 
L 179.008279 113.978959 
L 186.23051 156.654052 
L 193.452742 172.376446 
L 200.674973 140.931637 
L 207.897204 120.717134 
L 215.119435 156.654052 
L 222.341666 203.821234 
L 229.563897 158.900096 
L 236.786128 156.654052 
L 244.008359 120.717134 
L 251.23059 172.376446 
L 258.452822 138.685593 
L 265.675053 118.471068 
L 272.897284 179.114621 
L 280.119515 167.884337 
L 287.341746 179.114621 
L 294.563977 138.685593 
L 301.786208 145.423768 
L 309.008439 120.717134 
L 316.23067 161.146162 
L 323.452901 242.004196 
L 330.675133 199.329124 
L 337.897364 190.344905 
" clip-path="url(#p36c94e9020)" style="fill: none; stroke: #b23b7e; stroke-opacity: 0.16; stroke-width: 0.8; stroke-linecap: square"/>
   </g>
   <g id="line2d_25">
    <path d="M 56.230351 156.654052 
L 63.452582 176.868556 
L 70.674813 176.868556 
L 77.897044 149.915877 
L 85.119275 131.947418 
L 92.341506 172.376446 
L 99.563737 158.900096 
L 106.785968 149.915877 
L 114.008199 149.915877 
L 121.230431 172.376446 
L 128.452662 154.407987 
L 135.674893 136.439528 
L 142.897124 201.57519 
L 150.119355 161.146162 
L 157.341586 181.360665 
L 164.563817 167.884337 
L 171.786048 194.837015 
L 179.008279 113.978959 
L 186.23051 170.130381 
L 193.452742 212.805474 
L 200.674973 109.48685 
L 207.897204 154.407987 
L 215.119435 188.09884 
L 222.341666 194.837015 
L 229.563897 149.915877 
L 236.786128 230.773912 
L 244.008359 149.915877 
L 251.23059 136.439528 
L 258.452822 136.439528 
L 265.675053 136.439528 
L 272.897284 208.313343 
L 280.119515 176.868556 
L 287.341746 199.329124 
L 294.563977 167.884337 
L 301.786208 221.789693 
L 309.008439 149.915877 
L 316.23067 140.931637 
L 323.452901 221.789693 
L 330.675133 224.035758 
L 337.897364 208.313343 
" clip-path="url(#p36c94e9020)" style="fill: none; stroke: #7b5ea8; stroke-opacity: 0.16; stroke-width: 0.8; stroke-linecap: square"/>
   </g>
   <g id="line2d_26">
    <path d="M 56.230351 80.916999 
L 63.452582 113.978938 
L 70.674813 85.409109 
L 77.897044 73.549931 
L 85.119275 51.089363 
L 92.341506 112.361787 
L 99.563737 97.268286 
L 106.785968 96.0105 
L 114.008199 76.424868 
L 121.230431 100.502609 
L 128.452662 82.53415 
L 135.674893 104.994719 
L 142.897124 112.361787 
L 150.119355 127.455287 
L 157.341586 110.38525 
L 164.563817 73.549931 
L 171.786048 100.502609 
L 179.008279 64.565712 
L 186.23051 104.994719 
L 193.452742 137.697314 
L 200.674973 37.613013 
L 207.897204 109.486828 
L 215.119435 103.377568 
L 222.341666 148.298705 
L 229.563897 87.026259 
L 236.786128 113.978938 
L 244.008359 60.073581 
L 251.23059 51.089363 
L 258.452822 78.042041 
L 265.675053 46.597232 
L 272.897284 113.978938 
L 280.119515 118.471068 
L 287.341746 136.439506 
L 294.563977 100.502609 
L 301.786208 125.838137 
L 309.008439 100.502609 
L 316.23067 78.042041 
L 323.452901 175.251383 
L 330.675133 129.97086 
L 337.897364 167.884315 
" clip-path="url(#p36c94e9020)" style="fill: none; stroke: #be7c1e; stroke-opacity: 0.16; stroke-width: 0.8; stroke-linecap: square"/>
   </g>
   <g id="line2d_27">
    <path d="M 56.230351 89.9293 
L 63.452582 139.332029 
L 70.674813 78.042041 
L 77.897044 103.018182 
L 85.119275 64.83522 
L 92.341506 104.635354 
L 99.563737 121.346006 
L 106.785968 94.638994 
L 114.008199 64.565712 
L 121.230431 104.994719 
L 128.452662 104.994719 
L 135.674893 104.994719 
L 142.897124 101.795482 
L 150.119355 104.994719 
L 157.341586 109.490341 
L 164.563817 82.897027 
L 171.786048 73.58853 
L 179.008279 52.36467 
L 186.23051 109.486828 
L 193.452742 91.518369 
L 200.674973 37.613013 
L 207.897204 64.565712 
L 215.119435 103.409141 
L 222.341666 148.298705 
L 229.563897 78.042041 
L 236.786128 124.243777 
L 244.008359 60.073581 
L 251.23059 78.057827 
L 258.452822 60.171857 
L 265.675053 33.22267 
L 272.897284 109.486828 
L 280.119515 118.516693 
L 287.341746 113.978938 
L 294.563977 98.934575 
L 301.786208 131.947397 
L 309.008439 91.521882 
L 316.23067 60.073581 
L 323.452901 197.508761 
L 330.675133 124.220964 
L 337.897364 184.319826 
" clip-path="url(#p36c94e9020)" style="fill: none; stroke: #3e8c82; stroke-opacity: 0.16; stroke-width: 0.8; stroke-linecap: square"/>
   </g>
   <g id="patch_3">
    <path d="M 42.147 252.443272 
L 42.147 22.783594 
" style="fill: none; stroke: #444444; stroke-linejoin: miter; stroke-linecap: square"/>
   </g>
   <g id="patch_4">
    <path d="M 42.147 252.443272 
L 351.980714 252.443272 
" style="fill: none; stroke: #444444; stroke-linejoin: miter; stroke-linecap: square"/>
   </g>
   <g id="line2d_28">
    <path d="M 56.230351 170.130381 
L 63.452582 182.663379 
L 70.674813 193.344726 
L 77.897044 188.357565 
L 85.119275 181.842349 
L 92.341506 182.968517 
L 99.563737 178.231913 
L 106.785968 172.730735 
L 114.008199 168.219769 
L 121.230431 169.372259 
L 128.452662 163.444367 
L 135.674893 157.774916 
L 142.897124 159.9989 
L 150.119355 156.162505 
L 157.341586 159.081014 
L 164.563817 153.388387 
L 171.786048 160.84914 
L 179.008279 152.412508 
L 186.23051 153.175986 
L 193.452742 156.632068 
L 200.674973 153.805991 
L 207.897204 147.849997 
L 215.119435 149.434727 
L 222.341666 159.224298 
L 229.563897 159.165942 
L 236.786128 158.713802 
L 244.008359 151.874401 
L 251.23059 155.564769 
L 258.452822 152.526518 
L 265.675053 146.396537 
L 272.897284 152.285792 
L 280.119515 155.09353 
L 287.341746 159.417326 
L 294.563977 155.685614 
L 301.786208 153.838482 
L 309.008439 147.876639 
L 316.23067 150.265153 
L 323.452901 166.778181 
L 330.675133 172.637351 
L 337.897364 175.824711 
" clip-path="url(#p36c94e9020)" style="fill: none; stroke: #b23b7e; stroke-width: 2; stroke-linecap: square"/>
   </g>
   <g id="line2d_29">
    <path d="M 56.230351 156.654052 
L 63.452582 160.292663 
L 70.674813 163.276324 
L 77.897044 160.871443 
L 85.119275 155.665119 
L 92.341506 158.673158 
L 99.563737 158.714007 
L 106.785968 157.130343 
L 114.008199 155.831739 
L 121.230431 158.809787 
L 128.452662 158.017463 
L 135.674893 154.133434 
L 142.897124 162.67295 
L 150.119355 162.398128 
L 157.341586 165.811385 
L 164.563817 166.184516 
L 171.786048 171.341966 
L 179.008279 161.016625 
L 186.23051 162.657101 
L 193.452742 171.683808 
L 200.674973 160.488355 
L 207.897204 159.393889 
L 215.119435 164.56078 
L 222.341666 170.010502 
L 229.563897 166.39347 
L 236.786128 177.981949 
L 244.008359 172.930056 
L 251.23059 166.361761 
L 258.452822 160.975759 
L 265.675053 156.559238 
L 272.897284 165.874977 
L 280.119515 167.853821 
L 287.341746 173.519375 
L 294.563977 172.505068 
L 301.786208 181.376301 
L 309.008439 175.713425 
L 316.23067 169.452703 
L 323.452901 178.873361 
L 330.675133 187.002593 
L 337.897364 190.838528 
" clip-path="url(#p36c94e9020)" style="fill: none; stroke: #7b5ea8; stroke-width: 2; stroke-linecap: square"/>
   </g>
   <g id="line2d_30">
    <path d="M 56.230351 80.916999 
L 63.452582 86.868148 
L 70.674813 86.605521 
L 77.897044 84.255515 
L 85.119275 78.285607 
L 92.341506 84.41932 
L 99.563737 86.732134 
L 106.785968 88.40224 
L 114.008199 86.246313 
L 121.230431 88.812446 
L 128.452662 87.682353 
L 135.674893 90.798579 
L 142.897124 94.679956 
L 150.119355 100.579516 
L 157.341586 102.344548 
L 164.563817 97.161517 
L 171.786048 97.762914 
L 179.008279 91.787417 
L 186.23051 94.164732 
L 193.452742 102.000596 
L 200.674973 90.410831 
L 207.897204 93.844511 
L 215.119435 95.560461 
L 222.341666 105.053345 
L 229.563897 101.80847 
L 236.786128 103.999154 
L 244.008359 96.092551 
L 251.23059 87.991977 
L 258.452822 86.200988 
L 265.675053 79.072312 
L 272.897284 85.355505 
L 280.119515 91.316306 
L 287.341746 99.438482 
L 294.563977 99.630025 
L 301.786208 104.347485 
L 309.008439 103.655407 
L 316.23067 99.045001 
L 323.452901 112.76215 
L 330.675133 115.859718 
L 337.897364 125.224145 
" clip-path="url(#p36c94e9020)" style="fill: none; stroke: #be7c1e; stroke-width: 2; stroke-linecap: square"/>
   </g>
   <g id="line2d_31">
    <path d="M 56.230351 89.9293 
L 63.452582 98.821791 
L 70.674813 95.081436 
L 77.897044 96.51005 
L 85.119275 90.808581 
L 92.341506 93.2974 
L 99.563737 98.346149 
L 106.785968 97.678861 
L 114.008199 91.718494 
L 121.230431 94.108215 
L 128.452662 96.067785 
L 135.674893 97.674633 
L 142.897124 98.416386 
L 150.119355 99.600486 
L 157.341586 101.38066 
L 164.563817 98.053606 
L 171.786048 93.649892 
L 179.008279 86.218552 
L 186.23051 90.406842 
L 193.452742 90.606917 
L 200.674973 81.068014 
L 207.897204 78.0976 
L 215.119435 82.653677 
L 222.341666 94.469782 
L 229.563897 91.512789 
L 236.786128 97.404367 
L 244.008359 90.684825 
L 251.23059 88.411966 
L 258.452822 83.328746 
L 265.675053 74.309652 
L 272.897284 80.641544 
L 280.119515 87.459071 
L 287.341746 92.232647 
L 294.563977 93.438994 
L 301.786208 100.370506 
L 309.008439 98.777754 
L 316.23067 91.811003 
L 323.452901 110.836599 
L 330.675133 113.245785 
L 337.897364 126.039112 
" clip-path="url(#p36c94e9020)" style="fill: none; stroke: #3e8c82; stroke-width: 2; stroke-linecap: square"/>
   </g>
   <g id="text_19">
    <!-- (a)  Training reward -->
    <g transform="translate(137.109482 13.783594) scale(0.13 -0.13)">
     <defs>
      <path id="Arial-BoldMT-28" d="M 1916 -1347 
L 1313 -1347 
Q 834 -625 584 153 
Q 334 931 334 1659 
Q 334 2563 644 3369 
Q 913 4069 1325 4659 
L 1925 4659 
Q 1497 3713 1336 3048 
Q 1175 2384 1175 1641 
Q 1175 1128 1270 590 
Q 1366 53 1531 -431 
Q 1641 -750 1916 -1347 
z
" transform="scale(0.015625)"/>
      <path id="Arial-BoldMT-29" d="M 216 -1347 
Q 475 -791 581 -494 
Q 688 -197 778 190 
Q 869 578 912 926 
Q 956 1275 956 1641 
Q 956 2384 797 3048 
Q 638 3713 209 4659 
L 806 4659 
Q 1278 3988 1539 3234 
Q 1800 2481 1800 1706 
Q 1800 1053 1594 306 
Q 1359 -531 822 -1347 
L 216 -1347 
z
" transform="scale(0.015625)"/>
     </defs>
     <use xlink:href="#Arial-BoldMT-28"/>
     <use xlink:href="#Arial-BoldMT-61" transform="translate(33.300781 0)"/>
     <use xlink:href="#Arial-BoldMT-29" transform="translate(88.916016 0)"/>
     <use xlink:href="#Arial-BoldMT-20" transform="translate(122.216797 0)"/>
     <use xlink:href="#Arial-BoldMT-20" transform="translate(150 0)"/>
     <use xlink:href="#Arial-BoldMT-54" transform="translate(177.783203 0)"/>
     <use xlink:href="#Arial-BoldMT-72" transform="translate(233.367188 0)"/>
     <use xlink:href="#Arial-BoldMT-61" transform="translate(272.283203 0)"/>
     <use xlink:href="#Arial-BoldMT-69" transform="translate(327.898438 0)"/>
     <use xlink:href="#Arial-BoldMT-6e" transform="translate(355.681641 0)"/>
     <use xlink:href="#Arial-BoldMT-69" transform="translate(416.765625 0)"/>
     <use xlink:href="#Arial-BoldMT-6e" transform="translate(444.548828 0)"/>
     <use xlink:href="#Arial-BoldMT-67" transform="translate(505.632812 0)"/>
     <use xlink:href="#Arial-BoldMT-20" transform="translate(566.716797 0)"/>
     <use xlink:href="#Arial-BoldMT-72" transform="translate(594.5 0)"/>
     <use xlink:href="#Arial-BoldMT-65" transform="translate(633.416016 0)"/>
     <use xlink:href="#Arial-BoldMT-77" transform="translate(689.03125 0)"/>
     <use xlink:href="#Arial-BoldMT-61" transform="translate(766.814453 0)"/>
     <use xlink:href="#Arial-BoldMT-72" transform="translate(822.429688 0)"/>
     <use xlink:href="#Arial-BoldMT-64" transform="translate(861.345703 0)"/>
    </g>
   </g>
  </g>
  <g id="axes_2">
   <g id="patch_5">
    <path d="M 418.166143 252.443272 
L 727.999857 252.443272 
L 727.999857 22.783594 
L 418.166143 22.783594 
z
" style="fill: #ffffff"/>
   </g>
   <g id="matplotlib.axis_3">
    <g id="xtick_10">
     <g id="line2d_32">
      <g>
       <use xlink:href="#m37be8ed2ff" x="425.027262" y="252.443272" style="fill: #222222; stroke: #222222; stroke-width: 0.8"/>
      </g>
     </g>
     <g id="text_20">
      <!-- 0 -->
      <g style="fill: #222222" transform="translate(422.246794 266.301085) scale(0.1 -0.1)">
       <use xlink:href="#ArialMT-30"/>
      </g>
     </g>
    </g>
    <g id="xtick_11">
     <g id="line2d_33">
      <g>
       <use xlink:href="#m37be8ed2ff" x="461.138418" y="252.443272" style="fill: #222222; stroke: #222222; stroke-width: 0.8"/>
      </g>
     </g>
     <g id="text_21">
      <!-- 25 -->
      <g style="fill: #222222" transform="translate(455.57748 266.301085) scale(0.1 -0.1)">
       <use xlink:href="#ArialMT-32"/>
       <use xlink:href="#ArialMT-35" transform="translate(55.615234 0)"/>
      </g>
     </g>
    </g>
    <g id="xtick_12">
     <g id="line2d_34">
      <g>
       <use xlink:href="#m37be8ed2ff" x="497.249573" y="252.443272" style="fill: #222222; stroke: #222222; stroke-width: 0.8"/>
      </g>
     </g>
     <g id="text_22">
      <!-- 50 -->
      <g style="fill: #222222" transform="translate(491.688636 266.301085) scale(0.1 -0.1)">
       <use xlink:href="#ArialMT-35"/>
       <use xlink:href="#ArialMT-30" transform="translate(55.615234 0)"/>
      </g>
     </g>
    </g>
    <g id="xtick_13">
     <g id="line2d_35">
      <g>
       <use xlink:href="#m37be8ed2ff" x="533.360729" y="252.443272" style="fill: #222222; stroke: #222222; stroke-width: 0.8"/>
      </g>
     </g>
     <g id="text_23">
      <!-- 75 -->
      <g style="fill: #222222" transform="translate(527.799791 266.301085) scale(0.1 -0.1)">
       <use xlink:href="#ArialMT-37"/>
       <use xlink:href="#ArialMT-35" transform="translate(55.615234 0)"/>
      </g>
     </g>
    </g>
    <g id="xtick_14">
     <g id="line2d_36">
      <g>
       <use xlink:href="#m37be8ed2ff" x="569.471884" y="252.443272" style="fill: #222222; stroke: #222222; stroke-width: 0.8"/>
      </g>
     </g>
     <g id="text_24">
      <!-- 100 -->
      <g style="fill: #222222" transform="translate(561.130478 266.301085) scale(0.1 -0.1)">
       <use xlink:href="#ArialMT-31"/>
       <use xlink:href="#ArialMT-30" transform="translate(55.615234 0)"/>
       <use xlink:href="#ArialMT-30" transform="translate(111.230469 0)"/>
      </g>
     </g>
    </g>
    <g id="xtick_15">
     <g id="line2d_37">
      <g>
       <use xlink:href="#m37be8ed2ff" x="605.58304" y="252.443272" style="fill: #222222; stroke: #222222; stroke-width: 0.8"/>
      </g>
     </g>
     <g id="text_25">
      <!-- 125 -->
      <g style="fill: #222222" transform="translate(597.241634 266.301085) scale(0.1 -0.1)">
       <use xlink:href="#ArialMT-31"/>
       <use xlink:href="#ArialMT-32" transform="translate(55.615234 0)"/>
       <use xlink:href="#ArialMT-35" transform="translate(111.230469 0)"/>
      </g>
     </g>
    </g>
    <g id="xtick_16">
     <g id="line2d_38">
      <g>
       <use xlink:href="#m37be8ed2ff" x="641.694195" y="252.443272" style="fill: #222222; stroke: #222222; stroke-width: 0.8"/>
      </g>
     </g>
     <g id="text_26">
      <!-- 150 -->
      <g style="fill: #222222" transform="translate(633.352789 266.301085) scale(0.1 -0.1)">
       <use xlink:href="#ArialMT-31"/>
       <use xlink:href="#ArialMT-35" transform="translate(55.615234 0)"/>
       <use xlink:href="#ArialMT-30" transform="translate(111.230469 0)"/>
      </g>
     </g>
    </g>
    <g id="xtick_17">
     <g id="line2d_39">
      <g>
       <use xlink:href="#m37be8ed2ff" x="677.805351" y="252.443272" style="fill: #222222; stroke: #222222; stroke-width: 0.8"/>
      </g>
     </g>
     <g id="text_27">
      <!-- 175 -->
      <g style="fill: #222222" transform="translate(669.463945 266.301085) scale(0.1 -0.1)">
       <use xlink:href="#ArialMT-31"/>
       <use xlink:href="#ArialMT-37" transform="translate(55.615234 0)"/>
       <use xlink:href="#ArialMT-35" transform="translate(111.230469 0)"/>
      </g>
     </g>
    </g>
    <g id="xtick_18">
     <g id="line2d_40">
      <g>
       <use xlink:href="#m37be8ed2ff" x="713.916506" y="252.443272" style="fill: #222222; stroke: #222222; stroke-width: 0.8"/>
      </g>
     </g>
     <g id="text_28">
      <!-- 200 -->
      <g style="fill: #222222" transform="translate(705.5751 266.301085) scale(0.1 -0.1)">
       <use xlink:href="#ArialMT-32"/>
       <use xlink:href="#ArialMT-30" transform="translate(55.615234 0)"/>
       <use xlink:href="#ArialMT-30" transform="translate(111.230469 0)"/>
      </g>
     </g>
    </g>
    <g id="text_29">
     <!-- Training step -->
     <g transform="translate(538.23525 283.305335) scale(0.112 -0.112)">
      <use xlink:href="#Arial-BoldMT-54"/>
      <use xlink:href="#Arial-BoldMT-72" transform="translate(55.583984 0)"/>
      <use xlink:href="#Arial-BoldMT-61" transform="translate(94.5 0)"/>
      <use xlink:href="#Arial-BoldMT-69" transform="translate(150.115234 0)"/>
      <use xlink:href="#Arial-BoldMT-6e" transform="translate(177.898438 0)"/>
      <use xlink:href="#Arial-BoldMT-69" transform="translate(238.982422 0)"/>
      <use xlink:href="#Arial-BoldMT-6e" transform="translate(266.765625 0)"/>
      <use xlink:href="#Arial-BoldMT-67" transform="translate(327.849609 0)"/>
      <use xlink:href="#Arial-BoldMT-20" transform="translate(388.933594 0)"/>
      <use xlink:href="#Arial-BoldMT-73" transform="translate(416.716797 0)"/>
      <use xlink:href="#Arial-BoldMT-74" transform="translate(472.332031 0)"/>
      <use xlink:href="#Arial-BoldMT-65" transform="translate(505.632812 0)"/>
      <use xlink:href="#Arial-BoldMT-70" transform="translate(561.248047 0)"/>
     </g>
    </g>
   </g>
   <g id="matplotlib.axis_4">
    <g id="ytick_8">
     <g id="line2d_41">
      <path d="M 418.166143 230.777267 
L 727.999857 230.777267 
" clip-path="url(#pb7d73ef7a4)" style="fill: none; stroke: #dddddd; stroke-opacity: 0.9; stroke-width: 0.8; stroke-linecap: square"/>
     </g>
     <g id="line2d_42">
      <g>
       <use xlink:href="#m2250e0360d" x="418.166143" y="230.777267" style="fill: #222222; stroke: #222222; stroke-width: 0.8"/>
      </g>
     </g>
     <g id="text_30">
      <!-- −0.04 -->
      <g style="fill: #222222" transform="translate(386.16458 234.356174) scale(0.1 -0.1)">
       <defs>
        <path id="ArialMT-2212" d="M 3381 1997 
L 356 1997 
L 356 2522 
L 3381 2522 
L 3381 1997 
z
" transform="scale(0.015625)"/>
        <path id="ArialMT-34" d="M 2069 0 
L 2069 1097 
L 81 1097 
L 81 1613 
L 2172 4581 
L 2631 4581 
L 2631 1613 
L 3250 1613 
L 3250 1097 
L 2631 1097 
L 2631 0 
L 2069 0 
z
M 2069 1613 
L 2069 3678 
L 634 1613 
L 2069 1613 
z
" transform="scale(0.015625)"/>
       </defs>
       <use xlink:href="#ArialMT-2212"/>
       <use xlink:href="#ArialMT-30" transform="translate(58.398438 0)"/>
       <use xlink:href="#ArialMT-2e" transform="translate(114.013672 0)"/>
       <use xlink:href="#ArialMT-30" transform="translate(141.796875 0)"/>
       <use xlink:href="#ArialMT-34" transform="translate(197.412109 0)"/>
      </g>
     </g>
    </g>
    <g id="ytick_9">
     <g id="line2d_43">
      <path d="M 418.166143 191.384526 
L 727.999857 191.384526 
" clip-path="url(#pb7d73ef7a4)" style="fill: none; stroke: #dddddd; stroke-opacity: 0.9; stroke-width: 0.8; stroke-linecap: square"/>
     </g>
     <g id="line2d_44">
      <g>
       <use xlink:href="#m2250e0360d" x="418.166143" y="191.384526" style="fill: #222222; stroke: #222222; stroke-width: 0.8"/>
      </g>
     </g>
     <g id="text_31">
      <!-- −0.02 -->
      <g style="fill: #222222" transform="translate(386.16458 194.963432) scale(0.1 -0.1)">
       <use xlink:href="#ArialMT-2212"/>
       <use xlink:href="#ArialMT-30" transform="translate(58.398438 0)"/>
       <use xlink:href="#ArialMT-2e" transform="translate(114.013672 0)"/>
       <use xlink:href="#ArialMT-30" transform="translate(141.796875 0)"/>
       <use xlink:href="#ArialMT-32" transform="translate(197.412109 0)"/>
      </g>
     </g>
    </g>
    <g id="ytick_10">
     <g id="line2d_45">
      <path d="M 418.166143 151.991785 
L 727.999857 151.991785 
" clip-path="url(#pb7d73ef7a4)" style="fill: none; stroke: #dddddd; stroke-opacity: 0.9; stroke-width: 0.8; stroke-linecap: square"/>
     </g>
     <g id="line2d_46">
      <g>
       <use xlink:href="#m2250e0360d" x="418.166143" y="151.991785" style="fill: #222222; stroke: #222222; stroke-width: 0.8"/>
      </g>
     </g>
     <g id="text_32">
      <!-- 0.00 -->
      <g style="fill: #222222" transform="translate(392.005205 155.570691) scale(0.1 -0.1)">
       <use xlink:href="#ArialMT-30"/>
       <use xlink:href="#ArialMT-2e" transform="translate(55.615234 0)"/>
       <use xlink:href="#ArialMT-30" transform="translate(83.398438 0)"/>
       <use xlink:href="#ArialMT-30" transform="translate(139.013672 0)"/>
      </g>
     </g>
    </g>
    <g id="ytick_11">
     <g id="line2d_47">
      <path d="M 418.166143 112.599044 
L 727.999857 112.599044 
" clip-path="url(#pb7d73ef7a4)" style="fill: none; stroke: #dddddd; stroke-opacity: 0.9; stroke-width: 0.8; stroke-linecap: square"/>
     </g>
     <g id="line2d_48">
      <g>
       <use xlink:href="#m2250e0360d" x="418.166143" y="112.599044" style="fill: #222222; stroke: #222222; stroke-width: 0.8"/>
      </g>
     </g>
     <g id="text_33">
      <!-- 0.02 -->
      <g style="fill: #222222" transform="translate(392.005205 116.17795) scale(0.1 -0.1)">
       <use xlink:href="#ArialMT-30"/>
       <use xlink:href="#ArialMT-2e" transform="translate(55.615234 0)"/>
       <use xlink:href="#ArialMT-30" transform="translate(83.398438 0)"/>
       <use xlink:href="#ArialMT-32" transform="translate(139.013672 0)"/>
      </g>
     </g>
    </g>
    <g id="ytick_12">
     <g id="line2d_49">
      <path d="M 418.166143 73.206302 
L 727.999857 73.206302 
" clip-path="url(#pb7d73ef7a4)" style="fill: none; stroke: #dddddd; stroke-opacity: 0.9; stroke-width: 0.8; stroke-linecap: square"/>
     </g>
     <g id="line2d_50">
      <g>
       <use xlink:href="#m2250e0360d" x="418.166143" y="73.206302" style="fill: #222222; stroke: #222222; stroke-width: 0.8"/>
      </g>
     </g>
     <g id="text_34">
      <!-- 0.04 -->
      <g style="fill: #222222" transform="translate(392.005205 76.785209) scale(0.1 -0.1)">
       <use xlink:href="#ArialMT-30"/>
       <use xlink:href="#ArialMT-2e" transform="translate(55.615234 0)"/>
       <use xlink:href="#ArialMT-30" transform="translate(83.398438 0)"/>
       <use xlink:href="#ArialMT-34" transform="translate(139.013672 0)"/>
      </g>
     </g>
    </g>
    <g id="ytick_13">
     <g id="line2d_51">
      <path d="M 418.166143 33.813561 
L 727.999857 33.813561 
" clip-path="url(#pb7d73ef7a4)" style="fill: none; stroke: #dddddd; stroke-opacity: 0.9; stroke-width: 0.8; stroke-linecap: square"/>
     </g>
     <g id="line2d_52">
      <g>
       <use xlink:href="#m2250e0360d" x="418.166143" y="33.813561" style="fill: #222222; stroke: #222222; stroke-width: 0.8"/>
      </g>
     </g>
     <g id="text_35">
      <!-- 0.06 -->
      <g style="fill: #222222" transform="translate(392.005205 37.392467) scale(0.1 -0.1)">
       <use xlink:href="#ArialMT-30"/>
       <use xlink:href="#ArialMT-2e" transform="translate(55.615234 0)"/>
       <use xlink:href="#ArialMT-30" transform="translate(83.398438 0)"/>
       <use xlink:href="#ArialMT-36" transform="translate(139.013672 0)"/>
      </g>
     </g>
    </g>
    <g id="text_36">
     <!-- loss -->
     <g transform="translate(376.95433 148.817808) rotate(-90) scale(0.112 -0.112)">
      <defs>
       <path id="Arial-BoldMT-6c" d="M 459 0 
L 459 4581 
L 1338 4581 
L 1338 0 
L 459 0 
z
" transform="scale(0.015625)"/>
       <path id="Arial-BoldMT-6f" d="M 256 1706 
Q 256 2144 472 2553 
Q 688 2963 1083 3178 
Q 1478 3394 1966 3394 
Q 2719 3394 3200 2905 
Q 3681 2416 3681 1669 
Q 3681 916 3195 420 
Q 2709 -75 1972 -75 
Q 1516 -75 1102 131 
Q 688 338 472 736 
Q 256 1134 256 1706 
z
M 1156 1659 
Q 1156 1166 1390 903 
Q 1625 641 1969 641 
Q 2313 641 2545 903 
Q 2778 1166 2778 1666 
Q 2778 2153 2545 2415 
Q 2313 2678 1969 2678 
Q 1625 2678 1390 2415 
Q 1156 2153 1156 1659 
z
" transform="scale(0.015625)"/>
      </defs>
      <use xlink:href="#Arial-BoldMT-6c"/>
      <use xlink:href="#Arial-BoldMT-6f" transform="translate(27.783203 0)"/>
      <use xlink:href="#Arial-BoldMT-73" transform="translate(88.867188 0)"/>
      <use xlink:href="#Arial-BoldMT-73" transform="translate(144.482422 0)"/>
     </g>
    </g>
   </g>
   <g id="line2d_53">
    <path d="M 432.249494 84.433235 
L 439.471725 69.660956 
L 446.693956 108.265843 
L 453.916187 72.024517 
L 461.138418 124.416865 
L 468.360649 112.599045 
L 475.58288 116.341352 
L 482.805111 92.902674 
L 490.027342 142.734491 
L 497.249573 85.024121 
L 504.471805 58.434026 
L 511.694036 89.160363 
L 518.916267 109.053696 
L 526.138498 162.430861 
L 533.360729 79.509139 
L 540.58296 105.902279 
L 547.805191 91.13 
L 555.027422 126.189539 
L 562.249653 186.066507 
L 569.471884 149.037329 
L 576.694116 125.598649 
L 583.916347 174.051719 
L 591.138578 152.188749 
L 598.360809 90.342143 
L 605.58304 153.370531 
L 612.805271 147.658583 
L 620.027502 145.098055 
L 627.249733 181.339377 
L 634.471964 75.569865 
L 641.694195 92.705711 
L 648.916427 127.76525 
L 656.138658 137.810398 
L 663.360889 110.432444 
L 670.58312 122.053301 
L 677.805351 93.887491 
L 685.027582 184.293833 
L 692.249813 169.127628 
L 699.472044 106.887096 
L 706.694275 117.523136 
L 713.916506 60.2067 
" clip-path="url(#pb7d73ef7a4)" style="fill: none; stroke: #b23b7e; stroke-opacity: 0.16; stroke-width: 0.8; stroke-linecap: square"/>
   </g>
   <g id="line2d_54">
    <path d="M 432.249494 160.461224 
L 439.471725 52.919044 
L 446.693956 96.054092 
L 453.916187 110.432444 
L 461.138418 149.234293 
L 468.360649 111.811187 
L 475.58288 122.841156 
L 482.805111 111.614224 
L 490.027342 242.004196 
L 497.249573 99.008546 
L 504.471805 106.690132 
L 511.694036 142.1436 
L 518.916267 47.797982 
L 526.138498 76.160758 
L 533.360729 128.553103 
L 540.58296 103.144784 
L 547.805191 182.718122 
L 555.027422 89.160363 
L 562.249653 44.055674 
L 569.471884 98.220693 
L 576.694116 164.991389 
L 583.916347 160.855151 
L 591.138578 156.52195 
L 598.360809 158.885515 
L 605.58304 142.340563 
L 612.805271 82.85752 
L 620.027502 81.47878 
L 627.249733 122.841156 
L 634.471964 136.431653 
L 641.694195 119.29581 
L 648.916427 75.963791 
L 656.138658 174.642611 
L 663.360889 134.462015 
L 670.58312 161.446043 
L 677.805351 104.720495 
L 685.027582 121.462411 
L 692.249813 115.356535 
L 699.472044 70.645777 
L 706.694275 46.813168 
L 713.916506 164.597462 
" clip-path="url(#pb7d73ef7a4)" style="fill: none; stroke: #7b5ea8; stroke-opacity: 0.16; stroke-width: 0.8; stroke-linecap: square"/>
   </g>
   <g id="line2d_55">
    <path d="M 432.249494 127.76525 
L 439.471725 70.44881 
L 446.693956 91.72089 
L 453.916187 147.264656 
L 461.138418 170.506373 
L 468.360649 88.569469 
L 475.58288 79.31218 
L 482.805111 99.993367 
L 490.027342 90.53911 
L 497.249573 164.203535 
L 504.471805 132.689341 
L 511.694036 150.416075 
L 518.916267 74.388084 
L 526.138498 98.023729 
L 533.360729 88.963396 
L 540.58296 102.159967 
L 547.805191 162.233898 
L 555.027422 128.35614 
L 562.249653 111.417261 
L 569.471884 147.264656 
L 576.694116 136.037724 
L 583.916347 145.491983 
L 591.138578 66.903462 
L 598.360809 181.339377 
L 605.58304 138.204325 
L 612.805271 33.22267 
L 620.027502 98.417656 
L 627.249733 180.94545 
L 634.471964 107.084059 
L 641.694195 164.991389 
L 648.916427 68.479176 
L 656.138658 182.915086 
L 663.360889 125.401684 
L 670.58312 140.370926 
L 677.805351 129.537922 
L 685.027582 148.840366 
L 692.249813 166.961027 
L 699.472044 151.794821 
L 706.694275 105.705315 
L 713.916506 48.585842 
" clip-path="url(#pb7d73ef7a4)" style="fill: none; stroke: #be7c1e; stroke-opacity: 0.16; stroke-width: 0.8; stroke-linecap: square"/>
   </g>
   <g id="line2d_56">
    <path d="M 432.249494 185.67258 
L 439.471725 119.492774 
L 446.693956 120.083664 
L 453.916187 137.219507 
L 461.138418 182.127232 
L 468.360649 139.583071 
L 475.58288 108.462806 
L 482.805111 111.811187 
L 490.027342 128.553103 
L 497.249573 172.279047 
L 504.471805 164.400498 
L 511.694036 166.961027 
L 518.916267 88.175542 
L 526.138498 126.386503 
L 533.360729 130.325777 
L 540.58296 46.419242 
L 547.805191 133.477197 
L 555.027422 74.978978 
L 562.249653 82.463594 
L 569.471884 153.764458 
L 576.694116 156.128023 
L 583.916347 165.188353 
L 591.138578 126.583466 
L 598.360809 65.721681 
L 605.58304 184.293833 
L 612.805271 69.463989 
L 620.027502 156.52195 
L 627.249733 185.27865 
L 634.471964 146.279837 
L 641.694195 93.690528 
L 648.916427 144.704128 
L 656.138658 74.782011 
L 663.360889 133.280233 
L 670.58312 78.327359 
L 677.805351 68.479176 
L 685.027582 192.763272 
L 692.249813 104.720495 
L 699.472044 114.962609 
L 706.694275 61.979374 
L 713.916506 125.007757 
" clip-path="url(#pb7d73ef7a4)" style="fill: none; stroke: #3e8c82; stroke-opacity: 0.16; stroke-width: 0.8; stroke-linecap: square"/>
   </g>
   <g id="patch_6">
    <path d="M 418.166143 252.443272 
L 418.166143 22.783594 
" style="fill: none; stroke: #444444; stroke-linejoin: miter; stroke-linecap: square"/>
   </g>
   <g id="patch_7">
    <path d="M 418.166143 252.443272 
L 727.999857 252.443272 
" style="fill: none; stroke: #444444; stroke-linejoin: miter; stroke-linecap: square"/>
   </g>
   <g id="line2d_57">
    <path d="M 432.249494 84.433235 
L 439.471725 81.774225 
L 446.693956 86.542716 
L 453.916187 83.92944 
L 461.138418 91.217177 
L 468.360649 95.065913 
L 475.58288 98.895492 
L 482.805111 97.816785 
L 490.027342 105.901972 
L 497.249573 102.143959 
L 504.471805 94.276171 
L 511.694036 93.355325 
L 518.916267 96.181032 
L 526.138498 108.106001 
L 533.360729 102.958566 
L 540.58296 103.488434 
L 547.805191 101.263916 
L 555.027422 105.750528 
L 562.249653 120.207405 
L 569.471884 125.396791 
L 576.694116 125.433125 
L 583.916347 134.184472 
L 591.138578 137.425242 
L 598.360809 128.950284 
L 605.58304 133.345929 
L 612.805271 135.922206 
L 620.027502 137.573859 
L 627.249733 145.451652 
L 634.471964 132.872931 
L 641.694195 125.642831 
L 648.916427 126.024866 
L 656.138658 128.146262 
L 663.360889 124.957775 
L 670.58312 124.43497 
L 677.805351 118.936423 
L 685.027582 130.700757 
L 692.249813 137.617594 
L 699.472044 132.086104 
L 706.694275 129.46477 
L 713.916506 116.998317 
" clip-path="url(#pb7d73ef7a4)" style="fill: none; stroke: #b23b7e; stroke-width: 2; stroke-linecap: square"/>
   </g>
   <g id="line2d_58">
    <path d="M 432.249494 160.461224 
L 439.471725 141.103632 
L 446.693956 132.994715 
L 453.916187 128.933506 
L 461.138418 132.587648 
L 468.360649 128.847885 
L 475.58288 127.766674 
L 482.805111 124.859233 
L 490.027342 145.945326 
L 497.249573 137.496706 
L 504.471805 131.951523 
L 511.694036 133.786096 
L 518.916267 118.308236 
L 526.138498 110.72169 
L 533.360729 113.931344 
L 540.58296 111.989763 
L 547.805191 124.720868 
L 555.027422 118.319977 
L 562.249653 104.952403 
L 569.471884 103.740695 
L 576.694116 114.76582 
L 583.916347 123.061899 
L 591.138578 129.084709 
L 598.360809 134.448854 
L 605.58304 135.869361 
L 612.805271 126.32723 
L 620.027502 118.254509 
L 627.249733 119.080106 
L 634.471964 122.203384 
L 641.694195 121.680021 
L 648.916427 113.451099 
L 656.138658 124.465572 
L 663.360889 126.264931 
L 670.58312 132.597532 
L 677.805351 127.579665 
L 685.027582 126.478559 
L 692.249813 124.476595 
L 699.472044 114.787048 
L 706.694275 102.551749 
L 713.916506 113.719978 
" clip-path="url(#pb7d73ef7a4)" style="fill: none; stroke: #7b5ea8; stroke-width: 2; stroke-linecap: square"/>
   </g>
   <g id="line2d_59">
    <path d="M 432.249494 127.76525 
L 439.471725 117.448291 
L 446.693956 112.817359 
L 453.916187 119.017872 
L 461.138418 128.285802 
L 468.360649 121.136862 
L 475.58288 113.608419 
L 482.805111 111.15771 
L 490.027342 107.446362 
L 497.249573 117.662653 
L 504.471805 120.367457 
L 511.694036 125.776208 
L 518.916267 116.526346 
L 526.138498 113.195875 
L 533.360729 108.834029 
L 540.58296 107.632698 
L 547.805191 117.460914 
L 555.027422 119.422054 
L 562.249653 117.981192 
L 569.471884 123.252215 
L 576.694116 125.553607 
L 583.916347 129.142514 
L 591.138578 117.939485 
L 598.360809 129.351465 
L 605.58304 130.94498 
L 612.805271 113.354964 
L 620.027502 110.666249 
L 627.249733 123.316505 
L 634.471964 120.394665 
L 641.694195 128.422075 
L 648.916427 117.632353 
L 656.138658 129.383245 
L 663.360889 128.666564 
L 670.58312 130.773349 
L 677.805351 130.550972 
L 685.027582 133.843063 
L 692.249813 139.804297 
L 699.472044 141.962591 
L 706.694275 135.436281 
L 713.916506 119.803202 
" clip-path="url(#pb7d73ef7a4)" style="fill: none; stroke: #be7c1e; stroke-width: 2; stroke-linecap: square"/>
   </g>
   <g id="line2d_60">
    <path d="M 432.249494 185.67258 
L 439.471725 173.760215 
L 446.693956 164.098436 
L 453.916187 159.260229 
L 461.138418 163.376289 
L 468.360649 159.09351 
L 475.58288 149.979983 
L 482.805111 143.1096 
L 490.027342 140.489431 
L 497.249573 146.211562 
L 504.471805 149.48557 
L 511.694036 152.631152 
L 518.916267 141.029143 
L 526.138498 138.393467 
L 533.360729 136.941283 
L 540.58296 120.647316 
L 547.805191 122.956694 
L 555.027422 114.320705 
L 562.249653 108.586425 
L 569.471884 116.718471 
L 576.694116 123.81219 
L 583.916347 131.2599 
L 591.138578 130.418142 
L 598.360809 118.772779 
L 605.58304 130.566568 
L 612.805271 119.568104 
L 620.027502 126.219796 
L 627.249733 136.85039 
L 634.471964 138.547691 
L 641.694195 130.473401 
L 648.916427 133.034932 
L 656.138658 122.549406 
L 663.360889 124.480955 
L 670.58312 116.173308 
L 677.805351 107.588364 
L 685.027582 122.919848 
L 692.249813 119.643964 
L 699.472044 118.80132 
L 706.694275 108.57337 
L 713.916506 111.531559 
" clip-path="url(#pb7d73ef7a4)" style="fill: none; stroke: #3e8c82; stroke-width: 2; stroke-linecap: square"/>
   </g>
   <g id="text_37">
    <!-- (b)  Training loss -->
    <g transform="translate(521.083 13.783594) scale(0.13 -0.13)">
     <defs>
      <path id="Arial-BoldMT-62" d="M 422 0 
L 422 4581 
L 1300 4581 
L 1300 2931 
Q 1706 3394 2263 3394 
Q 2869 3394 3266 2955 
Q 3663 2516 3663 1694 
Q 3663 844 3258 384 
Q 2853 -75 2275 -75 
Q 1991 -75 1714 67 
Q 1438 209 1238 488 
L 1238 0 
L 422 0 
z
M 1294 1731 
Q 1294 1216 1456 969 
Q 1684 619 2063 619 
Q 2353 619 2558 867 
Q 2763 1116 2763 1650 
Q 2763 2219 2556 2470 
Q 2350 2722 2028 2722 
Q 1713 2722 1503 2476 
Q 1294 2231 1294 1731 
z
" transform="scale(0.015625)"/>
     </defs>
     <use xlink:href="#Arial-BoldMT-28"/>
     <use xlink:href="#Arial-BoldMT-62" transform="translate(33.300781 0)"/>
     <use xlink:href="#Arial-BoldMT-29" transform="translate(94.384766 0)"/>
     <use xlink:href="#Arial-BoldMT-20" transform="translate(127.685547 0)"/>
     <use xlink:href="#Arial-BoldMT-20" transform="translate(155.46875 0)"/>
     <use xlink:href="#Arial-BoldMT-54" transform="translate(183.251953 0)"/>
     <use xlink:href="#Arial-BoldMT-72" transform="translate(238.835938 0)"/>
     <use xlink:href="#Arial-BoldMT-61" transform="translate(277.751953 0)"/>
     <use xlink:href="#Arial-BoldMT-69" transform="translate(333.367188 0)"/>
     <use xlink:href="#Arial-BoldMT-6e" transform="translate(361.150391 0)"/>
     <use xlink:href="#Arial-BoldMT-69" transform="translate(422.234375 0)"/>
     <use xlink:href="#Arial-BoldMT-6e" transform="translate(450.017578 0)"/>
     <use xlink:href="#Arial-BoldMT-67" transform="translate(511.101562 0)"/>
     <use xlink:href="#Arial-BoldMT-20" transform="translate(572.185547 0)"/>
     <use xlink:href="#Arial-BoldMT-6c" transform="translate(599.96875 0)"/>
     <use xlink:href="#Arial-BoldMT-6f" transform="translate(627.751953 0)"/>
     <use xlink:href="#Arial-BoldMT-73" transform="translate(688.835938 0)"/>
     <use xlink:href="#Arial-BoldMT-73" transform="translate(744.451172 0)"/>
    </g>
   </g>
  </g>
  <g id="axes_3">
   <g id="patch_8">
    <path d="M 794.185286 252.443272 
L 1104.019 252.443272 
L 1104.019 22.783594 
L 794.185286 22.783594 
z
" style="fill: #ffffff"/>
   </g>
   <g id="matplotlib.axis_5">
    <g id="xtick_19">
     <g id="line2d_61">
      <g>
       <use xlink:href="#m37be8ed2ff" x="801.046405" y="252.443272" style="fill: #222222; stroke: #222222; stroke-width: 0.8"/>
      </g>
     </g>
     <g id="text_38">
      <!-- 0 -->
      <g style="fill: #222222" transform="translate(798.265937 266.301085) scale(0.1 -0.1)">
       <use xlink:href="#ArialMT-30"/>
      </g>
     </g>
    </g>
    <g id="xtick_20">
     <g id="line2d_62">
      <g>
       <use xlink:href="#m37be8ed2ff" x="837.157561" y="252.443272" style="fill: #222222; stroke: #222222; stroke-width: 0.8"/>
      </g>
     </g>
     <g id="text_39">
      <!-- 25 -->
      <g style="fill: #222222" transform="translate(831.596623 266.301085) scale(0.1 -0.1)">
       <use xlink:href="#ArialMT-32"/>
       <use xlink:href="#ArialMT-35" transform="translate(55.615234 0)"/>
      </g>
     </g>
    </g>
    <g id="xtick_21">
     <g id="line2d_63">
      <g>
       <use xlink:href="#m37be8ed2ff" x="873.268716" y="252.443272" style="fill: #222222; stroke: #222222; stroke-width: 0.8"/>
      </g>
     </g>
     <g id="text_40">
      <!-- 50 -->
      <g style="fill: #222222" transform="translate(867.707779 266.301085) scale(0.1 -0.1)">
       <use xlink:href="#ArialMT-35"/>
       <use xlink:href="#ArialMT-30" transform="translate(55.615234 0)"/>
      </g>
     </g>
    </g>
    <g id="xtick_22">
     <g id="line2d_64">
      <g>
       <use xlink:href="#m37be8ed2ff" x="909.379872" y="252.443272" style="fill: #222222; stroke: #222222; stroke-width: 0.8"/>
      </g>
     </g>
     <g id="text_41">
      <!-- 75 -->
      <g style="fill: #222222" transform="translate(903.818934 266.301085) scale(0.1 -0.1)">
       <use xlink:href="#ArialMT-37"/>
       <use xlink:href="#ArialMT-35" transform="translate(55.615234 0)"/>
      </g>
     </g>
    </g>
    <g id="xtick_23">
     <g id="line2d_65">
      <g>
       <use xlink:href="#m37be8ed2ff" x="945.491027" y="252.443272" style="fill: #222222; stroke: #222222; stroke-width: 0.8"/>
      </g>
     </g>
     <g id="text_42">
      <!-- 100 -->
      <g style="fill: #222222" transform="translate(937.149621 266.301085) scale(0.1 -0.1)">
       <use xlink:href="#ArialMT-31"/>
       <use xlink:href="#ArialMT-30" transform="translate(55.615234 0)"/>
       <use xlink:href="#ArialMT-30" transform="translate(111.230469 0)"/>
      </g>
     </g>
    </g>
    <g id="xtick_24">
     <g id="line2d_66">
      <g>
       <use xlink:href="#m37be8ed2ff" x="981.602183" y="252.443272" style="fill: #222222; stroke: #222222; stroke-width: 0.8"/>
      </g>
     </g>
     <g id="text_43">
      <!-- 125 -->
      <g style="fill: #222222" transform="translate(973.260777 266.301085) scale(0.1 -0.1)">
       <use xlink:href="#ArialMT-31"/>
       <use xlink:href="#ArialMT-32" transform="translate(55.615234 0)"/>
       <use xlink:href="#ArialMT-35" transform="translate(111.230469 0)"/>
      </g>
     </g>
    </g>
    <g id="xtick_25">
     <g id="line2d_67">
      <g>
       <use xlink:href="#m37be8ed2ff" x="1017.713338" y="252.443272" style="fill: #222222; stroke: #222222; stroke-width: 0.8"/>
      </g>
     </g>
     <g id="text_44">
      <!-- 150 -->
      <g style="fill: #222222" transform="translate(1009.371932 266.301085) scale(0.1 -0.1)">
       <use xlink:href="#ArialMT-31"/>
       <use xlink:href="#ArialMT-35" transform="translate(55.615234 0)"/>
       <use xlink:href="#ArialMT-30" transform="translate(111.230469 0)"/>
      </g>
     </g>
    </g>
    <g id="xtick_26">
     <g id="line2d_68">
      <g>
       <use xlink:href="#m37be8ed2ff" x="1053.824494" y="252.443272" style="fill: #222222; stroke: #222222; stroke-width: 0.8"/>
      </g>
     </g>
     <g id="text_45">
      <!-- 175 -->
      <g style="fill: #222222" transform="translate(1045.483088 266.301085) scale(0.1 -0.1)">
       <use xlink:href="#ArialMT-31"/>
       <use xlink:href="#ArialMT-37" transform="translate(55.615234 0)"/>
       <use xlink:href="#ArialMT-35" transform="translate(111.230469 0)"/>
      </g>
     </g>
    </g>
    <g id="xtick_27">
     <g id="line2d_69">
      <g>
       <use xlink:href="#m37be8ed2ff" x="1089.935649" y="252.443272" style="fill: #222222; stroke: #222222; stroke-width: 0.8"/>
      </g>
     </g>
     <g id="text_46">
      <!-- 200 -->
      <g style="fill: #222222" transform="translate(1081.594243 266.301085) scale(0.1 -0.1)">
       <use xlink:href="#ArialMT-32"/>
       <use xlink:href="#ArialMT-30" transform="translate(55.615234 0)"/>
       <use xlink:href="#ArialMT-30" transform="translate(111.230469 0)"/>
      </g>
     </g>
    </g>
    <g id="text_47">
     <!-- Training step -->
     <g transform="translate(914.254393 283.305335) scale(0.112 -0.112)">
      <use xlink:href="#Arial-BoldMT-54"/>
      <use xlink:href="#Arial-BoldMT-72" transform="translate(55.583984 0)"/>
      <use xlink:href="#Arial-BoldMT-61" transform="translate(94.5 0)"/>
      <use xlink:href="#Arial-BoldMT-69" transform="translate(150.115234 0)"/>
      <use xlink:href="#Arial-BoldMT-6e" transform="translate(177.898438 0)"/>
      <use xlink:href="#Arial-BoldMT-69" transform="translate(238.982422 0)"/>
      <use xlink:href="#Arial-BoldMT-6e" transform="translate(266.765625 0)"/>
      <use xlink:href="#Arial-BoldMT-67" transform="translate(327.849609 0)"/>
      <use xlink:href="#Arial-BoldMT-20" transform="translate(388.933594 0)"/>
      <use xlink:href="#Arial-BoldMT-73" transform="translate(416.716797 0)"/>
      <use xlink:href="#Arial-BoldMT-74" transform="translate(472.332031 0)"/>
      <use xlink:href="#Arial-BoldMT-65" transform="translate(505.632812 0)"/>
      <use xlink:href="#Arial-BoldMT-70" transform="translate(561.248047 0)"/>
     </g>
    </g>
   </g>
   <g id="matplotlib.axis_6">
    <g id="ytick_14">
     <g id="line2d_70">
      <path d="M 794.185286 247.858037 
L 1104.019 247.858037 
" clip-path="url(#pd921b045ff)" style="fill: none; stroke: #dddddd; stroke-opacity: 0.9; stroke-width: 0.8; stroke-linecap: square"/>
     </g>
     <g id="line2d_71">
      <g>
       <use xlink:href="#m2250e0360d" x="794.185286" y="247.858037" style="fill: #222222; stroke: #222222; stroke-width: 0.8"/>
      </g>
     </g>
     <g id="text_48">
      <!-- 0.0002 -->
      <g style="fill: #222222" transform="translate(756.902473 251.436943) scale(0.1 -0.1)">
       <use xlink:href="#ArialMT-30"/>
       <use xlink:href="#ArialMT-2e" transform="translate(55.615234 0)"/>
       <use xlink:href="#ArialMT-30" transform="translate(83.398438 0)"/>
       <use xlink:href="#ArialMT-30" transform="translate(139.013672 0)"/>
       <use xlink:href="#ArialMT-30" transform="translate(194.628906 0)"/>
       <use xlink:href="#ArialMT-32" transform="translate(250.244141 0)"/>
      </g>
     </g>
    </g>
    <g id="ytick_15">
     <g id="line2d_72">
      <path d="M 794.185286 204.191072 
L 1104.019 204.191072 
" clip-path="url(#pd921b045ff)" style="fill: none; stroke: #dddddd; stroke-opacity: 0.9; stroke-width: 0.8; stroke-linecap: square"/>
     </g>
     <g id="line2d_73">
      <g>
       <use xlink:href="#m2250e0360d" x="794.185286" y="204.191072" style="fill: #222222; stroke: #222222; stroke-width: 0.8"/>
      </g>
     </g>
     <g id="text_49">
      <!-- 0.0004 -->
      <g style="fill: #222222" transform="translate(756.902473 207.769978) scale(0.1 -0.1)">
       <use xlink:href="#ArialMT-30"/>
       <use xlink:href="#ArialMT-2e" transform="translate(55.615234 0)"/>
       <use xlink:href="#ArialMT-30" transform="translate(83.398438 0)"/>
       <use xlink:href="#ArialMT-30" transform="translate(139.013672 0)"/>
       <use xlink:href="#ArialMT-30" transform="translate(194.628906 0)"/>
       <use xlink:href="#ArialMT-34" transform="translate(250.244141 0)"/>
      </g>
     </g>
    </g>
    <g id="ytick_16">
     <g id="line2d_74">
      <path d="M 794.185286 160.524108 
L 1104.019 160.524108 
" clip-path="url(#pd921b045ff)" style="fill: none; stroke: #dddddd; stroke-opacity: 0.9; stroke-width: 0.8; stroke-linecap: square"/>
     </g>
     <g id="line2d_75">
      <g>
       <use xlink:href="#m2250e0360d" x="794.185286" y="160.524108" style="fill: #222222; stroke: #222222; stroke-width: 0.8"/>
      </g>
     </g>
     <g id="text_50">
      <!-- 0.0006 -->
      <g style="fill: #222222" transform="translate(756.902473 164.103014) scale(0.1 -0.1)">
       <use xlink:href="#ArialMT-30"/>
       <use xlink:href="#ArialMT-2e" transform="translate(55.615234 0)"/>
       <use xlink:href="#ArialMT-30" transform="translate(83.398438 0)"/>
       <use xlink:href="#ArialMT-30" transform="translate(139.013672 0)"/>
       <use xlink:href="#ArialMT-30" transform="translate(194.628906 0)"/>
       <use xlink:href="#ArialMT-36" transform="translate(250.244141 0)"/>
      </g>
     </g>
    </g>
    <g id="ytick_17">
     <g id="line2d_76">
      <path d="M 794.185286 116.857143 
L 1104.019 116.857143 
" clip-path="url(#pd921b045ff)" style="fill: none; stroke: #dddddd; stroke-opacity: 0.9; stroke-width: 0.8; stroke-linecap: square"/>
     </g>
     <g id="line2d_77">
      <g>
       <use xlink:href="#m2250e0360d" x="794.185286" y="116.857143" style="fill: #222222; stroke: #222222; stroke-width: 0.8"/>
      </g>
     </g>
     <g id="text_51">
      <!-- 0.0008 -->
      <g style="fill: #222222" transform="translate(756.902473 120.436049) scale(0.1 -0.1)">
       <use xlink:href="#ArialMT-30"/>
       <use xlink:href="#ArialMT-2e" transform="translate(55.615234 0)"/>
       <use xlink:href="#ArialMT-30" transform="translate(83.398438 0)"/>
       <use xlink:href="#ArialMT-30" transform="translate(139.013672 0)"/>
       <use xlink:href="#ArialMT-30" transform="translate(194.628906 0)"/>
       <use xlink:href="#ArialMT-38" transform="translate(250.244141 0)"/>
      </g>
     </g>
    </g>
    <g id="ytick_18">
     <g id="line2d_78">
      <path d="M 794.185286 73.190178 
L 1104.019 73.190178 
" clip-path="url(#pd921b045ff)" style="fill: none; stroke: #dddddd; stroke-opacity: 0.9; stroke-width: 0.8; stroke-linecap: square"/>
     </g>
     <g id="line2d_79">
      <g>
       <use xlink:href="#m2250e0360d" x="794.185286" y="73.190178" style="fill: #222222; stroke: #222222; stroke-width: 0.8"/>
      </g>
     </g>
     <g id="text_52">
      <!-- 0.0010 -->
      <g style="fill: #222222" transform="translate(756.902473 76.769084) scale(0.1 -0.1)">
       <use xlink:href="#ArialMT-30"/>
       <use xlink:href="#ArialMT-2e" transform="translate(55.615234 0)"/>
       <use xlink:href="#ArialMT-30" transform="translate(83.398438 0)"/>
       <use xlink:href="#ArialMT-30" transform="translate(139.013672 0)"/>
       <use xlink:href="#ArialMT-31" transform="translate(194.628906 0)"/>
       <use xlink:href="#ArialMT-30" transform="translate(250.244141 0)"/>
      </g>
     </g>
    </g>
    <g id="ytick_19">
     <g id="line2d_80">
      <path d="M 794.185286 29.523213 
L 1104.019 29.523213 
" clip-path="url(#pd921b045ff)" style="fill: none; stroke: #dddddd; stroke-opacity: 0.9; stroke-width: 0.8; stroke-linecap: square"/>
     </g>
     <g id="line2d_81">
      <g>
       <use xlink:href="#m2250e0360d" x="794.185286" y="29.523213" style="fill: #222222; stroke: #222222; stroke-width: 0.8"/>
      </g>
     </g>
     <g id="text_53">
      <!-- 0.0012 -->
      <g style="fill: #222222" transform="translate(756.902473 33.10212) scale(0.1 -0.1)">
       <use xlink:href="#ArialMT-30"/>
       <use xlink:href="#ArialMT-2e" transform="translate(55.615234 0)"/>
       <use xlink:href="#ArialMT-30" transform="translate(83.398438 0)"/>
       <use xlink:href="#ArialMT-30" transform="translate(139.013672 0)"/>
       <use xlink:href="#ArialMT-31" transform="translate(194.628906 0)"/>
       <use xlink:href="#ArialMT-32" transform="translate(250.244141 0)"/>
      </g>
     </g>
    </g>
    <g id="text_54">
     <!-- kl -->
     <g transform="translate(747.692223 142.283308) rotate(-90) scale(0.112 -0.112)">
      <defs>
       <path id="Arial-BoldMT-6b" d="M 428 0 
L 428 4581 
L 1306 4581 
L 1306 2150 
L 2334 3319 
L 3416 3319 
L 2281 2106 
L 3497 0 
L 2550 0 
L 1716 1491 
L 1306 1063 
L 1306 0 
L 428 0 
z
" transform="scale(0.015625)"/>
      </defs>
      <use xlink:href="#Arial-BoldMT-6b"/>
      <use xlink:href="#Arial-BoldMT-6c" transform="translate(55.615234 0)"/>
     </g>
    </g>
   </g>
   <g id="line2d_82">
    <path d="M 808.268636 242.004196 
L 815.490867 209.252007 
L 822.713099 212.386604 
L 829.93533 224.365277 
L 837.157561 205.831521 
L 844.379792 181.805376 
L 851.602023 197.019579 
L 858.824254 196.866533 
L 866.046485 179.052901 
L 873.268716 156.313181 
L 880.490947 146.46557 
L 887.713178 142.116963 
L 894.93541 134.528474 
L 902.157641 146.926415 
L 909.379872 165.266324 
L 916.602103 178.512537 
L 923.824334 147.854866 
L 931.046565 81.241701 
L 938.268796 136.476879 
L 945.491027 144.499118 
L 952.713258 137.527805 
L 959.93549 33.22267 
L 967.157721 152.345621 
L 974.379952 129.351357 
L 981.602183 116.120814 
L 988.824414 128.453471 
L 996.046645 84.536815 
L 1003.268876 102.802085 
L 1010.491107 64.629929 
L 1017.713338 119.419691 
L 1024.935569 53.228672 
L 1032.157801 121.990457 
L 1039.380032 85.251073 
L 1046.602263 93.996237 
L 1053.824494 33.337227 
L 1061.046725 82.858204 
L 1068.268956 85.782693 
L 1075.491187 132.056137 
L 1082.713418 112.798948 
L 1089.935649 150.43083 
" clip-path="url(#pd921b045ff)" style="fill: none; stroke: #b23b7e; stroke-opacity: 0.16; stroke-width: 0.8; stroke-linecap: square"/>
   </g>
   <g id="line2d_83">
    <path d="M 808.268636 213.748297 
L 815.490867 176.276405 
L 822.713099 184.262857 
L 829.93533 204.389445 
L 837.157561 190.208389 
L 844.379792 194.389412 
L 851.602023 202.366611 
L 858.824254 183.886525 
L 866.046485 186.115921 
L 873.268716 190.574331 
L 880.490947 188.147804 
L 887.713178 180.288306 
L 894.93541 193.329501 
L 902.157641 179.355166 
L 909.379872 179.666988 
L 916.602103 205.455596 
L 923.824334 183.607656 
L 931.046565 173.893881 
L 938.268796 185.831505 
L 945.491027 185.631399 
L 952.713258 192.631174 
L 959.93549 191.067838 
L 967.157721 198.044877 
L 974.379952 182.517118 
L 981.602183 185.633935 
L 988.824414 181.267732 
L 996.046645 167.811228 
L 1003.268876 200.672337 
L 1010.491107 180.24943 
L 1017.713338 182.587156 
L 1024.935569 176.472209 
L 1032.157801 180.809798 
L 1039.380032 169.773028 
L 1046.602263 198.617006 
L 1053.824494 183.837901 
L 1061.046725 191.974646 
L 1068.268956 158.065198 
L 1075.491187 174.625042 
L 1082.713418 176.248764 
L 1089.935649 180.106406 
" clip-path="url(#pd921b045ff)" style="fill: none; stroke: #7b5ea8; stroke-opacity: 0.16; stroke-width: 0.8; stroke-linecap: square"/>
   </g>
   <g id="line2d_84">
    <path d="M 808.268636 212.131495 
L 815.490867 182.668403 
L 822.713099 191.684607 
L 829.93533 193.22088 
L 837.157561 183.909324 
L 844.379792 186.081652 
L 851.602023 193.900233 
L 858.824254 185.50271 
L 866.046485 195.625358 
L 873.268716 183.982971 
L 880.490947 188.848412 
L 887.713178 187.081272 
L 894.93541 189.724243 
L 902.157641 181.96754 
L 909.379872 176.105981 
L 916.602103 202.872274 
L 923.824334 193.303557 
L 931.046565 184.974916 
L 938.268796 180.917136 
L 945.491027 182.797626 
L 952.713258 199.537737 
L 959.93549 189.581333 
L 967.157721 192.264291 
L 974.379952 170.708189 
L 981.602183 183.494714 
L 988.824414 192.825993 
L 996.046645 185.909092 
L 1003.268876 189.119026 
L 1010.491107 183.503902 
L 1017.713338 178.413358 
L 1024.935569 170.133283 
L 1032.157801 177.862458 
L 1039.380032 176.925289 
L 1046.602263 187.206072 
L 1053.824494 171.292297 
L 1061.046725 186.092511 
L 1068.268956 165.919745 
L 1075.491187 170.67873 
L 1082.713418 178.187548 
L 1089.935649 172.483756 
" clip-path="url(#pd921b045ff)" style="fill: none; stroke: #be7c1e; stroke-opacity: 0.16; stroke-width: 0.8; stroke-linecap: square"/>
   </g>
   <g id="line2d_85">
    <path d="M 808.268636 212.049078 
L 815.490867 182.75134 
L 822.713099 187.2413 
L 829.93533 198.884576 
L 837.157561 189.847289 
L 844.379792 192.901509 
L 851.602023 193.527447 
L 858.824254 193.282409 
L 866.046485 192.359455 
L 873.268716 195.940681 
L 880.490947 186.190832 
L 887.713178 178.527533 
L 894.93541 188.504272 
L 902.157641 172.110728 
L 909.379872 179.434913 
L 916.602103 193.163417 
L 923.824334 184.638235 
L 931.046565 186.712667 
L 938.268796 173.665454 
L 945.491027 186.002514 
L 952.713258 195.325361 
L 959.93549 195.135054 
L 967.157721 184.979446 
L 974.379952 167.302661 
L 981.602183 179.66817 
L 988.824414 173.320424 
L 996.046645 178.182122 
L 1003.268876 189.11888 
L 1010.491107 180.003185 
L 1017.713338 173.936138 
L 1024.935569 169.887953 
L 1032.157801 177.518966 
L 1039.380032 183.418614 
L 1046.602263 181.351763 
L 1053.824494 166.109182 
L 1061.046725 177.726322 
L 1068.268956 152.879732 
L 1075.491187 172.984862 
L 1082.713418 168.834778 
L 1089.935649 175.027922 
" clip-path="url(#pd921b045ff)" style="fill: none; stroke: #3e8c82; stroke-opacity: 0.16; stroke-width: 0.8; stroke-linecap: square"/>
   </g>
   <g id="patch_9">
    <path d="M 794.185286 252.443272 
L 794.185286 22.783594 
" style="fill: none; stroke: #444444; stroke-linejoin: miter; stroke-linecap: square"/>
   </g>
   <g id="patch_10">
    <path d="M 794.185286 252.443272 
L 1104.019 252.443272 
" style="fill: none; stroke: #444444; stroke-linejoin: miter; stroke-linecap: square"/>
   </g>
   <g id="line2d_86">
    <path d="M 808.268636 242.004196 
L 815.490867 236.108802 
L 822.713099 231.838806 
L 829.93533 230.493571 
L 837.157561 226.054402 
L 844.379792 218.089577 
L 851.602023 214.296978 
L 858.824254 211.159498 
L 866.046485 205.38031 
L 873.268716 196.548227 
L 880.490947 187.533349 
L 887.713178 179.358399 
L 894.93541 171.289013 
L 902.157641 166.903745 
L 909.379872 166.609009 
L 916.602103 168.751644 
L 923.824334 164.990224 
L 931.046565 149.91549 
L 938.268796 147.49654 
L 945.491027 146.957004 
L 952.713258 145.259748 
L 959.93549 125.093074 
L 967.157721 129.998533 
L 974.379952 129.882041 
L 981.602183 127.40502 
L 988.824414 127.593741 
L 996.046645 119.843495 
L 1003.268876 116.776041 
L 1010.491107 107.389741 
L 1017.713338 109.555132 
L 1024.935569 99.416369 
L 1032.157801 103.479705 
L 1039.380032 100.198551 
L 1046.602263 99.082134 
L 1053.824494 87.248051 
L 1061.046725 86.457879 
L 1068.268956 86.336345 
L 1075.491187 94.565908 
L 1082.713418 97.847855 
L 1089.935649 107.312791 
" clip-path="url(#pd921b045ff)" style="fill: none; stroke: #b23b7e; stroke-width: 2; stroke-linecap: square"/>
   </g>
   <g id="line2d_87">
    <path d="M 808.268636 213.748297 
L 815.490867 207.003356 
L 822.713099 202.910066 
L 829.93533 203.176354 
L 837.157561 200.842121 
L 844.379792 199.680633 
L 851.602023 200.164109 
L 858.824254 197.234144 
L 866.046485 195.232864 
L 873.268716 194.394328 
L 880.490947 193.269954 
L 887.713178 190.933257 
L 894.93541 191.364581 
L 902.157641 189.202886 
L 909.379872 187.486425 
L 916.602103 190.720875 
L 923.824334 189.440496 
L 931.046565 186.642105 
L 938.268796 186.496197 
L 945.491027 186.340534 
L 952.713258 187.472849 
L 959.93549 188.119947 
L 967.157721 189.906434 
L 974.379952 188.576357 
L 981.602183 188.046721 
L 988.824414 186.826503 
L 996.046645 183.403754 
L 1003.268876 186.512099 
L 1010.491107 185.384818 
L 1017.713338 184.881239 
L 1024.935569 183.367614 
L 1032.157801 182.907207 
L 1039.380032 180.543055 
L 1046.602263 183.796366 
L 1053.824494 183.803842 
L 1061.046725 185.274587 
L 1068.268956 180.376897 
L 1075.491187 179.341563 
L 1082.713418 178.784859 
L 1089.935649 179.022738 
" clip-path="url(#pd921b045ff)" style="fill: none; stroke: #7b5ea8; stroke-width: 2; stroke-linecap: square"/>
   </g>
   <g id="line2d_88">
    <path d="M 808.268636 212.131495 
L 815.490867 206.828138 
L 822.713099 204.102302 
L 829.93533 202.143646 
L 837.157561 198.861468 
L 844.379792 196.561101 
L 851.602023 196.082145 
L 858.824254 194.177847 
L 866.046485 194.438399 
L 873.268716 192.556422 
L 880.490947 191.88898 
L 887.713178 191.023593 
L 894.93541 190.78971 
L 902.157641 189.201719 
L 909.379872 186.844486 
L 916.602103 189.729488 
L 923.824334 190.37282 
L 931.046565 189.401197 
L 938.268796 187.874066 
L 945.491027 186.960307 
L 952.713258 189.224244 
L 959.93549 189.28852 
L 967.157721 189.824159 
L 974.379952 186.383285 
L 981.602183 185.863342 
L 988.824414 187.116619 
L 996.046645 186.899264 
L 1003.268876 187.298821 
L 1010.491107 186.615736 
L 1017.713338 185.139308 
L 1024.935569 182.438223 
L 1032.157801 181.614586 
L 1039.380032 180.770512 
L 1046.602263 181.928913 
L 1053.824494 180.014322 
L 1061.046725 181.108396 
L 1068.268956 178.374439 
L 1075.491187 176.989211 
L 1082.713418 177.204912 
L 1089.935649 176.355104 
" clip-path="url(#pd921b045ff)" style="fill: none; stroke: #be7c1e; stroke-width: 2; stroke-linecap: square"/>
   </g>
   <g id="line2d_89">
    <path d="M 808.268636 212.049078 
L 815.490867 206.775485 
L 822.713099 203.259332 
L 829.93533 202.471876 
L 837.157561 200.19945 
L 844.379792 198.885821 
L 851.602023 197.921314 
L 858.824254 197.086311 
L 866.046485 196.235477 
L 873.268716 196.182413 
L 880.490947 194.383929 
L 887.713178 191.529778 
L 894.93541 190.985187 
L 902.157641 187.587784 
L 909.379872 186.120267 
L 916.602103 187.388034 
L 923.824334 186.89307 
L 931.046565 186.860598 
L 938.268796 184.485472 
L 945.491027 184.75854 
L 952.713258 186.660567 
L 959.93549 188.185975 
L 967.157721 187.6088 
L 974.379952 183.953695 
L 981.602183 183.1823 
L 988.824414 181.407163 
L 996.046645 180.826655 
L 1003.268876 182.319256 
L 1010.491107 181.902363 
L 1017.713338 180.468443 
L 1024.935569 178.563954 
L 1032.157801 178.375857 
L 1039.380032 179.283553 
L 1046.602263 179.655831 
L 1053.824494 177.217434 
L 1061.046725 177.309034 
L 1068.268956 172.911759 
L 1075.491187 172.924918 
L 1082.713418 172.188693 
L 1089.935649 172.699754 
" clip-path="url(#pd921b045ff)" style="fill: none; stroke: #3e8c82; stroke-width: 2; stroke-linecap: square"/>
   </g>
   <g id="text_55">
    <!-- (c)  KL divergence -->
    <g transform="translate(892.872065 13.783594) scale(0.13 -0.13)">
     <defs>
      <path id="Arial-BoldMT-63" d="M 3353 2338 
L 2488 2181 
Q 2444 2441 2289 2572 
Q 2134 2703 1888 2703 
Q 1559 2703 1364 2476 
Q 1169 2250 1169 1719 
Q 1169 1128 1367 884 
Q 1566 641 1900 641 
Q 2150 641 2309 783 
Q 2469 925 2534 1272 
L 3397 1125 
Q 3263 531 2881 228 
Q 2500 -75 1859 -75 
Q 1131 -75 698 384 
Q 266 844 266 1656 
Q 266 2478 700 2936 
Q 1134 3394 1875 3394 
Q 2481 3394 2839 3133 
Q 3197 2872 3353 2338 
z
" transform="scale(0.015625)"/>
      <path id="Arial-BoldMT-4b" d="M 478 0 
L 478 4581 
L 1403 4581 
L 1403 2547 
L 3272 4581 
L 4516 4581 
L 2791 2797 
L 4609 0 
L 3413 0 
L 2153 2150 
L 1403 1384 
L 1403 0 
L 478 0 
z
" transform="scale(0.015625)"/>
      <path id="Arial-BoldMT-4c" d="M 491 0 
L 491 4544 
L 1416 4544 
L 1416 772 
L 3716 772 
L 3716 0 
L 491 0 
z
" transform="scale(0.015625)"/>
      <path id="Arial-BoldMT-76" d="M 1372 0 
L 34 3319 
L 956 3319 
L 1581 1625 
L 1763 1059 
Q 1834 1275 1853 1344 
Q 1897 1484 1947 1625 
L 2578 3319 
L 3481 3319 
L 2163 0 
L 1372 0 
z
" transform="scale(0.015625)"/>
     </defs>
     <use xlink:href="#Arial-BoldMT-28"/>
     <use xlink:href="#Arial-BoldMT-63" transform="translate(33.300781 0)"/>
     <use xlink:href="#Arial-BoldMT-29" transform="translate(88.916016 0)"/>
     <use xlink:href="#Arial-BoldMT-20" transform="translate(122.216797 0)"/>
     <use xlink:href="#Arial-BoldMT-20" transform="translate(150 0)"/>
     <use xlink:href="#Arial-BoldMT-4b" transform="translate(177.783203 0)"/>
     <use xlink:href="#Arial-BoldMT-4c" transform="translate(250 0)"/>
     <use xlink:href="#Arial-BoldMT-20" transform="translate(309.333984 0)"/>
     <use xlink:href="#Arial-BoldMT-64" transform="translate(337.117188 0)"/>
     <use xlink:href="#Arial-BoldMT-69" transform="translate(398.201172 0)"/>
     <use xlink:href="#Arial-BoldMT-76" transform="translate(425.984375 0)"/>
     <use xlink:href="#Arial-BoldMT-65" transform="translate(481.599609 0)"/>
     <use xlink:href="#Arial-BoldMT-72" transform="translate(537.214844 0)"/>
     <use xlink:href="#Arial-BoldMT-67" transform="translate(576.130859 0)"/>
     <use xlink:href="#Arial-BoldMT-65" transform="translate(637.214844 0)"/>
     <use xlink:href="#Arial-BoldMT-6e" transform="translate(692.830078 0)"/>
     <use xlink:href="#Arial-BoldMT-63" transform="translate(753.914062 0)"/>
     <use xlink:href="#Arial-BoldMT-65" transform="translate(809.529297 0)"/>
    </g>
   </g>
  </g>
  <g id="legend_1">
   <g id="patch_11">
    <path d="M 350.018937 318.342451 
L 758.147062 318.342451 
Q 760.147062 318.342451 760.147062 316.342451 
L 760.147062 302.197138 
Q 760.147062 300.197138 758.147062 300.197138 
L 350.018937 300.197138 
Q 348.018937 300.197138 348.018937 302.197138 
L 348.018937 316.342451 
Q 348.018937 318.342451 350.018937 318.342451 
z
" style="fill: #ffffff; opacity: 0.95; stroke: #c9c9c9; stroke-width: 1.2; stroke-linejoin: miter"/>
   </g>
   <g id="line2d_90">
    <path d="M 352.518937 308.354951 
L 362.518937 308.354951 
L 372.518937 308.354951 
" style="fill: none; stroke: #b23b7e; stroke-width: 2; stroke-linecap: square"/>
   </g>
   <g id="text_56">
    <!-- GRPO -->
    <g transform="translate(380.518937 311.854951) scale(0.1 -0.1)">
     <defs>
      <path id="ArialMT-47" d="M 2638 1797 
L 2638 2334 
L 4578 2338 
L 4578 638 
Q 4131 281 3656 101 
Q 3181 -78 2681 -78 
Q 2006 -78 1454 211 
Q 903 500 622 1047 
Q 341 1594 341 2269 
Q 341 2938 620 3517 
Q 900 4097 1425 4378 
Q 1950 4659 2634 4659 
Q 3131 4659 3532 4498 
Q 3934 4338 4162 4050 
Q 4391 3763 4509 3300 
L 3963 3150 
Q 3859 3500 3706 3700 
Q 3553 3900 3268 4020 
Q 2984 4141 2638 4141 
Q 2222 4141 1919 4014 
Q 1616 3888 1430 3681 
Q 1244 3475 1141 3228 
Q 966 2803 966 2306 
Q 966 1694 1177 1281 
Q 1388 869 1791 669 
Q 2194 469 2647 469 
Q 3041 469 3416 620 
Q 3791 772 3984 944 
L 3984 1797 
L 2638 1797 
z
" transform="scale(0.015625)"/>
      <path id="ArialMT-52" d="M 503 0 
L 503 4581 
L 2534 4581 
Q 3147 4581 3465 4457 
Q 3784 4334 3975 4021 
Q 4166 3709 4166 3331 
Q 4166 2844 3850 2509 
Q 3534 2175 2875 2084 
Q 3116 1969 3241 1856 
Q 3506 1613 3744 1247 
L 4541 0 
L 3778 0 
L 3172 953 
Q 2906 1366 2734 1584 
Q 2563 1803 2427 1890 
Q 2291 1978 2150 2013 
Q 2047 2034 1813 2034 
L 1109 2034 
L 1109 0 
L 503 0 
z
M 1109 2559 
L 2413 2559 
Q 2828 2559 3062 2645 
Q 3297 2731 3419 2920 
Q 3541 3109 3541 3331 
Q 3541 3656 3305 3865 
Q 3069 4075 2559 4075 
L 1109 4075 
L 1109 2559 
z
" transform="scale(0.015625)"/>
      <path id="ArialMT-50" d="M 494 0 
L 494 4581 
L 2222 4581 
Q 2678 4581 2919 4538 
Q 3256 4481 3484 4323 
Q 3713 4166 3852 3881 
Q 3991 3597 3991 3256 
Q 3991 2672 3619 2267 
Q 3247 1863 2275 1863 
L 1100 1863 
L 1100 0 
L 494 0 
z
M 1100 2403 
L 2284 2403 
Q 2872 2403 3119 2622 
Q 3366 2841 3366 3238 
Q 3366 3525 3220 3729 
Q 3075 3934 2838 4000 
Q 2684 4041 2272 4041 
L 1100 4041 
L 1100 2403 
z
" transform="scale(0.015625)"/>
      <path id="ArialMT-4f" d="M 309 2231 
Q 309 3372 921 4017 
Q 1534 4663 2503 4663 
Q 3138 4663 3647 4359 
Q 4156 4056 4423 3514 
Q 4691 2972 4691 2284 
Q 4691 1588 4409 1038 
Q 4128 488 3612 205 
Q 3097 -78 2500 -78 
Q 1853 -78 1343 234 
Q 834 547 571 1087 
Q 309 1628 309 2231 
z
M 934 2222 
Q 934 1394 1379 917 
Q 1825 441 2497 441 
Q 3181 441 3623 922 
Q 4066 1403 4066 2288 
Q 4066 2847 3877 3264 
Q 3688 3681 3323 3911 
Q 2959 4141 2506 4141 
Q 1863 4141 1398 3698 
Q 934 3256 934 2222 
z
" transform="scale(0.015625)"/>
     </defs>
     <use xlink:href="#ArialMT-47"/>
     <use xlink:href="#ArialMT-52" transform="translate(77.783203 0)"/>
     <use xlink:href="#ArialMT-50" transform="translate(150 0)"/>
     <use xlink:href="#ArialMT-4f" transform="translate(216.699219 0)"/>
    </g>
   </g>
   <g id="line2d_91">
    <path d="M 429.967375 308.354951 
L 439.967375 308.354951 
L 449.967375 308.354951 
" style="fill: none; stroke: #7b5ea8; stroke-width: 2; stroke-linecap: square"/>
   </g>
   <g id="text_57">
    <!-- SFT-GRPO-R1 -->
    <g transform="translate(457.967375 311.854951) scale(0.1 -0.1)">
     <defs>
      <path id="ArialMT-53" d="M 288 1472 
L 859 1522 
Q 900 1178 1048 958 
Q 1197 738 1509 602 
Q 1822 466 2213 466 
Q 2559 466 2825 569 
Q 3091 672 3220 851 
Q 3350 1031 3350 1244 
Q 3350 1459 3225 1620 
Q 3100 1781 2813 1891 
Q 2628 1963 1997 2114 
Q 1366 2266 1113 2400 
Q 784 2572 623 2826 
Q 463 3081 463 3397 
Q 463 3744 659 4045 
Q 856 4347 1234 4503 
Q 1613 4659 2075 4659 
Q 2584 4659 2973 4495 
Q 3363 4331 3572 4012 
Q 3781 3694 3797 3291 
L 3216 3247 
Q 3169 3681 2898 3903 
Q 2628 4125 2100 4125 
Q 1550 4125 1298 3923 
Q 1047 3722 1047 3438 
Q 1047 3191 1225 3031 
Q 1400 2872 2139 2705 
Q 2878 2538 3153 2413 
Q 3553 2228 3743 1945 
Q 3934 1663 3934 1294 
Q 3934 928 3725 604 
Q 3516 281 3123 101 
Q 2731 -78 2241 -78 
Q 1619 -78 1198 103 
Q 778 284 539 648 
Q 300 1013 288 1472 
z
" transform="scale(0.015625)"/>
      <path id="ArialMT-46" d="M 525 0 
L 525 4581 
L 3616 4581 
L 3616 4041 
L 1131 4041 
L 1131 2622 
L 3281 2622 
L 3281 2081 
L 1131 2081 
L 1131 0 
L 525 0 
z
" transform="scale(0.015625)"/>
      <path id="ArialMT-54" d="M 1659 0 
L 1659 4041 
L 150 4041 
L 150 4581 
L 3781 4581 
L 3781 4041 
L 2266 4041 
L 2266 0 
L 1659 0 
z
" transform="scale(0.015625)"/>
      <path id="ArialMT-2d" d="M 203 1375 
L 203 1941 
L 1931 1941 
L 1931 1375 
L 203 1375 
z
" transform="scale(0.015625)"/>
     </defs>
     <use xlink:href="#ArialMT-53"/>
     <use xlink:href="#ArialMT-46" transform="translate(66.699219 0)"/>
     <use xlink:href="#ArialMT-54" transform="translate(127.783203 0)"/>
     <use xlink:href="#ArialMT-2d" transform="translate(183.367188 0)"/>
     <use xlink:href="#ArialMT-47" transform="translate(216.667969 0)"/>
     <use xlink:href="#ArialMT-52" transform="translate(294.451172 0)"/>
     <use xlink:href="#ArialMT-50" transform="translate(366.667969 0)"/>
     <use xlink:href="#ArialMT-4f" transform="translate(433.367188 0)"/>
     <use xlink:href="#ArialMT-2d" transform="translate(511.150391 0)"/>
     <use xlink:href="#ArialMT-52" transform="translate(544.451172 0)"/>
     <use xlink:href="#ArialMT-31" transform="translate(616.667969 0)"/>
    </g>
   </g>
   <g id="line2d_92">
    <path d="M 545.193937 308.354951 
L 555.193937 308.354951 
L 565.193937 308.354951 
" style="fill: none; stroke: #be7c1e; stroke-width: 2; stroke-linecap: square"/>
   </g>
   <g id="text_58">
    <!-- SFT-GRPO-R2 -->
    <g transform="translate(573.193937 311.854951) scale(0.1 -0.1)">
     <use xlink:href="#ArialMT-53"/>
     <use xlink:href="#ArialMT-46" transform="translate(66.699219 0)"/>
     <use xlink:href="#ArialMT-54" transform="translate(127.783203 0)"/>
     <use xlink:href="#ArialMT-2d" transform="translate(183.367188 0)"/>
     <use xlink:href="#ArialMT-47" transform="translate(216.667969 0)"/>
     <use xlink:href="#ArialMT-52" transform="translate(294.451172 0)"/>
     <use xlink:href="#ArialMT-50" transform="translate(366.667969 0)"/>
     <use xlink:href="#ArialMT-4f" transform="translate(433.367188 0)"/>
     <use xlink:href="#ArialMT-2d" transform="translate(511.150391 0)"/>
     <use xlink:href="#ArialMT-52" transform="translate(544.451172 0)"/>
     <use xlink:href="#ArialMT-32" transform="translate(616.667969 0)"/>
    </g>
   </g>
   <g id="line2d_93">
    <path d="M 660.4205 308.354951 
L 670.4205 308.354951 
L 680.4205 308.354951 
" style="fill: none; stroke: #3e8c82; stroke-width: 2; stroke-linecap: square"/>
   </g>
   <g id="text_59">
    <!-- SFT-GRPO-R3 -->
    <g transform="translate(688.4205 311.854951) scale(0.1 -0.1)">
     <defs>
      <path id="ArialMT-33" d="M 269 1209 
L 831 1284 
Q 928 806 1161 595 
Q 1394 384 1728 384 
Q 2125 384 2398 659 
Q 2672 934 2672 1341 
Q 2672 1728 2419 1979 
Q 2166 2231 1775 2231 
Q 1616 2231 1378 2169 
L 1441 2663 
Q 1497 2656 1531 2656 
Q 1891 2656 2178 2843 
Q 2466 3031 2466 3422 
Q 2466 3731 2256 3934 
Q 2047 4138 1716 4138 
Q 1388 4138 1169 3931 
Q 950 3725 888 3313 
L 325 3413 
Q 428 3978 793 4289 
Q 1159 4600 1703 4600 
Q 2078 4600 2393 4439 
Q 2709 4278 2876 4000 
Q 3044 3722 3044 3409 
Q 3044 3113 2884 2869 
Q 2725 2625 2413 2481 
Q 2819 2388 3044 2092 
Q 3269 1797 3269 1353 
Q 3269 753 2831 336 
Q 2394 -81 1725 -81 
Q 1122 -81 723 278 
Q 325 638 269 1209 
z
" transform="scale(0.015625)"/>
     </defs>
     <use xlink:href="#ArialMT-53"/>
     <use xlink:href="#ArialMT-46" transform="translate(66.699219 0)"/>
     <use xlink:href="#ArialMT-54" transform="translate(127.783203 0)"/>
     <use xlink:href="#ArialMT-2d" transform="translate(183.367188 0)"/>
     <use xlink:href="#ArialMT-47" transform="translate(216.667969 0)"/>
     <use xlink:href="#ArialMT-52" transform="translate(294.451172 0)"/>
     <use xlink:href="#ArialMT-50" transform="translate(366.667969 0)"/>
     <use xlink:href="#ArialMT-4f" transform="translate(433.367188 0)"/>
     <use xlink:href="#ArialMT-2d" transform="translate(511.150391 0)"/>
     <use xlink:href="#ArialMT-52" transform="translate(544.451172 0)"/>
     <use xlink:href="#ArialMT-33" transform="translate(616.667969 0)"/>
    </g>
   </g>
  </g>
 </g>
 <defs>
  <clipPath id="p36c94e9020">
   <rect x="42.147" y="22.783594" width="309.833714" height="229.659679"/>
  </clipPath>
  <clipPath id="pb7d73ef7a4">
   <rect x="418.166143" y="22.783594" width="309.833714" height="229.659679"/>
  </clipPath>
  <clipPath id="pd921b045ff">
   <rect x="794.185286" y="22.783594" width="309.833714" height="229.659679"/>
  </clipPath>
 </defs>
</svg>
